<svg xmlns="http://www.w3.org/2000/svg" width="196.03" height="75" viewBox="0 0 196.03 75"><defs><style>.cls-1{fill:#231815;}</style></defs><title>active_logo</title><g id="レイヤー_2" data-name="レイヤー 2"><g id="デザイン"><path class="cls-1" d="M0,56.28A18.29,18.29,0,0,1,6.06,42.17,18.83,18.83,0,0,1,19.18,37q9.63,0,14.07,8V38h4.68V74.21l-4.68,0V67.29a13.71,13.71,0,0,1-6.16,5.8A18.22,18.22,0,0,1,18.79,75a18.21,18.21,0,0,1-13.4-5.36A18.08,18.08,0,0,1,0,56.28Zm4.94-1.09A15.48,15.48,0,0,0,8.77,65.71a12.68,12.68,0,0,0,10,4.54A14.24,14.24,0,0,0,29,66.18a13.1,13.1,0,0,0,4.3-9.9,14.22,14.22,0,0,0-4-10.2,13,13,0,0,0-9.84-4.17A14.13,14.13,0,0,0,9,46.36Q4.94,50.49,4.94,55.19Z"/><path class="cls-1" d="M44.85,56a18.29,18.29,0,0,1,5.87-14,17.75,17.75,0,0,1,12.49-5,21.71,21.71,0,0,1,10.68,2.64,17.46,17.46,0,0,1,8,9.19H76.4q-4.12-6.95-13.19-7a12.67,12.67,0,0,0-9.92,4.38A14.21,14.21,0,0,0,49.67,56a13.85,13.85,0,0,0,4,10.11,13.51,13.51,0,0,0,10.05,4.12q8.45,0,12.76-6.69h5.4a21.28,21.28,0,0,1-7.46,8.57,19.85,19.85,0,0,1-23.75-2.4,17.64,17.64,0,0,1-6-13.52Z"/><path class="cls-1" d="M92.64,74.18V42.44H85.16V38h7.48V25.23h4.88V38h8.31v4.45H97.52V74.18Z"/><path class="cls-1" d="M110.74,33.64V25.23h4.88v8.41Zm0,40.54V38h4.88V74.18Z"/><path class="cls-1" d="M135.26,74.18,120.2,38h5.21l12.44,30,12.42-30h5.26L140.27,74.18Z"/><path class="cls-1" d="M158.82,55.88a18.57,18.57,0,0,1,31.12-14Q196,47.47,196,56.81v1H163.64a11.23,11.23,0,0,0,4.71,9.42,14.25,14.25,0,0,0,8.83,3,14.82,14.82,0,0,0,7.58-2.2A11.14,11.14,0,0,0,190,62.28h5A18.83,18.83,0,0,1,187.17,72a19.07,19.07,0,0,1-10.25,3,17,17,0,0,1-13-5.67A19.15,19.15,0,0,1,158.82,55.88Zm32.47-2.5a14.11,14.11,0,0,0-4.88-8.27,13.42,13.42,0,0,0-8.93-3.33,13.09,13.09,0,0,0-10.61,4.91,12.81,12.81,0,0,0-3.23,6.69Z"/><path class="cls-1" d="M39.83,15.25V.25h3.89c3.94,0,5.92,1.42,5.94,4.24,0,.07,0,.15,0,.25a1.77,1.77,0,0,1,0,.19A3.76,3.76,0,0,1,48.1,8.14a5.81,5.81,0,0,1-3.55,1H41.32v6.06ZM41.32,1.59V7.85h3.06q3.79,0,3.79-3.36,0-2.9-4.26-2.9Z"/><path class="cls-1" d="M51.46,15.25V4.12h1.38V5.78a3.29,3.29,0,0,1,3.22-1.91V5.4A3.07,3.07,0,0,0,54,6.23a2.78,2.78,0,0,0-1,2.17v6.85Z"/><path class="cls-1" d="M57.48,2.83V.25H59V2.83Zm0,12.42V4.16H59V15.25Z"/><path class="cls-1" d="M65,15.25,60.38,4.16H62l3.81,9.19L69.6,4.16h1.61L66.53,15.25Z"/><path class="cls-1" d="M72.19,9.77a5.62,5.62,0,0,1,1.86-4.33,5.74,5.74,0,0,1,4-1.57,4.59,4.59,0,0,1,4.31,2.44V4.16h1.43v11.1H82.38V13.14a4.24,4.24,0,0,1-1.89,1.78,5.7,5.7,0,0,1-8.3-5.15Zm1.51-.34a4.76,4.76,0,0,0,1.17,3.23,3.9,3.9,0,0,0,3.07,1.39,4.4,4.4,0,0,0,3.12-1.25,4,4,0,0,0,1.32-3,4.38,4.38,0,0,0-1.22-3.13,4,4,0,0,0-3-1.28A4.33,4.33,0,0,0,75,6.73,3.81,3.81,0,0,0,73.7,9.43Z"/><path class="cls-1" d="M87.61,15.25V5.53H85.32V4.16h2.29V.25h1.5V4.16h2.54V5.53H89.11v9.72Z"/><path class="cls-1" d="M92.76,9.65a5.55,5.55,0,0,1,1.8-4.27,5.5,5.5,0,0,1,3.87-1.51,5.57,5.57,0,0,1,3.87,1.49,5.91,5.91,0,0,1,1.87,4.57v.3H94.24a3.45,3.45,0,0,0,1.44,2.89,4.36,4.36,0,0,0,2.71.93,4.56,4.56,0,0,0,2.32-.68,3.39,3.39,0,0,0,1.61-1.76h1.53a5.8,5.8,0,0,1-2.4,3,5.87,5.87,0,0,1-3.14.91,5.17,5.17,0,0,1-4-1.73A5.89,5.89,0,0,1,92.76,9.65Zm9.95-.77a4.3,4.3,0,0,0-1.49-2.54,4.14,4.14,0,0,0-2.74-1,4,4,0,0,0-3.25,1.51,3.84,3.84,0,0,0-1,2.05Z"/><path class="cls-1" d="M111.43,7.76A7.34,7.34,0,0,1,113.91,2a7.6,7.6,0,0,1,5.23-2,8.45,8.45,0,0,1,4.16,1,6.77,6.77,0,0,1,3,3.2h-1.71a5.2,5.2,0,0,0-2.23-2.1,7,7,0,0,0-3.18-.72,6,6,0,0,0-4.64,2,6.23,6.23,0,0,0-1.68,4.3A5.91,5.91,0,0,0,115,12.39a6.25,6.25,0,0,0,4.21,1.7,7.13,7.13,0,0,0,3.48-.95,5.33,5.33,0,0,0,2.76-3.45h-8.28V8.32h10.07a7.9,7.9,0,0,1-2.86,5.44,7.92,7.92,0,0,1-5.13,1.73,7.63,7.63,0,0,1-5.46-2.25A7.33,7.33,0,0,1,111.43,7.76Z"/><path class="cls-1" d="M132.38,14.88,128.2,4.16h1.55L133.3,13,137,4.16h1.56l-6.34,15h-1.58Z"/><path class="cls-1" d="M140,4.16h1.4V5.65a2.94,2.94,0,0,1,1.23-1.29,3.36,3.36,0,0,1,1.71-.45A4.2,4.2,0,0,1,148.19,6a4.23,4.23,0,0,1,1.5-1.5,3.89,3.89,0,0,1,2-.57,4.61,4.61,0,0,1,3.22,1.23,4.14,4.14,0,0,1,1.37,3.14v6.93h-1.45V8.57A3.16,3.16,0,0,0,154,6.28a3,3,0,0,0-2.24-.88,2.74,2.74,0,0,0-2,.78,2.69,2.69,0,0,0-.79,2v7.06h-1.53V8.44a2.92,2.92,0,0,0-.9-2.21,3.13,3.13,0,0,0-2.24-.83,2.71,2.71,0,0,0-1.93.73,3,3,0,0,0-.84,2.27v6.85H140Z"/></g></g></svg>