<svg xmlns="http://www.w3.org/2000/svg" width="95.04" height="75" viewBox="0 0 95.04 75"><defs><style>.cls-1{fill:#171c20;}.cls-2{fill:#231815;}</style></defs><title>housing_logo</title><g id="レイヤー_2" data-name="レイヤー 2"><g id="デザイン"><polygon class="cls-1" points="32.5 49.6 0 49.6 0 18.81 29.34 0 58.93 18.8 58.93 49.26 52.85 49.26 52.85 22.14 29.36 7.2 6.07 22.13 6.07 43.52 26.43 43.52 26.43 18.45 32.5 18.45 32.5 49.6"/><rect class="cls-1" x="14.1" y="26.88" width="17.54" height="6.07"/><rect class="cls-1" x="11.06" y="18.9" width="6.07" height="22.72"/><path class="cls-1" d="M83.45,49.6H35.84V18.81L65.19,0,94.77,18.8V49.26H88.7V22.14L83.45,18.8ZM41.92,43.52H77.38V18.45h5.51L65.2,7.2,41.92,22.13Z"/><rect class="cls-1" x="70.18" y="18.32" width="6.07" height="26.23" transform="translate(-5.24 45.33) rotate(-33.28)"/><rect class="cls-1" x="62.65" y="18.9" width="6.07" height="22.72"/><path class="cls-2" d="M8.9,52V66.75H5.07V60.56H3.92v6.19H.09V52H3.92v5.27H5.07V52Z"/><path class="cls-2" d="M19.19,60.64c0,1.49,0,2.53-.1,3.15a3.53,3.53,0,0,1-.66,1.69,3.43,3.43,0,0,1-1.49,1.17,5.43,5.43,0,0,1-2.18.41,5.54,5.54,0,0,1-2.13-.39,3.54,3.54,0,0,1-2.19-2.84,29.15,29.15,0,0,1-.11-3.19V58.12c0-1.48,0-2.53.1-3.14a3.49,3.49,0,0,1,.66-1.69,3.43,3.43,0,0,1,1.49-1.17,5.27,5.27,0,0,1,2.18-.41,5.73,5.73,0,0,1,2.13.38,3.57,3.57,0,0,1,1.51,1.16,3.5,3.5,0,0,1,.68,1.69,28.93,28.93,0,0,1,.11,3.18ZM15.36,55.8a4.83,4.83,0,0,0-.11-1.31.46.46,0,0,0-.47-.29.54.54,0,0,0-.46.23,3.23,3.23,0,0,0-.16,1.37v6.88a6.91,6.91,0,0,0,.1,1.59.46.46,0,0,0,.49.3.47.47,0,0,0,.5-.35,7.46,7.46,0,0,0,.11-1.65Z"/><path class="cls-2" d="M29.33,52v9.84a16.11,16.11,0,0,1-.11,2.36,3.42,3.42,0,0,1-2.06,2.47,5.21,5.21,0,0,1-2.07.37,5.67,5.67,0,0,1-2.33-.44,3.54,3.54,0,0,1-1.51-1.13A3.19,3.19,0,0,1,20.66,64q-.09-.78-.09-3.27V52H24.4v11a4.41,4.41,0,0,0,.1,1.23.41.41,0,0,0,.43.27.45.45,0,0,0,.47-.3,6.16,6.16,0,0,0,.1-1.4V52Z"/><path class="cls-2" d="M38.93,56.48H35.38v-1.1a2.12,2.12,0,0,0-.14-1,.5.5,0,0,0-.46-.21.57.57,0,0,0-.52.28,1.64,1.64,0,0,0-.18.86,2.47,2.47,0,0,0,.2,1.11,2.89,2.89,0,0,0,1.09.9,10.89,10.89,0,0,1,3.22,2.49A5.76,5.76,0,0,1,39.25,63a5.41,5.41,0,0,1-.37,2.32,2.88,2.88,0,0,1-1.42,1.26,5.71,5.71,0,0,1-2.46.5,5.45,5.45,0,0,1-2.62-.58A2.86,2.86,0,0,1,31,65a7.71,7.71,0,0,1-.33-2.55v-1h3.55v1.8a2.35,2.35,0,0,0,.15,1.06.59.59,0,0,0,.54.24.61.61,0,0,0,.56-.3,1.67,1.67,0,0,0,.19-.9,2.83,2.83,0,0,0-.35-1.7,11.77,11.77,0,0,0-1.8-1.33A18.25,18.25,0,0,1,31.57,59a3.27,3.27,0,0,1-.77-1.18,6.89,6.89,0,0,1,.13-4.41,2.87,2.87,0,0,1,1.4-1.22,5.48,5.48,0,0,1,2.33-.44,6.09,6.09,0,0,1,2.54.48,2.69,2.69,0,0,1,1.39,1.21,6.4,6.4,0,0,1,.34,2.49Z"/><path class="cls-2" d="M44.29,52V66.75H40.45V52Z"/><path class="cls-2" d="M54.38,52V66.75H51l-2-6.7v6.7H45.82V52H49l2.14,6.63V52Z"/><path class="cls-2" d="M64.71,57.44H60.88V56.1a6.74,6.74,0,0,0-.11-1.58.49.49,0,0,0-.52-.32.47.47,0,0,0-.48.27,4.33,4.33,0,0,0-.13,1.41V63a4,4,0,0,0,.13,1.3.49.49,0,0,0,.51.32.56.56,0,0,0,.57-.36A4.13,4.13,0,0,0,61,62.83V61.08h-.78V58.84h4.49v7.91H62.3l-.35-1a2.7,2.7,0,0,1-1,1,2.78,2.78,0,0,1-1.41.34,3.7,3.7,0,0,1-1.81-.47,3.45,3.45,0,0,1-1.28-1.16A3.61,3.61,0,0,1,55.92,64a16.28,16.28,0,0,1-.11-2.28V57.32A13.94,13.94,0,0,1,56,54.26a3.12,3.12,0,0,1,1.3-1.76,4.59,4.59,0,0,1,2.79-.79,5.26,5.26,0,0,1,2.8.69A3.24,3.24,0,0,1,64.37,54a8.57,8.57,0,0,1,.34,2.76Z"/><path class="cls-2" d="M78,52V66.75H74.68l-2-6.7v6.7h-3.2V52h3.2l2.15,6.63V52Z"/><path class="cls-2" d="M79.57,52H86V55H83.4v2.79h2.4v2.8H83.4V63.8h2.82v3H79.57Z"/><path class="cls-2" d="M95,52V55H92.76V66.75H88.93V55H86.66V52Z"/><path class="cls-2" d="M16.43,74.94h-1L14.22,72.7c-.28-.56-.6-1.23-.83-1.82h0c.05.67.07,1.43.07,2.4v1.66h-.95V69.52h1.13l1.14,2.2a17.65,17.65,0,0,1,.82,1.77h0c-.06-.69-.09-1.46-.09-2.34V69.52h.94Z"/><path class="cls-2" d="M24.56,69.52h1.05v5.42H24.56Z"/><path class="cls-2" d="M33.73,69.52h1v5.42h-1Z"/><path class="cls-2" d="M46.82,74.73a4.81,4.81,0,0,1-1.55.27,2.6,2.6,0,0,1-1.91-.66,2.9,2.9,0,0,1-.73-2.06,2.62,2.62,0,0,1,2.78-2.82,3.06,3.06,0,0,1,1.27.23l-.22.86a2.45,2.45,0,0,0-1-.2c-1,0-1.7.59-1.7,1.91s.67,1.89,1.57,1.89a1.45,1.45,0,0,0,.53-.08V72.74H45v-.82h1.78Z"/><path class="cls-2" d="M58.79,74.94h-1.1l-.39-1.43H55.85l-.37,1.43H54.42L56,69.52h1.31Zm-1.63-2.22-.33-1.23c-.08-.34-.18-.78-.24-1.11h0c-.07.34-.16.78-.24,1.1L56,72.72Z"/><path class="cls-2" d="M69.84,70.42H68.5v4.52h-1V70.42H66.12v-.9h3.72Z"/><path class="cls-2" d="M81.49,74.94h-1.1L80,73.51H78.55l-.37,1.43H77.12l1.54-5.42H80Zm-1.63-2.22-.33-1.23c-.08-.34-.17-.78-.24-1.11h0c-.08.34-.17.78-.25,1.1l-.32,1.24Z"/></g></g></svg>