<svg xmlns="http://www.w3.org/2000/svg" width="160" height="40" viewBox="0 0 160 40"><defs><style>.cls-1{fill:#80bbe4;}.cls-2{fill:#fff;}.cls-3{fill:none;stroke:#fff;stroke-miterlimit:10;}</style></defs><title>bn_mail</title><g id="レイヤー_2" data-name="レイヤー 2"><g id="デザイン"><rect class="cls-1" width="160" height="40"/><path class="cls-2" d="M49.24,24.2a6.44,6.44,0,0,0-.46.93A22.06,22.06,0,0,1,47,28.81a33.13,33.13,0,0,1,2.9,2.76L48.6,32.91A19.26,19.26,0,0,0,46,30.17a15.63,15.63,0,0,1-2,2.17,16.84,16.84,0,0,1-3.09,2.14,4,4,0,0,0-1.15-1.35,13.21,13.21,0,0,0,3.37-2.25,13.79,13.79,0,0,0,1.65-1.77,23.71,23.71,0,0,0-3.44-2.34l1.14-1.14A24,24,0,0,1,44.55,27c1,.7,1,.7,1.08.76a15.7,15.7,0,0,0,1.84-4.18Z"/><path class="cls-2" d="M52.64,28.11a12.6,12.6,0,0,0,2.11.09h6.93a12.53,12.53,0,0,0,2.1-.09v1.81a13.24,13.24,0,0,0-2.12-.07h-6.9a13.24,13.24,0,0,0-2.12.07Z"/><path class="cls-2" d="M69.51,23.92c-.05.37-.05.37-.13,2.92a12.11,12.11,0,0,1-1,5.34,8.07,8.07,0,0,1-1.79,2.4,4.76,4.76,0,0,0-1.32-1.26,5.34,5.34,0,0,0,1.34-1.49c.94-1.5,1.24-3.17,1.24-6.81a6.85,6.85,0,0,0,0-1.19ZM73,23.77A7.29,7.29,0,0,0,72.87,25l-.07,7.4a5.28,5.28,0,0,0,2-1.48,6.35,6.35,0,0,0,1.28-2.38,5.43,5.43,0,0,0,1.22,1.22,8,8,0,0,1-2.07,3,8.49,8.49,0,0,1-2.77,1.56l-.56.23-.83-.88a5.69,5.69,0,0,0,.12-1.38L71.24,25V24.6a5.61,5.61,0,0,0,0-.86Z"/><path class="cls-2" d="M78.68,24.93h.49c.24,0,.24,0,2.15-.13L88,24.47a7.27,7.27,0,0,0,1.34-.1L89.39,26l-.27,0a5.78,5.78,0,0,0-2.58.71,4.2,4.2,0,0,0-2.62,3.47,2.19,2.19,0,0,0,1.73,2.12,8.12,8.12,0,0,0,1.93.33h.26l-.23,1.77-.44-.08a7.62,7.62,0,0,1-3-.86,3.46,3.46,0,0,1-1.86-3.13,4.52,4.52,0,0,1,1.23-3.05A5.69,5.69,0,0,1,85.31,26c-1,.16-1.86.24-4.38.42a16.22,16.22,0,0,0-2.16.26Zm9,2.49A8.52,8.52,0,0,1,89,29.33l-.91.48a8.79,8.79,0,0,0-1.36-1.93Zm2,1.57a10,10,0,0,0-1.32-1.88l.87-.46a7.66,7.66,0,0,1,1.35,1.84Z"/><path class="cls-2" d="M96.88,31c-.74,1.68-1.57,2.45-2.64,2.45-1.48,0-2.55-1.51-2.55-3.61A5.58,5.58,0,0,1,93.12,26a5.82,5.82,0,0,1,4.47-1.82c3.12,0,5.15,1.9,5.15,4.82a5,5,0,0,1-3.16,4.85,8.61,8.61,0,0,1-2,.55,4,4,0,0,0-.79-1.52,7,7,0,0,0,2.59-.72,3.63,3.63,0,0,0,1.8-3.25,3.21,3.21,0,0,0-1.6-2.88,2.73,2.73,0,0,0-1.31-.39A18.56,18.56,0,0,1,96.88,31ZM95,26.32a4.36,4.36,0,0,0-1.77,3.51c0,1.06.46,1.91,1,1.91s.87-.55,1.34-1.67a17.43,17.43,0,0,0,1.08-4.39A3.29,3.29,0,0,0,95,26.32Z"/><path class="cls-2" d="M109.1,32.58a4.24,4.24,0,0,1-.1,1.11,1.15,1.15,0,0,1-1.2.75,4,4,0,0,1-2.46-.92,1.93,1.93,0,0,1-.71-1.47,2.75,2.75,0,0,1,1.12-1.92A6.63,6.63,0,0,1,107.64,29V27l-.53,0a6.87,6.87,0,0,1-.7,0l-.72,0h-.6V25.59a7.71,7.71,0,0,0,1.57.12,3.94,3.94,0,0,0,.46,0h.52v-.86a9.32,9.32,0,0,0-.08-1.49h1.63a7.42,7.42,0,0,0-.08,1.41v.84a14.8,14.8,0,0,0,2.51-.5l.05,1.46-1.38.23c-.43.08-.69.12-1.18.17v1.69a9,9,0,0,1,2.65-.36c2.17,0,3.72,1.32,3.72,3.17a2.88,2.88,0,0,1-2.95,3A2.1,2.1,0,0,1,110.37,33a4.51,4.51,0,0,1-.22-1.66,5.71,5.71,0,0,0,1.45-.58,4,4,0,0,0,0,.58,2.52,2.52,0,0,0,.18,1.14.92.92,0,0,0,.82.44,1.33,1.33,0,0,0,1.31-1.44c0-1.12-.91-1.85-2.3-1.85a8.46,8.46,0,0,0-2.49.43Zm-1.47-2.09c-1,.52-1.55,1.09-1.55,1.56a.72.72,0,0,0,.43.6,1.58,1.58,0,0,0,.83.28c.23,0,.29-.11.29-.54Zm7.2-2.63a11.14,11.14,0,0,0-2.6-2.8l1.23-.82A11.08,11.08,0,0,1,116,26.9Z"/><path class="cls-2" d="M119.17,33.42a11.24,11.24,0,0,0,.08,1.59h-1.52a11.79,11.79,0,0,0,.08-1.61V24.89a14.29,14.29,0,0,0,0-1.47,11.87,11.87,0,0,0,1.32,0h2.3a10.9,10.9,0,0,0,1.33,0c0,.41,0,.71,0,1.22v2.14a10.83,10.83,0,0,0,0,1.17c-.31,0-.77,0-1.2,0h-2.34Zm0-8.21h2.23v-.67h-2.23Zm0,1.69h2.23v-.69h-2.23Zm6.58,5.15c0,.38,0,.64,0,.88-.27,0-.54,0-.92,0H122v.87h-1.38a11.39,11.39,0,0,0,.07-1.27V29.72c0-.35,0-.63,0-.91a9,9,0,0,0,1,0h3.21a9.41,9.41,0,0,0,1,0c0,.26,0,.52,0,.9ZM122,31.71h2.47V30H122Zm6.71,1.71c0,.71-.12,1-.46,1.26a2.73,2.73,0,0,1-1.36.2c-.21,0-.35,0-1.21-.05a4.88,4.88,0,0,0-.36-1.38,13.91,13.91,0,0,0,1.59.12c.37,0,.43,0,.43-.34V27.92H124.8c-.42,0-.89,0-1.18,0,0-.35,0-.61,0-1.17V24.64c0-.49,0-.85,0-1.22a11.44,11.44,0,0,0,1.32,0h2.47a12.15,12.15,0,0,0,1.34,0,11.94,11.94,0,0,0-.06,1.45Zm-3.75-8.21h2.38v-.67h-2.38Zm0,1.69h2.38v-.69h-2.38Z"/><path class="cls-2" d="M132.88,27.38a13.77,13.77,0,0,1-2.08,1.09,5.06,5.06,0,0,0-.76-1.32,13,13,0,0,0,3.32-1.87,9.36,9.36,0,0,0,2-2.17H137a8.35,8.35,0,0,0,2.18,2.19,12,12,0,0,0,3.32,1.78,7.36,7.36,0,0,0-.72,1.43,12.21,12.21,0,0,1-2.12-1.14v.91a9.28,9.28,0,0,0-1.17-.05H134a9.5,9.5,0,0,0-1.12.05ZM131.82,35a9.24,9.24,0,0,0,.08-1.38v-3a11.77,11.77,0,0,0-.06-1.29,7.66,7.66,0,0,0,1.12.06h6.5a8.11,8.11,0,0,0,1.13-.06,7.84,7.84,0,0,0-.07,1.29v3A7.69,7.69,0,0,0,140.6,35h-1.55v-.66h-5.68V35Zm1.55-1.94h5.68V30.61h-5.68Zm5.06-6.17h.44a12,12,0,0,1-2.68-2.54,9.07,9.07,0,0,1-2.55,2.54h4.79Z"/><path class="cls-2" d="M154,34l-.58.06c-.95.11-2.67.2-3.52.2-2.44,0-3.49-.47-3.88-1.72a13,13,0,0,1-.23-3.55c0-.19,0-.24,0-1.26a16.43,16.43,0,0,0-2.41.24l-.1-1.52h.38l2.12-.12c0-.21,0-.32,0-.4a12.65,12.65,0,0,0-.09-2.21h1.74a14.71,14.71,0,0,0-.12,2.53l3.76-.18a13.57,13.57,0,0,0-.08-2.57h1.63a6.18,6.18,0,0,0-.07.89v1.63c2.1-.07,2.1-.07,2.53-.12l0,1.55a4.41,4.41,0,0,0-.74,0h-1.81a8.52,8.52,0,0,1-.33,2.76,1.59,1.59,0,0,1-1.59,1,4.33,4.33,0,0,1-1.86-.45c0-.26,0-.34,0-.52a6.29,6.29,0,0,0-.09-1.06,4.05,4.05,0,0,0,1.71.63c.33,0,.48-.16.55-.67a10.17,10.17,0,0,0,.12-1.63c-2,.08-2,.08-3.78.18v.36c0,.06,0,.06,0,.75v.27c0,.68,0,2.1.07,2.36.1,1.09.66,1.36,2.78,1.36a10.81,10.81,0,0,0,3.76-.49Z"/><path class="cls-2" d="M59.2,14.27a8.63,8.63,0,0,0-1.09,0,4.43,4.43,0,0,1,.22-1.09,4.19,4.19,0,0,1,1.16-1.66,10.72,10.72,0,0,1,1.41-1c.78-.54,1-.82,1-1.25s-.46-.94-1.18-.94a1.2,1.2,0,0,0-1.08.51,1.65,1.65,0,0,0-.26.78l-1.22-.15a2.63,2.63,0,0,1,.59-1.36,2.49,2.49,0,0,1,1.95-.75c1.48,0,2.4.71,2.4,1.88a1.76,1.76,0,0,1-.6,1.36,11.31,11.31,0,0,1-1.43,1,7.22,7.22,0,0,0-1,.85,2,2,0,0,0-.49.77H62a9.49,9.49,0,0,0,1.25-.07v1.12c-.4,0-.74-.05-1.29-.05Z"/><path class="cls-2" d="M69.55,12.76a4.66,4.66,0,0,0-.85-.06h-.31v.6a5.43,5.43,0,0,0,.07,1H67.25a5.52,5.52,0,0,0,.07-1V12.7H65a10.32,10.32,0,0,0-1.07,0V11.68c.29-.31.39-.42.68-.78l2-2.46a7.4,7.4,0,0,0,.7-.94h1.15a12.26,12.26,0,0,0-.06,1.44v2.79h.3a6,6,0,0,0,.86-.06ZM67.33,10c0-.4,0-.67,0-1a9.39,9.39,0,0,1-.58.75l-1.63,2h2.17Z"/><path class="cls-2" d="M72.56,8.34a6.68,6.68,0,0,0,0-.86c.19,0,.35,0,.75,0h1c.38,0,.53,0,.74,0a5.39,5.39,0,0,0,0,.84v4.86A8.1,8.1,0,0,0,75,14h-.87v-.42H73.4v.71h-.89a8.5,8.5,0,0,0,0-1Zm.85,1.75h.76V8.31h-.76Zm0,2.69h.76V10.87h-.76Zm2.92-4c-.71,0-.71,0-.91,0V7.9a5.42,5.42,0,0,0,.88,0h.75V7.72a3.22,3.22,0,0,0,0-.63h1a3.85,3.85,0,0,0,0,.63V8h.92a5.55,5.55,0,0,0,.89,0v.9a7,7,0,0,0-.88,0h-.93v.81h1.17A7,7,0,0,0,80,9.52v.9a4.93,4.93,0,0,0-.84,0h-.14v.72h.11a5.7,5.7,0,0,0,.84,0V12a4.9,4.9,0,0,0-.84-.05h-.11v1.92c0,.5-.09.7-.34.82a2.47,2.47,0,0,1-.94.13h-.66a2.39,2.39,0,0,0-.2-.9,6.48,6.48,0,0,0,1,.07c.26,0,.31,0,.31-.23V11.93h-2a8.61,8.61,0,0,0-.91.05v-.92a7.11,7.11,0,0,0,.93,0h2v-.72h-2a8.69,8.69,0,0,0-.94,0v-.9a7.39,7.39,0,0,0,1,.05h.87V8.76Zm.33,5.14a6.39,6.39,0,0,0-1.09-1.39L76.3,12a7.21,7.21,0,0,1,1.11,1.3Z"/><path class="cls-2" d="M82,13.79A6.65,6.65,0,0,0,82,14.84H81a6.58,6.58,0,0,0,.06-1.06V8.23a8,8,0,0,0,0-1,6.63,6.63,0,0,0,.88,0h1.5a6.18,6.18,0,0,0,.87,0c0,.27,0,.46,0,.79v1.3a7.08,7.08,0,0,0,0,.78c-.22,0-.49,0-.78,0H82Zm0-5.36h1.46V8H82Zm0,1h1.46V9H82Zm4.36,3.65c0,.32,0,.52,0,.74l.65,0c.24,0,.31-.06.31-.23V10.12H85.63c-.3,0-.57,0-.78,0,0-.25,0-.41,0-.78V8.07c0-.29,0-.52,0-.79a6.11,6.11,0,0,0,.86,0h1.64a6.46,6.46,0,0,0,.87,0c0,.31,0,.52,0,1v5.56c0,.51-.1.73-.41.86a2.52,2.52,0,0,1-1,.1l-.59,0a3.16,3.16,0,0,0-.22-.88H83.73v.48h-.9a5,5,0,0,0,.06-.85V11.4c0-.3,0-.54,0-.77a5.82,5.82,0,0,0,.79,0h1.89a5.72,5.72,0,0,0,.79,0c0,.22,0,.43,0,.77Zm-2.59-1.23h1.74v-.51H83.73Zm0,1.24h1.74v-.55H83.73Zm2-4.7H87.3V8H85.71Zm0,1H87.3V9H85.71Z"/><path class="cls-2" d="M92.57,12.42a1.12,1.12,0,0,0,.39.7,1.65,1.65,0,0,0,1,.33c.84,0,1.38-.43,1.38-1.1a1,1,0,0,0-.48-.89,2.15,2.15,0,0,0-1-.21,8.12,8.12,0,0,0-.91,0v-1a6.5,6.5,0,0,0,.82,0c.85,0,1.35-.39,1.35-1s-.4-.92-1.12-.92a1.45,1.45,0,0,0-.93.26,1.24,1.24,0,0,0-.35.66L91.56,9a2.13,2.13,0,0,1,.81-1.21A2.73,2.73,0,0,1,94,7.35c1.42,0,2.33.71,2.33,1.82a1.56,1.56,0,0,1-.58,1.25,2.25,2.25,0,0,1-.83.33,1.78,1.78,0,0,1,1.22.57,1.62,1.62,0,0,1,.41,1.17,1.81,1.81,0,0,1-.51,1.24,3,3,0,0,1-2.09.69,2.62,2.62,0,0,1-2.16-.81,2,2,0,0,1-.48-.95Z"/><path class="cls-2" d="M101.41,9.16a1.07,1.07,0,0,0-1.14-.86,1.41,1.41,0,0,0-1.33.89,3.72,3.72,0,0,0-.35,1.5,2,2,0,0,1,1.82-.85,2.19,2.19,0,0,1,2,1,2.4,2.4,0,0,1,.31,1.28,2.29,2.29,0,0,1-2.47,2.29,2.65,2.65,0,0,1-1.72-.56,3.71,3.71,0,0,1-1-2.85,4.63,4.63,0,0,1,.7-2.62,2.41,2.41,0,0,1,2.07-1A2.38,2.38,0,0,1,102,8a2.55,2.55,0,0,1,.53.87Zm-2.65,3a1.44,1.44,0,0,0,2.6.74,1.4,1.4,0,0,0,.2-.77,1.22,1.22,0,0,0-1.34-1.33A1.37,1.37,0,0,0,98.76,12.13Z"/><path class="cls-2" d="M104.78,12.51A1.12,1.12,0,0,0,105,13a1.27,1.27,0,0,0,1,.44A1.32,1.32,0,0,0,107.47,12a1.26,1.26,0,0,0-1.33-1.36,1.45,1.45,0,0,0-1,.39.91.91,0,0,0-.26.38l-1.06-.1c.08-.61.09-.65.11-.89l.19-2.11c0-.15,0-.44,0-.86l.9,0h2.09a7.56,7.56,0,0,0,1.18-.06V8.51a8.17,8.17,0,0,0-1.17-.07h-2L105,9.93l-.06.35a2.14,2.14,0,0,1,1.46-.52,2.21,2.21,0,0,1,1.66.64,2.12,2.12,0,0,1,.6,1.6,2.31,2.31,0,0,1-2.56,2.42,2.5,2.5,0,0,1-1.94-.74,2.37,2.37,0,0,1-.53-.92Z"/><path class="cls-2" d="M112.58,8.3a8.59,8.59,0,0,0,0-.91,6.33,6.33,0,0,0,.94.05h4.12a5.67,5.67,0,0,0,.91-.05c0,.33,0,.57,0,.87v5.49a9.7,9.7,0,0,0,0,1h-1v-.51h-4v.51h-1a7.79,7.79,0,0,0,0-1Zm1,2h4v-2h-4Zm0,3.07h4V11.2h-4Z"/><path class="cls-2" d="M126.69,11.41c-.14.14-.14.14-.75.83a8.75,8.75,0,0,1-1.06.93,9.47,9.47,0,0,0,3.06.75,3.87,3.87,0,0,0-.44.94,9.28,9.28,0,0,1-2.3-.56,7.59,7.59,0,0,1-1.18-.58,10.63,10.63,0,0,1-3.35,1.16,4.34,4.34,0,0,0-.47-.91,10.4,10.4,0,0,0,3-.81,7.14,7.14,0,0,1-1.37-1.56l-.41,0v-.87c.23,0,.52,0,.87,0h3.08a4.55,4.55,0,0,0,.74,0Zm-5.85-3a5.09,5.09,0,0,0-.3-.85h.67a33.49,33.49,0,0,0,3.85-.23A8.77,8.77,0,0,0,126.78,7l.58.82-.36.08a9.63,9.63,0,0,1-1,.19l.82.27c-.38.74-.39.76-.51,1h.56a6.48,6.48,0,0,0,.91,0c0,.22,0,.41,0,.71v.63a5.54,5.54,0,0,0,0,.62h-.94V10.17h-5.59v1.11h-.95a3.47,3.47,0,0,0,0-.66V10c0-.23,0-.41,0-.72a5.57,5.57,0,0,0,.93.05h.54a5.52,5.52,0,0,0-.37-.89Zm2.85.89a9.25,9.25,0,0,0-.35-1l-1,.06a7.05,7.05,0,0,1,.36.92Zm-.81,2.28A3.84,3.84,0,0,0,124,12.7a5.28,5.28,0,0,0,1.28-1.11Zm2.42-2.28a7.52,7.52,0,0,0,.56-1.23,3.51,3.51,0,0,1-.37.05c-.09,0-.3,0-.62.06l-.63.07a5.63,5.63,0,0,1,.34,1.05Z"/><path class="cls-2" d="M130.68,13.83c0,.39,0,.7,0,1h-1a7.45,7.45,0,0,0,.05-1v-2.5c0-.42,0-.61,0-.95a4.62,4.62,0,0,1-.73,1,3.92,3.92,0,0,0-.48-1A7.16,7.16,0,0,0,130.13,8,3.91,3.91,0,0,0,130.48,7l1,.27a5.11,5.11,0,0,0-.2.5c-.1.28-.34.81-.58,1.29Zm3.7-5.7a7.94,7.94,0,0,0-.06-1.05h1c0,.32-.05.63-.05,1.05v.75h.25a5.92,5.92,0,0,0,.83-.05v.93c-.23,0-.51,0-.8,0h-.28v4c0,.44-.09.7-.29.83s-.41.16-1,.16c-.31,0-.54,0-.9,0a3.07,3.07,0,0,0-.27-1,7.87,7.87,0,0,0,1,.08c.48,0,.55,0,.55-.21V9.73h-2.32c-.34,0-.72,0-1,0V8.83a8.44,8.44,0,0,0,1,.05h2.36Zm-2.19,2.17a9.84,9.84,0,0,1,1.31,2l-.79.56a8.33,8.33,0,0,0-1.26-2.06Z"/><line class="cls-3" x1="38.43" y1="20" x2="156" y2="20"/><path class="cls-2" d="M32,32.32a2.54,2.54,0,0,0,1.75-.66l-8.5-8.5-.59.42c-.63.47-1.15.83-1.54,1.1a9.71,9.71,0,0,1-1.59.8,4.89,4.89,0,0,1-1.84.41h0a4.84,4.84,0,0,1-1.84-.41,9.71,9.71,0,0,1-1.59-.8c-.39-.27-.91-.63-1.54-1.1l-.59-.43-8.5,8.51a2.54,2.54,0,0,0,1.75.66Z"/><path class="cls-2" d="M6.75,17.8a9.1,9.1,0,0,1-1.69-1.45V29.28l7.49-7.49Q10.3,20.21,6.75,17.8Z"/><path class="cls-2" d="M32.7,17.8q-3.42,2.32-5.82,4l7.49,7.49V16.35A9.41,9.41,0,0,1,32.7,17.8Z"/><path class="cls-2" d="M32,9.09H7.39a2.38,2.38,0,0,0-2,.87,3.41,3.41,0,0,0-.69,2.18,3.86,3.86,0,0,0,.92,2.28,8.32,8.32,0,0,0,2,1.94L11,18.74l2.69,1.88c.66.45,1.23.85,1.69,1.18l.25.18c.12.08.28.19.46.33L17,23q.36.24.87.54a5.09,5.09,0,0,0,1,.45,2.67,2.67,0,0,0,.84.15h0a2.67,2.67,0,0,0,.84-.15,5.09,5.09,0,0,0,1-.45q.51-.3.87-.54l.91-.64c.18-.14.34-.25.46-.33L24,21.8l1.69-1.18,6.14-4.26a8,8,0,0,0,2-2.06,4.48,4.48,0,0,0,.82-2.53A2.72,2.72,0,0,0,32,9.09Z"/></g></g></svg>