<svg xmlns="http://www.w3.org/2000/svg" width="160" height="41.03" viewBox="0 0 160 41.03"><defs><style>.cls-1{fill:#80bbe4;}.cls-2,.cls-4{fill:none;}.cls-2{stroke:#fff;stroke-miterlimit:10;}.cls-3{isolation:isolate;}.cls-5,.cls-6,.cls-7{fill:#fff;}.cls-6{font-size:13.5px;font-family:HiraKakuProN-W6-83pv-RKSJ-H, Hiragino Kaku Gothic ProN;}.cls-7{font-size:8.5px;font-family:HiraKakuPro-W6-83pv-RKSJ-H, Hiragino Kaku Gothic Pro;}</style></defs><title>bn_tel</title><g id="レイヤー_2" data-name="レイヤー 2"><g id="デザイン"><rect class="cls-1" width="160" height="40"/><line class="cls-2" x1="38.43" y1="20" x2="156" y2="20"/><g class="cls-3"><circle class="cls-4" cx="20" cy="20" r="16"/></g><path class="cls-5" d="M20,5.76h-.73l-.72.06-.71.09-.7.13-.69.15-.68.2-.66.22-.64.26-.63.28-.62.32-.59.34-.58.37-.56.4L11,9l-.52.45-.49.48-.48.49L9,11l-.42.54-.4.56-.37.58-.34.59-.32.62-.28.63-.26.64-.22.66-.2.68-.15.69-.13.7-.09.71-.06.72v1.46l.06.72.09.71.13.7.15.69.2.68.22.66.26.64.28.63.32.62.34.59.37.58.4.56.42.54.45.52.48.49.49.48L11,31l.54.42.56.4.58.37.59.34.62.32.63.28.64.26.66.22.68.2.69.15.7.13.71.09.72.06h1.46l.72-.06.71-.09.7-.13.69-.15.68-.2.66-.22.64-.26.63-.28.62-.32.59-.34.58-.37.56-.4.54-.42.52-.45.49-.48.48-.49.45-.52.42-.54.4-.56.37-.58.34-.59.32-.62.28-.63.26-.64.22-.66.2-.68.15-.69.13-.7.09-.71.06-.72V19.27l-.06-.72-.09-.71-.13-.7-.15-.69-.2-.68-.22-.66-.26-.64-.28-.63-.32-.62-.34-.59-.37-.58-.4-.56L31,11l-.45-.52-.48-.49-.49-.48L29.05,9l-.54-.42L28,8.19l-.58-.37-.59-.34-.62-.32-.63-.28-.64-.26-.66-.22-.68-.2-.69-.15-.7-.13-.71-.09-.72-.06ZM20,4A16,16,0,1,1,4,20,16,16,0,0,1,20,4Z"/><path class="cls-5" d="M25,29.62l1.31-.76a.48.48,0,0,0,.22-.33.69.69,0,0,0-.15-.48l-2.41-4.18c-.25-.42-.49-.53-.79-.35l-1.29.74ZM14.4,23.29l.12.2c1.59,2.74,3.19,4.56,4.82,5.46,2,1.11,3.6,1.47,4.91,1.08l0,0-3.13-5.34a1.11,1.11,0,0,1-1.13,0,3.69,3.69,0,0,1-1.09-1.1c-.4-.62-.85-1.33-1.35-2.18-.61-1.06-1-1.77-1.17-2.11A3.63,3.63,0,0,1,16,17.8a1.05,1.05,0,0,1,.57-1l-3.12-5.39A4.56,4.56,0,0,0,12.22,14a9.14,9.14,0,0,0-.17,3.29A17.75,17.75,0,0,0,14.4,23.29Zm2.82-6.82,1.28-.74c.33-.19.35-.56.07-1.05l-2.26-3.91c-.21-.36-.37-.55-.51-.56a.88.88,0,0,0-.49.17l-1.21.7Z"/><text class="cls-6" transform="translate(43.6 35)">0258-76-0289</text><text class="cls-7" transform="translate(39.74 14.17)">お問合せ時間：9:00〜18:00</text></g></g></svg>