<svg xmlns="http://www.w3.org/2000/svg" width="50" height="50" viewBox="0 0 50 50"><defs><style>.cls-1{fill:#ff6555;}.cls-2{fill:#ef5048;}.cls-3{fill:#fff;}</style></defs><title>bt_mail</title><g id="レイヤー_2" data-name="レイヤー 2"><g id="デザイン"><circle class="cls-1" cx="25" cy="25" r="25" transform="translate(-2.74 46.92) rotate(-83.32)"/><path class="cls-2" d="M25,0V50A25,25,0,0,0,25,0Z"/><path class="cls-3" d="M35.94,35.31a2.28,2.28,0,0,0,1.56-.59L30,27.18l-.52.37c-.57.42-1,.74-1.38,1a8.57,8.57,0,0,1-1.4.71A4.35,4.35,0,0,1,25,29.6h0a4.31,4.31,0,0,1-1.64-.36,8.17,8.17,0,0,1-1.4-.71c-.36-.24-.81-.56-1.38-1l-.52-.38L12.5,34.72a2.28,2.28,0,0,0,1.56.59Z"/><path class="cls-3" d="M13.49,22.42A7.46,7.46,0,0,1,12,21.13V32.61L18.64,26Q16.64,24.57,13.49,22.42Z"/><path class="cls-3" d="M36.52,22.42q-3,2.05-5.16,3.54L38,32.61V21.13A7.77,7.77,0,0,1,36.52,22.42Z"/><path class="cls-3" d="M35.94,14.69H14.06a2.14,2.14,0,0,0-1.76.77,3,3,0,0,0-.62,1.93,3.44,3.44,0,0,0,.82,2,7.25,7.25,0,0,0,1.74,1.72l3,2.12,2.39,1.66,1.5,1,.22.16.41.29c.32.24.59.43.8.57l.78.48a4.29,4.29,0,0,0,.85.4A2.4,2.4,0,0,0,25,28h0a2.39,2.39,0,0,0,.74-.14,4.29,4.29,0,0,0,.85-.4c.31-.18.56-.34.78-.48s.48-.33.8-.57l.41-.29.22-.16,1.5-1,5.46-3.79a7.15,7.15,0,0,0,1.81-1.83,4,4,0,0,0,.73-2.24,2.41,2.41,0,0,0-2.38-2.38Z"/></g></g></svg>