<svg xmlns="http://www.w3.org/2000/svg" width="50" height="50" viewBox="0 0 50 50"><defs><style>.cls-1{fill:#80ddff;}.cls-2{fill:#77d0e8;}.cls-3{fill:#fff;}</style></defs><title>bt_tel</title><g id="レイヤー_2" data-name="レイヤー 2"><g id="デザイン"><circle class="cls-1" cx="25" cy="25" r="25" transform="translate(-1.16 1.21) rotate(-2.71)"/><path class="cls-2" d="M25,0V50A25,25,0,0,0,25,0Z"/><path class="cls-3" d="M38.24,33.05,34,28.77a2.23,2.23,0,0,0-3.15.06L28.66,31l-.43-.23A21.5,21.5,0,0,1,23,27a21.33,21.33,0,0,1-3.76-5.2l-.23-.41,1.44-1.45.72-.71a2.23,2.23,0,0,0,.05-3.15L17,11.79a2.23,2.23,0,0,0-3.15.06l-1.2,1.21,0,0a7.23,7.23,0,0,0-1,1.76,7.47,7.47,0,0,0-.44,1.78c-.56,4.69,1.58,9,7.39,14.78,8,8,14.52,7.43,14.8,7.4a7.13,7.13,0,0,0,1.78-.44,6.86,6.86,0,0,0,1.75-1l0,0,1.23-1.2A2.24,2.24,0,0,0,38.24,33.05Z"/></g></g></svg>