<svg xmlns="http://www.w3.org/2000/svg" xmlns:xlink="http://www.w3.org/1999/xlink" viewBox="0 0 294.49 150.53"><defs><style>.cls-1{isolation:isolate;}.cls-10,.cls-2{fill:none;}.cls-2{stroke:#fff;stroke-linejoin:round;stroke-width:15px;}.cls-3{fill:url(#linear-gradient);}.cls-4{opacity:0.51;}.cls-4,.cls-6,.cls-8{mix-blend-mode:screen;}.cls-5{fill:url(#linear-gradient-2);}.cls-6{opacity:0.7;}.cls-7{fill:url(#linear-gradient-3);}.cls-8{opacity:0.49;}.cls-9{fill:#fff;}.cls-10{stroke:#717171;stroke-miterlimit:1;stroke-width:0.59px;}.cls-11{opacity:0.58;}.cls-12{fill:url(#linear-gradient-4);}.cls-13{fill:url(#linear-gradient-6);}.cls-14{fill:url(#linear-gradient-8);}</style><linearGradient id="linear-gradient" x1="44.96" y1="143.03" x2="44.96" y2="7.5" gradientUnits="userSpaceOnUse"><stop offset="0" stop-color="#656565"/><stop offset="0.62" stop-color="#1b1b1b"/><stop offset="0.63" stop-color="#545454"/><stop offset="0.98" stop-color="#3e3e3e"/></linearGradient><linearGradient id="linear-gradient-2" x1="44.96" y1="143.03" x2="44.96" y2="7.5" gradientUnits="userSpaceOnUse"><stop offset="0" stop-color="#0e0e0e"/><stop offset="0.5"/><stop offset="0.52" stop-color="#010101"/><stop offset="0.73" stop-color="#0b0b0b"/><stop offset="1" stop-color="#0e0e0e"/></linearGradient><linearGradient id="linear-gradient-3" x1="44.96" y1="7.5" x2="44.96" y2="143.03" gradientUnits="userSpaceOnUse"><stop offset="0" stop-color="#fff" stop-opacity="0.77"/><stop offset="0.2" stop-color="#fff" stop-opacity="0.65"/><stop offset="0.34" stop-color="#fff" stop-opacity="0.65"/><stop offset="0.35" stop-color="#fff" stop-opacity="0.65"/><stop offset="0.37" stop-color="#fff" stop-opacity="0.62"/><stop offset="0.4" stop-color="#fff" stop-opacity="0.53"/><stop offset="0.43" stop-color="#fff" stop-opacity="0.39"/><stop offset="0.47" stop-color="#fff" stop-opacity="0.2"/><stop offset="0.51" stop-color="#fff" stop-opacity="0"/><stop offset="0.59" stop-color="#7e7e7e" stop-opacity="0.09"/><stop offset="1" stop-color="#1b1b1b" stop-opacity="0.16"/></linearGradient><linearGradient id="linear-gradient-4" x1="199.77" y1="129.22" x2="199.77" y2="45.69" xlink:href="#linear-gradient"/><linearGradient id="linear-gradient-6" x1="199.77" y1="129.22" x2="199.77" y2="45.69" xlink:href="#linear-gradient-2"/><linearGradient id="linear-gradient-8" x1="199.77" y1="45.69" x2="199.77" y2="129.22" xlink:href="#linear-gradient-3"/></defs><title>1hour</title><g class="cls-1"><g id="レイヤー_2" data-name="レイヤー 2"><g id="レイヤー_1-2" data-name="レイヤー 1"><path class="cls-2" d="M7.5,143v-7.89c22-1.07,23.48-3.42,23.48-18.79V39.09c0-10.89-3.84-11.74-12.6-12.81L12,25.21v-7C28.42,16.25,46.77,12,59.37,7.5V116.35c0,15.8,1.28,17.72,23.05,18.79V143Z"/><path class="cls-3" d="M7.5,143v-7.89c22-1.07,23.48-3.42,23.48-18.79V39.09c0-10.89-3.84-11.74-12.6-12.81L12,25.21v-7C28.42,16.25,46.77,12,59.37,7.5V116.35c0,15.8,1.28,17.72,23.05,18.79V143Z"/><g class="cls-4"><path class="cls-5" d="M7.5,143v-7.89c22-1.07,23.48-3.42,23.48-18.79V39.09c0-10.89-3.84-11.74-12.6-12.81L12,25.21v-7C28.42,16.25,46.77,12,59.37,7.5V116.35c0,15.8,1.28,17.72,23.05,18.79V143Z"/></g><g class="cls-6"><path class="cls-7" d="M7.5,143v-7.89c22-1.07,23.48-3.42,23.48-18.79V39.09c0-10.89-3.84-11.74-12.6-12.81L12,25.21v-7C28.42,16.25,46.77,12,59.37,7.5V116.35c0,15.8,1.28,17.72,23.05,18.79V143Z"/></g><g class="cls-8"><path class="cls-9" d="M7.86,142.68a31.41,31.41,0,0,1,0-5c0-.3-.23-1.81,0-2,.5-.42,4.88-.1,5.83-.18,4.19-.35,9.15-.62,12.83-2.89,5.35-3.31,4.8-10.67,4.81-16.17,0-12.22,0-24.45,0-36.68,0-13.45.09-26.91,0-40.36,0-7-1.56-11.86-9-13.24-1.9-.35-9.09-.48-10-1.63a19.32,19.32,0,0,1,0-5.58c.86-1.19,8.79-1.29,10.74-1.62,8.14-1.37,16.22-3.13,24.18-5.3A81.47,81.47,0,0,0,57,9.06c1.47-.6,1.51-1.31,2-.48s0,3.49,0,4.35V113.77c0,3.31-.09,6.64.21,9.94.81,8.72,6.54,10.7,14.54,11.54,1.8.19,7.61-.05,8.3.85.27.36.35,5.77,0,6.18a24,24,0,0,1-3,0H7.85V143H82.06s0-.36,0-.36v-7.21s0-.36,0-.36c-5.84-.31-14.59.2-19.46-3.82-4.14-3.43-3.56-10.35-3.58-15,0-5.93,0-11.85,0-17.77V8s0-.36,0-.36A228.71,228.71,0,0,1,12.33,18.12s0,.36,0,.37v6.43s0,.36,0,.36c4.42.74,9.85.77,13.93,2.65,4.71,2.16,5,7.23,5.07,11.86.12,7.3,0,14.6,0,21.89,0,18.14.12,36.27,0,54.41,0,4.84.45,11.55-3.77,15-4.95,4.09-13.75,3.68-19.71,4v7.57C7.85,143.09,7.86,143.1,7.86,142.68Z"/></g><path class="cls-10" d="M7.5,143v-7.89c22-1.07,23.48-3.42,23.48-18.79V39.09c0-10.89-3.84-11.74-12.6-12.81L12,25.21v-7C28.42,16.25,46.77,12,59.37,7.5V116.35c0,15.8,1.28,17.72,23.05,18.79V143Z"/><g class="cls-11"><path d="M7.5,143v-4.92c0-.51-.26-2.22,0-2.6.5-.72,3.48-.5,4.5-.57,4.52-.32,9.86-.46,13.92-2.72,5.55-3.09,5-10.35,5.06-15.85,0-12.05,0-24.1,0-36.15,0-13.64.17-27.29,0-40.92a25.52,25.52,0,0,0-.55-6c-1.24-4.87-5.12-6.11-9.68-6.79-1.7-.25-3.4-.48-5.09-.76-2.3-.39-3.06,0-3.68-1.84-.22-.66-.47-5,0-5.59s4.24-.65,5.16-.78q3.49-.49,7-1.1A243.44,243.44,0,0,0,48.57,11C51.63,10.1,54.91,8.46,58,8s.71-.87,1.32.14,0,3.69,0,4.69V114a87.1,87.1,0,0,0,.29,10.22c1.08,9,8.5,10,16.32,10.63a30.44,30.44,0,0,1,4.89.32c1.79.47,1.1-.09,1.56,1.25.23.69.43,5.72,0,6.29s-2,.31-3,.31H7.5v.12H82.42v-8c-5.81-.3-14.6.26-19.47-3.69C58.74,128,59.39,121,59.37,116.25c0-5.89,0-11.77,0-17.66V7.44A226.28,226.28,0,0,1,12,18.11v7.17C16.49,26,22.18,26,26.31,28c4.53,2.21,4.61,7.41,4.67,11.86.1,7.41,0,14.83,0,22.24,0,18,.08,36,0,54,0,4.8.55,11.71-3.73,15.15-5,4-13.81,3.53-19.75,3.84V143Z"/></g><path class="cls-2" d="M114,79.82a41.94,41.94,0,0,0,7.36.46h6.9a40.59,40.59,0,0,0,7-.46,94.64,94.64,0,0,0-.36,10v19.87a12.33,12.33,0,0,0,4,4.79,16.63,16.63,0,0,0,6,2.76,71.2,71.2,0,0,0,15.82,1.38c17,0,27.14-.46,39.47-1.84a37.68,37.68,0,0,0-2.76,10.49c-9,.36-20.24.64-27.78.64-16.74,0-22.91-.46-28-1.93-4.78-1.57-7.91-3.77-11.68-8.47a98.46,98.46,0,0,1-12.42,10.31l-5.06-9.75a60.24,60.24,0,0,0,12.69-9V89.29h-5a33.76,33.76,0,0,0-6.26.46Zm8.1-34.13A107.45,107.45,0,0,1,138,62.34l-7.63,7.45a92.81,92.81,0,0,0-15.64-17.2ZM151.29,55.9v2.85c0,14-.55,29.71-1.29,35.42-1,8.37-2.21,12.33-6.35,20.51a30.48,30.48,0,0,0-7.91-6.71c5.71-10,6.26-14.81,6.26-50a82.2,82.2,0,0,0-.46-11,81.9,81.9,0,0,0,9.75.37h34.22a73.72,73.72,0,0,0,9.57-.37,77.26,77.26,0,0,0-.37,9.76v50.13c0,4.6-1.47,6.72-5.15,7.73a48.1,48.1,0,0,1-10.12.74c-1.29,0-2.12,0-4.14-.1-.18-3.77-.64-5.88-2-8.46a82,82,0,0,0,8.28.46c3.31,0,3.58-.18,3.58-2.3v-49Zm12.14,13.8h-1.56c-3.13,0-5.61.09-7.73.27V62.25a66.35,66.35,0,0,0,7.73.36h1.56v-.82a28.25,28.25,0,0,0-.36-4.14h9.38a25.06,25.06,0,0,0-.37,4.23v.73h2.39a63.76,63.76,0,0,0,7.64-.36V70c-2.12-.18-4.51-.27-7.64-.27h-2.39v4.78h3.5a57.49,57.49,0,0,0,7.72-.37v8.1a65.93,65.93,0,0,0-7.72-.37H160.76a70.62,70.62,0,0,0-7.81.37v-8.1a59,59,0,0,0,7.81.37h2.67Zm-9.1,39.19a62.25,62.25,0,0,0,.27-6.81V91c0-2.21-.09-4-.27-6,2.11.18,3.67.28,5.7.28h15.36a55,55,0,0,0,5.71-.28c-.1,2.3-.19,3.59-.19,5.8v9.47c0,2.3.09,3.5.19,4.88-1.2-.09-2.67-.19-4.24-.19H162.7v3.87Zm8.37-11h10.39v-5.7H162.7Z"/><path class="cls-2" d="M219.19,117.9a79.7,79.7,0,0,0,.55,11.32H209a83.71,83.71,0,0,0,.55-11.41V57.74a100.85,100.85,0,0,0-.37-10.31,82.54,82.54,0,0,0,9.47.37h16.29a76.72,76.72,0,0,0,9.38-.37c-.18,3-.27,5-.27,8.56V70.06c0,4.24.09,6.35.27,8.38-2.39-.19-5.24-.28-8.46-.28H219.19Zm0-58H235v-4.6H219.19Zm0,11.23H235v-4.7H219.19Zm47.19,39.55c0,3.5.09,5.62.28,8,2,.18,5.33.46,7,.46,2.57,0,3.4-.65,3.4-2.49V78.16H258.93c-3.22,0-6.17.09-8.46.28.18-2.67.27-4.42.27-8.38V56c0-3.13-.09-5.7-.27-8.56a77.67,77.67,0,0,0,9.38.37h17.66a81.64,81.64,0,0,0,9.48-.37c-.28,3.32-.37,5.62-.37,10.22V117.9c0,5.52-1.11,7.91-4.42,9.29-1.93.83-4.69,1.11-10.39,1.11-1.29,0-1.66,0-6.35-.28a34.82,34.82,0,0,0-2.39-9.47c-2.67-.1-4.42-.1-5.15-.1H238.41v5.16h-9.75a63.09,63.09,0,0,0,.65-9.2V92c0-3.22-.1-5.8-.28-8.28a74.05,74.05,0,0,0,8.56.37H258.1a73.18,73.18,0,0,0,8.56-.37c-.19,2.39-.28,4.69-.28,8.28Zm-28-13.33h18.77V91.78H238.41Zm0,13.43h18.77v-6H238.41Zm21.44-50.88h17.2v-4.6h-17.2Zm0,11.23h17.2v-4.7h-17.2Z"/><path class="cls-12" d="M114,79.82a41.94,41.94,0,0,0,7.36.46h6.9a40.59,40.59,0,0,0,7-.46,94.64,94.64,0,0,0-.36,10v19.87a12.33,12.33,0,0,0,4,4.79,16.63,16.63,0,0,0,6,2.76,71.2,71.2,0,0,0,15.82,1.38c17,0,27.14-.46,39.47-1.84a37.68,37.68,0,0,0-2.76,10.49c-9,.36-20.24.64-27.78.64-16.74,0-22.91-.46-28-1.93-4.78-1.57-7.91-3.77-11.68-8.47a98.46,98.46,0,0,1-12.42,10.31l-5.06-9.75a60.24,60.24,0,0,0,12.69-9V89.29h-5a33.76,33.76,0,0,0-6.26.46Zm8.1-34.13A107.45,107.45,0,0,1,138,62.34l-7.63,7.45a92.81,92.81,0,0,0-15.64-17.2ZM151.29,55.9v2.85c0,14-.55,29.71-1.29,35.42-1,8.37-2.21,12.33-6.35,20.51a30.48,30.48,0,0,0-7.91-6.71c5.71-10,6.26-14.81,6.26-50a82.2,82.2,0,0,0-.46-11,81.9,81.9,0,0,0,9.75.37h34.22a73.72,73.72,0,0,0,9.57-.37,77.26,77.26,0,0,0-.37,9.76v50.13c0,4.6-1.47,6.72-5.15,7.73a48.1,48.1,0,0,1-10.12.74c-1.29,0-2.12,0-4.14-.1-.18-3.77-.64-5.88-2-8.46a82,82,0,0,0,8.28.46c3.31,0,3.58-.18,3.58-2.3v-49Zm12.14,13.8h-1.56c-3.13,0-5.61.09-7.73.27V62.25a66.35,66.35,0,0,0,7.73.36h1.56v-.82a28.25,28.25,0,0,0-.36-4.14h9.38a25.06,25.06,0,0,0-.37,4.23v.73h2.39a63.76,63.76,0,0,0,7.64-.36V70c-2.12-.18-4.51-.27-7.64-.27h-2.39v4.78h3.5a57.49,57.49,0,0,0,7.72-.37v8.1a65.93,65.93,0,0,0-7.72-.37H160.76a70.62,70.62,0,0,0-7.81.37v-8.1a59,59,0,0,0,7.81.37h2.67Zm-9.1,39.19a62.25,62.25,0,0,0,.27-6.81V91c0-2.21-.09-4-.27-6,2.11.18,3.67.28,5.7.28h15.36a55,55,0,0,0,5.71-.28c-.1,2.3-.19,3.59-.19,5.8v9.47c0,2.3.09,3.5.19,4.88-1.2-.09-2.67-.19-4.24-.19H162.7v3.87Zm8.37-11h10.39v-5.7H162.7Z"/><path class="cls-12" d="M219.19,117.9a79.7,79.7,0,0,0,.55,11.32H209a83.71,83.71,0,0,0,.55-11.41V57.74a100.85,100.85,0,0,0-.37-10.31,82.54,82.54,0,0,0,9.47.37h16.29a76.72,76.72,0,0,0,9.38-.37c-.18,3-.27,5-.27,8.56V70.06c0,4.24.09,6.35.27,8.38-2.39-.19-5.24-.28-8.46-.28H219.19Zm0-58H235v-4.6H219.19Zm0,11.23H235v-4.7H219.19Zm47.19,39.55c0,3.5.09,5.62.28,8,2,.18,5.33.46,7,.46,2.57,0,3.4-.65,3.4-2.49V78.16H258.93c-3.22,0-6.17.09-8.46.28.18-2.67.27-4.42.27-8.38V56c0-3.13-.09-5.7-.27-8.56a77.67,77.67,0,0,0,9.38.37h17.66a81.64,81.64,0,0,0,9.48-.37c-.28,3.32-.37,5.62-.37,10.22V117.9c0,5.52-1.11,7.91-4.42,9.29-1.93.83-4.69,1.11-10.39,1.11-1.29,0-1.66,0-6.35-.28a34.82,34.82,0,0,0-2.39-9.47c-2.67-.1-4.42-.1-5.15-.1H238.41v5.16h-9.75a63.09,63.09,0,0,0,.65-9.2V92c0-3.22-.1-5.8-.28-8.28a74.05,74.05,0,0,0,8.56.37H258.1a73.18,73.18,0,0,0,8.56-.37c-.19,2.39-.28,4.69-.28,8.28Zm-28-13.33h18.77V91.78H238.41Zm0,13.43h18.77v-6H238.41Zm21.44-50.88h17.2v-4.6h-17.2Zm0,11.23h17.2v-4.7h-17.2Z"/><g class="cls-4"><path class="cls-13" d="M114,79.82a41.94,41.94,0,0,0,7.36.46h6.9a40.59,40.59,0,0,0,7-.46,94.64,94.64,0,0,0-.36,10v19.87a12.33,12.33,0,0,0,4,4.79,16.63,16.63,0,0,0,6,2.76,71.2,71.2,0,0,0,15.82,1.38c17,0,27.14-.46,39.47-1.84a37.68,37.68,0,0,0-2.76,10.49c-9,.36-20.24.64-27.78.64-16.74,0-22.91-.46-28-1.93-4.78-1.57-7.91-3.77-11.68-8.47a98.46,98.46,0,0,1-12.42,10.31l-5.06-9.75a60.24,60.24,0,0,0,12.69-9V89.29h-5a33.76,33.76,0,0,0-6.26.46Zm8.1-34.13A107.45,107.45,0,0,1,138,62.34l-7.63,7.45a92.81,92.81,0,0,0-15.64-17.2ZM151.29,55.9v2.85c0,14-.55,29.71-1.29,35.42-1,8.37-2.21,12.33-6.35,20.51a30.48,30.48,0,0,0-7.91-6.71c5.71-10,6.26-14.81,6.26-50a82.2,82.2,0,0,0-.46-11,81.9,81.9,0,0,0,9.75.37h34.22a73.72,73.72,0,0,0,9.57-.37,77.26,77.26,0,0,0-.37,9.76v50.13c0,4.6-1.47,6.72-5.15,7.73a48.1,48.1,0,0,1-10.12.74c-1.29,0-2.12,0-4.14-.1-.18-3.77-.64-5.88-2-8.46a82,82,0,0,0,8.28.46c3.31,0,3.58-.18,3.58-2.3v-49Zm12.14,13.8h-1.56c-3.13,0-5.61.09-7.73.27V62.25a66.35,66.35,0,0,0,7.73.36h1.56v-.82a28.25,28.25,0,0,0-.36-4.14h9.38a25.06,25.06,0,0,0-.37,4.23v.73h2.39a63.76,63.76,0,0,0,7.64-.36V70c-2.12-.18-4.51-.27-7.64-.27h-2.39v4.78h3.5a57.49,57.49,0,0,0,7.72-.37v8.1a65.93,65.93,0,0,0-7.72-.37H160.76a70.62,70.62,0,0,0-7.81.37v-8.1a59,59,0,0,0,7.81.37h2.67Zm-9.1,39.19a62.25,62.25,0,0,0,.27-6.81V91c0-2.21-.09-4-.27-6,2.11.18,3.67.28,5.7.28h15.36a55,55,0,0,0,5.71-.28c-.1,2.3-.19,3.59-.19,5.8v9.47c0,2.3.09,3.5.19,4.88-1.2-.09-2.67-.19-4.24-.19H162.7v3.87Zm8.37-11h10.39v-5.7H162.7Z"/><path class="cls-13" d="M219.19,117.9a79.7,79.7,0,0,0,.55,11.32H209a83.71,83.71,0,0,0,.55-11.41V57.74a100.85,100.85,0,0,0-.37-10.31,82.54,82.54,0,0,0,9.47.37h16.29a76.72,76.72,0,0,0,9.38-.37c-.18,3-.27,5-.27,8.56V70.06c0,4.24.09,6.35.27,8.38-2.39-.19-5.24-.28-8.46-.28H219.19Zm0-58H235v-4.6H219.19Zm0,11.23H235v-4.7H219.19Zm47.19,39.55c0,3.5.09,5.62.28,8,2,.18,5.33.46,7,.46,2.57,0,3.4-.65,3.4-2.49V78.16H258.93c-3.22,0-6.17.09-8.46.28.18-2.67.27-4.42.27-8.38V56c0-3.13-.09-5.7-.27-8.56a77.67,77.67,0,0,0,9.38.37h17.66a81.64,81.64,0,0,0,9.48-.37c-.28,3.32-.37,5.62-.37,10.22V117.9c0,5.52-1.11,7.91-4.42,9.29-1.93.83-4.69,1.11-10.39,1.11-1.29,0-1.66,0-6.35-.28a34.82,34.82,0,0,0-2.39-9.47c-2.67-.1-4.42-.1-5.15-.1H238.41v5.16h-9.75a63.09,63.09,0,0,0,.65-9.2V92c0-3.22-.1-5.8-.28-8.28a74.05,74.05,0,0,0,8.56.37H258.1a73.18,73.18,0,0,0,8.56-.37c-.19,2.39-.28,4.69-.28,8.28Zm-28-13.33h18.77V91.78H238.41Zm0,13.43h18.77v-6H238.41Zm21.44-50.88h17.2v-4.6h-17.2Zm0,11.23h17.2v-4.7h-17.2Z"/></g><g class="cls-6"><path class="cls-14" d="M114,79.82a41.94,41.94,0,0,0,7.36.46h6.9a40.59,40.59,0,0,0,7-.46,94.64,94.64,0,0,0-.36,10v19.87a12.33,12.33,0,0,0,4,4.79,16.63,16.63,0,0,0,6,2.76,71.2,71.2,0,0,0,15.82,1.38c17,0,27.14-.46,39.47-1.84a37.68,37.68,0,0,0-2.76,10.49c-9,.36-20.24.64-27.78.64-16.74,0-22.91-.46-28-1.93-4.78-1.57-7.91-3.77-11.68-8.47a98.46,98.46,0,0,1-12.42,10.31l-5.06-9.75a60.24,60.24,0,0,0,12.69-9V89.29h-5a33.76,33.76,0,0,0-6.26.46Zm8.1-34.13A107.45,107.45,0,0,1,138,62.34l-7.63,7.45a92.81,92.81,0,0,0-15.64-17.2ZM151.29,55.9v2.85c0,14-.55,29.71-1.29,35.42-1,8.37-2.21,12.33-6.35,20.51a30.48,30.48,0,0,0-7.91-6.71c5.71-10,6.26-14.81,6.26-50a82.2,82.2,0,0,0-.46-11,81.9,81.9,0,0,0,9.75.37h34.22a73.72,73.72,0,0,0,9.57-.37,77.26,77.26,0,0,0-.37,9.76v50.13c0,4.6-1.47,6.72-5.15,7.73a48.1,48.1,0,0,1-10.12.74c-1.29,0-2.12,0-4.14-.1-.18-3.77-.64-5.88-2-8.46a82,82,0,0,0,8.28.46c3.31,0,3.58-.18,3.58-2.3v-49Zm12.14,13.8h-1.56c-3.13,0-5.61.09-7.73.27V62.25a66.35,66.35,0,0,0,7.73.36h1.56v-.82a28.25,28.25,0,0,0-.36-4.14h9.38a25.06,25.06,0,0,0-.37,4.23v.73h2.39a63.76,63.76,0,0,0,7.64-.36V70c-2.12-.18-4.51-.27-7.64-.27h-2.39v4.78h3.5a57.49,57.49,0,0,0,7.72-.37v8.1a65.93,65.93,0,0,0-7.72-.37H160.76a70.62,70.62,0,0,0-7.81.37v-8.1a59,59,0,0,0,7.81.37h2.67Zm-9.1,39.19a62.25,62.25,0,0,0,.27-6.81V91c0-2.21-.09-4-.27-6,2.11.18,3.67.28,5.7.28h15.36a55,55,0,0,0,5.71-.28c-.1,2.3-.19,3.59-.19,5.8v9.47c0,2.3.09,3.5.19,4.88-1.2-.09-2.67-.19-4.24-.19H162.7v3.87Zm8.37-11h10.39v-5.7H162.7Z"/><path class="cls-14" d="M219.19,117.9a79.7,79.7,0,0,0,.55,11.32H209a83.71,83.71,0,0,0,.55-11.41V57.74a100.85,100.85,0,0,0-.37-10.31,82.54,82.54,0,0,0,9.47.37h16.29a76.72,76.72,0,0,0,9.38-.37c-.18,3-.27,5-.27,8.56V70.06c0,4.24.09,6.35.27,8.38-2.39-.19-5.24-.28-8.46-.28H219.19Zm0-58H235v-4.6H219.19Zm0,11.23H235v-4.7H219.19Zm47.19,39.55c0,3.5.09,5.62.28,8,2,.18,5.33.46,7,.46,2.57,0,3.4-.65,3.4-2.49V78.16H258.93c-3.22,0-6.17.09-8.46.28.18-2.67.27-4.42.27-8.38V56c0-3.13-.09-5.7-.27-8.56a77.67,77.67,0,0,0,9.38.37h17.66a81.64,81.64,0,0,0,9.48-.37c-.28,3.32-.37,5.62-.37,10.22V117.9c0,5.52-1.11,7.91-4.42,9.29-1.93.83-4.69,1.11-10.39,1.11-1.29,0-1.66,0-6.35-.28a34.82,34.82,0,0,0-2.39-9.47c-2.67-.1-4.42-.1-5.15-.1H238.41v5.16h-9.75a63.09,63.09,0,0,0,.65-9.2V92c0-3.22-.1-5.8-.28-8.28a74.05,74.05,0,0,0,8.56.37H258.1a73.18,73.18,0,0,0,8.56-.37c-.19,2.39-.28,4.69-.28,8.28Zm-28-13.33h18.77V91.78H238.41Zm0,13.43h18.77v-6H238.41Zm21.44-50.88h17.2v-4.6h-17.2Zm0,11.23h17.2v-4.7h-17.2Z"/></g><g class="cls-8"><path class="cls-9" d="M169.69,127.21c-9.92,0-22.62,1.37-31.78-3.54a21.25,21.25,0,0,1-4.39-3.19c-.69-.64-2.6-3.5-3.21-3.53-1,0-2.55,1.94-3.6,2.88s-8,7.53-9,7.12c-.63-.27-1.64-3.18-1.91-3.69-.36-.69-2.82-4.34-2.59-5,0,0,1.38-.62,2.05-.9a27.52,27.52,0,0,0,5.12-3.48c2-1.49,4.66-2.82,5.2-5.2.75-3.29,0-7.72,0-11.07v-9c-1.78,0-3.55,0-5.32,0-.62,0-5.7.79-5.9.63s0-2.17,0-2.53c0-.78-.58-5.91,0-6.32.15-.11,3.67.58,4.19.6,1.14,0,2.28,0,3.41,0,2.05,0,4.09,0,6.14,0,1.29,0,3.94-.49,5.2-.19,1.94.46,1.41.59,1.32,2.58-.14,3.19-.09,6.39-.09,9.59v14.42c0,2.72-.09,3.32,1.92,5.68,4.8,5.6,13.08,6,19.9,6.21,8.77.31,17.63.07,26.39-.35q6.09-.3,12.15-.86a10.94,10.94,0,0,1,2.71-.27c1.75.3,1.21.09,1.14,1.54s-1,3.47-1.24,5-.06,1.67-1.2,2.24-3.06.11-4.24.15c-2.6.09-5.2.16-7.79.23-4.87.12-9.74.2-14.61.21,0,0,0,.73,0,.73,6.6,0,13.2-.16,19.8-.36l5.16-.17c2.47-.1,2.43.14,2.88-2.31a41.94,41.94,0,0,1,2.16-7.52c0-.07,0-.73,0-.73-9.37,1-18.77,1.55-28.19,1.7-9.23.15-20.85,1.59-29.53-2.29-2.72-1.21-6.79-4.26-7.4-6.7-.5-2,0-4.73,0-6.78,0-7.36-.3-14.85.32-22.18,0-.07,0-.72,0-.72a82.8,82.8,0,0,1-20.51,0v9.48s0,.36,0,.36c1.39-.18,10.43-1.3,11.22-.52,1,1,0,8,0,9.41,0,2.84.92,7.4,0,10.1-1,3.07-9.24,7.45-12.56,9.19a2.55,2.55,0,0,0,0,.73l2.35,4.53c.34.65,1.65,4.33,2.35,4.54s4.78-3.6,5.52-4.2c1.54-1.25,3.06-2.54,4.51-3.89,3.21-3,2-2.13,5.22,1.09,9.17,9.08,24.95,7.25,36.7,7.26Z"/><path class="cls-9" d="M179.44,114.61c-3.23,0-4.61-1.74-4.49-5a11.27,11.27,0,0,0-.56-1.7,5.14,5.14,0,0,1,2.75-.13c1.47,0,2.94.17,4.42.15,2.76,0,3.72-.2,3.94-2.92.33-4.1,0-8.36,0-12.47V55.18H150.94s0,.36,0,.36c0,14.85.94,31.14-2.53,45.75a48.26,48.26,0,0,1-3,8.56,14.8,14.8,0,0,1-1,2.21c-1.79,2.65-.13,1.42-1.63.64a27.53,27.53,0,0,1-5-4.18c-1.23-1.34-1-.42-.66-1.91a9.56,9.56,0,0,1,.92-1.8,36.69,36.69,0,0,0,1.51-3.61c2.39-6.88,2.47-14.5,2.65-21.69.25-9.52.52-19.13.08-28.64,0-.81-.4-2.41.22-2.86s2.38-.06,3.25,0c2,.07,3.93.07,5.9.07h32.2c3,0,6.82-.93,9.63-.21,1.38.35.61-.19,1.08.86.25.56-.12,2.51-.13,3,0,1.64,0,3.28,0,4.92,0,5,0,10,0,15v28.44c0,2.21.09,4.44,0,6.65-.37,8.42-8.33,7.8-14.92,7.85,0,0,0,.73,0,.73,4.47,0,12.44.82,14.44-4.46a12.64,12.64,0,0,0,.48-4.24c.13-5.21,0-10.44,0-15.64,0-14.26-1.07-29.06.32-43.27,0-.07,0-.72,0-.72-8.65.85-17.6.32-26.28.32S150.67,47.8,142,47c0,0,0,.66,0,.72,1.17,11,.53,22.43.15,33.46a109.76,109.76,0,0,1-.93,12.29,40.55,40.55,0,0,1-5,14,2.48,2.48,0,0,0,0,.72c1.78,1.19,4.64,4.5,6.54,5.21,1.6.61-.35,2.29,1.63-.63a18.64,18.64,0,0,0,1.35-2.93,51.84,51.84,0,0,0,3.71-13.68c1-7.54,1.14-15.23,1.33-22.82.08-3.61.14-7.23.16-10.85,0-1-.47-6.15.16-6.6s2.94,0,3.51,0h25.5c1.41,0,3.29-.34,4.66,0s.21-.74.73.53c.43,1,0,3.13,0,4.24v41.38a14.19,14.19,0,0,1,0,2.84c-.9,4.16-8.39,2.2-11.6,1.92,0,0,0,.66,0,.73a21,21,0,0,1,1.74,7.7h0c1.27,0,2.53.07,3.8.08C179.45,115.34,179.45,114.61,179.44,114.61Z"/><path class="cls-9" d="M154.72,108.9c.51-6,.3-12.12.24-18.12,0,.73-.11-2.75-.07-2.88.8-2.54,2.7-1.88,5.14-1.85,1.33,0,2.65,0,4,0,3.77,0,7.54,0,11.3,0,.46,0,5.22-.53,5.39-.37s-.12,2.92-.13,3.35c0,.76,0,1.52,0,2.29,0,3.06,0,6.13,0,9.19,0,.53,0,1.06,0,1.58.06,2.4.13,2.22-2.29,2.24-1.35,0-2.71,0-4.07,0H162.34v.36c0,.72.31,2.25,0,2.86-.54,1,0,.39-1.58.64a40.59,40.59,0,0,1-6,0s0,.73,0,.73h7.62s0-.36,0-.37c0-.66-.32-2.33,0-2.86,1-1.63-.62.11.73-.64,1.13-.62,4.28,0,5.54,0,4,0,8.07-.1,12.1.16v-.71a173.73,173.73,0,0,1,0-18.68c0-.06,0-.71,0-.71a173.84,173.84,0,0,1-26,0s0,.66,0,.72a145.26,145.26,0,0,1,0,22.37C154.7,108.41,154.74,108.66,154.72,108.9Z"/><path class="cls-9" d="M162.34,98.65h11.11V91.52H162.34v6.77c0,.41,0,.42,0,0V93.42a3.78,3.78,0,0,1,0-1.21c.26-.52-.31.14,0,0a4.29,4.29,0,0,1,1.24,0h6c.57,0,3.63-.29,3.81-.17,0,0,0,1.22,0,1.73v3a3.78,3.78,0,0,1,0,1.21c-.26.51.31-.15,0,0a5.47,5.47,0,0,1-1.4,0h-9.68Z"/><path class="cls-9" d="M153.3,74.87a101.93,101.93,0,0,0,10.49.33V69c-2.21,0-4.44-.09-6.64.09-3.31.28-2.65.27-2.65-2.95a7.73,7.73,0,0,1,0-2.54c.54-1.09.45-.44,1.92-.41,2.46,0,4.91.16,7.37.16V63c0-.91-.1-1.94,0-2.85.07-1.1-.34-1.29.28-1.76s3.17,0,3.73,0c.77,0,2.75-.37,3.42,0,1,.58.37-.08.65,1.21a21.88,21.88,0,0,1-.1,3.4s0,.36,0,.36c2,0,4,0,6.06,0,1.13,0,3.6-.56,4,0s0,2.27,0,2.87.33,2.37,0,2.86-2.23.1-3.35.06C176.18,69,174,69,171.73,69c0,0,0,.36,0,.36v5.49s0,.37,0,.37c2.26,0,4.53,0,6.79,0,.43,0,4.31-.59,4.43-.48.28.24,0,2.63,0,3,0,.69.38,2.93,0,3.51s-3,0-4.17,0c-1.9-.07-3.8,0-5.7,0-4.08,0-8.16,0-12.23,0-1.57,0-3.16,0-4.72.12a9.37,9.37,0,0,0-2.83.41V80.48c-.62-1.41,0-4.38,0-6,0-.4,0-.42,0,0v7.31s0,.36,0,.36a170.7,170.7,0,0,1,29.65,0v-8c-2.55.26-5.09.31-7.66.32-.65,0-2.78.37-3.28,0-.34-.25-.11-.59-.28-1.49a8.07,8.07,0,0,1,0-2.94c.49-.69.25,0,1.37-.33,2.45-.72,6.13.07,8.66.24V62.64s0-.36,0-.36c-2.52.25-5,.32-7.57.32-3.27,0-2.61-.6-2.17-4.24,0-.07,0-.72,0-.72h-8.54s0,.66,0,.72c.4,3.17,1.05,3.72-1.61,4.24-2.25.45-5.11-.11-7.38-.32V70c2.1-.14,6.33-1,8.34-.24,1.39.53.4-.6.95,1.06a6.9,6.9,0,0,1,0,2.64c-.48,1.66-.52,1.07-2.7,1.06-2.6,0-5.19-.06-7.78-.32C153.32,74.15,153.27,74.87,153.3,74.87Z"/><path class="cls-9" d="M130.45,68.89c-2.12-2.85-4.27-5.68-6.65-8.33s-5.37-4.64-7.36-7.3c-1.15-1.55-1.08.34-.08-1.32a14.13,14.13,0,0,1,2.35-2.21c.66-.62,2.51-3.07,3.42-3.2s4,3.6,4.64,4.21c1.3,1.23,2.57,2.48,3.81,3.78S132.91,57,134,58.33c.36.43,3.48,3.53,3.47,3.68-.05.85-3.19,3.12-3.8,3.71l-3.25,3.17c-.12.12.12.61,0,.73l7.12-7a2.24,2.24,0,0,0,0-.73c-2.23-2.81-4.51-5.56-7-8.15q-1.86-1.93-3.81-3.78c-.65-.61-3.88-4.32-4.64-4.21s-2.76,2.59-3.42,3.21l-3.42,3.21a2.17,2.17,0,0,0,0,.72,113.13,113.13,0,0,1,15.16,16.68C130.34,69.46,130.57,69.05,130.45,68.89Z"/><path class="cls-9" d="M209.38,129.23c1.05-8.91.5-18.19.5-27.14v-40c0-3.21,0-6.41,0-9.61-.05-1.77-.91-3.43.76-4.2,1.29-.6,5,.21,6.32.22,2.8,0,5.61,0,8.41,0h9c1.32,0,2.63,0,3.95,0a31.82,31.82,0,0,1,3.65-.14c1.95.19,1.57.11,1.91,1.73.38,1.81-.11,4.33-.11,6.23,0,3.17,0,6.34,0,9.51,0,2.52,0,5,0,7.57,0,.68.51,3.86.16,4.22-.59.6-7.13-.17-8-.18-5.67,0-11.34,0-17,0v33.24c0,3.4,0,6.8,0,10.19,0,1.94.63,4.39.26,6.26-.42,2.08.59.88-1.17,1.37-2.47.69-6,0-8.56,0,0,0,0,.73,0,.73h10s0-.66,0-.73c-1.69-13.93-.49-28.68-.49-42.68,0-1.94-.62-5.08,0-6.92.27-.82,0-.72.07-.73.49-.34,2.35,0,3,0,7.33,0,14.72-.21,22,.25,0,0,0-.66,0-.73a225.27,225.27,0,0,1,0-29.51c0-.06,0-.71,0-.71a193.4,193.4,0,0,1-34.37,0s0,.66,0,.72c1.08,13.4.33,27.15.33,40.57,0,13,1,26.76-.5,39.74C209.35,128.74,209.41,129,209.38,129.23Z"/><path class="cls-9" d="M218.83,71.79h16.53s0-.36,0-.36V66s0-.36,0-.36H218.83v5.76c0,.4,0,.42,0,0,0-1-.33-4.92,0-5.17s3.76.14,4.46.14h7.57c.71,0,4.11-.4,4.46-.14a21.37,21.37,0,0,1,0,2.47,12.49,12.49,0,0,1,0,1.73v.63c0,.34,0,.33,0,0-.84.51-3.49,0-4.45,0h-12Z"/><path class="cls-9" d="M218.83,60.57h16.53s0-.36,0-.36V54.9s0-.36,0-.36H218.83v5.67c0,.4,0,.41,0,0,0-.94-.32-4.84,0-5.08s3.77.13,4.46.13h7.57c.7,0,4.12-.39,4.46-.13a22.88,22.88,0,0,1,0,2.42,12.06,12.06,0,0,1,0,1.7c-.1.67-.11.64,0,.59-.84.52-3.49,0-4.45,0h-12Z"/><path class="cls-9" d="M271.81,127.58c-1.45,0-4,.35-5.21-.21-1.83-.82-1.48-5.72-2.68-7.89-.84-1.51-.1-1.29-.84-1.65s-3-.08-3.79-.09H238.06v.36c0,1,.49,3.63,0,4.35s-1.19.44-2.62.44-4.1.55-5.3,0a3.2,3.2,0,0,1-.93,0c-.25-.2.27-3.15.29-3.45.34-5.07.16-10.19.16-15.27,0-5.29.1-10.59,0-15.89-.08-3.4.06-3.73,3.48-3.59,1.57.07,3.15.07,4.73.07,3.17,0,6.35,0,9.52,0h12.43a39.42,39.42,0,0,1,4.06-.13c2.76.26,2.29.88,2.22,3.52-.12,4.86,0,9.73,0,14.59v7.83c0,1.77-.69,7.23.28,8.45,1.24,1.53,9.79,1.53,10.94-.84a7,7,0,0,0,.17-2.35c.42-12.65,0-25.37,0-38,0,0,0-.37,0-.37H257.11c-1.34,0-2.78.22-4.11.12-1.84-.14-1.58.05-2-1.52-.51-1.79.1-4.76.11-6.7,0-5.1.05-10.2,0-15.29,0-1.49-.64-4.33.31-5.35s5.27-.21,6.7-.2c2.72,0,5.44,0,8.16,0h9.66c2.4,0,9.2-1.39,10.58.27.82,1-.23,7.21-.24,8.76V98c0,6.07.05,12.15,0,18.23,0,2.69.27,5.8-1.36,8.09-2.72,3.84-9,3.22-13.09,3.24,0,0,0,.73,0,.73,4.73,0,11.93.61,13.88-4.93a18.35,18.35,0,0,0,.58-6c0-6.14,0-12.29,0-18.43,0-16.82-.93-34,.33-50.76,0-.07,0-.72,0-.72a200.52,200.52,0,0,1-35.76,0s0,.65,0,.71a246.39,246.39,0,0,1,0,29.52c0,.06,0,.72,0,.72,8-.5,16-.25,24-.25,2.38,0,2.49-.83,2.53,1.37.06,3,0,6,0,9.07v23.84c0,1.56.52,4.54-.65,5.82-1.44,1.57-5.29.74-7.11.61s-2.68.18-3.36-1c-.88-1.49-.24-5.92-.25-7.33-.07-8.68-.32-17.48.24-26.15,0-.06,0-.71,0-.71a212,212,0,0,1-36.86,0s0,.65,0,.71c.4,6.4.24,12.85.24,19.26s.26,12.86-.57,19.21c0,.07,0,.73,0,.73h9v-.37c0-.88-.4-4.51,0-4.86s2.94.07,3.45.07h12.89c2.09,0,7.32-.87,8.89.1,1.75,1.1,1.41,6.15,2.22,7.9-.3,1.58.33,2.14,1.89,1.69l2.18.11c.73,0,1.46.05,2.2.05Z"/><path class="cls-9" d="M238.06,111.44h19.47s0-.36,0-.36v-6.69s0-.36,0-.36H238.06v7h0c0-1.11-.46-6.09,0-6.45s4.41.13,5.26.13h8.92c.84,0,4.75-.5,5.25-.13s-.07,6.13,0,6.09c-.87.61-4.2,0-5.23,0h-14.2Z"/><path class="cls-9" d="M238.06,98h19.47s0-.36,0-.36V91.42s0-.36,0-.36H238.06v6.59h0c0-1.26-.27-5.65,0-5.86.85-.59,4.25,0,5.24,0h8.92c.74,0,4.88-.46,5.25-.12s-.11,5.64-.07,5.62c-1,.61-4.4,0-5.54,0H238.06Z"/><path class="cls-9" d="M259.5,71.79h17.9s0-.36,0-.36V66s0-.36,0-.36H259.5s0,.36,0,.36v5.4c0,.4,0,.42,0,0v-2.7c0-.77.06-2.35,0-2.33.82-.54,3.88,0,4.82,0h8.2c.78,0,4.4-.45,4.83-.13a21,21,0,0,1,0,2.8,13.34,13.34,0,0,1-.09,2c-1,.56-4,0-5.08,0H259.5S259.49,71.79,259.5,71.79Z"/><path class="cls-9" d="M259.5,60.57h17.9s0-.36,0-.36V54.9s0-.36,0-.36H259.5s0,.36,0,.36v5.31c0,.4,0,.41,0,0V57.55c0-.76.06-2.31,0-2.29.82-.54,3.88,0,4.82,0h8.2c.77,0,4.41-.44,4.83-.13a20.22,20.22,0,0,1,0,2.75,12.43,12.43,0,0,1-.09,2c-1,.57-4,0-5.08,0H259.5S259.49,60.57,259.5,60.57Z"/></g><path class="cls-10" d="M114,79.82a41.94,41.94,0,0,0,7.36.46h6.9a40.59,40.59,0,0,0,7-.46,94.64,94.64,0,0,0-.36,10v19.87a12.33,12.33,0,0,0,4,4.79,16.63,16.63,0,0,0,6,2.76,71.2,71.2,0,0,0,15.82,1.38c17,0,27.14-.46,39.47-1.84a37.68,37.68,0,0,0-2.76,10.49c-9,.36-20.24.64-27.78.64-16.74,0-22.91-.46-28-1.93-4.78-1.57-7.91-3.77-11.68-8.47a98.46,98.46,0,0,1-12.42,10.31l-5.06-9.75a60.24,60.24,0,0,0,12.69-9V89.29h-5a33.76,33.76,0,0,0-6.26.46Zm8.1-34.13A107.45,107.45,0,0,1,138,62.34l-7.63,7.45a92.81,92.81,0,0,0-15.64-17.2ZM151.29,55.9v2.85c0,14-.55,29.71-1.29,35.42-1,8.37-2.21,12.33-6.35,20.51a30.48,30.48,0,0,0-7.91-6.71c5.71-10,6.26-14.81,6.26-50a82.2,82.2,0,0,0-.46-11,81.9,81.9,0,0,0,9.75.37h34.22a73.72,73.72,0,0,0,9.57-.37,77.26,77.26,0,0,0-.37,9.76v50.13c0,4.6-1.47,6.72-5.15,7.73a48.1,48.1,0,0,1-10.12.74c-1.29,0-2.12,0-4.14-.1-.18-3.77-.64-5.88-2-8.46a82,82,0,0,0,8.28.46c3.31,0,3.58-.18,3.58-2.3v-49Zm12.14,13.8h-1.56c-3.13,0-5.61.09-7.73.27V62.25a66.35,66.35,0,0,0,7.73.36h1.56v-.82a28.25,28.25,0,0,0-.36-4.14h9.38a25.06,25.06,0,0,0-.37,4.23v.73h2.39a63.76,63.76,0,0,0,7.64-.36V70c-2.12-.18-4.51-.27-7.64-.27h-2.39v4.78h3.5a57.49,57.49,0,0,0,7.72-.37v8.1a65.93,65.93,0,0,0-7.72-.37H160.76a70.62,70.62,0,0,0-7.81.37v-8.1a59,59,0,0,0,7.81.37h2.67Zm-9.1,39.19a62.25,62.25,0,0,0,.27-6.81V91c0-2.21-.09-4-.27-6,2.11.18,3.67.28,5.7.28h15.36a55,55,0,0,0,5.71-.28c-.1,2.3-.19,3.59-.19,5.8v9.47c0,2.3.09,3.5.19,4.88-1.2-.09-2.67-.19-4.24-.19H162.7v3.87Zm8.37-11h10.39v-5.7H162.7Z"/><path class="cls-10" d="M219.19,117.9a79.7,79.7,0,0,0,.55,11.32H209a83.71,83.71,0,0,0,.55-11.41V57.74a100.85,100.85,0,0,0-.37-10.31,82.54,82.54,0,0,0,9.47.37h16.29a76.72,76.72,0,0,0,9.38-.37c-.18,3-.27,5-.27,8.56V70.06c0,4.24.09,6.35.27,8.38-2.39-.19-5.24-.28-8.46-.28H219.19Zm0-58H235v-4.6H219.19Zm0,11.23H235v-4.7H219.19Zm47.19,39.55c0,3.5.09,5.62.28,8,2,.18,5.33.46,7,.46,2.57,0,3.4-.65,3.4-2.49V78.16H258.93c-3.22,0-6.17.09-8.46.28.18-2.67.27-4.42.27-8.38V56c0-3.13-.09-5.7-.27-8.56a77.67,77.67,0,0,0,9.38.37h17.66a81.64,81.64,0,0,0,9.48-.37c-.28,3.32-.37,5.62-.37,10.22V117.9c0,5.52-1.11,7.91-4.42,9.29-1.93.83-4.69,1.11-10.39,1.11-1.29,0-1.66,0-6.35-.28a34.82,34.82,0,0,0-2.39-9.47c-2.67-.1-4.42-.1-5.15-.1H238.41v5.16h-9.75a63.09,63.09,0,0,0,.65-9.2V92c0-3.22-.1-5.8-.28-8.28a74.05,74.05,0,0,0,8.56.37H258.1a73.18,73.18,0,0,0,8.56-.37c-.19,2.39-.28,4.69-.28,8.28Zm-28-13.33h18.77V91.78H238.41Zm0,13.43h18.77v-6H238.41Zm21.44-50.88h17.2v-4.6h-17.2Zm0,11.23h17.2v-4.7h-17.2Z"/><g class="cls-11"><path d="M114,79.88a80.2,80.2,0,0,0,11.28.46c1.52,0,3,0,4.56,0,3-.06,5.37-1,5.17,2.55-.28,5.29-.13,10.63-.13,15.92,0,4.36-1.38,9.68,1.5,13.33,3.53,4.5,9.28,5.64,14.66,6.17,7.32.72,14.77.45,22.12.3,5.34-.11,10.69-.32,16-.7,2.51-.19,5.74-1.08,8.21-.73,2.22.32,2.05.06,1.78,2.32-.17,1.51-.92,3.13-1.22,4.65l-.25,1.42c.31,1.63-.31,2.21-1.87,1.74-1.29.47-3.66.13-5,.18q-5.17.16-10.35.27c-6.45.13-12.89.18-19.33.07-7.88-.12-17,.22-24.09-3.92-2.38-1.4-3.84-3.66-6-5.2-2.39-1.7-.18-1-2.1-.15-1.12.5-2.45,2.27-3.4,3.08s-7,6.55-7.93,6.16c-.65-.28-1.55-3-1.87-3.6-.72-1.39-2.65-3.8-2.77-5.35s-.93.76.63-1.21c.94-1.2,3.67-2.21,5-3.12,2-1.4,5.77-3.44,6.7-5.68,1.06-2.58,0-7.86,0-10.63v-9c-2.12,0-10.63.91-11.22,0-1.07-1.59,0-7.39,0-9.45h0v10c1.42-.2,10-1.63,11.22-.36.94,1,0,7.37,0,8.74,0,3,.77,7.07,0,9.92-1.08,4.06-8.94,8-12.69,9.92a.24.24,0,0,0,0,.12l3.61,7c.25.48,1,2.59,1.45,2.79.75.31,5.95-4.51,6.73-5.15,1.19-1,2.36-2,3.5-3,.56-.51,1.11-1,1.65-1.57.57-.92,1.09-.69,1.55.68,1.79,1.3,3.07,3.27,5,4.54a24.55,24.55,0,0,0,9.87,3.63c8.94,1.47,18.34,1.07,27.36,1,6.15,0,12.29-.21,18.43-.41a19.53,19.53,0,0,0,4.19-.15c2.31-.63,1.64-.66,2.12-3.16a43.44,43.44,0,0,1,2.25-7.39.48.48,0,0,0,0-.12c-9.26,1-18.54,1.57-27.86,1.74s-21.52,1.75-30.38-2.28c-3-1.38-6.39-3.88-7.07-7.25-.45-2.19,0-5,0-7.2,0-7.26-.29-14.64.36-21.87v-.12a78,78,0,0,1-21.25,0S114,79.88,114,79.88Z"/><path d="M122.13,45.75c2.94,2.6,5.85,5.24,8.58,8.08,1.19,1.25,7.53,6.92,7.26,8.52-.16.93-6.65,7.32-7.56,7.38s-5.93-7.59-6.9-8.67c-2.19-2.45-5.81-4.74-7.55-7.46-1.43-2.24-1-.34,0-2a14.27,14.27,0,0,1,2.53-2.37l3.68-3.45s0-.11,0-.12l-7.36,6.9a.24.24,0,0,0,0,.12c2.88,2.59,5.72,5.22,8.33,8.08q1.7,1.88,3.27,3.84c.6.74,3.35,5.24,4,5.28s3-2.93,3.48-3.4L138,62.4a.24.24,0,0,0,0-.12,129.1,129.1,0,0,0-15.91-16.65S122.11,45.73,122.13,45.75Z"/><path d="M151.29,55.9c0,12.41.16,25.08-1.2,37.44a58.3,58.3,0,0,1-2.28,11.71,56.39,56.39,0,0,1-2.65,6.5,26.19,26.19,0,0,1-1.51,3.07c-.39,0-2.09-2.3-2.59-2.76-1.44-1.31-4.91-3-4.7-4.93.06-.65.8-1.49,1.1-2.1a35.69,35.69,0,0,0,2.12-5.26,57.35,57.35,0,0,0,2-13.16c.39-6.47.41-13,.44-19.44,0-3.64,0-7.28,0-10.92,0-1.79-1.12-6.77-.33-8.11,1-1.73,7.92-.54,9.67-.54h33.85c2.45,0,5.07-.35,7.5-.15,1.58.14,1.77-.48,2.24,1.27.25.94-.15,2.76-.17,3.76-.18,7.55,0,15.12,0,22.67,0,10.23.21,20.48,0,30.72-.14,6.87-3.14,9-9.73,9.44a33.14,33.14,0,0,1-6.45.15c-2.52-.33-2.79-.63-3.47-3-.24-.82-1.47-3.89-1.25-4.51.56-1.57,7.18-.42,8.45-.51,3.42-.24,2.88-2.11,2.88-4.79V55.84H151.29V56H180.4c.76,0,4.28-.45,4.74,0s0,4.1,0,4.81V95.72c0,2.76.1,5.54,0,8.3,0,.92.17,2.12-.55,2.79-1.81,1.69-9.1.11-11.31-.1a.48.48,0,0,0,0,.12,21,21,0,0,1,2,8.46h0c4.84.2,12.07,1.19,16.39-1.49,2.55-1.58,2.92-4.18,3-6.94.18-4.66,0-9.37,0-14,0-15.06-1.21-30.78.37-45.79v-.12c-8.61.9-17.54.37-26.19.37-9,0-18.33.49-27.35-.37V47c1.35,11.06.59,22.77.23,33.91a111.45,111.45,0,0,1-.91,12.51,40.82,40.82,0,0,1-5.12,14.46V108a41.88,41.88,0,0,1,5.32,4c.51.46,2.19,2.75,2.59,2.76.92,0,3.88-8.71,4.16-9.57a63.2,63.2,0,0,0,2.54-14.58c.9-11.53.94-23.13.94-34.69Z"/><path d="M163.43,69.64c-2.42,0-4.84.06-7.26.13-2.8.09-2-1.17-2-3.66a10.76,10.76,0,0,1,0-2.66c.63-1.45-.28-.53,1.41-1,2.08-.58,5.64.22,7.88.22v-.06c0-.79,0-1.53-.05-2.33-.12-2.18-.64-2,1-2.57,1-.34,2.81,0,3.85,0,.8,0,2.52-.34,3.24,0,1.19.55.67.07.73,1.79,0,1-.12,2.08-.12,3.11v.06c2.41,0,4.82,0,7.23-.12,1.59-.07,2.24-.59,2.8.59.3.64,0,2.26,0,3a8.79,8.79,0,0,1,0,2.66c-.62,1.48-.6,1-2.7,1-2.45-.08-4.89-.1-7.33-.1v4.9c3,0,6,0,9-.15,2-.11,1.79-.43,2.2,1.18.32,1.23,0,3.12,0,4.39,0,2,.37,1.76-1.5,2s-4.34-.21-6.31-.22c-2.28,0-4.56,0-6.84,0-2.46,0-4.92,0-7.38,0-1.5,0-3,0-4.48.08-.59,0-3.57.49-3.84.21s.06-.77,0-1c-.4-1.09,0-3.18,0-4.33,0-2-.47-2,1.1-2.48,2.57-.71,6.58.24,9.38.24V69.7h0c0,2,.6,4-.94,4.72-2.2,1.08-7.18-.1-9.54-.37v8.22a165.42,165.42,0,0,1,30.35,0V74.05a73.37,73.37,0,0,1-8,.37c-1.79,0-2.68.46-3.24-1.07a8.13,8.13,0,0,1,0-2.91c.54-.89-.18-.24,1.2-.68,2.44-.78,6.33.08,8.83.27V62.18a45.69,45.69,0,0,1-8,.37c-2.94-.2-2.16-1.88-1.65-4.84v-.12h-9.38a.24.24,0,0,0,0,.12c.39,2.78,1.32,4.21-1.2,4.84-2.25.57-5.44-.13-7.73-.37V70c3.1-.23,6.19-.27,9.29-.27Z"/><path d="M154.33,109a176.2,176.2,0,0,0,.27-18c0-3.09-1.08-5.09,2.61-5.67a36.52,36.52,0,0,1,5.22.07c4.16,0,8.32,0,12.48,0,3.16,0,5.4-1,6.06,2.53a20.69,20.69,0,0,1-.06,3c0,3.12,0,6.25,0,9.37,0,1.81.68,3.75-1.1,4.71-.81.43-4.35-.1-5.53-.1H162.7V105c0,2.7.77,3.63-1.89,3.81-2.14.13-4.34,0-6.48,0V109h8.37v-.06c0-1.66-.43-3.11.71-3.81s4.25,0,5.41,0c4.09,0,8.19-.09,12.28.19v-.12a183.33,183.33,0,0,1,0-20V85a161.68,161.68,0,0,1-26.77,0,.48.48,0,0,0,0,.12,141.14,141.14,0,0,1,0,23.71A.48.48,0,0,0,154.33,109Z"/><path d="M162.7,98h10.39V92.17H162.7v5.77h0V93.37c0-1.36.14-1.07,1.47-1.07h5.34c.53,0,3.15-.37,3.57,0s0,3.94,0,4.53c0,1.34-.14,1.07-1.47,1.07H162.7Z"/><path d="M219.19,117.92c0,1.62,0,3.25.06,4.87,0,1.07.84,4.66.37,5.63s-1.36.74-3,.74c-1.9,0-3.91.18-5.81,0s-1.77,0-1.61-2.29c.12-1.86.22-3.72.26-5.59,0-1.49,0-3,0-4.48q0-20.55,0-41.09V58.9c0-1.48,0-2.95,0-4.42s-.68-4.1-.22-5.47c.74-2.17,3.86-1.21,6-1.17,6.53.13,13.07,0,19.6,0,2.2,0,4.47-.24,6.66-.13,1.4.07,1.95-.49,2.72,1.05.39.78-.14,3.09-.16,4-.05,2.06,0,4.12,0,6.18v10.9c0,2.42,1.24,7.58-1.21,8.42-2,.67-5.46-.18-7.63-.18h-16v39.8h0V84.75c0-1.37-.64-4.71,0-6,.54-1,2.07-.58,3.6-.58,7.16,0,14.36-.2,21.51.28v-.12a222.69,222.69,0,0,1,0-30.89v-.12a181.75,181.75,0,0,1-35.14,0v.12c1.17,13.45.37,27.3.37,40.78s1.1,27.56-.55,40.89a.48.48,0,0,0,0,.12h10.76v-.12a84.82,84.82,0,0,1-.55-11.27Z"/><path d="M219.19,59.91H235V55.19H219.19v4.66h0c0-.83-.44-4.09.12-4.54s3.9,0,4.74,0H231c.55,0,3.59-.4,4,0s.16,4.25-.11,4.45c-.67.54-3.88,0-4.73,0h-11Z"/><path d="M219.19,71.14H235V66.32H219.19v4.76h0c0-.76-.48-4.21,0-4.63s3.57,0,4.26,0h7.24c.71,0,3.73-.47,4.27,0a13.66,13.66,0,0,1-.06,4.56c-.66.49-3.7,0-4.49,0H219.19Z"/><path d="M266.38,110.67c0,2.68.08,5.35.28,8h0c3.24.28,9.85,2.17,10.39-2.3.45-3.64,0-7.6,0-11.26v-27c-6,0-12.08,0-18.12,0-1.77,0-3.66.25-5.42.1-2.71-.23-2.62-.43-2.86-2.8a52.62,52.62,0,0,1,.09-5.32c0-3,0-6,0-8.95,0-2.34,0-4.67,0-7,0-1.09-.17-2.31-.09-3.4.17-2.22.05-2.72,2.16-3,2.27-.32,4.92.16,7.22.16,7.21,0,14.43.15,21.64,0,2.91-.08,4.78-.9,5.13,2.22a50.16,50.16,0,0,1-.17,5.74c0,1.51,0,3,0,4.51v47.25c0,4.52,1.28,13.52-1.43,17.32-3,4.14-10.13,3.46-14.49,3.37-1,0-2-.09-3.06-.14-.41,0-1.9.11-2.18-.13s-.47-3-.61-3.68c-.3-1.39-.62-4-1.51-5.06s-2.77-.81-4.46-.82c-6.82-.06-13.65,0-20.47,0v.06c0,1,.57,4.36-.06,5s-4.83.08-5.78.08c-3,0-3.84.8-3.58-2.51q.27-3.3.32-6.6c.06-7,0-13.93,0-20.9,0-2.5-1.06-8.64,1-9.68,1.35-.67,6.06.25,7.65.25h18.69c1.59,0,3.18,0,4.77,0s4.21-.79,5.13.75c.33.54-.15,3.32-.16,3.88-.17,7.31,0,14.63,0,21.93h0c0-8.93-.35-18,.28-26.89v-.12c-6.24.59-12.56.37-18.82.37s-12.58.22-18.81-.37v.12c.44,6.62.28,13.3.28,19.94s.29,13.33-.65,19.87v.12h9.75v-.06c0-1-.52-4.5.16-5.1s4.13,0,4.9,0c4.63,0,9.27,0,13.9,0,1.94,0,4.88-.47,6,.83.87,1,1.23,3.75,1.51,5.07.18.82.07,2.16.49,2.85.7,1.15,1.44.91,2.91,1,4.73.24,11.72,1.2,15.68-2s2.69-11.34,2.69-15.84V79c0-10.43-.45-21.05.37-31.46v-.12c-6.23.61-12.55.37-18.8.37-5.89,0-11.86.24-17.72-.37v.12a252.67,252.67,0,0,1,0,30.89v.12c7.76-.53,15.6-.28,23.37-.28,2.43,0,2.61-.58,3.21,1.09.8,2.21,0,6.19,0,8.53V111c0,1.72.39,3.93,0,5.61-.58,2.51-2.15,2.47-4.57,2.43-1,0-3.53.24-4.48-.31-2.46-1.44-1.61-5.85-1.62-8.1Z"/><path d="M238.41,97.36h18.77V91.71H238.41V97.3h0c0-.9-.56-5,0-5.46s4.24,0,5.05,0h8.59c.84,0,4.43-.55,5.07,0,.32.29.2,5.17-.07,5.38-.78.59-4.4,0-5.34,0H238.41Z"/><path d="M238.41,110.79h18.77v-6.1H238.41v6h0c0-.94-.59-5.42,0-5.92s4.2,0,5.05,0h8.59c.88,0,4.39-.56,5.07,0,.35.3.22,5.55-.07,5.83-.63.56-4.53,0-5.34,0H238.41Z"/><path d="M259.85,59.91h17.2V55.19h-17.2v4.66h0c0-.87-.44-4.06.14-4.54s4.27,0,5.14,0h7.56c.71,0,3.78-.46,4.34,0,.34.29.13,4.25-.12,4.45-.69.58-4.25,0-5.14,0H259.85Z"/><path d="M259.85,71.14h17.2V66.32h-17.2v4.76h0c0-.88-.45-4.16.14-4.63s4.26,0,5.14,0h7.56c.72,0,3.77-.47,4.34,0,.34.29.13,4.34-.12,4.55-.7.57-4.24,0-5.14,0H259.85Z"/></g></g></g></g></svg>