<svg xmlns="http://www.w3.org/2000/svg" xmlns:xlink="http://www.w3.org/1999/xlink" viewBox="0 0 484.27 122.12"><defs><style>.cls-1{isolation:isolate;}.cls-10,.cls-2{fill:none;}.cls-2{stroke:#fff;stroke-linejoin:round;stroke-width:15px;}.cls-3{fill:url(#linear-gradient);}.cls-4{opacity:0.51;}.cls-4,.cls-6,.cls-8{mix-blend-mode:screen;}.cls-5{fill:url(#linear-gradient-2);}.cls-6{opacity:0.7;}.cls-7{fill:url(#linear-gradient-3);}.cls-8{opacity:0.49;}.cls-9{fill:#fff;}.cls-10{stroke:#717171;stroke-miterlimit:1;stroke-width:0.59px;}.cls-11{opacity:0.58;}.cls-12{fill:url(#linear-gradient-4);}.cls-13{fill:url(#linear-gradient-10);}.cls-14{fill:url(#linear-gradient-16);}</style><linearGradient id="linear-gradient" x1="445.23" y1="100.87" x2="445.23" y2="34.75" gradientUnits="userSpaceOnUse"><stop offset="0" stop-color="#656565"/><stop offset="0.62" stop-color="#1b1b1b"/><stop offset="0.63" stop-color="#545454"/><stop offset="0.98" stop-color="#3e3e3e"/></linearGradient><linearGradient id="linear-gradient-2" x1="445.23" y1="100.87" x2="445.23" y2="34.75" gradientUnits="userSpaceOnUse"><stop offset="0" stop-color="#0e0e0e"/><stop offset="0.5"/><stop offset="0.52" stop-color="#010101"/><stop offset="0.73" stop-color="#0b0b0b"/><stop offset="1" stop-color="#0e0e0e"/></linearGradient><linearGradient id="linear-gradient-3" x1="445.23" y1="34.75" x2="445.23" y2="100.87" gradientUnits="userSpaceOnUse"><stop offset="0" stop-color="#fff" stop-opacity="0.77"/><stop offset="0.2" stop-color="#fff" stop-opacity="0.65"/><stop offset="0.34" stop-color="#fff" stop-opacity="0.65"/><stop offset="0.35" stop-color="#fff" stop-opacity="0.65"/><stop offset="0.37" stop-color="#fff" stop-opacity="0.62"/><stop offset="0.4" stop-color="#fff" stop-opacity="0.53"/><stop offset="0.43" stop-color="#fff" stop-opacity="0.39"/><stop offset="0.47" stop-color="#fff" stop-opacity="0.2"/><stop offset="0.51" stop-color="#fff" stop-opacity="0"/><stop offset="0.59" stop-color="#7e7e7e" stop-opacity="0.09"/><stop offset="1" stop-color="#1b1b1b" stop-opacity="0.16"/></linearGradient><linearGradient id="linear-gradient-4" x1="196.25" y1="114.62" x2="196.25" y2="7.5" xlink:href="#linear-gradient"/><linearGradient id="linear-gradient-10" x1="196.25" y1="114.62" x2="196.25" y2="7.5" xlink:href="#linear-gradient-2"/><linearGradient id="linear-gradient-16" x1="196.25" y1="7.5" x2="196.25" y2="114.62" xlink:href="#linear-gradient-3"/></defs><title>39000yen</title><g class="cls-1"><g id="レイヤー_2" data-name="レイヤー 2"><g id="レイヤー_1-2" data-name="レイヤー 1"><path class="cls-2" d="M422.66,92.05a55.17,55.17,0,0,0,.38,8.82h-9.35a73.14,73.14,0,0,0,.45-9.12V42a65,65,0,0,0-.3-7.29,84.26,84.26,0,0,0,8.44.3h46.21a71.62,71.62,0,0,0,8.28-.3,74.44,74.44,0,0,0-.3,8.28V91.75c0,3.87-.92,6-3.12,7.14-1.44.76-3.88,1.07-8,1.07-3,0-7.14-.15-10.11-.31a29.22,29.22,0,0,0-2.35-8.2c5,.53,8.81.83,11.55.83,3,0,3.42-.23,3.42-2V71.68H422.66Zm18-48.94h-18V63.7h18ZM467.88,63.7V43.11h-19V63.7Z"/><path class="cls-3" d="M422.66,92.05a55.17,55.17,0,0,0,.38,8.82h-9.35a73.14,73.14,0,0,0,.45-9.12V42a65,65,0,0,0-.3-7.29,84.26,84.26,0,0,0,8.44.3h46.21a71.62,71.62,0,0,0,8.28-.3,74.44,74.44,0,0,0-.3,8.28V91.75c0,3.87-.92,6-3.12,7.14-1.44.76-3.88,1.07-8,1.07-3,0-7.14-.15-10.11-.31a29.22,29.22,0,0,0-2.35-8.2c5,.53,8.81.83,11.55.83,3,0,3.42-.23,3.42-2V71.68H422.66Zm18-48.94h-18V63.7h18ZM467.88,63.7V43.11h-19V63.7Z"/><g class="cls-4"><path class="cls-5" d="M422.66,92.05a55.17,55.17,0,0,0,.38,8.82h-9.35a73.14,73.14,0,0,0,.45-9.12V42a65,65,0,0,0-.3-7.29,84.26,84.26,0,0,0,8.44.3h46.21a71.62,71.62,0,0,0,8.28-.3,74.44,74.44,0,0,0-.3,8.28V91.75c0,3.87-.92,6-3.12,7.14-1.44.76-3.88,1.07-8,1.07-3,0-7.14-.15-10.11-.31a29.22,29.22,0,0,0-2.35-8.2c5,.53,8.81.83,11.55.83,3,0,3.42-.23,3.42-2V71.68H422.66Zm18-48.94h-18V63.7h18ZM467.88,63.7V43.11h-19V63.7Z"/></g><g class="cls-6"><path class="cls-7" d="M422.66,92.05a55.17,55.17,0,0,0,.38,8.82h-9.35a73.14,73.14,0,0,0,.45-9.12V42a65,65,0,0,0-.3-7.29,84.26,84.26,0,0,0,8.44.3h46.21a71.62,71.62,0,0,0,8.28-.3,74.44,74.44,0,0,0-.3,8.28V91.75c0,3.87-.92,6-3.12,7.14-1.44.76-3.88,1.07-8,1.07-3,0-7.14-.15-10.11-.31a29.22,29.22,0,0,0-2.35-8.2c5,.53,8.81.83,11.55.83,3,0,3.42-.23,3.42-2V71.68H422.66Zm18-48.94h-18V63.7h18ZM467.88,63.7V43.11h-19V63.7Z"/></g><g class="cls-8"><path class="cls-9" d="M414.08,100.88c1.67-16.09.42-32.78.42-48.92,0-3.1,0-6.19,0-9.28,0-.84,0-1.67,0-2.5,0-2.4-1-3.89,1.45-4.56,2.67-.71,7,.15,9.94.15h42.58c1.12,0,7-.93,7.83.07s-.18,6.65-.18,8.26c0,15.81.63,31.75,0,47.54-.38,9.56-10.07,7.72-17.21,7.46-.73,0-2.12.25-2.71-.12-1-.6-.87-1.65-1.19-2.94a25.37,25.37,0,0,1-.89-2.92c.73-1.18,2.6-.58,3.67-.48,2.09.17,8.58,1.54,10.11-.44,1.08-1.4.35-5.8.35-7.16V71.33s0-.36,0-.36H422.3v.36q0,10.11,0,20.21c0,2,.92,6.24.17,8-.43,1-1.05.63-2.67.63h-5.72v.73h8.54s0-.66,0-.73c-1.11-8.52-.31-17.69-.31-26.28,0-2.39-.53-2.32,1.7-2.18,3.08.2,6.24,0,9.32,0H459.7c2.22,0,5.72-.67,7.84,0,1.07.34.22-.57.69.21s0,3.58,0,4.62c0,4.25.58,8.94,0,13.14-.68,4.92-11.3,2.19-14.76,1.84,0,0,0,.66,0,.72.71,1.81,1,4.31,1.84,6s.41,1.51,2.87,1.61a95.66,95.66,0,0,0,10.3.09c5.28-.36,7.46-2.47,7.64-7.79.12-3.56,0-7.15,0-10.71,0-15.17-1-30.75.26-45.88,0-.07,0-.73,0-.73-10.21.94-20.77.26-31,.26s-20.85.55-31.15-.27c0,0,0,.66,0,.73.89,10.53.26,21.34.26,31.89,0,10.81.71,22-.41,32.76C414.06,100.39,414.11,100.64,414.08,100.88Z"/><path class="cls-9" d="M448.52,64.42h19.71s0-.36,0-.36V42.75s0-.36,0-.36H448.52V64.06c0,.4,0,.41,0,0V46.4c0-.73-.36-2.51,0-3.13.26-.45,0-.09,1.09-.15,3.18-.17,6.41,0,9.6,0,2.26,0,6.62-.89,8.71,0,.48.2.14-.53.3.85a36.61,36.61,0,0,1,0,4.19V59.38a16.09,16.09,0,0,1,0,3.67c-.37,1.43.45.32-.56.64-2.88.92-7.55,0-10.56,0h-8.59Z"/><path class="cls-9" d="M422.3,64.42H441s0-.36,0-.36V42.75s0-.36,0-.36H422.3V64.06c0,.4,0,.41,0,0v-17c0-.95-.35-2.61,0-3.49.46-1.17-.47-.18.59-.47,2.64-.72,6.47,0,9.19,0,2.15,0,6.62-.87,8.61,0,.57.24.05-.58.32.64a20.87,20.87,0,0,1,0,4V58.65c0,1.33,0,2.66,0,4,0,.24.14,1,0,1.15-.31.41.2-.31-.2-.09-.76.43-3.07,0-3.91,0H422.3Z"/></g><path class="cls-10" d="M422.66,92.05a55.17,55.17,0,0,0,.38,8.82h-9.35a73.14,73.14,0,0,0,.45-9.12V42a65,65,0,0,0-.3-7.29,84.26,84.26,0,0,0,8.44.3h46.21a71.62,71.62,0,0,0,8.28-.3,74.44,74.44,0,0,0-.3,8.28V91.75c0,3.87-.92,6-3.12,7.14-1.44.76-3.88,1.07-8,1.07-3,0-7.14-.15-10.11-.31a29.22,29.22,0,0,0-2.35-8.2c5,.53,8.81.83,11.55.83,3,0,3.42-.23,3.42-2V71.68H422.66Zm18-48.94h-18V63.7h18ZM467.88,63.7V43.11h-19V63.7Z"/><g class="cls-11"><path d="M422.66,92.07c0,2.19,0,4.38.12,6.56.14,2.71-.43,2.18-3,2.18-1.7,0-5.23.55-5.93-.56-.85-1.34.32-6.64.32-8.47,0-7,0-14,0-20.92,0-9.31,0-18.61,0-27.91,0-2.79-1.32-7.4,1.73-8s7.07.14,10.3.14h41.88c2.08,0,4.48-.4,6.51-.12,1.85.26,1.64-.23,2.05,1.59a16.59,16.59,0,0,1-.12,3.36c-.33,16.73.2,33.49,0,50.22,0,2.2.17,4.65-1,6.6-2,3.4-6.75,3.12-10.13,3.14-2.44,0-4.89-.08-7.33-.18a11.74,11.74,0,0,1-2.78-.13c-.49-.37-.67-3.45-.83-4a19.33,19.33,0,0,1-.91-2.68c.46-1.86,3.34-1,4.52-.87a62.6,62.6,0,0,0,6.42.34c4.11-.07,3.42-2.13,3.42-5.4V71.62H422.66V92.05h0V83.83c0-3.16-1-8,0-11,.51-1.6.51-1.12,2.64-1.12h34.75c1.6,0,5.82-.81,7.25,0,1.14.65.58,3.33.58,4.91,0,4.23.23,8.54,0,12.77-.14,2.63-.91,2.76-3.42,2.8a94.87,94.87,0,0,1-11.55-.84.57.57,0,0,0,0,.13A34.59,34.59,0,0,1,454.75,97l.27,1.33c-.24,1.37.28,1.86,1.58,1.49,2.54,1,7.71.3,10.43.22,4.91-.16,8.83-1,9.38-6.64.37-3.8.06-7.76.06-11.56,0-15.5-1.16-31.54.3-47v-.12c-10.28,1.11-21.07.3-31.39.3s-21.13.6-31.54-.3v.12c1,10.74.3,21.81.3,32.58,0,11,.77,22.46-.45,33.42v.12H423v-.12a58.46,58.46,0,0,1-.38-8.77Z"/><path d="M440.67,43.05h-18V63.76h18V43.11h0V59.52c0,1.5.48,3.58-.58,4.12-.69.36-2.59,0-3.38,0H426.28c-.66,0-2.73.38-3.32,0-.76-.49-.3-3.67-.3-4.8V48.33c0-1-.45-4.62.19-5.16.47-.4,3.18,0,3.77,0h14.05Z"/><path d="M467.88,63.7V43.05h-19V63.76h19v-.12h-17c-2.31,0-2,0-2-2.29v-15c0-.54-.33-2.56,0-3,.58-.71,4.47-.2,5.54-.2h10.64c2.26,0,2.73-.63,2.82,1.55.24,6.3,0,12.67,0,19Z"/></g><path class="cls-2" d="M9.16,25.38l6.93-9.15A26.15,26.15,0,0,1,36.19,7.5c14.55,0,22.72,9,22.72,19.26a13.7,13.7,0,0,1-4.71,10,67.81,67.81,0,0,1-10.67,7.48c14.27,2.91,22,10.67,22,21.07-.14,22-30.49,31.87-39.36,31.87-6.93,0-12.61-2.22-15.38-4.57-2.5-1.94-3.33-3.74-3.33-5.68a9.31,9.31,0,0,1,3.74-6.79C13,78.73,15,79,16.92,80.39c3,2.77,9.7,9,18,9,7.07,0,12.47-5.13,12.47-18s-9.7-17.87-17.32-17.87a31.51,31.51,0,0,0-7.62.83l-1-4.85c12.75-4.3,20-8.87,20-18.29,0-8.73-5.68-12.75-11.78-12.75-7.06,0-11.78,4-16.76,10.53Z"/><path class="cls-2" d="M117.4,57.67l-6.93,3.6a17.23,17.23,0,0,1-8,2.35c-16.77,0-26.89-11.91-26.89-26.19,0-12.33,9.84-29.93,32-29.93,19.26,0,30.62,16.35,30.62,35.2,0,25.08-16.76,42.82-36.44,50.58-5.27,2.08-14.42,3.88-20.37,4.3l-1-5.27C102.29,86.77,113.65,74.71,117.4,57.67ZM104.65,13.32C97.16,13.46,94,20,94,31.75c0,12.06,6.51,22,16.76,22A17.47,17.47,0,0,0,118.37,52a66.34,66.34,0,0,0,.69-10C119.06,28.56,115.32,13.18,104.65,13.32Z"/><path class="cls-2" d="M147.89,109.63c8.17-3.6,13.3-8,13.3-13.44,0-4.85-3.6-7.07-11.09-8.59-1-.14-2.21-2.22-2.21-5.82,0-4.44,3.74-9,10-9,7.35,0,14.56,6.51,14.56,17.46,0,13-11.78,21.48-22.73,24.39Z"/><path class="cls-2" d="M213.16,7.5c23.56,0,31.32,24.81,31.32,44.76,0,20.23-7.76,44.9-31.32,44.9S181.7,72.36,181.7,52.4C181.7,31.89,190,7.5,213.16,7.5Zm-.28,6c-9.42,0-11.64,19.95-11.64,38.39S204.15,91.2,213.3,91.2s11.5-20,11.5-39.22C224.8,32.44,222,13.46,212.88,13.46Z"/><path class="cls-2" d="M283.42,7.5c23.56,0,31.32,24.81,31.32,44.76,0,20.23-7.76,44.9-31.32,44.9S252,72.36,252,52.4C252,31.89,260.28,7.5,283.42,7.5Zm-.28,6c-9.42,0-11.64,19.95-11.64,38.39s2.91,39.35,12.06,39.35,11.5-20,11.5-39.22C295.06,32.44,292.29,13.46,283.14,13.46Z"/><path class="cls-2" d="M353.68,7.5C377.24,7.5,385,32.31,385,52.26c0,20.23-7.76,44.9-31.32,44.9s-31.46-24.8-31.46-44.76C322.22,31.89,330.54,7.5,353.68,7.5Zm-.28,6c-9.42,0-11.64,19.95-11.64,38.39s2.91,39.35,12.06,39.35,11.5-20,11.5-39.22C365.32,32.44,362.55,13.46,353.4,13.46Z"/><path class="cls-12" d="M9.16,25.38l6.93-9.15A26.15,26.15,0,0,1,36.19,7.5c14.55,0,22.72,9,22.72,19.26a13.7,13.7,0,0,1-4.71,10,67.81,67.81,0,0,1-10.67,7.48c14.27,2.91,22,10.67,22,21.07-.14,22-30.49,31.87-39.36,31.87-6.93,0-12.61-2.22-15.38-4.57-2.5-1.94-3.33-3.74-3.33-5.68a9.31,9.31,0,0,1,3.74-6.79C13,78.73,15,79,16.92,80.39c3,2.77,9.7,9,18,9,7.07,0,12.47-5.13,12.47-18s-9.7-17.87-17.32-17.87a31.51,31.51,0,0,0-7.62.83l-1-4.85c12.75-4.3,20-8.87,20-18.29,0-8.73-5.68-12.75-11.78-12.75-7.06,0-11.78,4-16.76,10.53Z"/><path class="cls-12" d="M117.4,57.67l-6.93,3.6a17.23,17.23,0,0,1-8,2.35c-16.77,0-26.89-11.91-26.89-26.19,0-12.33,9.84-29.93,32-29.93,19.26,0,30.62,16.35,30.62,35.2,0,25.08-16.76,42.82-36.44,50.58-5.27,2.08-14.42,3.88-20.37,4.3l-1-5.27C102.29,86.77,113.65,74.71,117.4,57.67ZM104.65,13.32C97.16,13.46,94,20,94,31.75c0,12.06,6.51,22,16.76,22A17.47,17.47,0,0,0,118.37,52a66.34,66.34,0,0,0,.69-10C119.06,28.56,115.32,13.18,104.65,13.32Z"/><path class="cls-12" d="M147.89,109.63c8.17-3.6,13.3-8,13.3-13.44,0-4.85-3.6-7.07-11.09-8.59-1-.14-2.21-2.22-2.21-5.82,0-4.44,3.74-9,10-9,7.35,0,14.56,6.51,14.56,17.46,0,13-11.78,21.48-22.73,24.39Z"/><path class="cls-12" d="M213.16,7.5c23.56,0,31.32,24.81,31.32,44.76,0,20.23-7.76,44.9-31.32,44.9S181.7,72.36,181.7,52.4C181.7,31.89,190,7.5,213.16,7.5Zm-.28,6c-9.42,0-11.64,19.95-11.64,38.39S204.15,91.2,213.3,91.2s11.5-20,11.5-39.22C224.8,32.44,222,13.46,212.88,13.46Z"/><path class="cls-12" d="M283.42,7.5c23.56,0,31.32,24.81,31.32,44.76,0,20.23-7.76,44.9-31.32,44.9S252,72.36,252,52.4C252,31.89,260.28,7.5,283.42,7.5Zm-.28,6c-9.42,0-11.64,19.95-11.64,38.39s2.91,39.35,12.06,39.35,11.5-20,11.5-39.22C295.06,32.44,292.29,13.46,283.14,13.46Z"/><path class="cls-12" d="M353.68,7.5C377.24,7.5,385,32.31,385,52.26c0,20.23-7.76,44.9-31.32,44.9s-31.46-24.8-31.46-44.76C322.22,31.89,330.54,7.5,353.68,7.5Zm-.28,6c-9.42,0-11.64,19.95-11.64,38.39s2.91,39.35,12.06,39.35,11.5-20,11.5-39.22C365.32,32.44,362.55,13.46,353.4,13.46Z"/><g class="cls-4"><path class="cls-13" d="M9.16,25.38l6.93-9.15A26.15,26.15,0,0,1,36.19,7.5c14.55,0,22.72,9,22.72,19.26a13.7,13.7,0,0,1-4.71,10,67.81,67.81,0,0,1-10.67,7.48c14.27,2.91,22,10.67,22,21.07-.14,22-30.49,31.87-39.36,31.87-6.93,0-12.61-2.22-15.38-4.57-2.5-1.94-3.33-3.74-3.33-5.68a9.31,9.31,0,0,1,3.74-6.79C13,78.73,15,79,16.92,80.39c3,2.77,9.7,9,18,9,7.07,0,12.47-5.13,12.47-18s-9.7-17.87-17.32-17.87a31.51,31.51,0,0,0-7.62.83l-1-4.85c12.75-4.3,20-8.87,20-18.29,0-8.73-5.68-12.75-11.78-12.75-7.06,0-11.78,4-16.76,10.53Z"/><path class="cls-13" d="M117.4,57.67l-6.93,3.6a17.23,17.23,0,0,1-8,2.35c-16.77,0-26.89-11.91-26.89-26.19,0-12.33,9.84-29.93,32-29.93,19.26,0,30.62,16.35,30.62,35.2,0,25.08-16.76,42.82-36.44,50.58-5.27,2.08-14.42,3.88-20.37,4.3l-1-5.27C102.29,86.77,113.65,74.71,117.4,57.67ZM104.65,13.32C97.16,13.46,94,20,94,31.75c0,12.06,6.51,22,16.76,22A17.47,17.47,0,0,0,118.37,52a66.34,66.34,0,0,0,.69-10C119.06,28.56,115.32,13.18,104.65,13.32Z"/><path class="cls-13" d="M147.89,109.63c8.17-3.6,13.3-8,13.3-13.44,0-4.85-3.6-7.07-11.09-8.59-1-.14-2.21-2.22-2.21-5.82,0-4.44,3.74-9,10-9,7.35,0,14.56,6.51,14.56,17.46,0,13-11.78,21.48-22.73,24.39Z"/><path class="cls-13" d="M213.16,7.5c23.56,0,31.32,24.81,31.32,44.76,0,20.23-7.76,44.9-31.32,44.9S181.7,72.36,181.7,52.4C181.7,31.89,190,7.5,213.16,7.5Zm-.28,6c-9.42,0-11.64,19.95-11.64,38.39S204.15,91.2,213.3,91.2s11.5-20,11.5-39.22C224.8,32.44,222,13.46,212.88,13.46Z"/><path class="cls-13" d="M283.42,7.5c23.56,0,31.32,24.81,31.32,44.76,0,20.23-7.76,44.9-31.32,44.9S252,72.36,252,52.4C252,31.89,260.28,7.5,283.42,7.5Zm-.28,6c-9.42,0-11.64,19.95-11.64,38.39s2.91,39.35,12.06,39.35,11.5-20,11.5-39.22C295.06,32.44,292.29,13.46,283.14,13.46Z"/><path class="cls-13" d="M353.68,7.5C377.24,7.5,385,32.31,385,52.26c0,20.23-7.76,44.9-31.32,44.9s-31.46-24.8-31.46-44.76C322.22,31.89,330.54,7.5,353.68,7.5Zm-.28,6c-9.42,0-11.64,19.95-11.64,38.39s2.91,39.35,12.06,39.35,11.5-20,11.5-39.22C365.32,32.44,362.55,13.46,353.4,13.46Z"/></g><g class="cls-6"><path class="cls-14" d="M9.16,25.38l6.93-9.15A26.15,26.15,0,0,1,36.19,7.5c14.55,0,22.72,9,22.72,19.26a13.7,13.7,0,0,1-4.71,10,67.81,67.81,0,0,1-10.67,7.48c14.27,2.91,22,10.67,22,21.07-.14,22-30.49,31.87-39.36,31.87-6.93,0-12.61-2.22-15.38-4.57-2.5-1.94-3.33-3.74-3.33-5.68a9.31,9.31,0,0,1,3.74-6.79C13,78.73,15,79,16.92,80.39c3,2.77,9.7,9,18,9,7.07,0,12.47-5.13,12.47-18s-9.7-17.87-17.32-17.87a31.51,31.51,0,0,0-7.62.83l-1-4.85c12.75-4.3,20-8.87,20-18.29,0-8.73-5.68-12.75-11.78-12.75-7.06,0-11.78,4-16.76,10.53Z"/><path class="cls-14" d="M117.4,57.67l-6.93,3.6a17.23,17.23,0,0,1-8,2.35c-16.77,0-26.89-11.91-26.89-26.19,0-12.33,9.84-29.93,32-29.93,19.26,0,30.62,16.35,30.62,35.2,0,25.08-16.76,42.82-36.44,50.58-5.27,2.08-14.42,3.88-20.37,4.3l-1-5.27C102.29,86.77,113.65,74.71,117.4,57.67ZM104.65,13.32C97.16,13.46,94,20,94,31.75c0,12.06,6.51,22,16.76,22A17.47,17.47,0,0,0,118.37,52a66.34,66.34,0,0,0,.69-10C119.06,28.56,115.32,13.18,104.65,13.32Z"/><path class="cls-14" d="M147.89,109.63c8.17-3.6,13.3-8,13.3-13.44,0-4.85-3.6-7.07-11.09-8.59-1-.14-2.21-2.22-2.21-5.82,0-4.44,3.74-9,10-9,7.35,0,14.56,6.51,14.56,17.46,0,13-11.78,21.48-22.73,24.39Z"/><path class="cls-14" d="M213.16,7.5c23.56,0,31.32,24.81,31.32,44.76,0,20.23-7.76,44.9-31.32,44.9S181.7,72.36,181.7,52.4C181.7,31.89,190,7.5,213.16,7.5Zm-.28,6c-9.42,0-11.64,19.95-11.64,38.39S204.15,91.2,213.3,91.2s11.5-20,11.5-39.22C224.8,32.44,222,13.46,212.88,13.46Z"/><path class="cls-14" d="M283.42,7.5c23.56,0,31.32,24.81,31.32,44.76,0,20.23-7.76,44.9-31.32,44.9S252,72.36,252,52.4C252,31.89,260.28,7.5,283.42,7.5Zm-.28,6c-9.42,0-11.64,19.95-11.64,38.39s2.91,39.35,12.06,39.35,11.5-20,11.5-39.22C295.06,32.44,292.29,13.46,283.14,13.46Z"/><path class="cls-14" d="M353.68,7.5C377.24,7.5,385,32.31,385,52.26c0,20.23-7.76,44.9-31.32,44.9s-31.46-24.8-31.46-44.76C322.22,31.89,330.54,7.5,353.68,7.5Zm-.28,6c-9.42,0-11.64,19.95-11.64,38.39s2.91,39.35,12.06,39.35,11.5-20,11.5-39.22C365.32,32.44,362.55,13.46,353.4,13.46Z"/></g><g class="cls-8"><path class="cls-9" d="M26.21,96.45c-5.58-.16-12.29-1.23-16.34-5.53-4.29-4.55.91-13.82,6.85-9.88C21,83.87,24,87.45,29.08,89.13c3.72,1.24,8.08,1.53,11.63-.4,6.08-3.3,7.16-11.3,7.06-17.57-.16-9.59-6.19-17.45-16.08-18.29a26.08,26.08,0,0,0-3.75,0c-.78,0-4.76,1-5.2.68-.25-.17-.22-1.37-.33-1.65a3.85,3.85,0,0,1-.26-1.29c.24-1.4-.61-.11.53-1,.74-.59,3.26-.94,4.29-1.36,1.5-.61,3-1.26,4.42-2a24.62,24.62,0,0,0,6.28-4.41A15.94,15.94,0,0,0,41.09,26c-1.82-5.71-6.93-8.74-12.83-8.25-6.81.56-9.72,5-14.43,9.08-1.4,1.23-.36,1-1.6.6a7,7,0,0,1-2-1.88c-.67-1.08-.57.65-.24-.43a9,9,0,0,1,1.52-2,74.82,74.82,0,0,1,5.88-7.49C26.1,6.85,42.75,5.2,52.32,13.5c4.62,4,7.53,10.86,5.52,16.9C55.69,36.88,48.05,40.79,42.56,44a4.44,4.44,0,0,0,0,.73C50.4,46.35,58.92,49.55,63,57c4.26,7.68,1.62,16.89-3.68,23.3-7.45,9-21.33,16-33.13,16.2,0,0,0,.72,0,.72,17.87-.33,45.51-17.53,37.95-38.42C61.42,51.18,53.93,47,46.55,44.94c-.83-.23-3.49-1.41-3.59-.42.08-.77,5-3.11,5.67-3.58,3.74-2.56,7.65-5.37,9.21-9.82C61.1,21.84,54.27,12,45.55,9,36.65,5.86,26,7.51,18.77,13.71,15.14,16.84,12.51,21.18,9.63,25a2.48,2.48,0,0,0,0,.72,14,14,0,0,0,2,1.89c1.85,1.14.26,1.61,2.24,0C16.37,25.55,18,22.73,20.9,21c5.31-3.28,13.11-3.77,17.59,1.17s4.28,12.76.26,17.77S27.82,47.31,21.9,49.36a4.43,4.43,0,0,0,0,.73c.34,1.68.23,3.64,1.53,4s3.93-.54,5.27-.58a23.48,23.48,0,0,1,4.59.25A17,17,0,0,1,45.67,62.5c4.63,8.84,2.37,26.07-9.9,26.86-6.31.41-12.09-3.06-16.73-7-1.86-1.57-3.71-3.83-6.47-3S8,84,7.85,86.54C7.49,94.94,20.24,97,26.21,97.17,26.21,97.17,26.22,96.45,26.21,96.45Z"/><path class="cls-9" d="M80.8,92.93c18.63-5,32.86-16.16,37.1-35.56,0-.1-.06-.7,0-.73-4.78,2.49-10,6.08-15.47,6.27a26.27,26.27,0,0,1-21.11-9.42c-10.49-13.17-4.43-32.88,9.35-41,15.15-8.89,34.79-3.77,42.82,11.9,9.12,17.78,3.13,40-10.27,53.83a61,61,0,0,1-21.61,14.33A71.5,71.5,0,0,1,85.67,96.4c-1.58.21-3.39.88-4.15-.28-.53-.81-.54-2.93-.72-3.91,0,.23,0,.49,0,.72.18.95.12,3.54.77,4.17,1.13,1.12,6.1-.26,7.84-.58a63.19,63.19,0,0,0,17-5.36,58.3,58.3,0,0,0,24.79-22.81c8.92-15.62,10-39.18-3.55-52.72C111.09-1,81.29,9.29,76.51,31.56c-3.6,16.73,9.91,35.36,28.33,31.83a26.23,26.23,0,0,0,6.84-2.78c1.61-.84,4-2.79,5.74-3,.89-.1,0-1.18.17.4s-.93,3.54-1.41,4.93a42.73,42.73,0,0,1-3.84,8.29c-6.94,11.45-19,17.62-31.54,21C80.74,92.23,80.86,92.92,80.8,92.93Z"/><path class="cls-9" d="M104.64,12.6c-9.81.56-11.09,11.36-11,19.25.09,9.63,4.45,21.24,15.37,22.54,2.21.26,7.77.26,9.44-1.69,1.13-1.32.82-4.93.91-6.77.1-2.35.11-4.72,0-7.07C119,30,116.74,12.52,104.64,12.6c0,0,0,.73,0,.73,8-.05,11.71,8.47,13.28,15.11,1.61,6.83,2.37,14.84,1,21.69-.75,3.75-6.61,3.91-9.94,3.53-8.56-1-13.76-9.12-14.95-17C92.8,28.26,93.5,14,104.64,13.33,104.66,13.33,104.63,12.61,104.64,12.6Z"/><path class="cls-9" d="M148.33,110.19c5.84-2.73,13.45-6.9,13.21-14.35-.16-5-4.23-7.11-8.59-8.31-2.39-.65-3.53-.58-4.36-3.1-1.25-3.83.84-7.78,4.1-9.65,4.53-2.58,10.35-1.09,14,2.27,5.33,4.86,6.52,13.18,4.11,19.77-2.08,5.71-6.7,10.17-11.85,13.2-1.2.71-7.51,4.57-9.06,3.81-.7-.34-1.3-3.6-1.58-4.37.08.21-.08.51,0,.73a14.94,14.94,0,0,0,1,2.65c1.14,1.87-.4,1.4,2,1.33,2.82-.09,6.63-2.68,8.94-4.17,5.84-3.76,10.65-9.47,11.68-16.51,1.16-8-2-17.62-10.39-20.17-7.67-2.33-15.91,4.52-12.7,12.36,1.15,2.8,4.07,2.36,6.64,3.35s4.76,2.33,5.69,4.9c2.77,7.66-7.44,13-12.77,15.53C148.23,109.5,148.42,110.14,148.33,110.19Z"/><path class="cls-9" d="M213.16,96.45c-15.69-.33-25.14-12.09-28.89-26.39-4.51-17.24-3.32-41.35,10.37-54.52,11.1-10.68,29.58-9.39,39.29,2.41,10.16,12.35,11.72,31.35,9.17,46.47-2.73,16.18-11.91,31.65-29.94,32,0,0,0,.72,0,.72,33.21-.7,36.36-48.95,25.69-72-3.42-7.37-9-13.78-16.94-16.37a27.52,27.52,0,0,0-25.79,4.65c-12.38,10.3-14.89,29-13.91,44.25,1.19,18.41,9.8,39,30.95,39.45C213.16,97.17,213.17,96.45,213.16,96.45Z"/><path class="cls-9" d="M212.88,12.74c-9.29.24-10.62,16-11.27,22.42a159.08,159.08,0,0,0,.12,33.3c.64,5.81,5,31.44,16.09,21.63,4.45-3.93,5.45-11.6,6.19-17.09a156.78,156.78,0,0,0,1.14-21.11,133.13,133.13,0,0,0-1.44-21.49c-1-6.1-2.93-17.2-10.83-17.66,0,0,0,.73,0,.73,11.35.65,11.66,22.14,12.05,29.88.56,10.93.49,22.39-1.62,33.2-.82,4.17-2,9.22-5.06,12.38-7.59,7.74-13.34-5-14.8-11-3.65-15-3.6-32.06-1.2-47.12.91-5.72,2.88-17.2,10.63-17.39C212.89,13.47,212.88,12.74,212.88,12.74Z"/><path class="cls-9" d="M283.42,96.45c-15.69-.33-25.14-12.09-28.89-26.39C250,52.82,251.21,28.71,264.9,15.54,276,4.86,294.48,6.15,304.19,18c10.16,12.35,11.72,31.35,9.17,46.47-2.73,16.18-11.91,31.65-29.94,32,0,0,0,.72,0,.72,33.21-.7,36.36-48.95,25.69-72-3.42-7.37-9-13.78-16.94-16.37a27.53,27.53,0,0,0-25.79,4.65c-12.38,10.3-14.89,29-13.91,44.25,1.19,18.41,9.8,39,31,39.45C283.42,97.17,283.43,96.45,283.42,96.45Z"/><path class="cls-9" d="M283.14,12.74c-9.29.24-10.62,16-11.27,22.42a159.08,159.08,0,0,0,.12,33.3c.65,5.81,5,31.44,16.09,21.63,4.45-3.93,5.45-11.6,6.19-17.09a158.45,158.45,0,0,0,1.15-21.11A134.28,134.28,0,0,0,294,30.4c-1-6.1-2.92-17.2-10.83-17.66,0,0,0,.73,0,.73,11.35.65,11.66,22.14,12.05,29.88.56,10.93.49,22.39-1.62,33.2-.82,4.17-1.95,9.22-5.05,12.38-7.6,7.74-13.35-5-14.81-11-3.65-15-3.59-32.06-1.19-47.12.91-5.72,2.87-17.2,10.62-17.39C283.15,13.47,283.14,12.74,283.14,12.74Z"/><path class="cls-9" d="M353.68,96.45C338,96.12,328.54,84.36,324.8,70.06c-4.52-17.24-3.33-41.35,10.36-54.52,11.1-10.68,29.58-9.39,39.29,2.41,10.17,12.35,11.72,31.35,9.17,46.47-2.73,16.18-11.9,31.65-29.94,32,0,0,0,.72,0,.72,33.21-.7,36.36-48.95,25.69-72-3.41-7.37-9-13.78-16.94-16.37a27.53,27.53,0,0,0-25.79,4.65c-12.38,10.3-14.89,29-13.91,44.25,1.19,18.41,9.81,39,30.95,39.45C353.68,97.17,353.69,96.45,353.68,96.45Z"/><path class="cls-9" d="M353.4,12.74c-9.29.24-10.61,16-11.27,22.42a159.08,159.08,0,0,0,.12,33.3c.65,5.81,5,31.44,16.09,21.63,4.45-3.93,5.45-11.6,6.19-17.09a158.45,158.45,0,0,0,1.15-21.11,135.44,135.44,0,0,0-1.44-21.49c-1-6.1-2.93-17.2-10.84-17.66,0,0,0,.73,0,.73,11.35.65,11.66,22.14,12.05,29.88.56,10.93.5,22.39-1.62,33.2-.81,4.17-1.95,9.22-5.05,12.38-7.6,7.74-13.34-5-14.8-11-3.65-15-3.6-32.06-1.2-47.12.91-5.72,2.87-17.2,10.62-17.39C353.41,13.47,353.4,12.74,353.4,12.74Z"/></g><path class="cls-10" d="M9.16,25.38l6.93-9.15A26.15,26.15,0,0,1,36.19,7.5c14.55,0,22.72,9,22.72,19.26a13.7,13.7,0,0,1-4.71,10,67.81,67.81,0,0,1-10.67,7.48c14.27,2.91,22,10.67,22,21.07-.14,22-30.49,31.87-39.36,31.87-6.93,0-12.61-2.22-15.38-4.57-2.5-1.94-3.33-3.74-3.33-5.68a9.31,9.31,0,0,1,3.74-6.79C13,78.73,15,79,16.92,80.39c3,2.77,9.7,9,18,9,7.07,0,12.47-5.13,12.47-18s-9.7-17.87-17.32-17.87a31.51,31.51,0,0,0-7.62.83l-1-4.85c12.75-4.3,20-8.87,20-18.29,0-8.73-5.68-12.75-11.78-12.75-7.06,0-11.78,4-16.76,10.53Z"/><path class="cls-10" d="M117.4,57.67l-6.93,3.6a17.23,17.23,0,0,1-8,2.35c-16.77,0-26.89-11.91-26.89-26.19,0-12.33,9.84-29.93,32-29.93,19.26,0,30.62,16.35,30.62,35.2,0,25.08-16.76,42.82-36.44,50.58-5.27,2.08-14.42,3.88-20.37,4.3l-1-5.27C102.29,86.77,113.65,74.71,117.4,57.67ZM104.65,13.32C97.16,13.46,94,20,94,31.75c0,12.06,6.51,22,16.76,22A17.47,17.47,0,0,0,118.37,52a66.34,66.34,0,0,0,.69-10C119.06,28.56,115.32,13.18,104.65,13.32Z"/><path class="cls-10" d="M147.89,109.63c8.17-3.6,13.3-8,13.3-13.44,0-4.85-3.6-7.07-11.09-8.59-1-.14-2.21-2.22-2.21-5.82,0-4.44,3.74-9,10-9,7.35,0,14.56,6.51,14.56,17.46,0,13-11.78,21.48-22.73,24.39Z"/><path class="cls-10" d="M213.16,7.5c23.56,0,31.32,24.81,31.32,44.76,0,20.23-7.76,44.9-31.32,44.9S181.7,72.36,181.7,52.4C181.7,31.89,190,7.5,213.16,7.5Zm-.28,6c-9.42,0-11.64,19.95-11.64,38.39S204.15,91.2,213.3,91.2s11.5-20,11.5-39.22C224.8,32.44,222,13.46,212.88,13.46Z"/><path class="cls-10" d="M283.42,7.5c23.56,0,31.32,24.81,31.32,44.76,0,20.23-7.76,44.9-31.32,44.9S252,72.36,252,52.4C252,31.89,260.28,7.5,283.42,7.5Zm-.28,6c-9.42,0-11.64,19.95-11.64,38.39s2.91,39.35,12.06,39.35,11.5-20,11.5-39.22C295.06,32.44,292.29,13.46,283.14,13.46Z"/><path class="cls-10" d="M353.68,7.5C377.24,7.5,385,32.31,385,52.26c0,20.23-7.76,44.9-31.32,44.9s-31.46-24.8-31.46-44.76C322.22,31.89,330.54,7.5,353.68,7.5Zm-.28,6c-9.42,0-11.64,19.95-11.64,38.39s2.91,39.35,12.06,39.35,11.5-20,11.5-39.22C365.32,32.44,362.55,13.46,353.4,13.46Z"/><g class="cls-11"><path d="M9.16,25.44c2.41-3.18,4.66-6.59,7.31-9.56,6.18-6.94,16.09-9.42,25-7.87C49,9.29,55.76,13.86,58.08,21.3c3.63,11.62-6,17.76-14.55,22.86v.12c11.9,2.62,22.94,9.66,21.91,23.22C64.71,77.16,57,84.72,49.16,89.42,42.79,93.24,35,96.52,27.5,97c-5.58.39-12.25-.9-16.67-4.51-2.64-2.16-4-4.8-2.76-8.22,1.1-2.94,4.09-5.89,7.4-4.68,2,.73,3.65,2.85,5.31,4.14a28.42,28.42,0,0,0,8.27,4.67c4.34,1.47,9.52,1.6,13.2-1.49,4.7-4,5.51-11.32,5.12-17.13C46.65,59.06,38,52.89,27.65,53.53c-1.12.07-3.55.9-4.54.6s-.46-.13-.95-1.39a7.2,7.2,0,0,1-.51-2.55c.34-1.18,2.29-1.48,3.64-2,5-1.91,10.67-4.36,13.82-9,3.67-5.34,3.2-14.37-2.11-18.48-5-3.84-12.23-2.64-17,.83a26.13,26.13,0,0,0-3.59,3.22c-.54.56-2.91,4.11-3.48,4.12-.77,0-3.08-3-3.75-3.6,0,0,0,.1,0,.12.67.64,2.91,3.59,3.75,3.6.66,0,6-6.55,7.07-7.33,4.81-3.46,12-4.7,17-.84,5.66,4.39,5.79,13.69,1.5,19.06-4.09,5.12-11,7.45-17,9.5a.24.24,0,0,0,0,.12c.17.86.32,4.15.93,4.64.83.68,7.45-.69,9.05-.56a17.35,17.35,0,0,1,12.71,6.83C51,69.85,47.89,90.61,33.4,89.27c-6.51-.6-10.94-4.61-15.86-8.38-4.6-3.53-10,.44-10,6-.09,8.8,15,10.95,21.19,10.16C44.52,95,65.57,83.34,65.57,65.3c0-9.27-6.57-15.79-14.79-19-1.38-.54-3.78-.7-4.94-1.56-1.85-1.39.46-2.07,2-3.1a36.24,36.24,0,0,0,7.81-6.29,13.62,13.62,0,0,0,3.26-8.58C59.2,13.59,46.06,6.81,34.43,7.49,22,8.21,16,16.32,9.16,25.32,9.14,25.34,9.18,25.41,9.16,25.44Z"/><path d="M117.4,57.61c-2.31,1.2-4.6,2.44-6.93,3.6A21.86,21.86,0,0,1,94.19,62.5a25.14,25.14,0,0,1-18-19C71.6,22.36,91.48,5.22,111.66,7.82c25.69,3.31,31,34.64,22.59,54.83-8.38,20-28.11,31.71-49,34.46-3,.4-3.77,1.16-4.31-1.79-.08-.45-.62-2-.44-2.41.38-.94,1.76-1,2.93-1.37A60.93,60.93,0,0,0,100,84c9.23-6.27,14.94-15.51,17.44-26.28,0,0,0-.09,0-.12-4.4,19-18.75,29.83-37,34.64a.24.24,0,0,0,0,.12c.21,1.16.19,2.86.71,3.9.87,1.73.06,1.44,2.79,1.13a74.72,74.72,0,0,0,16.73-3.65,60.05,60.05,0,0,0,24.55-16.61c10.38-11.75,15.35-28.41,12-43.87C132.84,13,112.33,1.41,92.92,10.51,81.9,15.68,74.61,27.8,75.65,40A25.36,25.36,0,0,0,91.74,61.83c5.5,2.08,11.73,2.67,17.19.25,2.89-1.28,5.66-2.9,8.47-4.35C117.41,57.72,117.38,57.61,117.4,57.61Z"/><path d="M104.65,13.26C95.25,13.83,93.9,24.15,94,31.77c.09,9.09,4.14,20.16,14.28,21.87,2.59.44,6.89.44,9.11-1.17C119.4,51,119,47,119,44.35c0-1.73,0-3.47,0-5.21-.35-9.12-2.43-25.43-14.35-25.88v.12c7.92.3,11.35,8,12.94,14.8a63.85,63.85,0,0,1,1.11,21.08c-.28,2.7-1,3.17-3.57,3.88a16.26,16.26,0,0,1-6.87.38c-8.11-1.37-12.63-9.2-13.87-16.72-1.34-8.1-.76-22.75,10.26-23.42Z"/><path d="M147.89,109.69c5.56-2.55,14.28-7.1,13.24-14.56-.75-5.42-6.1-5.83-10.25-7.42-3.36-1.29-3.51-6-2.31-9.15A9.43,9.43,0,0,1,155,73.19c15.31-4.07,20.56,17,14.68,27.33-2.86,5-7.57,8.75-12.67,11.29-1.18.59-6.26,3.27-7.36,2.54-.86-.57-1.38-3.81-1.72-4.78,0,0,0,.09,0,.12.31.88,1.05,4.63,1.8,5,1.72.84,8.12-3.13,9.62-4,5.66-3.35,10.59-8.41,12.37-14.88,2.16-7.84-.29-17.75-7.94-21.62-7.22-3.66-16.93.69-15.76,9.35.92,6.74,9.12,3.89,12.32,9.18,4.83,8-7,14.39-12.41,16.88C147.87,109.58,147.9,109.69,147.89,109.69Z"/><path d="M213.16,7.56c16.49.34,26,13.17,29.47,28.17C246.42,52,245.39,73.32,234.5,87c-9.44,11.8-27.84,13.71-39.28,3.6-12.73-11.25-15-32.19-12.88-47.92C184.6,25.45,193.83,8,213.16,7.56V7.44c-34.69.72-37.84,53-24,75.88,9.56,15.74,32.18,19.07,44.62,4.61,8.75-10.17,11-25,10.65-38.05-.58-19.23-8.86-42-31.28-42.44Z"/><path d="M212.88,13.4c-5.35.34-7.58,5.93-8.86,10.41-2,6.92-2.45,14.29-2.68,21.44-.35,10.64-.15,21.57,2.19,32,1,4.49,2.7,11.62,7.55,13.59s8.24-2.71,9.83-6.63c4.22-10.43,4-22.92,3.88-34a112.66,112.66,0,0,0-2-22.82c-1.15-5.29-3.27-13.53-9.86-13.95v.12c5.22.33,7.51,5.66,8.86,10,3.41,11.07,3.32,23.77,3,35.16-.21,6.4,0,34-12.17,32.37-4.88-.67-7-6.79-8.19-10.78C202,72.17,201.43,63.42,201.27,55c-.2-10.32-.13-21.66,2.92-31.66,1.31-4.33,3.56-9.49,8.69-9.81Z"/><path d="M283.42,7.56c16.49.34,26,13.17,29.47,28.17C316.68,52,315.66,73.32,304.76,87c-9.43,11.8-27.84,13.71-39.28,3.6-12.73-11.25-15-32.19-12.88-47.92C254.87,25.45,264.09,8,283.42,7.56V7.44c-34.69.72-37.84,53-24,75.88,9.55,15.74,32.17,19.07,44.61,4.61,8.75-10.17,11.05-25,10.65-38.05-.57-19.23-8.86-42-31.28-42.44Z"/><path d="M283.14,13.4c-5.35.34-7.58,5.93-8.86,10.41-2,6.92-2.45,14.29-2.68,21.44-.35,10.64-.15,21.57,2.19,32,1,4.49,2.7,11.62,7.55,13.59s8.24-2.71,9.83-6.63c4.23-10.43,4-22.92,3.88-34A112,112,0,0,0,293,27.35c-1.14-5.29-3.27-13.53-9.86-13.95v.12c5.22.33,7.51,5.66,8.86,10,3.41,11.07,3.32,23.77,3,35.16-.2,6.4,0,34-12.17,32.37-4.87-.67-7-6.79-8.18-10.78-2.4-8.14-2.92-16.89-3.08-25.32-.2-10.32-.12-21.66,2.92-31.66,1.32-4.33,3.56-9.49,8.69-9.81Z"/><path d="M353.68,7.56c16.5.34,26,13.17,29.48,28.17C387,52,385.92,73.32,375,87c-9.43,11.8-27.84,13.71-39.28,3.6C323,79.3,320.79,58.36,322.86,42.63,325.13,25.45,334.35,8,353.68,7.56V7.44c-34.69.72-37.84,53-24,75.88,9.55,15.74,32.17,19.07,44.61,4.61,8.75-10.17,11.05-25,10.66-38.05-.58-19.23-8.87-42-31.29-42.44Z"/><path d="M353.4,13.4c-5.35.34-7.58,5.93-8.86,10.41-2,6.92-2.44,14.29-2.68,21.44-.34,10.64-.15,21.57,2.19,32,1,4.49,2.7,11.62,7.55,13.59s8.24-2.71,9.83-6.63c4.23-10.43,4-22.92,3.88-34a112.65,112.65,0,0,0-2-22.82c-1.15-5.29-3.28-13.53-9.87-13.95v.12c5.22.33,7.51,5.66,8.86,10,3.41,11.07,3.32,23.77,3,35.16-.2,6.4,0,34-12.17,32.37-4.87-.67-7-6.79-8.18-10.78-2.4-8.14-2.92-16.89-3.08-25.32-.2-10.32-.12-21.66,2.92-31.66,1.32-4.33,3.56-9.49,8.69-9.81Z"/></g></g></g></g></svg>