<svg xmlns="http://www.w3.org/2000/svg" width="1200" height="157.17" viewBox="0 0 1200 157.17"><defs><style>.cls-1{fill:#060202;}.cls-2{fill:#0b110b;}.cls-3{fill:#131a13;}.cls-4{fill:#1a241b;}.cls-5{fill:#202c23;}.cls-6{fill:#29352b;}.cls-7{fill:#2e3e33;}.cls-8{fill:#364639;}.cls-9{fill:#3c4c3f;}.cls-10{fill:#405345;}.cls-11{fill:#45584a;}.cls-12{fill:#4b5e4f;}.cls-13{fill:#4c6152;}.cls-14{fill:#4e6454;}.cls-15{fill:#516656;}.cls-16{fill:#4f6555;}.cls-17{fill:#4d6353;}.cls-18{fill:#4b6051;}.cls-19{fill:#485c4e;}.cls-20{fill:#445649;}.cls-21{fill:#3e5042;}.cls-22{fill:#3a4a3d;}.cls-23{fill:#334236;}.cls-24{fill:#2c3a2f;}.cls-25{fill:#253127;}.cls-26{fill:#1e2920;}.cls-27{fill:#171f18;}.cls-28{fill:#0f1710;}.cls-29{fill:#090b06;}.cls-30{fill:#050001;}.cls-31{fill:#040000;}.cls-32{fill:#050201;}.cls-33{fill:#0a100a;}.cls-34{fill:#141c16;}.cls-35{fill:#1d281f;}.cls-36{fill:#263329;}.cls-37{fill:#324134;}.cls-38{fill:#3d4e42;}.cls-39{fill:#546b5b;}.cls-40{fill:#617c6b;}.cls-41{fill:#6f8b7b;}.cls-42{fill:#7d9e8a;}.cls-43{fill:#87b09c;}.cls-44{fill:#95c3b0;}.cls-45{fill:#a1cebb;}.cls-46{fill:#a7d0bf;}.cls-47{fill:#aed4c2;}.cls-48{fill:#b3d8c8;}.cls-49{fill:#b9d9cb;}.cls-50{fill:#beddcf;}.cls-51{fill:#c4dfd4;}.cls-52{fill:#c8e2d7;}.cls-53{fill:#cfe5da;}.cls-54{fill:#d3e8df;}.cls-55{fill:#d7e9e1;}.cls-56{fill:#090f09;}.cls-57{fill:#111913;}.cls-58{fill:#1a241c;}.cls-59{fill:#232f25;}.cls-60{fill:#2d3b30;}.cls-61{fill:#36483a;}.cls-62{fill:#415547;}.cls-63{fill:#597261;}.cls-64{fill:#658070;}.cls-65{fill:#72907e;}.cls-66{fill:#7da28e;}.cls-67{fill:#8bb5a2;}.cls-68{fill:#99c8b4;}.cls-69{fill:#aad2c1;}.cls-70{fill:#afd5c3;}.cls-71{fill:#b5d8c9;}.cls-72{fill:#bbdbcd;}.cls-73{fill:#bfddcf;}.cls-74{fill:#c5e0d4;}.cls-75{fill:#cae3d8;}.cls-76{fill:#d8ebe3;}.cls-77{fill:#daebe4;}.cls-78{fill:#deece4;}.cls-79{fill:#e2efeb;}.cls-80{fill:#e6f1ec;}.cls-81{fill:#e8f2ee;}.cls-82{fill:#edf3f0;}.cls-83{fill:#eef5f1;}.cls-84{fill:#f0f6f3;}.cls-85{fill:#f3f7f6;}.cls-86{fill:#f7f9f8;}.cls-87{fill:#f8fbf9;}.cls-88{fill:#fafbfb;}.cls-89{fill:#fcfcfc;}.cls-90{fill:#fbfcfd;}.cls-91{fill:#fcfdff;}.cls-92{fill:#fcfdfd;}.cls-93{fill:#f5f8f8;}.cls-94{fill:#f2f6f4;}.cls-95{fill:#eff5f2;}.cls-96{fill:#ecf4f1;}.cls-97{fill:#e9f3ee;}.cls-98{fill:#e8f2ec;}.cls-99{fill:#e3efe9;}.cls-100{fill:#dfeee8;}.cls-101{fill:#9dccba;}.cls-102,.cls-103{fill:#d1311c;}.cls-102{stroke:#231815;stroke-width:0.11px;}.cls-104{fill:#fff;}.cls-105,.cls-107{fill:none;}.cls-105{stroke:#fff;stroke-width:1.35px;}.cls-106{fill:#223186;}.cls-108{fill:#231815;}</style></defs><title>op_loop</title><g id="レイヤー_2" data-name="レイヤー 2"><g id="デザイン"><path class="cls-1" d="M1196,80.48c0,.26,0,.53,0,.8l4-.17c0-.33,0-.66,0-1Z"/><path class="cls-2" d="M1196,81.28c0,.27,0,.53-.06.8h4c0-.32.06-.65.08-1Z"/><path class="cls-3" d="M1195.9,82.08c0,.26-.06.52-.1.78l4,.21c.06-.33.1-.65.14-1Z"/><path class="cls-4" d="M1195.8,82.86c0,.26-.08.52-.14.77l3.9.4c.07-.32.13-.64.19-1Z"/><path class="cls-5" d="M1195.66,83.63c-.05.26-.11.51-.17.76l3.83.59c.09-.32.16-.63.24-1Z"/><path class="cls-6" d="M1195.49,84.39c-.07.25-.14.5-.22.75l3.76.78c.1-.31.2-.62.29-.94Z"/><path class="cls-7" d="M1195.27,85.14c-.07.24-.16.49-.24.72l3.66,1c.12-.3.23-.61.34-.92Z"/><path class="cls-8" d="M1195,85.86c-.09.25-.18.49-.28.72l3.56,1.17c.13-.3.26-.6.38-.91Z"/><path class="cls-9" d="M1194.75,86.58c-.11.23-.21.47-.32.69l3.45,1.38c.15-.3.29-.59.43-.9Z"/><path class="cls-10" d="M1194.43,87.27c-.11.23-.23.46-.35.68l3.33,1.57c.16-.29.32-.58.47-.87Z"/><path class="cls-11" d="M1194.08,88c-.12.22-.25.44-.38.66l3.2,1.76c.17-.28.35-.56.51-.85Z"/><path class="cls-12" d="M1193.7,88.61c-.13.22-.27.43-.41.64l3.06,2,.55-.83Z"/><path class="cls-13" d="M1193.29,89.25c-.14.21-.29.41-.44.61l2.91,2.14c.2-.26.4-.53.59-.8Z"/><path class="cls-14" d="M1192.85,89.86c-.15.21-.3.41-.46.6l2.75,2.32c.21-.25.42-.51.62-.78Z"/><path class="cls-15" d="M1192.39,90.46l-.5.57-.52.54,2.42,2.68.69-.72.66-.75Z"/><path class="cls-16" d="M1191.37,91.57c-.18.19-.36.36-.55.53l2.25,2.84c.24-.22.48-.46.72-.69Z"/><path class="cls-17" d="M1190.82,92.1c-.18.17-.38.33-.57.49l2.07,3,.75-.66Z"/><path class="cls-18" d="M1190.25,92.59l-.59.47,1.88,3.16.78-.62Z"/><path class="cls-19" d="M1189.66,93.06l-.62.44,1.69,3.31c.28-.19.55-.39.81-.59Z"/><path class="cls-20" d="M1189,93.5c-.21.14-.42.28-.64.41l1.51,3.45.82-.55Z"/><path class="cls-21" d="M1188.4,93.91c-.22.13-.43.26-.66.38l1.31,3.58c.29-.16.58-.33.86-.51Z"/><path class="cls-22" d="M1187.74,94.29l-.67.35,1.11,3.7c.3-.15.59-.31.87-.47Z"/><path class="cls-23" d="M1187.07,94.64l-.7.31.92,3.82.89-.43Z"/><path class="cls-24" d="M1186.37,95c-.24.1-.47.2-.71.28l.72,3.92.91-.38Z"/><path class="cls-25" d="M1185.66,95.23c-.24.09-.49.18-.73.25l.53,4,.92-.34Z"/><path class="cls-26" d="M1184.93,95.48l-.74.22.33,4.08c.32-.09.63-.18.94-.29Z"/><path class="cls-27" d="M1184.19,95.7l-.77.17.15,4.15c.32-.07.63-.15,1-.24Z"/><path class="cls-28" d="M1183.42,95.87l-.77.14-.05,4.2,1-.19Z"/><path class="cls-29" d="M1182.65,96l-.78.1-.24,4.24c.32,0,.65-.08,1-.14Z"/><path class="cls-30" d="M1181.87,96.11l-.79.06-.43,4.26c.33,0,.65,0,1-.08Z"/><path class="cls-31" d="M1181.08,96.17c-.27,0-.54,0-.81,0l-.61,4.27,1,0Z"/><polygon class="cls-30" points="1195.98 74.96 1195.98 80.48 1200 80.13 1200 74.97 1195.98 74.96"/><path class="cls-31" d="M1196,75c0-.27,0-.54,0-.8l4-.18q0,.49,0,1Z"/><path class="cls-31" d="M1196,74.16c0-.27,0-.53-.06-.8l4-.36c0,.32.06.65.08,1Z"/><path class="cls-31" d="M1195.9,73.36c0-.26-.06-.52-.1-.78l4-.56c.06.33.1.65.14,1Z"/><path class="cls-31" d="M1195.8,72.58c0-.26-.08-.52-.14-.77l3.9-.75c.07.32.13.64.19,1Z"/><path class="cls-31" d="M1195.66,71.81c-.05-.26-.11-.51-.17-.76l3.83-.94c.09.32.16.63.24,1Z"/><path class="cls-31" d="M1195.49,71.05c-.07-.25-.14-.5-.22-.74l3.76-1.14c.1.31.2.62.29.94Z"/><path class="cls-31" d="M1195.27,70.31c-.07-.25-.16-.49-.24-.74l3.66-1.33c.12.31.23.62.34.93Z"/><path class="cls-32" d="M1195,69.57c-.09-.23-.18-.47-.28-.71l3.56-1.53c.13.31.26.61.38.91Z"/><path class="cls-33" d="M1194.75,68.86l-.32-.69,3.45-1.72c.15.29.29.58.43.88Z"/><path class="cls-34" d="M1194.43,68.17c-.11-.23-.23-.46-.35-.68l3.33-1.92c.16.29.32.58.47.88Z"/><path class="cls-35" d="M1194.08,67.49c-.12-.23-.25-.44-.38-.66l3.2-2.11c.17.28.35.57.51.85Z"/><path class="cls-36" d="M1193.7,66.83c-.13-.22-.27-.43-.41-.64l3.06-2.3.55.83Z"/><path class="cls-37" d="M1193.29,66.19c-.14-.21-.29-.41-.44-.61l2.91-2.49c.2.26.4.53.59.8Z"/><path class="cls-38" d="M1192.85,65.58l-.46-.6,2.75-2.67c.21.25.42.51.62.78Z"/><path class="cls-19" d="M1192.39,65l-.5-.57,2.59-2.85.66.75Z"/><path class="cls-39" d="M1191.89,64.41c-.17-.19-.35-.37-.52-.55l2.42-3c.23.23.46.48.69.72Z"/><path class="cls-40" d="M1191.37,63.86l-.55-.52,2.25-3.19q.36.33.72.69Z"/><path class="cls-41" d="M1190.82,63.34l-.57-.49,2.07-3.36.75.66Z"/><path class="cls-42" d="M1190.25,62.85l-.59-.47,1.88-3.51.78.62Z"/><path class="cls-43" d="M1189.66,62.38l-.62-.44,1.69-3.66c.28.19.55.39.81.59Z"/><path class="cls-44" d="M1189,61.94c-.21-.14-.42-.28-.64-.41l1.51-3.8.82.55Z"/><path class="cls-45" d="M1188.4,61.53c-.22-.13-.43-.26-.66-.38l1.31-3.93c.29.16.58.33.86.51Z"/><path class="cls-46" d="M1187.74,61.15c-.22-.12-.44-.24-.67-.35l1.11-4c.3.15.59.31.87.47Z"/><path class="cls-47" d="M1187.07,60.8l-.7-.31.92-4.17.89.43Z"/><path class="cls-48" d="M1186.37,60.49l-.71-.29.72-4.26.91.38Z"/><path class="cls-49" d="M1185.66,60.2l-.73-.24.53-4.36.92.34Z"/><path class="cls-50" d="M1184.93,60l-.74-.22.33-4.43.94.29Z"/><path class="cls-51" d="M1184.19,59.74l-.77-.17.15-4.5c.32.07.63.15,1,.24Z"/><path class="cls-52" d="M1183.42,59.57l-.77-.14-.05-4.55c.33,0,.65.12,1,.19Z"/><path class="cls-53" d="M1182.65,59.43l-.78-.1-.24-4.59c.32,0,.65.08,1,.14Z"/><path class="cls-54" d="M1181.87,59.33l-.79-.06-.43-4.61c.33,0,.65,0,1,.08Z"/><path class="cls-55" d="M1181.08,59.27l-.81,0-.61-4.62,1,0Z"/><polygon class="cls-31" points="1180.27 96.19 88.44 96.19 88.6 100.46 1179.66 100.46 1180.27 96.19"/><path class="cls-31" d="M88.44,96.19c-.27,0-.54,0-.81,0v4.26c.32,0,.65,0,1,0Z"/><path class="cls-31" d="M87.63,96.17c-.26,0-.53,0-.79-.06l-.21,4.24c.33,0,.66.06,1,.08Z"/><path class="cls-31" d="M86.84,96.11l-.79-.1-.39,4.2c.32.06.65.1,1,.14Z"/><path class="cls-31" d="M86.05,96l-.77-.14L84.7,100l1,.19Z"/><path class="cls-31" d="M85.28,95.87l-.76-.17-.77,4.08c.31.09.63.17,1,.24Z"/><path class="cls-31" d="M84.52,95.7l-.74-.22-1,4c.31.11.62.2.94.29Z"/><path class="cls-32" d="M83.78,95.48c-.24-.07-.49-.16-.73-.25l-1.17,3.92.93.34Z"/><path class="cls-56" d="M83.05,95.23c-.24-.08-.48-.18-.71-.28L81,98.77l.91.38Z"/><path class="cls-57" d="M82.34,95l-.7-.31-1.56,3.7.89.43Z"/><path class="cls-58" d="M81.64,94.64,81,94.29l-1.75,3.58.87.47Z"/><path class="cls-59" d="M81,94.29l-.65-.38-2,3.45c.28.18.56.35.85.51Z"/><path class="cls-60" d="M80.31,93.91c-.22-.13-.43-.27-.64-.41l-2.14,3.31c.27.19.55.37.83.55Z"/><path class="cls-61" d="M79.67,93.5l-.62-.44-2.33,3.16.81.59Z"/><path class="cls-62" d="M79.05,93.06l-.59-.47L76,95.6l.77.62Z"/><path class="cls-17" d="M78.46,92.59c-.2-.16-.39-.32-.57-.49L75.2,94.94l.75.66Z"/><path class="cls-63" d="M77.89,92.1c-.19-.17-.37-.34-.55-.53l-2.86,2.68c.23.23.47.47.72.69Z"/><path class="cls-64" d="M77.34,91.57c-.18-.17-.35-.36-.52-.54l-3,2.5c.23.24.46.49.7.72Z"/><path class="cls-65" d="M76.82,91l-.49-.57-3.2,2.32.65.75Z"/><path class="cls-66" d="M76.33,90.46a6.9,6.9,0,0,1-.47-.6L72.5,92c.21.27.41.53.63.78Z"/><path class="cls-67" d="M75.86,89.86c-.15-.2-.3-.4-.44-.61l-3.5,2c.19.27.38.54.58.8Z"/><path class="cls-68" d="M75.42,89.25c-.14-.21-.28-.42-.41-.64l-3.64,1.76c.17.28.36.55.55.83Z"/><path class="cls-45" d="M75,88.61c-.13-.22-.26-.44-.38-.66l-3.78,1.57c.17.29.34.57.52.85Z"/><path class="cls-69" d="M74.63,88c-.12-.22-.24-.45-.35-.68l-3.9,1.38c.15.29.31.58.47.87Z"/><path class="cls-70" d="M74.28,87.27c-.11-.22-.22-.46-.32-.69l-4,1.17c.13.31.27.6.42.9Z"/><path class="cls-71" d="M74,86.58c-.1-.23-.19-.47-.28-.72l-4.11,1c.12.31.25.61.39.91Z"/><path class="cls-72" d="M73.68,85.86c-.09-.23-.17-.48-.25-.72l-4.19.78c.1.31.22.62.33.92Z"/><path class="cls-73" d="M73.43,85.14c-.07-.25-.15-.5-.21-.75L69,85c.09.32.18.63.29.94Z"/><path class="cls-74" d="M73.22,84.39,73,83.63l-4.33.4c.07.32.15.63.24,1Z"/><path class="cls-75" d="M73,83.63c-.05-.25-.09-.51-.13-.77l-4.39.21c0,.32.11.64.19,1Z"/><path class="cls-53" d="M72.91,82.86c0-.26-.08-.52-.1-.78H68.38c0,.33.08.65.14,1Z"/><path class="cls-54" d="M72.81,82.08c0-.27,0-.53-.07-.8l-4.45-.17c0,.33,0,.66.09,1Z"/><path class="cls-76" d="M72.74,81.28c0-.27,0-.54,0-.8l-4.46-.35c0,.32,0,.65,0,1Z"/><polygon class="cls-77" points="72.72 80.48 72.72 74.96 68.26 74.97 68.26 80.13 72.72 80.48"/><polygon class="cls-78" points="88.44 59.25 1180.27 59.25 1179.66 54.63 88.6 54.63 88.44 59.25"/><path class="cls-78" d="M72.72,75c0-.27,0-.54,0-.8L68.29,74q0,.49,0,1Z"/><path class="cls-79" d="M72.74,74.16c0-.27,0-.53.07-.8L68.38,73c0,.32-.07.65-.09,1Z"/><path class="cls-80" d="M72.81,73.36c0-.26.06-.52.1-.78L68.52,72c-.06.33-.11.65-.14,1Z"/><path class="cls-81" d="M72.91,72.58c0-.26.08-.52.13-.77l-4.33-.75c-.08.32-.14.64-.19,1Z"/><path class="cls-82" d="M73,71.81l.18-.76L69,70.11c-.09.32-.17.63-.24,1Z"/><path class="cls-83" d="M73.22,71.05c.06-.25.14-.5.21-.74l-4.19-1.14c-.11.31-.2.62-.29.94Z"/><path class="cls-84" d="M73.43,70.31c.08-.25.16-.49.25-.74l-4.11-1.33c-.11.31-.23.62-.33.93Z"/><path class="cls-85" d="M73.68,69.57c.09-.23.18-.47.28-.71l-4-1.53c-.14.31-.27.61-.39.91Z"/><path class="cls-86" d="M74,68.86c.1-.24.21-.46.32-.69l-3.9-1.72c-.15.29-.29.58-.42.88Z"/><path class="cls-87" d="M74.28,68.17c.11-.23.23-.46.35-.68l-3.78-1.92c-.16.29-.32.58-.47.88Z"/><path class="cls-88" d="M74.63,67.49c.12-.23.25-.44.38-.66l-3.64-2.11c-.18.28-.35.57-.52.85Z"/><path class="cls-89" d="M75,66.83c.13-.22.27-.43.41-.64l-3.5-2.3c-.19.27-.38.55-.55.83Z"/><path class="cls-89" d="M75.42,66.19c.14-.21.29-.41.44-.61L72.5,63.09c-.2.26-.39.53-.58.8Z"/><path class="cls-90" d="M75.86,65.58c.15-.2.3-.4.47-.6l-3.2-2.67c-.22.25-.42.51-.63.78Z"/><path class="cls-91" d="M76.33,65l.49-.57-3-2.85-.65.75Z"/><path class="cls-91" d="M76.82,64.41c.17-.19.34-.37.52-.55l.55-.52L75.2,60.15c-.25.22-.72.69-.72.69-.24.23-.47.48-.7.72Z"/><path class="cls-91" d="M77.89,63.34c.18-.16.37-.33.57-.49L76,59.49c-.26.22-.51.43-.75.66Z"/><path class="cls-90" d="M78.46,62.85l.59-.47-2.33-3.51-.77.62Z"/><path class="cls-92" d="M79.05,62.38l.62-.44-2.14-3.66-.81.59Z"/><path class="cls-89" d="M79.67,61.94c.21-.14.42-.28.64-.41l-2-3.8c-.28.18-.56.36-.83.55Z"/><path class="cls-88" d="M80.31,61.53l.65-.38-1.75-3.93c-.29.16-.57.33-.85.51Z"/><path class="cls-87" d="M81,61.15l.68-.35-1.56-4-.87.47Z"/><path class="cls-86" d="M81.64,60.8l.7-.31L81,56.32l-.89.43Z"/><path class="cls-93" d="M82.34,60.49l.71-.29-1.17-4.26-.91.38Z"/><path class="cls-94" d="M83.05,60.2l.73-.24-1-4.36-.93.34Z"/><path class="cls-95" d="M83.78,60l.74-.22-.77-4.43-.94.29Z"/><path class="cls-96" d="M84.52,59.74l.76-.17-.58-4.5c-.32.07-.64.15-1,.24Z"/><path class="cls-97" d="M85.28,59.57l.77-.14-.39-4.55c-.32,0-.64.12-1,.19Z"/><path class="cls-98" d="M86.05,59.43l.79-.1-.21-4.59c-.32,0-.65.08-1,.14Z"/><path class="cls-99" d="M86.84,59.33c.26,0,.53,0,.79-.06V54.66c-.33,0-.66,0-1,.08Z"/><path class="cls-100" d="M87.63,59.27l.81,0,.16-4.62c-.33,0-.66,0-1,0Z"/><path class="cls-101" d="M88.44,59.25H1180.27A15.72,15.72,0,0,1,1196,75v5.51a15.72,15.72,0,0,1-15.72,15.72H88.44A15.71,15.71,0,0,1,72.72,80.48V75A15.71,15.71,0,0,1,88.44,59.25Z"/><line class="cls-102" x1="78.58" y1="79.5" x2="78.58" y2="77.67"/><path class="cls-103" d="M157.16,78.59A78.58,78.58,0,1,1,78.58,0,78.58,78.58,0,0,1,157.16,78.59Z"/><path class="cls-104" d="M143.34,78.59A64.76,64.76,0,1,1,78.58,13.82,64.75,64.75,0,0,1,143.34,78.59Z"/><path class="cls-105" d="M151,78.48A71.91,71.91,0,1,1,79.13,6.58,71.91,71.91,0,0,1,151,78.48Z"/><polygon class="cls-106" points="134.42 96.2 111.7 102.44 118.93 86.16 141.65 79.93 134.42 96.2"/><path class="cls-106" d="M40.85,100.49c-.17-3.06.78-7,2.87-11.68a58.72,58.72,0,0,1,8.21-13.28L68.6,38,42.8,45.07,4.19,132l95.74-26.29,7.17-16.15L98.23,92a35.92,35.92,0,0,1-10.56,5c-3.54,1-6.31,1-8.29.17l-16.06,4.41a35.15,35.15,0,0,1-10.55,5q-5.33,1.45-8.29.17l-7.28,2Z"/><path class="cls-107" d="M102.87,63.06a12.41,12.41,0,0,0-5.52,3.85A31.42,31.42,0,0,0,92,75.48Q89.59,81,90.11,83.19c.34,1.45,1.37,2,3.08,1.47a12.17,12.17,0,0,0,5.43-3.78A32.31,32.31,0,0,0,104,72.06c1.59-3.58,2.21-6.08,1.86-7.52S104.52,62.6,102.87,63.06Z"/><path class="cls-107" d="M68,72.65a12.44,12.44,0,0,0-5.51,3.85,31.26,31.26,0,0,0-5.31,8.57c-1.64,3.69-2.29,6.26-1.93,7.7s1.37,1.94,3.09,1.48a12.1,12.1,0,0,0,5.42-3.78,32.8,32.8,0,0,0,5.38-8.81c1.59-3.59,2.21-6.09,1.86-7.54S69.62,72.19,68,72.65Z"/><path class="cls-107" d="M83.63,71.73a13.48,13.48,0,0,0,.15-6.65Q82.1,59.22,72.6,61.84q-8.34,2.29-15.93,9.75a54.72,54.72,0,0,0-11.8,16.9q-4.51,10.16-1.5,14.83,2.46,3.77,10.1,1.66a37.21,37.21,0,0,0,16.1-9.76,56,56,0,0,0,8-9.79,36.17,36.17,0,0,1,2.24-6.52,54.47,54.47,0,0,1,3.87-7.18M63.72,90.47a12.1,12.1,0,0,1-5.42,3.78c-1.72.46-2.75,0-3.09-1.48s.29-4,1.93-7.7a31.26,31.26,0,0,1,5.31-8.57A12.44,12.44,0,0,1,68,72.65c1.66-.46,2.65,0,3,1.47s-.27,3.95-1.86,7.54A32.8,32.8,0,0,1,63.72,90.47Z"/><path class="cls-107" d="M118.69,55.49Q117,49.64,107.5,52.25,99.18,54.55,91.57,62a55.65,55.65,0,0,0-7.94,9.72,37.45,37.45,0,0,1-2.27,6.54,57.17,57.17,0,0,1-3.84,7.16q-1.2,5.28.74,8.3c1.65,2.51,5,3.06,10.11,1.66a37.1,37.1,0,0,0,16.09-9.75,54.61,54.61,0,0,0,11.79-17q3.77-8.46,2.44-13.19M98.62,80.88a12.17,12.17,0,0,1-5.43,3.78c-1.71.48-2.74,0-3.08-1.47s.29-4,1.92-7.71a31.42,31.42,0,0,1,5.32-8.57,12.41,12.41,0,0,1,5.52-3.85c1.65-.46,2.64,0,3,1.48s-.27,3.94-1.86,7.52A32.31,32.31,0,0,1,98.62,80.88Z"/><path class="cls-103" d="M118.69,55.49Q117,49.64,107.5,52.25,99.18,54.55,91.57,62a55.65,55.65,0,0,0-7.94,9.72,37.45,37.45,0,0,1-2.27,6.54,57.17,57.17,0,0,1-3.84,7.16q-1.2,5.28.74,8.3c1.65,2.51,5,3.06,10.11,1.66a37.1,37.1,0,0,0,16.09-9.75,54.61,54.61,0,0,0,11.79-17q3.77-8.46,2.44-13.19M98.62,80.88a12.17,12.17,0,0,1-5.43,3.78c-1.71.48-2.74,0-3.08-1.47s.29-4,1.92-7.71a31.42,31.42,0,0,1,5.32-8.57,12.41,12.41,0,0,1,5.52-3.85c1.65-.46,2.64,0,3,1.48s-.27,3.94-1.86,7.52A32.31,32.31,0,0,1,98.62,80.88Z"/><path class="cls-103" d="M83.63,71.73a13.48,13.48,0,0,0,.15-6.65Q82.1,59.22,72.6,61.84q-8.34,2.29-15.93,9.75a54.72,54.72,0,0,0-11.8,16.9q-4.51,10.16-1.5,14.83,2.46,3.77,10.1,1.66a37.21,37.21,0,0,0,16.1-9.76,56,56,0,0,0,8-9.79,36.17,36.17,0,0,1,2.24-6.52,54.47,54.47,0,0,1,3.87-7.18M63.72,90.47a12.1,12.1,0,0,1-5.42,3.78c-1.72.46-2.75,0-3.09-1.48s.29-4,1.93-7.7a31.26,31.26,0,0,1,5.31-8.57A12.44,12.44,0,0,1,68,72.65c1.66-.46,2.65,0,3,1.47s-.27,3.95-1.86,7.54A32.8,32.8,0,0,1,63.72,90.47Z"/><path class="cls-108" d="M69.24,47.54l-3.13.76-.32,1.18,3-.74c.47-.11.76-.1.87,0s.11.45,0,1l-.2.74a2.32,2.32,0,0,1-.53,1.07,2.16,2.16,0,0,1-1,.51l-3,.73c-.47.11-.76.1-.87,0s-.1-.46,0-1l0-.14,1-.48-.17.64L68.35,51l.34-1.22-3,.73c-.45.11-.74.1-.85,0s-.1-.47,0-1l.16-.59a2.7,2.7,0,0,1,.52-1.09,2.12,2.12,0,0,1,1-.5l2.71-.67c.45-.11.74-.09.86,0s.12.43,0,.88l0,.1-1.06.51Z"/><path class="cls-108" d="M74,45.47l-1.21,4.42,3.16-.78,1.21-4.42,1.11-.27-1.14,4.15a2.46,2.46,0,0,1-.53,1.08,2,2,0,0,1-1,.5l-3,.74c-.46.13-.75.11-.86,0s-.1-.46,0-1l1.14-4.15Z"/><path class="cls-108" d="M79.2,49.25l1.5-5.44,4.09-1c.38-.09.63-.07.75.05s.14.38,0,.75l-.34,1.21a1.82,1.82,0,0,1-.47.86,2,2,0,0,1-.89.46l-3,.74L80.29,49l-1.09.27M84,43.87l-2.51.62-.39,1.44,2.5-.62a1,1,0,0,0,.43-.2.77.77,0,0,0,.19-.36l.16-.58c0-.16,0-.26,0-.31S84.23,43.82,84,43.87Z"/><polygon class="cls-108" points="86.08 47.55 87.57 42.11 92.47 40.89 92.21 41.83 88.42 42.76 88.09 43.98 90.31 43.43 90.05 44.36 87.84 44.91 87.48 46.25 91.3 45.31 91.02 46.33 86.08 47.55"/><path class="cls-108" d="M93.06,45.82l1.5-5.45,4.09-1c.38-.09.64-.08.75,0s.13.38,0,.75l-.35,1.28a1.69,1.69,0,0,1-1.36,1.32l-.63.15,1.64,1.51-1.59.39-1.37-1.58-1,.27-.57,2-1.09.28m4.83-5.38-2.5.61L95,42.57l2.51-.63a1,1,0,0,0,.42-.19.77.77,0,0,0,.2-.36l.17-.65c0-.15,0-.26,0-.31S98.09,40.39,97.89,40.44Z"/><path class="cls-108" d="M61,60.45l4.2-6.11,1.07-.27,1.25,4.77-1.25.31-.25-1-3,.75-.88,1.33L61,60.45m2.74-2.71,2.09-.52-.42-1.94Z"/><path class="cls-108" d="M69,58.47,70.52,53l.9-.23,1.35,2.73,3.1-3.83.89-.22-1.49,5.44-1,.25.92-3.35c0-.08,0-.15.08-.25s.08-.22.12-.34c-.09.14-.18.28-.25.37l-.18.27L72.37,57l-.21,0-1-2.27a2.67,2.67,0,0,1-.09-.26,1.57,1.57,0,0,1,0-.23l-.06.31c0,.09,0,.17-.07.26l-.93,3.36Z"/><path class="cls-108" d="M80.22,50.62,79,55l3.16-.79,1.22-4.42,1.1-.26-1.13,4.15a2.52,2.52,0,0,1-.53,1.08,2.07,2.07,0,0,1-1,.5l-3,.74c-.46.12-.75.11-.86,0s-.11-.45,0-1l1.14-4.16Z"/><path class="cls-108" d="M90.79,48.89l-3.12.77-.32,1.18,3-.75c.47-.11.77-.09.88,0s.1.46,0,1l-.21.74a2.47,2.47,0,0,1-.52,1.08,2.16,2.16,0,0,1-1,.51l-3,.72c-.46.12-.75.1-.86,0s-.11-.46,0-1l0-.15,1-.46-.18.62,3.37-.82.34-1.24-3,.73c-.46.12-.75.1-.86,0s-.1-.47,0-1l.17-.6a2.71,2.71,0,0,1,.53-1.08,2.13,2.13,0,0,1,1-.5L90.85,48c.45-.11.75-.1.86,0s.13.42,0,.87l0,.11-1.05.51Z"/><polygon class="cls-108" points="92.93 52.55 94.42 47.1 99.31 45.89 99.06 46.83 95.28 47.76 94.95 48.97 97.16 48.42 96.89 49.36 94.69 49.91 94.32 51.24 98.14 50.29 97.87 51.32 92.93 52.55"/><path class="cls-108" d="M99.89,50.83l1.5-5.45.9-.22,1.34,2.73,3.1-3.84.89-.21-1.49,5.43-1,.26.92-3.36.08-.24a2.91,2.91,0,0,1,.12-.35L106,46l-.18.25-2.54,3.17-.23,0-1-2.29a1.86,1.86,0,0,1-.09-.24,1.09,1.09,0,0,1,0-.25,2.38,2.38,0,0,1-.07.31l-.06.26-.93,3.37Z"/><polygon class="cls-108" points="108.48 48.7 109.98 43.26 114.87 42.05 114.61 42.98 110.83 43.91 110.5 45.12 112.71 44.58 112.45 45.51 110.24 46.05 109.87 47.4 113.7 46.45 113.42 47.47 108.48 48.7"/><path class="cls-108" d="M115.44,47l1.5-5.45.76-.18,2.48,2.38c.09.08.15.16.22.22l.16.23c.06-.29.11-.51.14-.64s0-.22.07-.28l.79-2.86,1-.25-1.49,5.44-.76.19-2.58-2.49-.16-.18-.12-.18c0,.18-.06.33-.09.48s-.06.28-.1.38l-.8,2.94Z"/><polygon class="cls-108" points="126.94 39.95 125.71 44.42 124.6 44.7 125.83 40.23 123.64 40.77 123.91 39.81 129.4 38.44 129.13 39.41 126.94 39.95"/><polygon class="cls-104" points="19.02 129.88 17.66 128.29 40.67 121.97 41.16 123.77 19.02 129.88"/><polygon class="cls-104" points="10.45 117.9 9.4 115.92 18.39 95.18 20.13 96.08 10.45 117.9"/><path class="cls-104" d="M154.2,45.22c-.49-3.81-2.94-5-7.5-3.8a22.4,22.4,0,0,0-7.15,3.66A56.21,56.21,0,0,0,132.41,52l-4,4.48,4.57-10.31-7.1,2V65.72A32.84,32.84,0,0,1,130.89,58a14.66,14.66,0,0,1,6.33-4.38c1.85-.5,3,.06,3.37,1.7s-.33,4.52-2.13,8.59a37.73,37.73,0,0,1-6.06,10,14.84,14.84,0,0,1-5.18,3.94h13a65.83,65.83,0,0,0,10.17-16.58C153.4,54.51,154.69,49.09,154.2,45.22Z"/><path class="cls-106" d="M153,46.16c-.42-3.26-2.52-4.32-6.43-3.25a19.22,19.22,0,0,0-6.13,3.14A46.42,46.42,0,0,0,134.29,52l-3.48,3.84S134,48.7,134.73,47l-9,2.49-7,15.81c-.36,1-.77,2-1.25,3.1s-1,2.14-1.53,3.17l-15,33.89,10-2.74,10.64-24,.78,2.07a3.68,3.68,0,0,0,2.29,2.3,7.4,7.4,0,0,0,4.23-.17c3.58-1,7.17-3.39,11-7.35a54.48,54.48,0,0,0,10-15.6c2.59-5.85,3.69-10.49,3.27-13.82M134.28,70.81a11.44,11.44,0,0,1-5.06,3.58c-1.76.49-2.85,0-3.24-1.37s.18-3.83,1.7-7.26a31.18,31.18,0,0,1,5.31-8.6,12.5,12.5,0,0,1,5.42-3.76c1.58-.44,2.56.05,2.9,1.47s-.29,3.86-1.84,7.35A31.86,31.86,0,0,1,134.28,70.81Z"/><path class="cls-104" d="M191.67,74.86a12.06,12.06,0,0,0-.1,2c-.09,4.18-.75,6.52-2.41,8.64a14.09,14.09,0,0,1-6.3,4.39,8.75,8.75,0,0,0-1.92-2.78A11.27,11.27,0,0,0,185.21,85c2.49-2,3.27-4.08,3.27-8.69a6,6,0,0,0-.13-1.46Zm9.91-3.08a7.11,7.11,0,0,0-1,1.71,15.4,15.4,0,0,1-3.76,4.91,15.19,15.19,0,0,1-2.92,2,8.28,8.28,0,0,0-2.2-2.22A11.22,11.22,0,0,0,195.28,76a10.17,10.17,0,0,0,2.32-3.1H184.79a24,24,0,0,0-3.32.14V70a19.08,19.08,0,0,0,3.37.2h12.74a6.8,6.8,0,0,0,2.36-.22Z"/><path class="cls-104" d="M207.33,82.69a76.55,76.55,0,0,1,16.2,3.85l-1.05,3.08a44.6,44.6,0,0,0-8.63-2.73,67,67,0,0,0-7.66-1.42Zm1.95-6.88A77.35,77.35,0,0,1,222,78.64l-.95,3a41.34,41.34,0,0,0-6.71-2,51.87,51.87,0,0,0-6.18-1.07Zm.37-6.73a81.54,81.54,0,0,1,13.2,2.63l-1,3a64,64,0,0,0-13.32-2.8Z"/><path class="cls-104" d="M246.05,86.45a11.05,11.05,0,0,0,2.25-.15v2.78a19.3,19.3,0,0,0-2.25-.1H233.39a18.74,18.74,0,0,0-2.25.1V86.3a11.23,11.23,0,0,0,2.25.15h7.2c.41-2.17.92-5.61,1.17-7.83h-6a16.64,16.64,0,0,0-2.18.09V76a15.1,15.1,0,0,0,2.25.14H242a5.49,5.49,0,0,0,1.81-.22l1.34,1.17a9,9,0,0,0-.56,2.79c-.37,2.68-.64,4.41-1,6.61Z"/><path class="cls-104" d="M253.66,77.54a23.55,23.55,0,0,0,4,.17h13a23.55,23.55,0,0,0,3.95-.17v3.39a27.34,27.34,0,0,0-4-.12H257.64a27.25,27.25,0,0,0-4,.12Z"/><path class="cls-104" d="M296.18,90a47.79,47.79,0,0,0-7.49-7.24,29.47,29.47,0,0,1-9.29,7,9.07,9.07,0,0,0-2-2.71,24.37,24.37,0,0,0,8-5.27,23.26,23.26,0,0,0,5.08-7.34l.12-.27.07-.17a.74.74,0,0,1,.08-.22l-.54,0-.22,0-7.32.12a19.64,19.64,0,0,0-2.66.17l-.1-3.1a10.87,10.87,0,0,0,2.15.15h.59l8.15-.13a5.25,5.25,0,0,0,2.17-.26l1.8,2.17a5,5,0,0,0-.78,1.32,29.82,29.82,0,0,1-3.56,6.22,52.31,52.31,0,0,1,8.08,6.9Zm-.92-21.47a16.09,16.09,0,0,1,2.56,3.59l-1.64.9a16,16,0,0,0-2.56-3.63Zm3.78,3A17.77,17.77,0,0,0,296.55,68l1.54-.78a14.09,14.09,0,0,1,2.53,3.44Z"/><path class="cls-104" d="M320.46,70.2A14.75,14.75,0,0,0,319.6,72a40.33,40.33,0,0,1-3.44,6.91A58.37,58.37,0,0,1,321.6,84l-2.34,2.51a36.48,36.48,0,0,0-4.95-5.14,28.11,28.11,0,0,1-3.81,4.07,30.82,30.82,0,0,1-5.8,4A7.61,7.61,0,0,0,302.55,87a24.71,24.71,0,0,0,6.32-4.22,25.57,25.57,0,0,0,3.1-3.32A43.87,43.87,0,0,0,305.5,75l2.15-2.15a47.3,47.3,0,0,1,4,2.59c1.83,1.32,1.83,1.32,2,1.44a29.91,29.91,0,0,0,3.44-7.86Z"/><path class="cls-104" d="M328,85.67a23.35,23.35,0,0,0,7.22-1.81,16.35,16.35,0,0,0,7.25-6A20.34,20.34,0,0,0,345,73a10.19,10.19,0,0,0,2.59,2.39c-2.08,4.47-4.4,7.35-7.74,9.57a26.4,26.4,0,0,1-9.3,3.66,9.05,9.05,0,0,0-1.61.41Zm2.08-15.16a34.93,34.93,0,0,1,6.29,4.71l-2.1,2.66a25.67,25.67,0,0,0-6.22-4.95Z"/><path class="cls-104" d="M356,89.69a16.77,16.77,0,0,0,.14-2.73V71.32a16.83,16.83,0,0,0-.14-2.49h3.34a15.94,15.94,0,0,0-.1,2.56v4.54a71.61,71.61,0,0,1,11.08,5.15L368.59,84A58,58,0,0,0,360,79.3a6.94,6.94,0,0,1-.83-.42,11.65,11.65,0,0,1,.1,1.66V87a24.8,24.8,0,0,0,.1,2.71Z"/><path class="cls-104" d="M385.27,69.44a7.58,7.58,0,0,0-.12-1.49h2.93a6.08,6.08,0,0,0-.12,1.52v.87H394a22.44,22.44,0,0,0,3.07-.14v2.71a30.17,30.17,0,0,0-3-.13H379.61c0,10.35-.56,14-2.8,17.69a10.63,10.63,0,0,0-2.17-2.1,12.4,12.4,0,0,0,1.83-5,56.81,56.81,0,0,0,.51-9.49c0-2.07,0-2.85-.1-3.71.86.08,1.78.12,2.88.12h5.51Zm.93,6.37a13.69,13.69,0,0,0-.12-2.42h2.78a18.16,18.16,0,0,0-.1,2.42v.29h5.13a16.92,16.92,0,0,0,2.58-.14v2.68a17.83,17.83,0,0,0-2.48-.15h-5.23v2.57h4.47a16.81,16.81,0,0,0,2.15-.1,22.1,22.1,0,0,0-.1,2.46v4a21.45,21.45,0,0,0,.14,3.17h-2.78v-1h-9v1h-2.76a22.16,22.16,0,0,0,.15-3V83.1a18.39,18.39,0,0,0-.1-2.14,17.28,17.28,0,0,0,2.17.1h3.12Zm-2.58,11.3h9V83.5h-9Z"/><path class="cls-104" d="M402.6,77a15.14,15.14,0,0,0-1.59.07v-2c-.37.31-.56.46-1.12.9a9.73,9.73,0,0,0-1.05-2.54A10.46,10.46,0,0,0,401.62,71a14.64,14.64,0,0,0,1.88-2.73h2.61a11.87,11.87,0,0,0,3.24,3.34V70.42a14.48,14.48,0,0,0,2.25.12h2.73V70a10.37,10.37,0,0,0-.15-2h2.64a8.57,8.57,0,0,0-.15,2v.54h3A10.64,10.64,0,0,0,417.36,69l1.36-1.32a10,10,0,0,1,2.54,1.57l-1.12,1.29a11.23,11.23,0,0,0,1.68-.12V73a11.56,11.56,0,0,0-2-.12h-3.13v1.61h2.49c1.15,0,1.61,0,2.22-.08a21.21,21.21,0,0,0-.1,2.49V88.35c0,1.42-.63,1.9-2.46,1.9-.24,0-.37,0-1.2,0a8.29,8.29,0,0,0-.48-2.31,8.54,8.54,0,0,0,1.39.12c.34,0,.44-.12.44-.56V85h-2.3v3a17.45,17.45,0,0,0,.1,2.25h-2.54a16.44,16.44,0,0,0,.1-2.22V85h-2.2v2.83a23.09,23.09,0,0,0,.1,2.68h-2.51a18.45,18.45,0,0,0,.12-2.66v-11c0-1.29,0-1.73-.07-2.44.63,0,1.14.08,2.44.08h2.12V72.91H411.6a20,20,0,0,0-2.25.09c-.26.52-.34.66-.63,1.3a15.2,15.2,0,0,1-3.86-3.91,18.51,18.51,0,0,1-3.61,4.47c.39,0,.76,0,1.32,0h1.15v-.17a15.21,15.21,0,0,0-.1-2.08h2.61a10.63,10.63,0,0,0-.12,2v.2h1.1a7.18,7.18,0,0,0,1.53-.08v2.22a11.82,11.82,0,0,0-1.48-.07h-1.15v1.76h1.27a17.89,17.89,0,0,0,1.95-.08V81a10.88,10.88,0,0,0-1.9-.1h-6a11.31,11.31,0,0,0-2,.12V78.64a15.46,15.46,0,0,0,2,.1h2.25V77Zm3.48,13.3v-.83h-3v1.07h-2.61a12.79,12.79,0,0,0,.12-2.15V84.25a14.34,14.34,0,0,0-.1-2,14.42,14.42,0,0,0,1.91.09h4.46a11.47,11.47,0,0,0,1.76-.09c0,.41-.05,1-.05,1.85v4.39a10.4,10.4,0,0,0,.1,1.76Zm-3-3h3V84.4h-3Zm9.07-10.59v2h2.2v-2Zm2.2,4.13h-2.2v2.07h2.2Zm2.34-2.1H419v-2h-2.3Zm2.3,4.17V80.84h-2.3v2.07Z"/><path class="cls-104" d="M436.73,79.47c0-.12,0-1.37.07-1.76a14.67,14.67,0,0,1-2.49,3.42,32.33,32.33,0,0,1-8.42,6.49,7,7,0,0,0-2-2.54,26.14,26.14,0,0,0,7.68-5.29,22.86,22.86,0,0,0,3.27-4h-6.68a28.84,28.84,0,0,0-3,.12v-3a14.17,14.17,0,0,0,3.07.17h8.44l0-2a20.59,20.59,0,0,0-.12-2.24h3.22a14.41,14.41,0,0,0-.1,2.07v.15l.05,2h2.46a14.32,14.32,0,0,0,2.88-.17v3a25.62,25.62,0,0,0-2.8-.1H439.7l.12,11.32c0,1.2.08,2.12.15,2.81h-3.32a15.2,15.2,0,0,0,.15-2.34v-.44l-.07-7.3Z"/><path class="cls-104" d="M448.82,77.54a23.7,23.7,0,0,0,4,.17h13a23.48,23.48,0,0,0,4-.17v3.39a27.08,27.08,0,0,0-4-.12h-13a27.34,27.34,0,0,0-4,.12Z"/><path class="cls-104" d="M488.47,70.86c.73,0,1,0,1.44,0a2.82,2.82,0,1,1,2.8,2.8,2.68,2.68,0,0,1-.46,0c-2,8-6.29,13-14,16.18a9,9,0,0,0-2.15-2.9c6.76-2.1,11.17-6.64,12.73-13.13H477.22a17.61,17.61,0,0,0-3.07.15V70.69a17.28,17.28,0,0,0,3.12.17Zm2.66-.08a1.6,1.6,0,1,0,3.19,0,1.6,1.6,0,0,0-3.19,0Z"/><path class="cls-104" d="M497.93,83.62a17.75,17.75,0,0,0,3.13.17h14a17.55,17.55,0,0,0,3.12-.17v3.27a23.33,23.33,0,0,0-3.07-.13H501a23.51,23.51,0,0,0-3.08.13Zm2.47-11.89a14.76,14.76,0,0,0,2.88.18h9.58a14.76,14.76,0,0,0,2.88-.18V75a20.28,20.28,0,0,0-2.85-.13h-9.64a20.28,20.28,0,0,0-2.85.13Z"/><path class="cls-104" d="M523.21,85.67a23.42,23.42,0,0,0,7.22-1.81,16.27,16.27,0,0,0,7.24-6A20,20,0,0,0,540.16,73a10.19,10.19,0,0,0,2.59,2.39c-2.07,4.47-4.39,7.35-7.73,9.57a26.48,26.48,0,0,1-9.3,3.66,8.6,8.6,0,0,0-1.61.41Zm2.07-15.16a35,35,0,0,1,6.3,4.71l-2.1,2.66a26.05,26.05,0,0,0-6.22-4.95Z"/><path class="cls-104" d="M565.49,73.44a4.71,4.71,0,0,0-.61,1.47c-1.44,4.34-2.61,6.51-4.91,9.22a24.51,24.51,0,0,1-8.68,6.17,8.26,8.26,0,0,0-2.08-2.56,19.64,19.64,0,0,0,12.47-13.15l-7.34.1A24.51,24.51,0,0,1,548.63,81a6.55,6.55,0,0,0-2.37-2.1,19.23,19.23,0,0,0,6.32-7.08,9.25,9.25,0,0,0,1.24-3.24l3.35.68a3,3,0,0,0-.42.73c-.19.44-.41.93-.66,1.42-.12.22-.12.24-.17.34l-.19.37a11.69,11.69,0,0,1,1.17,0l5.34-.08c.66,0,1.07,0,1.27,0a14.86,14.86,0,0,0-1.78-3l1.8-.61a15.12,15.12,0,0,1,2.18,3.85l-1.05.39Zm1.58-1.75A17.15,17.15,0,0,0,565,67.9l1.76-.61A14.5,14.5,0,0,1,568.88,71Z"/></g></g></svg>