<svg xmlns="http://www.w3.org/2000/svg" width="104.23" height="104.23" viewBox="0 0 104.23 104.23"><defs><style>.cls-1{fill:#a42224;}.cls-2{fill:none;}.cls-3{fill:#fff;}</style></defs><title>op_staff</title><g id="レイヤー_2" data-name="レイヤー 2"><g id="デザイン"><path class="cls-1" d="M104.23,52.11A52.12,52.12,0,1,1,52.11,0a52.11,52.11,0,0,1,52.12,52.11"/><path class="cls-2" d="M104.23,52.11A52.12,52.12,0,1,1,52.11,0a52.11,52.11,0,0,1,52.12,52.11"/><path class="cls-3" d="M27.77,51.14a43.4,43.4,0,0,0-6.54-7A25.6,25.6,0,0,1,13.12,51a9.67,9.67,0,0,0-1.72-2.62,17.07,17.07,0,0,0,4.25-2.6,22.5,22.5,0,0,0,7.16-9.63l.23-.61c-.34,0-.34,0-7,.14a14.55,14.55,0,0,0-2.32.19l-.08-3a8.27,8.27,0,0,0,1.87.14H16l7.5-.12a4,4,0,0,0,1.89-.26l1.4,1.61a5.19,5.19,0,0,0-.68,1.28A32.42,32.42,0,0,1,22.76,42,33.06,33.06,0,0,1,26.7,45.4c.53.52.53.52,3.11,3.28Z"/><path class="cls-3" d="M49.92,35a4.49,4.49,0,0,0-.66,1.58,41.84,41.84,0,0,1-2.72,6.5,21.5,21.5,0,0,1-9.71,9,7.53,7.53,0,0,0-1.76-2.44,21,21,0,0,0,4.15-2.36A16.15,16.15,0,0,0,42.71,44a24.1,24.1,0,0,0-4.37-3.38L40,38.51a28.71,28.71,0,0,1,4.28,3.17,23.79,23.79,0,0,0,2.38-5.58L40,36.17a23.84,23.84,0,0,1-5,6.36,7,7,0,0,0-2.13-1.89,19.77,19.77,0,0,0,5.35-6.74,15.46,15.46,0,0,0,1.23-3.29l2.77.69a11.89,11.89,0,0,0-.64,1.32,10.09,10.09,0,0,1-.51,1.14c.34,0,.34,0,5.53-.09a5.3,5.3,0,0,0,1.88-.29Z"/><path class="cls-3" d="M58.18,36.76a28.86,28.86,0,0,1,2.09,5.61l-2.41.85a25.49,25.49,0,0,0-1.93-5.72Zm12.22.17a5.25,5.25,0,0,0-.3,1.21A21.39,21.39,0,0,1,67.16,46a16.7,16.7,0,0,1-6.49,5.7A8.55,8.55,0,0,0,59,49.37a13.48,13.48,0,0,0,3.62-2.18c2.49-2,3.91-4.42,4.83-8.2a11.4,11.4,0,0,0,.38-2.72Zm-7.68-1.14a25.3,25.3,0,0,1,2.06,5.44l-2.36.83a28.43,28.43,0,0,0-1.94-5.56Z"/><path class="cls-3" d="M92.66,34.42a4,4,0,0,0-.36,1.07C91.24,40,90,42.84,87.94,45.4a21,21,0,0,1-7.92,6,8.79,8.79,0,0,0-1.87-2.82A16.58,16.58,0,0,0,89.26,35.89H79.13a15.2,15.2,0,0,0-2.69.14V33a13.8,13.8,0,0,0,2.73.16h9.77a7,7,0,0,0,2.28-.24Z"/><path class="cls-3" d="M34.38,60.41a11.14,11.14,0,0,0-.14-2.23H37a19,19,0,0,0-.12,2.23v1.32h1.68a12.45,12.45,0,0,0,2.27-.14v2.53A16.78,16.78,0,0,0,39,64.05a24.23,24.23,0,0,1-1.61,7.16c1.49,1.9,1.68,2.16,3.36,4.52l-1.87,2.08a34.42,34.42,0,0,0-2.72-4.09,22.83,22.83,0,0,1-4.71,5.84,8.51,8.51,0,0,0-1.79-2.2,16.42,16.42,0,0,0,4.84-5.79,41.3,41.3,0,0,0-4-4.35l1.73-1.75c.47.47.47.47,1.87,1.91.19.19.59.64,1.49,1.68a23.24,23.24,0,0,0,.92-5H32.09a14.41,14.41,0,0,0-2.2.12V61.59a17.83,17.83,0,0,0,2.34.14h2.15Zm7.88,6.38a30,30,0,0,1,3.33,5.46l-2.15,1.42A21,21,0,0,0,40.13,68Zm1.32-1.47a15.41,15.41,0,0,0-2.25.12v-2.6a13.75,13.75,0,0,0,2.25.12h3V61.09a15.8,15.8,0,0,0-.16-2.81h2.84a20.32,20.32,0,0,0-.14,2.81V63h.28a14.11,14.11,0,0,0,2.22-.14v2.65l-.54-.07a12.89,12.89,0,0,0-1.66-.08h-.3V76.75c0,1.23-.08,1.63-.43,2.06s-1.3.8-2.86.8c-1,0-1.85,0-2.79-.09a7.72,7.72,0,0,0-.74-2.63,24,24,0,0,0,2.86.28c1.28,0,1.42-.07,1.42-.56V65.32Z"/><path class="cls-3" d="M57.63,62.7c0,10.29-.45,13.29-2.44,17a9,9,0,0,0-2.13-2,11.51,11.51,0,0,0,1.54-4.12,66.24,66.24,0,0,0,.5-10c0-1.71,0-2.51-.1-3.31a20.1,20.1,0,0,0,2.46.11h6v-1A6.32,6.32,0,0,0,63.38,58h2.86a5,5,0,0,0-.12,1.37v1h6.12A19.35,19.35,0,0,0,75,60.19v2.63a21.65,21.65,0,0,0-2.76-.12H64.44a29.66,29.66,0,0,1,5.91,3.93l-1.82,2a22.4,22.4,0,0,0-6-4.33l1.83-1.61Zm-.19,13.88a14.46,14.46,0,0,0,1.28-3.88,30.07,30.07,0,0,0,.52-4.56l2.46.64a31.13,31.13,0,0,1-1.87,9.34Zm8.11-9.84A17.29,17.29,0,0,0,65.43,69v7.42c0,.64.19.74,1.61.74,1.87,0,1.89-.1,1.89-4.36a10.21,10.21,0,0,0,2.51.83c-.19,3.24-.4,4.43-.92,5.09s-1.49.92-3.5.92c-3.29,0-4.12-.35-4.12-1.77v-8.9a10.48,10.48,0,0,0-.14-2.2Zm7.33,11a28.27,28.27,0,0,0-2.72-8.56L72.41,68a42.13,42.13,0,0,1,3,8.47Z"/></g></g></svg>