<svg xmlns="http://www.w3.org/2000/svg" width="1200" height="49.08" viewBox="0 0 1200 49.08"><defs><style>.cls-1{fill:#717071;}.cls-2{fill:none;stroke:#000;stroke-width:1.23px;}.cls-3{fill:#479337;}.cls-4{fill:#00774b;}.cls-5{fill:#211814;}</style></defs><title>op_snoopy_jr</title><g id="レイヤー_2" data-name="レイヤー 2"><g id="デザイン"><path class="cls-1" d="M917.16,18.63a6.15,6.15,0,0,0-.06,1.21c-.06,2.88-.54,4.59-1.71,6.07a9.48,9.48,0,0,1-4.42,3,3.37,3.37,0,0,0-.79-1.16,8,8,0,0,0,3.15-1.59c1.83-1.46,2.51-3.22,2.51-6.59a4.69,4.69,0,0,0-.07-.93ZM924,16.45a3.18,3.18,0,0,0-.41.69,10.29,10.29,0,0,1-5,4.92,3.46,3.46,0,0,0-.85-1,7.51,7.51,0,0,0,2.73-1.64,9.23,9.23,0,0,0,1.93-2.57h-9.8a19,19,0,0,0-2,.08V15.63a13.5,13.5,0,0,0,2.06.12h9.26c1.16,0,1.16,0,1.47-.12Z"/><path class="cls-1" d="M940.21,15.51a3.58,3.58,0,0,0-.76.72,30.15,30.15,0,0,1-4,3.47v7.35a11.3,11.3,0,0,0,.09,1.83H934a9.66,9.66,0,0,0,.1-1.8V20.53a26.9,26.9,0,0,1-6.66,3,4,4,0,0,0-.67-1.16,24.24,24.24,0,0,0,9-4.47,14.53,14.53,0,0,0,3.3-3.26Z"/><path class="cls-1" d="M952.26,20.84c-.21,4.47-1.66,6.57-5.56,8.09a2.93,2.93,0,0,0-.81-1.12c3.57-1.19,4.92-3,5.06-7h-4.68a15.27,15.27,0,0,0-2,.08V19.65a12.18,12.18,0,0,0,2,.1h10.09a12.17,12.17,0,0,0,2-.1v1.27a15.45,15.45,0,0,0-2-.08ZM946,15.37a9.18,9.18,0,0,0,2,.12h5.22a15.2,15.2,0,0,0,2-.09v1.24l-2-.05H948a11.78,11.78,0,0,0-2,.09Zm10.11-1.45a13.58,13.58,0,0,1,1.69,2.72l-.88.49a13,13,0,0,0-1.67-2.8Zm2.13-.66A14.78,14.78,0,0,1,960,16l-.88.48a13.64,13.64,0,0,0-1.68-2.78Z"/><path class="cls-1" d="M969,18.63a6.65,6.65,0,0,0-.07,1.21c0,2.88-.53,4.59-1.7,6.07a9.48,9.48,0,0,1-4.42,3,3.26,3.26,0,0,0-.8-1.16,8.1,8.1,0,0,0,3.16-1.59c1.83-1.46,2.5-3.22,2.5-6.59a4.81,4.81,0,0,0-.06-.93Zm6.82-2.18a3.18,3.18,0,0,0-.41.69,10.33,10.33,0,0,1-5,4.92,3.46,3.46,0,0,0-.85-1,7.51,7.51,0,0,0,2.73-1.64,9.23,9.23,0,0,0,1.93-2.57h-9.8a19,19,0,0,0-2,.08V15.63a13.5,13.5,0,0,0,2.06.12h9.26c1.16,0,1.16,0,1.47-.12Z"/><path class="cls-1" d="M987.34,21.8a1.42,1.42,0,1,1-1.42-1.41A1.43,1.43,0,0,1,987.34,21.8Z"/><path class="cls-1" d="M1003.77,14.21a12.78,12.78,0,0,0,3.07,3.37,19,19,0,0,0,4.47,2.69,3.48,3.48,0,0,0-.69,1.08,22,22,0,0,1-4.54-3,14.54,14.54,0,0,1-2.84-3.1,17,17,0,0,1-2.52,2.93,20.39,20.39,0,0,1-4.66,3.3,3.81,3.81,0,0,0-.73-1,18.9,18.9,0,0,0,4.54-3,13.33,13.33,0,0,0,2.75-3.28Zm5.15,13.72a11.45,11.45,0,0,0,2-.12V29.1a12.67,12.67,0,0,0-2-.12H997.54a12.69,12.69,0,0,0-2,.12V27.81a10.64,10.64,0,0,0,1.93.12h1.23v-4.4a13,13,0,0,0-.12-1.92H1000a11.16,11.16,0,0,0-.12,1.92v4.4H1003V20.49a10.88,10.88,0,0,0-.12-1.88h1.38a10.54,10.54,0,0,0-.12,1.87v2h3a10.73,10.73,0,0,0,1.76-.1v1.26a11.17,11.17,0,0,0-1.76-.11h-3v4.42Z"/><path class="cls-1" d="M1023.31,17.68a11.72,11.72,0,0,0,1.44-.07,7.7,7.7,0,0,0-.07,1.23V25a7.66,7.66,0,0,0,.07,1.21,13,13,0,0,0-1.49-.07h-5.66a12.66,12.66,0,0,0-1.48.07,9.07,9.07,0,0,0,.07-1.21V18.84a9.08,9.08,0,0,0-.07-1.23,11.87,11.87,0,0,0,1.43.07h2.31V15.57h-5.21a14.31,14.31,0,0,0-1.81.11V14.49a12.87,12.87,0,0,0,1.81.1h11.63a13.56,13.56,0,0,0,1.81-.1v1.19a13.84,13.84,0,0,0-1.81-.11h-5.38v2.11Zm4.46.4a12.88,12.88,0,0,0-.11,1.77v7.79a14.89,14.89,0,0,0,.11,2.07h-1.21v-1h-12.15v1h-1.21a15.33,15.33,0,0,0,.11-2.09V19.85a12.57,12.57,0,0,0-.11-1.77h1.3a9.65,9.65,0,0,0-.11,1.65v8h12.19v-8a10.29,10.29,0,0,0-.11-1.64Zm-10.58.53v2.62h2.67V18.61Zm0,3.54V25.2h2.67V22.15Zm3.71-.92h2.78V18.61h-2.78Zm0,4h2.78V22.15h-2.78Z"/><path class="cls-1" d="M1030.62,18.82c.62,0,2.42-.23,3.81-.45a20.49,20.49,0,0,0,.52-3.66v-.22l1.38.15a11.13,11.13,0,0,0-.33,1.66c-.08.5-.2,1.14-.36,2a8.72,8.72,0,0,1,1-.06,3.26,3.26,0,0,1,2.48.73,3.46,3.46,0,0,1,.85,2.78c0,2.64-.45,4.93-1.16,5.93a1.8,1.8,0,0,1-1.69.82,6.57,6.57,0,0,1-2.6-.68,4.3,4.3,0,0,0,0-.6,3.45,3.45,0,0,0,0-.69,6.43,6.43,0,0,0,2.57.79c.43,0,.76-.27,1-.83a13.21,13.21,0,0,0,.73-4.79c0-1.83-.52-2.42-2.12-2.42a10,10,0,0,0-1.25.09,32.33,32.33,0,0,1-2.6,7.31c-.23.42-.59,1.11-1.12,2.07l-1.18-.69a16.48,16.48,0,0,0,1.8-3.12,28.6,28.6,0,0,0,1.9-5.47c-1.49.22-2.32.36-2.47.4a9.71,9.71,0,0,0-1,.22ZM1042,17.23a15.62,15.62,0,0,1,3.6,6.11l-1.1.64a14.24,14.24,0,0,0-3.52-6.2Z"/><path class="cls-1" d="M1051.71,17.8a14.49,14.49,0,0,0-.39,1.9c-.42,2.5-.45,2.62-.5,3a3,3,0,0,1-.07.4h0a6.23,6.23,0,0,1,.54-.52,8.57,8.57,0,0,1,5-1.48c2.82,0,4.63,1.31,4.63,3.33a3.7,3.7,0,0,1-1.55,3,7.16,7.16,0,0,1-4.3,1.14,14.12,14.12,0,0,1-3-.31l-1.38-.35a2.33,2.33,0,0,0,0-.33,4.06,4.06,0,0,0-.12-1.06,12.34,12.34,0,0,0,4.39.86c2.85,0,4.66-1.14,4.66-2.9,0-1.42-1.24-2.24-3.34-2.24a8.39,8.39,0,0,0-4.84,1.5,3,3,0,0,0-.69.7l-1.34,0c0-.31.07-.47.14-1,.17-1.31.48-3.31.72-4.76a5.79,5.79,0,0,0,.12-.92Zm.76-3a20.73,20.73,0,0,0,5.85,1.91l-.48,1.21a28,28,0,0,1-3.37-1,19.47,19.47,0,0,1-2.64-1.09Z"/><path class="cls-1" d="M1065.58,21.51a.44.44,0,0,1,.17,0c.69-.93.69-.93,1.19-1.64a15.27,15.27,0,0,0-2.43-2.76l.6-.79.8.81a12.23,12.23,0,0,0,1.53-3.21l1.07.52a8.9,8.9,0,0,0-.55,1,21.73,21.73,0,0,1-1.43,2.38c.46.54.53.62,1,1.21a14.71,14.71,0,0,0,1.71-3.09l1,.57a9.08,9.08,0,0,0-.55.83,41.79,41.79,0,0,1-2.85,4.16,24.34,24.34,0,0,0,2.71-.21,10.3,10.3,0,0,0-.79-1.5l.72-.36a15.8,15.8,0,0,1,1.51,3.14l-.85.38c-.12-.4-.17-.55-.26-.81l-1.64.17V28a11.76,11.76,0,0,0,.11,1.71h-1.21a12.4,12.4,0,0,0,.1-1.71V22.37l-1.26.09a10.52,10.52,0,0,0-1.36.12l-.16-1.14a4.93,4.93,0,0,0,.81.07Zm.81,2a17.1,17.1,0,0,1-1,5.07l-.92-.43a13.68,13.68,0,0,0,1-4.81Zm3.33-.36a20.55,20.55,0,0,1,.69,3.15l-.9.33a15,15,0,0,0-.62-3.24Zm4.35-8.6a5.69,5.69,0,0,0-.31.57,15.38,15.38,0,0,1-1.31,2.07,9.08,9.08,0,0,1-1.75,1.64,2.63,2.63,0,0,0-.79-.77,7.35,7.35,0,0,0,2.31-2.3,5.43,5.43,0,0,0,.79-1.64Zm-4,13.55a10.1,10.1,0,0,0,1.2-4.25l1,.21a14.57,14.57,0,0,1-1.22,4.54Zm8.45-5.69c-.43-.8-.57-1-.86-1.51-2.14.3-2.66.37-5.66.63a4.86,4.86,0,0,0-1,.13l-.21-1.12a4.88,4.88,0,0,0,.52,0c.24,0,.29,0,.89,0a16.49,16.49,0,0,0,2.06-4.19l1.08.43c-.88,1.75-1.46,2.83-2,3.7,1.58-.13,2.39-.21,3.78-.38a18.07,18.07,0,0,0-1.25-1.63l.83-.46a30.26,30.26,0,0,1,2.74,3.85Zm-4.43,1.41a10.18,10.18,0,0,0-.09,1.33V27.9c0,.2,0,.27.12.32a2.33,2.33,0,0,0,1,.14c.9,0,1.33-.09,1.47-.29s.22-.69.27-2a2.22,2.22,0,0,0,1,.36c-.24,2.68-.38,2.83-2.8,2.83-1.6,0-2-.2-2-1.08v-3a8.78,8.78,0,0,0-.1-1.4Zm-.17-2.07a13.54,13.54,0,0,1,2.57,2.07l-.75.78a9.62,9.62,0,0,0-2.57-2.19Zm2.76-7.72a8.87,8.87,0,0,0,3.59,3.73,3.55,3.55,0,0,0-.68.92,11.92,11.92,0,0,1-3.48-3.52c-.21-.33-.26-.4-.4-.59Zm1.6,9.55a20.28,20.28,0,0,1,1.87,4.11l-1,.51a15.68,15.68,0,0,0-1.76-4.24Z"/><path class="cls-1" d="M1090.09,14.05a11.73,11.73,0,0,0,2.85,3.13,18,18,0,0,0,4.72,2.83,4.38,4.38,0,0,0-.69,1.09,24.54,24.54,0,0,1-4.86-3.18,14.26,14.26,0,0,1-2.66-2.9,16.29,16.29,0,0,1-3.62,3.78,19.79,19.79,0,0,1-3.66,2.24,3.07,3.07,0,0,0-.73-1,18,18,0,0,0,4.7-3,12.5,12.5,0,0,0,2.65-3Zm-6,15.43a14.11,14.11,0,0,0,.1-1.69V24a10.67,10.67,0,0,0-.09-1.59,9.52,9.52,0,0,0,1.35.07h8.09a9.43,9.43,0,0,0,1.35-.07,10.26,10.26,0,0,0-.09,1.59v3.81a11.67,11.67,0,0,0,.11,1.69h-1.25v-1h-8.33v1Zm1.24-2h8.33V23.51h-8.33Zm.12-8.16a9,9,0,0,0,1.36.07h5.35a10.57,10.57,0,0,0,1.45-.07v1.18a9.38,9.38,0,0,0-1.45-.07h-5.36a8.73,8.73,0,0,0-1.35.07Z"/><path class="cls-1" d="M1111.3,16.3a1.93,1.93,0,0,1-.07-.5,1.93,1.93,0,1,1,1.35,1.86.35.35,0,0,0,0,.11,15.44,15.44,0,0,1-3.52,6.86,16,16,0,0,1-6.29,4.09,3.53,3.53,0,0,0-.84-1.19,13.84,13.84,0,0,0,6.31-3.91,13.94,13.94,0,0,0,3-6.15h-8.78a12.4,12.4,0,0,0-1.93.11V16.2a13.11,13.11,0,0,0,2,.1h8.83Zm.66-.52a1.24,1.24,0,1,0,1.24-1.22A1.23,1.23,0,0,0,1112,15.78Z"/><path class="cls-1" d="M1119.4,27v1.22h-1.33a7.84,7.84,0,0,0,.07-1.29V17.51a7.94,7.94,0,0,0-.07-1.35,11.38,11.38,0,0,0,1.35.05h9.2a9.16,9.16,0,0,0,1.34-.05,9.78,9.78,0,0,0,0,1.35v9.33c0,.52,0,1,0,1.33h-1.31V27Zm9.25-9.6h-9.25v8.48h9.25Z"/><path class="cls-1" d="M1142.15,20.84c-.2,4.47-1.65,6.57-5.55,8.09a3.15,3.15,0,0,0-.81-1.12c3.57-1.19,4.91-3,5-7h-4.68a15.37,15.37,0,0,0-2,.08V19.65a12.25,12.25,0,0,0,2,.1h10.1a12.1,12.1,0,0,0,2-.1v1.27a15.37,15.37,0,0,0-2-.08Zm-6.23-5.47a9.29,9.29,0,0,0,2,.12h5.21a15.2,15.2,0,0,0,2-.09v1.24l-2-.05h-5.25a11.86,11.86,0,0,0-2,.09ZM1146,13.92a14,14,0,0,1,1.69,2.72l-.88.49a13,13,0,0,0-1.68-2.8Zm2.12-.66a14.26,14.26,0,0,1,1.69,2.73l-.88.48a13.58,13.58,0,0,0-1.67-2.78Z"/><path class="cls-1" d="M1162.71,27.34a7,7,0,0,0,1.56-.1V28.5a9.5,9.5,0,0,0-1.58-.09h-8.45a9.08,9.08,0,0,0-1.57.09V27.24a7,7,0,0,0,1.55.1h5.25c.4-1.84.79-4.38,1-5.93h-4.61a7.65,7.65,0,0,0-1.52.07V20.23a8.87,8.87,0,0,0,1.54.11h4.62a1.77,1.77,0,0,0,.81-.12l.57.5a3.13,3.13,0,0,0-.27,1.2c-.4,2.75-.54,3.61-.9,5.42Z"/><path class="cls-1" d="M1168.69,21a13,13,0,0,0,2.14.1h10a13.2,13.2,0,0,0,2.08-.09v1.4a20.09,20.09,0,0,0-2.1-.07h-10a19.24,19.24,0,0,0-2.14.07Z"/><path class="cls-1" d="M1199,28.52a32.19,32.19,0,0,0-5.53-5.34,18,18,0,0,1-3.29,3.09,21.29,21.29,0,0,1-3.38,2.07,4,4,0,0,0-.85-1.13,14.18,14.18,0,0,0,3.5-2,18.73,18.73,0,0,0,6.16-7.78,2.2,2.2,0,0,1,.09-.21.61.61,0,0,0,0-.12,2.49,2.49,0,0,1-.41,0l-5.77.08a12.81,12.81,0,0,0-1.77.14l0-1.4a8,8,0,0,0,1.36.09h.45l6.16-.07a3.12,3.12,0,0,0,1.11-.14l.72.75a3.16,3.16,0,0,0-.48.84,21,21,0,0,1-2.85,4.83,43.34,43.34,0,0,1,5.75,5.18Z"/><line class="cls-2" x1="257.19" y1="22.39" x2="897.14" y2="22.39"/><path class="cls-3" d="M181.71,27.86a24.64,24.64,0,0,0,5.77.43q8.64,0,8.65-4.66V0h32.09a7.66,7.66,0,0,1,6.93,3.56A14.65,14.65,0,0,1,237,11.42q0,11-8.78,11h-1.84l11.23,13.07H226.25L209.5,14.67h16.14a2.83,2.83,0,0,0,2.3-.74,4.11,4.11,0,0,0,.59-2.51,4.13,4.13,0,0,0-.59-2.52,2.83,2.83,0,0,0-2.3-.74H204.9V25.28q0,10.8-17.42,10.8t-17.43-10.8V14.67h8.78v9A4,4,0,0,0,181.71,27.86ZM201.16,39.7v9.2h-1.6V47.12L197,48.41V46.88l2.57-1.29V43.44H197V41.91h2.57V39.7Zm3,7.79h2.39V48.9h-3.19c-.7,0-1-.41-1-1.23v-8h1.59v2.21h2.58v1.53h-2.58v3.81A.22.22,0,0,0,204.17,47.49Zm5.64-7.24v1.53l-2-.55V39.7Zm0,2.64v1.53l-2-.55V42.34Zm0,2.63v1.91l-2,1.65v-1.9Zm7.67-.73v1.29H217V48.9h-6.2V46.08h-.67V44.79h.67V42.64a1.94,1.94,0,0,1-.61.31V41.23c.66-.12,1.06-.63,1.23-1.53H213c-.08.29-.14.49-.18.61h4.48v1.23H212a7.36,7.36,0,0,1-.8.8H217v2.45Zm-2.89,0h1v-1.1h-1Zm-1.41,0v-1.1h-.92v1.1Zm0,2.82V46.08h-.92v1.53Zm2.4-1.53h-1v1.53h1Zm3.31-4.73V39.88l2,1V42.4Zm9.51.19h-2.82v.37h2.33v5.27h-6.13V41.91h2.14v-.37h-2.64v-1.1h1.35l-.42-.86h1.71l.43.86h.92l.56-.86h1.71l-.55.86h1.41Zm-1.84,3.19V44.3h-3.5v.43Zm0,.92h-3.5v.43h3.5Zm-3.5-2.21h3.5V43h-3.5Zm-.85,4.17h6.07V48.9H221.9a1.38,1.38,0,0,1-1.54-1,2.15,2.15,0,0,1-1.78,1.22V47.37a1.67,1.67,0,0,0,1.23-.92V44.61h-1.23V43.38h2.7v3.31A.81.81,0,0,0,222.21,47.61Zm-36-7.67v6.2c0,1.89-1.31,2.82-3.93,2.82s-4-.93-4-2.82V44.85h1.78v1.29c0,.82.73,1.23,2.2,1.23s2.15-.41,2.15-1.23v-6.2Zm9.69,6.32V48.9h-1.77V46.57c0-.57-.07-.91-.19-1a2,2,0,0,0-1-.15h-3.74V48.9h-1.66v-9h5.33a3.47,3.47,0,0,1,2.31.59,3,3,0,0,1,.64,2.24,2.64,2.64,0,0,1-.67,1.84A1.92,1.92,0,0,1,195.88,46.26Zm-1.77-3.55c0-.82-.44-1.23-1.3-1.23h-3.67v2.39h3.67C193.67,43.87,194.11,43.48,194.11,42.71Z"/><path class="cls-4" d="M128.73,12.1c-.66.92-1.74,1.24-2.19,2.31-1.84,2.22-3.09,4.78-5,7-1,1.45-2.23,3-2.16,4.85a35.24,35.24,0,0,0-.22,5.61,2.81,2.81,0,0,1,.69,2.75,21.32,21.32,0,0,0-1,2.17c-.76.54-1.33,1.67-2.38,1.42a2.45,2.45,0,0,1-1.39-1.48,67,67,0,0,1,.26-6.8c0-.78.82-1.61,0-2.33-.11-.6.19-1.61-.67-1.86a18.86,18.86,0,0,1-2-1.62A34.83,34.83,0,0,1,109.45,16c-.44-1.77-2-4.26,0-5.83.51-.12,1-.68,1.56-.31,1,.3,1,1.34,1.39,2.06.84,2.1,1.51,4.29,2.24,6.41.66.75,1.1,1.83,2,2.23a3.54,3.54,0,0,0,1-.17c2.25-2.29,3.68-5.2,5.52-7.82,1.5-1.24,2.75-4.18,5.28-3.33a1.94,1.94,0,0,1,.86,1A9.65,9.65,0,0,0,128.73,12.1Z"/><path class="cls-4" d="M105.15,20.37c-1.33,1.45-2.92,2.37-4.07,3.88a23.52,23.52,0,0,1-5.21,2.11,6.62,6.62,0,0,0-2.93,1.35c-.1.63,0,1.2-.4,1.67a2.42,2.42,0,0,0,.35,1.14c-1.09,2.11.86,5.05-1.49,6.52a1,1,0,0,1-1-.15c-.56-.49-.62-1.2-.91-1.77a6.52,6.52,0,0,1,.32-3c0-1.76,0-3.5,0-5.26.07-1.19-.64-2.27-.36-3.5a30.87,30.87,0,0,0,.09-4.11c.06-.06.15-.09.12-.18a52.12,52.12,0,0,1,.47-6.24c.37-1.19,1.65-1.87,2.7-2.34,3,.05,5.94-.1,9-.17a24.34,24.34,0,0,1,3.75,1.61c.14.66.74,1.11,1,1.71a16.73,16.73,0,0,1-.06,3.88C105.91,18.37,105.63,19.42,105.15,20.37Zm-2.2-1.9a4.57,4.57,0,0,0,0-1.88c-.74-1.35-2.26-1.54-3.54-2-.63-.25-1.35,0-2-.11a8,8,0,0,0-3.92.72.66.66,0,0,0-.33.26c-.36.66,0,1.73-.32,2.42a8,8,0,0,1-.13,2.21A2.49,2.49,0,0,1,93,21.89c.53.75,1.64.22,2.39.32,1.07,0,2.09-.73,3.1-.46A19.65,19.65,0,0,0,101,20.4,16.15,16.15,0,0,0,103,18.47Z"/><path class="cls-4" d="M86.47,30.29a53.17,53.17,0,0,0-3,5.68c-.72.56-1.35,1.21-2.07,1.68l-2.75.88a9.85,9.85,0,0,1-7.21-2.05c-.8-.94-2.11-1.66-2.46-2.83a13.89,13.89,0,0,0-1.17-2.85,5.62,5.62,0,0,0-.43-2.75c.22-1.52-.39-3.25.3-4.59.16-.78.7-1.46.8-2.23a10.48,10.48,0,0,1,0-1.68c1.15-1.93,1.7-4.1,3.21-5.85a4.74,4.74,0,0,0,2-2.19,7,7,0,0,1,1.81-1c.89.1,1.82-.43,2.71-.07,2,.82,4.14,1.44,6.19,2.14.62,1.26,1.39,2.46,2,3.72.34,1.85,1.28,3.62,1.15,5.68C87.29,24.74,87.06,27.61,86.47,30.29Zm-3-8.44a3.57,3.57,0,0,1-.34-1.92c-1-1.49-1.17-3.41-2.54-4.65-1.55,0-2.92-.55-4.41-.45-.66.21-1.14.89-1.71,1.28a2.26,2.26,0,0,0-1.3,1.12c-1.23,1.09-1,2.92-1.76,4.31a14.42,14.42,0,0,1-.47,2.63,14.2,14.2,0,0,1,.75,4.25c.49,1.4,1.68,2.28,2.72,3.39,1,.48,2,1,3,1.39,1.14-.07,2.42.44,3.35-.39,1.49-.55,1.66-2.16,2.38-3.29C83.24,27,83.32,24.38,83.46,21.85Z"/><path class="cls-4" d="M65.58,25.56c.28,2.42-1.35,4.11-2.38,6.05-.6,1.25-1.39,2.46-1.91,3.8a23.89,23.89,0,0,1-4.38,3.13c-.54.39-1.23.38-1.77.71-1.52,0-3-.44-4.5-.49-.36-.36-.93-.27-1.34-.45-.89-.58-1.42-1.65-2.46-2a30.77,30.77,0,0,1-2.18-4.74,39.7,39.7,0,0,1-.54-6.9c1.3-2.76,2-5.81,3.64-8.42A7.2,7.2,0,0,0,49.69,14c.48-.48,1.23-.68,1.54-1.31.89-.29,1.58-1.09,2.45-1.47S55.21,11,56,10.77a22.35,22.35,0,0,1,3-.09c.5.68,1.61.18,2.21.43,1,.6,2.08,1,2.46,2.26A10.83,10.83,0,0,0,64.23,15a15.76,15.76,0,0,0,1.24,4.91c0,1.85.6,3.44.38,5.38A1.68,1.68,0,0,0,65.58,25.56Zm-3.66,2c-.05-1.61-.18-3.34-.08-5a34.78,34.78,0,0,1-1.15-5.38c-1.07-.76-1.69-2.1-2.64-2.89-1.7,0-3.37-.09-4.9.62-1,.08-1.38,1.42-2.37,1.62a15.66,15.66,0,0,0-1.51,1.93c-.15.81-.34,1.64-.55,2.42-1.16,2.41-.34,5-.51,7.7.41,1.07,1,2.06,1.5,3.14.88,1.32,2.37,1.51,3.62,2.21,1.41-.32,3.28.47,4.39-.65,1.54-.65,2-2.2,3.11-3.23C61.16,29.23,61.64,28.46,61.92,27.56Z"/><path class="cls-4" d="M41.65,39.24c-.9-.25-2.16.51-2.56-.65-.74-.93-.85-2.22-1.38-3.3-1.19-1.2-2.7-1.81-4-2.8a28.74,28.74,0,0,1-3.29-3.79c-1.44-2.25-2.2-5-4.09-6.93a2.13,2.13,0,0,0-.72-.12c-.3.74,0,1.52-.28,2.26-.17,1.82-.09,3.77-.4,5.52,0,1.17-.11,2.51-.12,3.65.29,1.22,1.38,2.18,1.11,3.53-.16.47-.61.8-.7,1.31a4.81,4.81,0,0,1-2.33.31,13.32,13.32,0,0,0-.7-2.19c0-5.11.44-10.53.62-15.66-.13-2.07.46-4.63-.69-6.43-.51-1,.4-1.67.55-2.53.48-.27,1.08-.74,1.61-.29,1,.54,1.28,1.62,2,2.43C28.92,17.49,31,21.72,34,25.47c.59,1.47,2.08,1.87,3.23,2.6a1.09,1.09,0,0,0,.45,0,14.35,14.35,0,0,0,.62-2.95,29.27,29.27,0,0,0,.25-4.48c0-2,.06-4.15.16-6.12a13.17,13.17,0,0,1,.07-1.43,9.81,9.81,0,0,1,1.54-2.59,1,1,0,0,1,.78.64c1,5.11.22,10.27.06,15.22a33.3,33.3,0,0,0,.66,7.38c.29,1,1.34,1.57,1,2.79A2.63,2.63,0,0,1,41.65,39.24Z"/><path class="cls-4" d="M18.5,32.52c-.88,2.38-3.1,3.71-4.79,5.46-.54.38-1.22.47-1.77.88-1.79,0-3.67.72-5.43.08C4.4,38,1.93,37.17.81,34.86c-1.25-.75-.58-2.3-.81-3.49.4-.84.67-1.94,1.78-2s1.48,1.29,2.07,2c.7,1.8,2.52,2.59,4.07,3.41,1.91-.14,4.14.48,5.56-1,.69-.92,1.83-1.54,2.17-2.7a10.78,10.78,0,0,1,.61-1.73c-.15-.81.25-1.76-.28-2.51.16-.9-.83-1.11-1.4-1.36a10.61,10.61,0,0,0-3.93-1.22c-1-.45-2.09.13-3-.47-1.22-.49-2.56-.79-3.78-1.28-.42.06-.72-.25-1-.43a2.86,2.86,0,0,1-.55-2.24,37.77,37.77,0,0,1,3.84-7.2C7.37,12.43,8.19,11,9.53,11a10.19,10.19,0,0,1,5-.68c.15-.15.36-.06.54-.06a21.42,21.42,0,0,1,3.83,2.21c.3.51.5,1,.77,1.56-.16.56-.61,1-.7,1.57-.57.27-1.11.6-1.68.83a20.27,20.27,0,0,0-3.66-1.91c-2-.25-3.41.75-5.11,1.19C8,16.5,6.92,17,6.7,18c.08,1,1.21,1.17,1.93,1.54,2.2.88,4.83.51,7,1.48.8.64,1.91.64,2.74,1.25a9.42,9.42,0,0,1,1.8,3.21,10.15,10.15,0,0,0,0,1.91C20.17,29.34,19,30.82,18.5,32.52Z"/><path class="cls-5" d="M140,35.68l-3.45-3.46,8.08-8.08-8.13-8.08,3.46-3.46L148,20.68l8.08-8.08,3.46,3.46-8.09,8.08,8.09,8.08-3.46,3.46L148,27.6Z"/></g></g></svg>