<svg xmlns="http://www.w3.org/2000/svg" width="103.83" height="103.83" viewBox="0 0 103.83 103.83"><defs><style>.cls-1{fill:#a42224;}.cls-2{fill:none;}.cls-3{fill:#fff;}</style></defs><title>op_syukkou</title><g id="レイヤー_2" data-name="レイヤー 2"><g id="デザイン"><path class="cls-1" d="M103.83,51.92A51.92,51.92,0,1,1,51.91,0a51.91,51.91,0,0,1,51.92,51.92"/><path class="cls-2" d="M103.83,51.92A51.92,51.92,0,1,1,51.91,0a51.91,51.91,0,0,1,51.92,51.92"/><path class="cls-3" d="M39.05,28.53a13.51,13.51,0,0,0-.14-2.33h3a14.38,14.38,0,0,0-.14,2.33v5.16h5V29.85a12.54,12.54,0,0,0-.1-1.86h2.83A14,14,0,0,0,49.37,30v4.69a14.5,14.5,0,0,0,.07,1.5c-.51,0-1.08-.07-1.64-.07H41.72v7.73h5.82V40a12.93,12.93,0,0,0-.12-2h2.85a18.76,18.76,0,0,0-.12,2.23V45.3a15.51,15.51,0,0,0,.14,2.36H47.54V46.43h-14v1.23H30.76a16.27,16.27,0,0,0,.14-2.36v-5a19.89,19.89,0,0,0-.11-2.26h2.85a11,11,0,0,0-.12,2v3.82h5.53V36.16H33.4c-.64,0-1.13,0-1.7.07a14.78,14.78,0,0,0,.07-1.5V30.06A13.72,13.72,0,0,0,31.66,28h2.82a14,14,0,0,0-.09,1.88v3.82h4.66Z"/><path class="cls-3" d="M61,29.28a16.14,16.14,0,0,0,1.34-3.44l2.92.33c-.12.24-.33.71-.54,1.23a20.41,20.41,0,0,1-.83,1.88h7.68a21.35,21.35,0,0,0,2.29-.09,18.87,18.87,0,0,0-.12,2.31V44.83c0,1.13-.28,1.77-1,2.12a6.31,6.31,0,0,1-2.6.36c-.54,0-1,0-2.54-.12a7.83,7.83,0,0,0-.61-2.55,29.36,29.36,0,0,0,3,.22c.92,0,1.06-.1,1.06-.66V31.64H57V44.81a14.42,14.42,0,0,0,.17,2.61H54.3a14.65,14.65,0,0,0,.14-2.61V31.52c0-.85,0-1.46-.09-2.33a19.94,19.94,0,0,0,2.23.09Zm7.68,11a10.8,10.8,0,0,0,.11,1.89c-.54,0-1.36,0-2,0H61.79v1.65H59.2a14.88,14.88,0,0,0,.14-2V35.53a9.42,9.42,0,0,0-.12-1.72,11.83,11.83,0,0,0,1.67.09h6.22a12.41,12.41,0,0,0,1.72-.09,11.17,11.17,0,0,0-.11,1.79Zm-6.93-.47h4.45v-3.7H61.79Z"/><path class="cls-3" d="M34.25,55.87a11,11,0,0,0-.14-2.21h2.73a18.78,18.78,0,0,0-.12,2.21v1.32h1.67a12.51,12.51,0,0,0,2.27-.14v2.52c-.57,0-.87-.07-1.84-.07a24.48,24.48,0,0,1-1.6,7.14c1.48,1.88,1.67,2.14,3.34,4.5L38.7,73.21A34.13,34.13,0,0,0,36,69.14,23.22,23.22,0,0,1,31.3,75a8.1,8.1,0,0,0-1.79-2.19A16.36,16.36,0,0,0,34.34,67a43.14,43.14,0,0,0-4-4.33l1.72-1.74c.47.47.47.47,1.86,1.9.19.19.59.64,1.48,1.68a23,23,0,0,0,.92-5H32a15.76,15.76,0,0,0-2.19.12V57.05a16.2,16.2,0,0,0,2.33.14h2.15Zm7.84,6.36a30,30,0,0,1,3.33,5.45l-2.15,1.41a20.87,20.87,0,0,0-3.3-5.7Zm1.32-1.46a15,15,0,0,0-2.23.12V58.3a14.69,14.69,0,0,0,2.23.12h3V56.56a15.56,15.56,0,0,0-.17-2.81h2.83a20.32,20.32,0,0,0-.14,2.81v1.86h.28a14,14,0,0,0,2.21-.14v2.64l-.54-.07a12.6,12.6,0,0,0-1.65-.08h-.3V72.15c0,1.23-.07,1.63-.43,2s-1.29.8-2.85.8c-1,0-1.84,0-2.78-.09a7.73,7.73,0,0,0-.73-2.62,22.17,22.17,0,0,0,2.85.29c1.27,0,1.42-.07,1.42-.57V60.77Z"/><path class="cls-3" d="M57.41,58.16C57.38,68.41,57,71.4,55,75.07a9,9,0,0,0-2.12-2A11.39,11.39,0,0,0,54.39,69a66,66,0,0,0,.5-10c0-1.69,0-2.49-.1-3.29a19.93,19.93,0,0,0,2.45.11h6v-1a5.8,5.8,0,0,0-.12-1.35H66a5.61,5.61,0,0,0-.11,1.37v1H72a19.38,19.38,0,0,0,2.78-.14v2.62A21.74,21.74,0,0,0,72,58.16h-7.8a29.89,29.89,0,0,1,5.89,3.91l-1.81,2a23,23,0,0,0-6-4.31l1.81-1.6ZM57.22,72a14,14,0,0,0,1.27-3.87A29.92,29.92,0,0,0,59,63.58l2.45.63a30.94,30.94,0,0,1-1.86,9.31Zm8.08-9.8a16.94,16.94,0,0,0-.12,2.21v7.4c0,.64.19.73,1.61.73,1.86,0,1.88-.09,1.88-4.33a10.38,10.38,0,0,0,2.5.82c-.19,3.23-.4,4.41-.92,5.07s-1.49.91-3.49.91c-3.27,0-4.1-.35-4.1-1.76V64.38a10.32,10.32,0,0,0-.14-2.19ZM72.6,73.1a28,28,0,0,0-2.71-8.53l2.24-1.11a42,42,0,0,1,3,8.43Z"/></g></g></svg>