<svg xmlns="http://www.w3.org/2000/svg" width="160" height="40" viewBox="0 0 160 40"><defs><style>.cls-1{fill:#80bbe4;}.cls-2,.cls-4{fill:none;}.cls-2{stroke:#fff;stroke-miterlimit:10;}.cls-3{isolation:isolate;}.cls-5{fill:#fff;}</style></defs><title>bt_tel</title><g id="レイヤー_2" data-name="レイヤー 2"><g id="デザイン"><rect class="cls-1" width="160" height="40"/><line class="cls-2" x1="38.43" y1="20" x2="156" y2="20"/><g class="cls-3"><circle class="cls-4" cx="20" cy="20" r="16"/></g><path class="cls-5" d="M20,5.76h-.73l-.72.06-.71.09-.7.13-.69.15-.68.2-.66.22-.64.26-.63.28-.62.32-.59.34-.58.37-.56.4L11,9l-.52.45-.49.48-.48.49L9,11l-.42.54-.4.56-.37.58-.34.59-.32.62-.28.63-.26.64-.22.66-.2.68-.15.69-.13.7-.09.71-.06.72v1.46l.06.72.09.71.13.7.15.69.2.68.22.66.26.64.28.63.32.62.34.59.37.58.4.56.42.54.45.52.48.49.49.48L11,31l.54.42.56.4.58.37.59.34.62.32.63.28.64.26.66.22.68.2.69.15.7.13.71.09.72.06h1.46l.72-.06.71-.09.7-.13.69-.15.68-.2.66-.22.64-.26.63-.28.62-.32.59-.34.58-.37.56-.4.54-.42.52-.45.49-.48.48-.49.45-.52.42-.54.4-.56.37-.58.34-.59.32-.62.28-.63.26-.64.22-.66.2-.68.15-.69.13-.7.09-.71.06-.72V19.27l-.06-.72-.09-.71-.13-.7-.15-.69-.2-.68-.22-.66-.26-.64-.28-.63-.32-.62-.34-.59-.37-.58-.4-.56L31,11l-.45-.52-.48-.49-.49-.48L29.05,9l-.54-.42L28,8.19l-.58-.37-.59-.34-.62-.32-.63-.28-.64-.26-.66-.22-.68-.2-.69-.15-.7-.13-.71-.09-.72-.06ZM20,4A16,16,0,1,1,4,20,16,16,0,0,1,20,4Z"/><path class="cls-5" d="M25,29.62l1.31-.76a.48.48,0,0,0,.22-.33.69.69,0,0,0-.15-.48l-2.41-4.18c-.25-.42-.49-.53-.79-.35l-1.29.74ZM14.4,23.29l.12.2c1.59,2.74,3.19,4.56,4.82,5.46,2,1.11,3.6,1.47,4.91,1.08l0,0-3.13-5.34a1.11,1.11,0,0,1-1.13,0,3.69,3.69,0,0,1-1.09-1.1c-.4-.62-.85-1.33-1.35-2.18-.61-1.06-1-1.77-1.17-2.11A3.63,3.63,0,0,1,16,17.8a1.05,1.05,0,0,1,.57-1l-3.12-5.39A4.56,4.56,0,0,0,12.22,14a9.14,9.14,0,0,0-.17,3.29A17.75,17.75,0,0,0,14.4,23.29Zm2.82-6.82,1.28-.74c.33-.19.35-.56.07-1.05l-2.26-3.91c-.21-.36-.37-.55-.51-.56a.88.88,0,0,0-.49.17l-1.21.7Z"/><path class="cls-5" d="M40.75,34.28a3.57,3.57,0,0,1-.89-1.36,9.07,9.07,0,0,1-.53-3.11,8,8,0,0,1,.83-3.74A3.83,3.83,0,0,1,43.6,24.2a3.91,3.91,0,0,1,2.85,1.09,4,4,0,0,1,.89,1.36,9.16,9.16,0,0,1,.53,3.14,7.09,7.09,0,0,1-1,4,4.19,4.19,0,0,1-6.12.5Zm4.31-1A5.18,5.18,0,0,0,46,29.77a5.21,5.21,0,0,0-.94-3.45,2,2,0,0,0-1.48-.57,1.83,1.83,0,0,0-1.51.69,5.06,5.06,0,0,0-.89,3.28,6.07,6.07,0,0,0,.69,3.21,2.15,2.15,0,0,0,3.19.31Z"/><path class="cls-5" d="M51.09,32.56a2.29,2.29,0,0,0,.42.74,2.43,2.43,0,0,0,3.08,0,4.48,4.48,0,0,0,1-3.22,2.66,2.66,0,0,1-.71.77,3.68,3.68,0,0,1-2.19.63,3.37,3.37,0,0,1-3.67-3.56,3.56,3.56,0,0,1,1.71-3.17,4.42,4.42,0,0,1,2.36-.59,3.83,3.83,0,0,1,3.72,2.66,8.8,8.8,0,0,1,.39,2.79,6.83,6.83,0,0,1-1.43,4.69,3.78,3.78,0,0,1-2.88,1,3.93,3.93,0,0,1-2.61-.78,3.81,3.81,0,0,1-1.1-1.5Zm4.24-4.74a2.24,2.24,0,0,0-4.47,0A2,2,0,0,0,53,30,2.22,2.22,0,0,0,55.33,27.82Z"/><path class="cls-5" d="M60,34.28a3.82,3.82,0,0,1-.89-1.36,9.06,9.06,0,0,1-.52-3.11,8,8,0,0,1,.82-3.74,3.84,3.84,0,0,1,3.44-1.87,3.89,3.89,0,0,1,2.85,1.09,3.72,3.72,0,0,1,.89,1.36,8.92,8.92,0,0,1,.53,3.14,7,7,0,0,1-1,4,3.83,3.83,0,0,1-3.28,1.6A3.89,3.89,0,0,1,60,34.28Zm4.31-1a5.18,5.18,0,0,0,1-3.47,5.21,5.21,0,0,0-1-3.45,1.92,1.92,0,0,0-1.47-.57,1.82,1.82,0,0,0-1.51.69,5,5,0,0,0-.89,3.28,6.08,6.08,0,0,0,.68,3.21,2,2,0,0,0,1.73.88A1.94,1.94,0,0,0,64.28,33.24Z"/><path class="cls-5" d="M68.09,30.17a9,9,0,0,0,1.27.08h2.09a9.09,9.09,0,0,0,1.28-.08V32a7.13,7.13,0,0,0-1.28-.08H69.36a7.14,7.14,0,0,0-1.27.08Z"/><path class="cls-5" d="M82,25.91a9.12,9.12,0,0,0-1.41,1.95,17.46,17.46,0,0,0-2.51,7.3H75.92a20.06,20.06,0,0,1,1.63-5.22A22.44,22.44,0,0,1,79.91,26H75.74A12.73,12.73,0,0,0,74,26.1V24.32a14.58,14.58,0,0,0,1.85.09h4.3A16.35,16.35,0,0,0,82,24.35Z"/><path class="cls-5" d="M85.27,35.16a13,13,0,0,0-1.74.07,7.17,7.17,0,0,1,.35-1.73,6.77,6.77,0,0,1,1.85-2.65A20,20,0,0,1,88,29.22c1.24-.85,1.62-1.3,1.62-2,0-.92-.71-1.49-1.86-1.49a1.91,1.91,0,0,0-1.72.8,2.6,2.6,0,0,0-.42,1.24l-1.93-.23a4,4,0,0,1,.93-2.16,4,4,0,0,1,3.1-1.2c2.36,0,3.82,1.13,3.82,3a2.75,2.75,0,0,1-1,2.16A16.74,16.74,0,0,1,88.27,31a12.77,12.77,0,0,0-1.61,1.35,3.54,3.54,0,0,0-.77,1.22h3.79a13.78,13.78,0,0,0,2-.11v1.78c-.64-.05-1.18-.08-2-.08Z"/><path class="cls-5" d="M94.12,28.79A2.59,2.59,0,0,1,93.45,27c0-1.73,1.46-2.83,3.77-2.83a3.78,3.78,0,0,1,3.42,1.48A2.62,2.62,0,0,1,101,27a2.5,2.5,0,0,1-1.94,2.52,2.71,2.71,0,0,1,2.4,2.74c0,2-1.51,3.12-4.28,3.12a4.65,4.65,0,0,1-3.42-1.08,2.78,2.78,0,0,1-.78-2,2.58,2.58,0,0,1,1.11-2.22,3,3,0,0,1,1.34-.54A2.59,2.59,0,0,1,94.12,28.79Zm5.44,3.35c0-1.12-.88-1.8-2.34-1.8s-2.35.69-2.35,1.81.87,1.76,2.32,1.76S99.56,33.27,99.56,32.14Zm-4.3-4.95c0,1,.76,1.61,2,1.61s1.93-.61,1.93-1.59-.76-1.57-2-1.57S95.26,26.25,95.26,27.19Z"/><path class="cls-5" d="M104.71,32.56a2.49,2.49,0,0,0,.42.74,2.07,2.07,0,0,0,1.56.55,2,2,0,0,0,1.52-.55,4.39,4.39,0,0,0,1.05-3.22,2.53,2.53,0,0,1-.71.77,3.68,3.68,0,0,1-2.19.63,3.37,3.37,0,0,1-3.67-3.56,3.58,3.58,0,0,1,1.71-3.17,4.43,4.43,0,0,1,2.37-.59,3.82,3.82,0,0,1,3.71,2.66,8.52,8.52,0,0,1,.39,2.79,6.83,6.83,0,0,1-1.43,4.69,3.76,3.76,0,0,1-2.88,1,3.88,3.88,0,0,1-2.6-.78,3.72,3.72,0,0,1-1.11-1.5ZM109,27.82a2.24,2.24,0,0,0-4.47,0A2,2,0,0,0,106.63,30,2.21,2.21,0,0,0,109,27.82Z"/><path class="cls-5" d="M112.1,30.17a9,9,0,0,0,1.27.08h2.09a9.09,9.09,0,0,0,1.28-.08V32a7.13,7.13,0,0,0-1.28-.08h-2.09a7.14,7.14,0,0,0-1.27.08Z"/><path class="cls-5" d="M126.49,32.76a11.09,11.09,0,0,0-1.35-.1h-.49v1a8.46,8.46,0,0,0,.11,1.54h-1.92A7.8,7.8,0,0,0,123,33.6v-.94h-3.74c-.79,0-1.23,0-1.69.06V31.06c.46-.5.61-.68,1.08-1.25l3.2-3.91a12.42,12.42,0,0,0,1.13-1.49h1.82a19.2,19.2,0,0,0-.1,2.28v4.43h.48a8.55,8.55,0,0,0,1.36-.09ZM123,28.34c0-.63,0-1.06.06-1.62-.27.39-.43.61-.91,1.2l-2.6,3.22H123Z"/><path class="cls-5" d="M129.28,35.16a13,13,0,0,0-1.74.07,7.17,7.17,0,0,1,.35-1.73,6.88,6.88,0,0,1,1.85-2.65A20,20,0,0,1,132,29.22c1.24-.85,1.62-1.3,1.62-2,0-.92-.71-1.49-1.86-1.49a1.91,1.91,0,0,0-1.72.8,2.6,2.6,0,0,0-.42,1.24l-1.93-.23a4.12,4.12,0,0,1,.93-2.16,4,4,0,0,1,3.1-1.2c2.36,0,3.82,1.13,3.82,3a2.75,2.75,0,0,1-1,2.16A16.74,16.74,0,0,1,132.28,31a12.77,12.77,0,0,0-1.61,1.35,3.37,3.37,0,0,0-.76,1.22h3.78a13.78,13.78,0,0,0,2-.11v1.78c-.64-.05-1.18-.08-2-.08Z"/><path class="cls-5" d="M138.13,28.79a2.59,2.59,0,0,1-.67-1.78c0-1.73,1.46-2.83,3.77-2.83a3.78,3.78,0,0,1,3.42,1.48A2.62,2.62,0,0,1,145,27a2.5,2.5,0,0,1-1.94,2.52,2.71,2.71,0,0,1,2.4,2.74c0,2-1.51,3.12-4.28,3.12a4.61,4.61,0,0,1-3.41-1.08,2.78,2.78,0,0,1-.79-2,2.58,2.58,0,0,1,1.11-2.22,3,3,0,0,1,1.34-.54A2.59,2.59,0,0,1,138.13,28.79Zm5.44,3.35c0-1.12-.88-1.8-2.34-1.8s-2.35.69-2.35,1.81.87,1.76,2.33,1.76S143.57,33.27,143.57,32.14Zm-4.3-4.95c0,1,.76,1.61,2,1.61s1.93-.61,1.93-1.59-.76-1.57-2-1.57S139.27,26.25,139.27,27.19Z"/><path class="cls-5" d="M150.05,35.16a11.2,11.2,0,0,0,.11-1.75V26h-.65a10.8,10.8,0,0,0-1.39.08V24.33a7.27,7.27,0,0,0,1.35.08h1.24a10.73,10.73,0,0,0,1.38-.06,20.37,20.37,0,0,0-.11,2.22v6.84a11.37,11.37,0,0,0,.11,1.75Z"/><path class="cls-5" d="M43.26,13.24a2.53,2.53,0,0,1-.07.72.75.75,0,0,1-.78.5,2.64,2.64,0,0,1-1.61-.61,1.26,1.26,0,0,1-.47-1,1.83,1.83,0,0,1,.74-1.26,4.61,4.61,0,0,1,1.24-.72V9.6l-.35,0H40.63V8.67a5.43,5.43,0,0,0,1,.07h.64V8.17a6.11,6.11,0,0,0,0-1H43.3a5.5,5.5,0,0,0,0,.93v.54a10.36,10.36,0,0,0,1.64-.32l0,.95-.9.15c-.28.05-.45.08-.77.11v1.11A5.88,5.88,0,0,1,45,10.42a2.19,2.19,0,0,1,2.43,2.07,1.88,1.88,0,0,1-1.93,1.94,1.37,1.37,0,0,1-1.39-.94A2.87,2.87,0,0,1,44,12.4a3.56,3.56,0,0,0,.94-.38,2.62,2.62,0,0,0,0,.38,1.7,1.7,0,0,0,.12.75.59.59,0,0,0,.54.29.88.88,0,0,0,.86-.95c0-.73-.6-1.2-1.51-1.2a5.32,5.32,0,0,0-1.63.28Zm-1-1.37c-.64.34-1,.72-1,1,0,.15.08.27.28.39a1,1,0,0,0,.54.19c.14,0,.19-.08.19-.36ZM47,10.15a7.38,7.38,0,0,0-1.7-1.83l.8-.54a7.27,7.27,0,0,1,1.68,1.75Z"/><path class="cls-5" d="M49.85,13.78a6.57,6.57,0,0,0,0,1.05h-1A6.81,6.81,0,0,0,49,13.78V8.21c0-.45,0-.69,0-1,.26,0,.46,0,.87,0h1.5c.44,0,.64,0,.87,0,0,.27,0,.47,0,.8v1.4a6.66,6.66,0,0,0,0,.76l-.78,0H49.85Zm0-5.36H51.3V8H49.85Zm0,1.11H51.3V9.08H49.85Zm4.3,3.36a4.8,4.8,0,0,0,0,.58,5.21,5.21,0,0,0-.6,0h-1.9V14h-.9a6.5,6.5,0,0,0,0-.82V11.37a5.25,5.25,0,0,0,0-.59l.63,0h2.1l.65,0a5,5,0,0,0,0,.58Zm-2.48-.22h1.62V11.56H51.67Zm4.39,1.11c0,.47-.08.69-.3.83a1.77,1.77,0,0,1-.89.13l-.79,0a2.81,2.81,0,0,0-.24-.9c.36,0,.77.08,1,.08s.28,0,.28-.22V10.19H53.53l-.78,0c0-.23,0-.4,0-.76V8.05c0-.33,0-.56,0-.8.26,0,.45,0,.87,0h1.62c.4,0,.61,0,.87,0a8.31,8.31,0,0,0,0,.95ZM53.61,8.42h1.56V8H53.61Zm0,1.11h1.56V9.08H53.61Z"/><path class="cls-5" d="M58.8,9.84a8,8,0,0,1-1.36.71A3.11,3.11,0,0,0,57,9.69a8.75,8.75,0,0,0,2.17-1.23A5.69,5.69,0,0,0,60.45,7h1a5.55,5.55,0,0,0,1.43,1.44,8.32,8.32,0,0,0,2.17,1.17,4.27,4.27,0,0,0-.47.93,8.26,8.26,0,0,1-1.38-.75v.6a5.41,5.41,0,0,0-.77,0h-2.9a5.6,5.6,0,0,0-.74,0Zm-.68,5a7.46,7.46,0,0,0,.05-.9v-2a6.53,6.53,0,0,0-.05-.84,5,5,0,0,0,.74,0h4.25a4.82,4.82,0,0,0,.73,0,6.54,6.54,0,0,0,0,.84v2a5.55,5.55,0,0,0,.05.89h-1v-.43H59.13v.43Zm1-1.26h3.71V12H59.13Zm3.3-4h.29A7.92,7.92,0,0,1,61,7.85a6,6,0,0,1-1.66,1.66h3.12Z"/><path class="cls-5" d="M72.59,14.19l-.38,0c-.62.07-1.74.13-2.3.13-1.59,0-2.28-.3-2.54-1.12a8.42,8.42,0,0,1-.15-2.32c0-.13,0-.16,0-.82a10.56,10.56,0,0,0-1.57.15l-.07-1h.24l1.39-.07c0-.14,0-.22,0-.27a8.36,8.36,0,0,0-.06-1.44h1.14a10.21,10.21,0,0,0-.08,1.65L70.69,9a9.41,9.41,0,0,0,0-1.69H71.7a4.48,4.48,0,0,0,0,.59V9c1.36,0,1.36,0,1.64-.07l0,1a2.48,2.48,0,0,0-.48,0H71.66a5.61,5.61,0,0,1-.22,1.8,1,1,0,0,1-1,.64,2.86,2.86,0,0,1-1.22-.29c0-.17,0-.22,0-.34a5,5,0,0,0-.06-.7,2.57,2.57,0,0,0,1.12.42c.22,0,.31-.11.36-.44a7.92,7.92,0,0,0,.08-1.06L68.21,10V11c0,.44,0,1.36,0,1.53.07.72.43.9,1.82.9a6.88,6.88,0,0,0,2.45-.33Z"/><path class="cls-5" d="M74.42,8.34a6.68,6.68,0,0,0,0-.86c.19,0,.35,0,.75,0h1c.38,0,.54,0,.74,0a8.06,8.06,0,0,0,0,.84v4.86c0,.45,0,.64,0,.85H76v-.42h-.77v.71h-.89a8.5,8.5,0,0,0,0-1Zm.85,1.75H76V8.31h-.76Zm0,2.69H76V10.87h-.76Zm2.92-4c-.7,0-.7,0-.91,0V7.9a5.48,5.48,0,0,0,.89,0h.75V7.72a3.21,3.21,0,0,0-.06-.63h1a5.41,5.41,0,0,0,0,.63V8h.93a5.49,5.49,0,0,0,.88,0v.9a6.93,6.93,0,0,0-.88,0H79.8v.81H81a6.93,6.93,0,0,0,.93-.05v.9a4.86,4.86,0,0,0-.83,0h-.15v.72H81a5.7,5.7,0,0,0,.84,0V12a4.83,4.83,0,0,0-.84-.05h-.11v1.92c0,.5-.08.7-.34.82a2.45,2.45,0,0,1-.93.13H79a2.06,2.06,0,0,0-.2-.9,6.48,6.48,0,0,0,1,.07c.26,0,.32,0,.32-.23V11.93H78a8.76,8.76,0,0,0-.91.05v-.92a7.21,7.21,0,0,0,.93,0h2v-.72H78a8.38,8.38,0,0,0-.93,0v-.9a7.11,7.11,0,0,0,.94.05h.88V8.76Zm.33,5.14a6.68,6.68,0,0,0-1.08-1.39l.72-.48a6.49,6.49,0,0,1,1.11,1.3Z"/><path class="cls-5" d="M83.82,13.79a8.18,8.18,0,0,0,.05,1.05h-1a8.49,8.49,0,0,0,.05-1.06V8.23a8,8,0,0,0,0-1,6.63,6.63,0,0,0,.88,0h1.5a6.09,6.09,0,0,0,.87,0c0,.27,0,.46,0,.79v1.3a7.79,7.79,0,0,0,0,.78q-.33,0-.78,0H83.82Zm0-5.36h1.46V8H83.82Zm0,1h1.46V9H83.82Zm4.36,3.65c0,.32,0,.52,0,.74l.64,0c.24,0,.32-.06.32-.23V10.12H87.49c-.3,0-.57,0-.78,0,0-.25,0-.41,0-.78V8.07c0-.29,0-.52,0-.79a6.18,6.18,0,0,0,.87,0h1.63a6.37,6.37,0,0,0,.87,0c0,.31,0,.52,0,1v5.56c0,.51-.1.73-.41.86a2.52,2.52,0,0,1-1,.1l-.59,0a3.16,3.16,0,0,0-.22-.88H85.6v.48h-.9a6.58,6.58,0,0,0,0-.85V11.4c0-.3,0-.54,0-.77a5.91,5.91,0,0,0,.79,0h1.9a5.91,5.91,0,0,0,.79,0c0,.22,0,.43,0,.77ZM85.6,11.89h1.73v-.51H85.6Zm0,1.24h1.73v-.55H85.6Zm2-4.7h1.59V8H87.58Zm0,1h1.59V9H87.58Z"/><path class="cls-5" d="M95.61,8.5V9.74H94.37V8.5Zm0,3.64v1.24H94.37V12.14Z"/><path class="cls-5" d="M100.93,12.63a1.5,1.5,0,0,0,.26.47,1.55,1.55,0,0,0,1.94,0,2.77,2.77,0,0,0,.66-2,1.65,1.65,0,0,1-.45.49A2.31,2.31,0,0,1,102,12a2.12,2.12,0,0,1-2.31-2.24,2.23,2.23,0,0,1,1.08-2,2.73,2.73,0,0,1,1.48-.38A2.42,2.42,0,0,1,104.56,9a5.47,5.47,0,0,1,.25,1.76,4.26,4.26,0,0,1-.9,2.94,2.38,2.38,0,0,1-1.82.65,2.42,2.42,0,0,1-1.63-.49,2.32,2.32,0,0,1-.7-1Zm2.67-3a1.35,1.35,0,0,0-1.43-1.37,1.33,1.33,0,0,0-1.38,1.39A1.26,1.26,0,0,0,102.14,11,1.39,1.39,0,0,0,103.6,9.65Z"/><path class="cls-5" d="M107.06,9.39v1.24h-1.24V9.39Zm0,3.64v1.24h-1.24V13Z"/><path class="cls-5" d="M108.82,13.72a2.4,2.4,0,0,1-.56-.86,5.76,5.76,0,0,1-.33-2,5.05,5.05,0,0,1,.51-2.35,2.41,2.41,0,0,1,2.17-1.18,2.47,2.47,0,0,1,1.8.69,2.42,2.42,0,0,1,.56.85,5.79,5.79,0,0,1,.33,2,4.45,4.45,0,0,1-.63,2.51,2.65,2.65,0,0,1-3.85.32Zm2.71-.66a3.29,3.29,0,0,0,.59-2.18,3.32,3.32,0,0,0-.59-2.18,1.22,1.22,0,0,0-.93-.36,1.15,1.15,0,0,0-.95.44,3.19,3.19,0,0,0-.56,2.06,3.85,3.85,0,0,0,.43,2,1.26,1.26,0,0,0,1.09.55A1.23,1.23,0,0,0,111.53,13.06Z"/><path class="cls-5" d="M114.87,13.72a2.55,2.55,0,0,1-.56-.86,5.76,5.76,0,0,1-.33-2,4.93,4.93,0,0,1,.52-2.35,2.4,2.4,0,0,1,2.16-1.18A2.42,2.42,0,0,1,119,8.91a5.79,5.79,0,0,1,.33,2,4.45,4.45,0,0,1-.63,2.51,2.42,2.42,0,0,1-2.06,1A2.44,2.44,0,0,1,114.87,13.72Zm2.71-.66a3.28,3.28,0,0,0,.6-2.18,3.32,3.32,0,0,0-.6-2.18,1.21,1.21,0,0,0-.92-.36,1.16,1.16,0,0,0-1,.44,3.19,3.19,0,0,0-.56,2.06,3.75,3.75,0,0,0,.44,2,1.24,1.24,0,0,0,1.08.55A1.23,1.23,0,0,0,117.58,13.06Z"/><path class="cls-5" d="M120,11a3,3,0,0,1,.84-.75,2.47,2.47,0,0,1,2.49-.19,5.79,5.79,0,0,1,.77.47,2.94,2.94,0,0,0,1.51.59,1.77,1.77,0,0,0,.63-.16,2.34,2.34,0,0,0,.88-.77l.68.68a3.67,3.67,0,0,1-.81.82,2.33,2.33,0,0,1-1.47.49,2.67,2.67,0,0,1-.75-.12,4.42,4.42,0,0,1-1.16-.63,2.41,2.41,0,0,0-1.46-.58,1.88,1.88,0,0,0-1.48.78Z"/><path class="cls-5" d="M130.71,14.27a7.14,7.14,0,0,0,.07-1.11V8.48h-.41a8.46,8.46,0,0,0-.87,0V7.45a5,5,0,0,0,.85,0h.78a7.06,7.06,0,0,0,.87,0,13,13,0,0,0-.07,1.4v4.3a7.32,7.32,0,0,0,.07,1.11Z"/><path class="cls-5" d="M135.31,10.26a1.66,1.66,0,0,1-.41-1.13c0-1.08.91-1.77,2.37-1.77a2.39,2.39,0,0,1,2.15.93,1.67,1.67,0,0,1,.23.84,1.57,1.57,0,0,1-1.23,1.59,1.72,1.72,0,0,1,.92.4,1.63,1.63,0,0,1,.6,1.33c0,1.27-1,2-2.7,2a2.93,2.93,0,0,1-2.15-.68,1.76,1.76,0,0,1-.49-1.27,1.64,1.64,0,0,1,.69-1.4,2,2,0,0,1,.85-.34A1.66,1.66,0,0,1,135.31,10.26Zm3.43,2.1c0-.7-.56-1.13-1.47-1.13s-1.48.44-1.48,1.14.54,1.11,1.46,1.11S138.74,13.08,138.74,12.36ZM136,9.25c0,.62.48,1,1.25,1s1.22-.39,1.22-1-.48-1-1.23-1S136,8.66,136,9.25Z"/><path class="cls-5" d="M142.06,9.39v1.24h-1.24V9.39Zm0,3.64v1.24h-1.24V13Z"/><path class="cls-5" d="M143.82,13.72a2.55,2.55,0,0,1-.56-.86,5.76,5.76,0,0,1-.33-2,4.93,4.93,0,0,1,.52-2.35,2.4,2.4,0,0,1,2.16-1.18A2.42,2.42,0,0,1,148,8.91a5.79,5.79,0,0,1,.33,2,4.45,4.45,0,0,1-.63,2.51,2.42,2.42,0,0,1-2.06,1A2.44,2.44,0,0,1,143.82,13.72Zm2.71-.66a3.28,3.28,0,0,0,.6-2.18,3.32,3.32,0,0,0-.6-2.18,1.21,1.21,0,0,0-.92-.36,1.16,1.16,0,0,0-1,.44,3.19,3.19,0,0,0-.56,2.06,3.75,3.75,0,0,0,.44,2,1.24,1.24,0,0,0,1.08.55A1.23,1.23,0,0,0,146.53,13.06Z"/><path class="cls-5" d="M149.87,13.72a2.55,2.55,0,0,1-.56-.86,5.76,5.76,0,0,1-.33-2,4.93,4.93,0,0,1,.52-2.35,2.53,2.53,0,0,1,4.52.36,5.79,5.79,0,0,1,.33,2,4.45,4.45,0,0,1-.63,2.51,2.41,2.41,0,0,1-2.06,1A2.44,2.44,0,0,1,149.87,13.72Zm2.71-.66a3.23,3.23,0,0,0,.6-2.18,3.26,3.26,0,0,0-.6-2.18,1.21,1.21,0,0,0-.92-.36,1.13,1.13,0,0,0-.95.44,3.13,3.13,0,0,0-.57,2.06,3.84,3.84,0,0,0,.44,2,1.25,1.25,0,0,0,1.09.55A1.22,1.22,0,0,0,152.58,13.06Z"/></g></g></svg>