<svg xmlns="http://www.w3.org/2000/svg" width="100" height="55.21" viewBox="0 0 100 55.21"><defs><style>.cls-1{fill:#fff;}</style></defs><title>logo_white</title><g id="レイヤー_2" data-name="レイヤー 2"><g id="デザイン"><path class="cls-1" d="M5.5,47.9,8,41.36l2.56,6.54ZM17.34,54a4.15,4.15,0,0,1-.74-.12,2.83,2.83,0,0,1-.71-.28,2.72,2.72,0,0,1-.63-.56,2.9,2.9,0,0,1-.4-.75L9.25,37.73H8.3l-2.73,7c-1,2.63-1.95,5-2.79,7.12a4.62,4.62,0,0,1-.51,1,2.87,2.87,0,0,1-.74.67,2.32,2.32,0,0,1-.76.3A4,4,0,0,1,0,54v.84H6.33V54a5.78,5.78,0,0,1-1.69-.31c-.49-.17-.74-.42-.74-.74A3,3,0,0,1,4,52.38c0-.21.11-.49.21-.83s.24-.73.38-1.15.32-.89.54-1.45H11l1.4,3.79a1.76,1.76,0,0,1,.07.27c0,.1,0,.19,0,.26s-.2.32-.61.44a7,7,0,0,1-1.53.24v.84h7Z"/><path class="cls-1" d="M34.25,48.08l-.78.11a3.15,3.15,0,0,0-.79.22,1.05,1.05,0,0,0-.51.51,1.78,1.78,0,0,0-.15.76V51c0,.95,0,1.59,0,1.93s0,.6,0,.81a17.3,17.3,0,0,1-3.14,1.1,13.16,13.16,0,0,1-3.07.38,8.08,8.08,0,0,1-3.1-.61,7.62,7.62,0,0,1-2.6-1.72,8.25,8.25,0,0,1-1.79-2.73,9.47,9.47,0,0,1-.66-3.61A9.83,9.83,0,0,1,18.35,43a8.46,8.46,0,0,1,1.79-2.85,8,8,0,0,1,2.68-1.85,8.63,8.63,0,0,1,3.33-.65,8.25,8.25,0,0,1,2.47.33,8.41,8.41,0,0,1,1.86.82L31,38h.94L32,43.85H31a16.51,16.51,0,0,0-.62-1.92,6.75,6.75,0,0,0-.94-1.69,4.41,4.41,0,0,0-1.42-1.19,4.12,4.12,0,0,0-2-.44,4.6,4.6,0,0,0-4,2A7.35,7.35,0,0,0,21,43.12a12.85,12.85,0,0,0-.39,3.29,11.44,11.44,0,0,0,.38,3,7.77,7.77,0,0,0,1.12,2.45,5.28,5.28,0,0,0,1.83,1.66,5.06,5.06,0,0,0,2.5.61,5.49,5.49,0,0,0,1.9-.32,3.54,3.54,0,0,0,1.21-.68,8.66,8.66,0,0,0,.1-1.25c0-.42,0-.78,0-1.07v-.93A2.72,2.72,0,0,0,29.5,49a1,1,0,0,0-.56-.56,3.78,3.78,0,0,0-1.05-.27c-.45-.06-.8-.1-1.05-.11v-.84h7.41Z"/><path class="cls-1" d="M49.65,49.83l-.32,5H35.43V54c.23,0,.54-.05.94-.1a3.39,3.39,0,0,0,.76-.16,1.11,1.11,0,0,0,.53-.46,1.69,1.69,0,0,0,.14-.73V40.42a1.68,1.68,0,0,0-.13-.7,1,1,0,0,0-.54-.49,4.07,4.07,0,0,0-.85-.27,5.44,5.44,0,0,0-.85-.14V38h13V42h-.88a5.53,5.53,0,0,0-1-1.89A2.57,2.57,0,0,0,45,39.05c-.25,0-.54-.06-.88-.07s-.73,0-1.16,0H40.32V45.6h1.89a3.6,3.6,0,0,0,1.33-.18,1.75,1.75,0,0,0,.74-.57,3.1,3.1,0,0,0,.45-.93A5.88,5.88,0,0,0,45,42.84h.87v6.6H45a5.09,5.09,0,0,0-.26-1.2,2.93,2.93,0,0,0-.43-.92,1.63,1.63,0,0,0-.83-.6,4.14,4.14,0,0,0-1.24-.15H40.32v5a4.79,4.79,0,0,0,.11,1.2,1.08,1.08,0,0,0,.41.66,1.8,1.8,0,0,0,.83.29,14.49,14.49,0,0,0,1.51.06h1a10.53,10.53,0,0,0,1.07-.05,6.17,6.17,0,0,0,.92-.17,1.31,1.31,0,0,0,.68-.34A7.7,7.7,0,0,0,48,51.53a11.42,11.42,0,0,0,.76-1.7Z"/><path class="cls-1" d="M68.62,38.82a4.69,4.69,0,0,0-1,.19,3.58,3.58,0,0,0-1,.36A1.67,1.67,0,0,0,66,40.51a13.8,13.8,0,0,0-.14,2.14V55h-1L54.71,41.2v8.67a9.81,9.81,0,0,0,.19,2.24,2.06,2.06,0,0,0,.56,1.12,2.84,2.84,0,0,0,1.13.48,7.4,7.4,0,0,0,1.13.24v.84H50.8V54a6,6,0,0,0,1.08-.23,2.84,2.84,0,0,0,.95-.37,1.7,1.7,0,0,0,.57-1A11.32,11.32,0,0,0,53.56,50V41.72a3.47,3.47,0,0,0-.19-1.09,2.07,2.07,0,0,0-.51-.84,3.55,3.55,0,0,0-1.16-.67,3.82,3.82,0,0,0-1.18-.3V38h4.82l9.4,12.81v-8a10,10,0,0,0-.19-2.25,1.77,1.77,0,0,0-.54-1,4.09,4.09,0,0,0-1.09-.44,5.56,5.56,0,0,0-1.15-.23V38h6.85Z"/><path class="cls-1" d="M77.44,55.21a7.32,7.32,0,0,1-2.89-.59,7.6,7.6,0,0,1-2.44-1.71,8.35,8.35,0,0,1-1.68-2.72,9.85,9.85,0,0,1-.63-3.62,10.33,10.33,0,0,1,.62-3.66,8.62,8.62,0,0,1,1.7-2.83,7.42,7.42,0,0,1,2.55-1.81,7.69,7.69,0,0,1,3.13-.64,7.85,7.85,0,0,1,2.25.3,8.21,8.21,0,0,1,1.92.85l.49-.8h.94l.11,6h-1A15.08,15.08,0,0,0,82,42.06a7.43,7.43,0,0,0-.88-1.74,4.24,4.24,0,0,0-1.35-1.26A3.45,3.45,0,0,0,78,38.61a4.55,4.55,0,0,0-2.13.51,4.86,4.86,0,0,0-1.7,1.51,7.3,7.3,0,0,0-1.07,2.45,13,13,0,0,0-.39,3.31,10,10,0,0,0,.41,3,7.7,7.7,0,0,0,1.16,2.37A5.6,5.6,0,0,0,76,53.31a4.71,4.71,0,0,0,2.31.57,5,5,0,0,0,1.76-.3,4.73,4.73,0,0,0,1.39-.8,6.38,6.38,0,0,0,1.77-2.64l.87.43a6.61,6.61,0,0,1-6.69,4.64Z"/><path class="cls-1" d="M100,38.82a2.4,2.4,0,0,0-.64.16,2.08,2.08,0,0,0-.63.29,4.83,4.83,0,0,0-.63.43,9.76,9.76,0,0,0-.64.81c-.61.87-1.18,1.75-1.7,2.64s-1.18,2-2,3.41a6.64,6.64,0,0,0-.58,1.22,4.93,4.93,0,0,0-.14,1.33v3.22a1.58,1.58,0,0,0,.17.74,1.24,1.24,0,0,0,.59.5,8.06,8.06,0,0,0,.89.23,6.6,6.6,0,0,0,1,.15v.84H87.91V54l1-.09a3.57,3.57,0,0,0,.92-.17,1.07,1.07,0,0,0,.58-.49,1.54,1.54,0,0,0,.16-.75V48.36a2,2,0,0,0-.23-.7c-.15-.33-.34-.71-.55-1.12-.47-.91-1-1.91-1.57-3s-1.08-2-1.51-2.74a6.77,6.77,0,0,0-.69-1,3.31,3.31,0,0,0-.69-.6,2.48,2.48,0,0,0-.68-.28,4.37,4.37,0,0,0-.72-.11V38h7.17v.84a7.56,7.56,0,0,0-1.7.16c-.33.1-.5.23-.5.4a.73.73,0,0,0,.07.25l.2.45c.1.21.23.44.37.71l.4.76c.36.7.74,1.4,1.13,2.1l1.5,2.73q1.86-3,2.84-4.68a7.36,7.36,0,0,0,1-2,.54.54,0,0,0-.21-.44,1.54,1.54,0,0,0-.53-.26,4.2,4.2,0,0,0-.75-.12l-.74-.06V38H100Z"/><path class="cls-1" d="M39.37,31.25H25.8V29.71q.73,0,1.89-.15a4.59,4.59,0,0,0,1.58-.37,2.72,2.72,0,0,0,1-.93,2.57,2.57,0,0,0,.32-1.33V4.73h-.33l-10.38,26H18.78L8.88,4.19H8.61V22.42a18.45,18.45,0,0,0,.33,4,3.7,3.7,0,0,0,1,2,4.92,4.92,0,0,0,1.95.86,11.66,11.66,0,0,0,1.94.43v1.54H1.54V29.71a14.18,14.18,0,0,0,2-.32,4,4,0,0,0,1.63-.71,3.18,3.18,0,0,0,1-1.85,21.24,21.24,0,0,0,.28-4.18V7a6.24,6.24,0,0,0-.33-2.21,3.38,3.38,0,0,0-.93-1.4,4.21,4.21,0,0,0-1.64-.86,8.2,8.2,0,0,0-1.92-.32V.7H12.14L20.8,23.58,28.29,4.44a20.94,20.94,0,0,0,.7-2.2A10.16,10.16,0,0,0,29.3.7h10V2.24a10.92,10.92,0,0,0-1.52.19,10.79,10.79,0,0,0-1.36.32,1.6,1.6,0,0,0-1,.86,3.38,3.38,0,0,0-.26,1.32v22a2.87,2.87,0,0,0,.26,1.27,2.2,2.2,0,0,0,1,.9,5.38,5.38,0,0,0,1.37.4,11.06,11.06,0,0,0,1.58.2Z"/><path class="cls-1" d="M50.51,18.74,55.08,6.88,59.7,18.74ZM72,29.71a6.63,6.63,0,0,1-1.33-.22A5,5,0,0,1,69.35,29a5,5,0,0,1-1.14-1,4.79,4.79,0,0,1-.73-1.36L57.3.28H55.58Q53.41,5.87,50.63,13T45.55,26a7.75,7.75,0,0,1-.93,1.75,5.28,5.28,0,0,1-1.33,1.21,4.19,4.19,0,0,1-1.38.55,8.72,8.72,0,0,1-1.4.25v1.54H52V29.71A10.48,10.48,0,0,1,49,29.15c-.91-.32-1.36-.77-1.36-1.34a4.85,4.85,0,0,1,.11-1,14.21,14.21,0,0,1,.39-1.51c.2-.63.43-1.33.68-2.08s.58-1.63,1-2.64h10.7L63,27.5a2.44,2.44,0,0,1,.13.5,3.08,3.08,0,0,1,0,.48c0,.32-.37.58-1.1.8a13.45,13.45,0,0,1-2.79.43v1.54H72Z"/><path class="cls-1" d="M86.59,32a13,13,0,0,1-5.21-1.08A13.37,13.37,0,0,1,77,27.77a15,15,0,0,1-3-4.94,18,18,0,0,1-1.14-6.59A18.92,18.92,0,0,1,73.89,9.6,15.65,15.65,0,0,1,77,4.46a13.6,13.6,0,0,1,4.6-3.3A14.06,14.06,0,0,1,87.24,0,13.23,13.23,0,0,1,91.3.58a15.44,15.44,0,0,1,3.46,1.58L95.64.7h1.75l.21,10.91H95.85a27,27,0,0,0-1-3.5,13.84,13.84,0,0,0-1.6-3.2A7.76,7.76,0,0,0,90.8,2.59a6.13,6.13,0,0,0-3.21-.84,8.2,8.2,0,0,0-3.85.93,8.76,8.76,0,0,0-3.07,2.74,13.55,13.55,0,0,0-1.94,4.45,23.84,23.84,0,0,0-.71,6,18.68,18.68,0,0,0,.74,5.39,14,14,0,0,0,2.1,4.31,10,10,0,0,0,3.22,2.88,8.39,8.39,0,0,0,4.16,1A8.8,8.8,0,0,0,91.41,29a8.47,8.47,0,0,0,2.51-1.45,11.33,11.33,0,0,0,1.87-2.15,12,12,0,0,0,1.32-2.63l1.61.78A13.36,13.36,0,0,1,93.83,30,13.1,13.1,0,0,1,86.59,32Z"/></g></g></svg>