<svg xmlns="http://www.w3.org/2000/svg" xmlns:xlink="http://www.w3.org/1999/xlink" width="440.26" height="440.26" viewBox="0 0 440.26 440.26"><defs><style>.cls-1,.cls-58,.cls-7,.cls-9{fill:none;}.cls-2{isolation:isolate;}.cls-3{clip-path:url(#clip-path);}.cls-4{fill:#7ac9ef;}.cls-5{opacity:0.8;}.cls-6{opacity:0.16;}.cls-7,.cls-9{stroke:#fff;}.cls-58,.cls-7,.cls-9{stroke-linecap:round;stroke-linejoin:round;}.cls-7{stroke-width:2.64px;}.cls-41,.cls-8{opacity:0.2;}.cls-58,.cls-9{stroke-width:1.76px;}.cls-10,.cls-11{opacity:0.1;}.cls-11{fill:#144461;}.cls-12,.cls-16{fill:#dbdadf;}.cls-13{fill:#f7f6fb;}.cls-14{fill:#32495e;}.cls-15{fill:#0097ef;}.cls-16,.cls-25,.cls-26{opacity:0.6;}.cls-17,.cls-37{fill:#fff;}.cls-18{opacity:0.08;mix-blend-mode:multiply;}.cls-19{fill:#ecf8ff;}.cls-20{fill:#eaf6ff;}.cls-21{fill:#b3d7ef;}.cls-22{fill:#ace2ff;}.cls-23{fill:#1e66b2;}.cls-24{fill:#778b9d;}.cls-25{fill:#5486b2;}.cls-27{fill:#168cce;}.cls-28{fill:#ecae79;}.cls-29{fill:#fbbd87;}.cls-30{fill:#e5ab7a;}.cls-31{fill:#5e3932;}.cls-32{fill:#c8cdd0;}.cls-33{fill:#d8d8d8;}.cls-34{fill:#222a33;}.cls-35{fill:#2c3742;}.cls-36{fill:#295e8b;}.cls-37,.cls-50{opacity:0.4;}.cls-38{fill:#fb51ae;}.cls-39{fill:#fbf8fa;}.cls-40{fill:#426a8b;}.cls-41,.cls-50{fill:#82c5ec;}.cls-42{fill:#49afec;}.cls-43{fill:#3b2d28;}.cls-44{fill:#dce1e5;}.cls-45{fill:#5e473c;}.cls-46{fill:#523e34;}.cls-47{fill:#aa1616;}.cls-48{fill:#f4faff;}.cls-49{fill:#b92323;}.cls-51{fill:#3896d5;}.cls-52{fill:#66401a;}.cls-53{fill:#52b718;}.cls-54{fill:#217bf9;}.cls-55{fill:#471c06;}.cls-56{fill:#acced5;}.cls-57{fill:#c3e9f1;}.cls-58{stroke:#ace2ff;}</style><clipPath id="clip-path"><rect class="cls-1" x="14.28" y="155.16" width="414" height="120"/></clipPath></defs><title>web_sm</title><g class="cls-2"><g id="レイヤー_2" data-name="レイヤー 2"><g id="デザイン"><g class="cls-3"><rect class="cls-4" width="440.26" height="440.26"/><g class="cls-5"><g class="cls-6"><circle class="cls-7" cx="220.26" cy="220.01" r="86.46" transform="translate(-91.05 220.19) rotate(-45)"/><path class="cls-7" d="M158,160.77c16.27,11.42,38.18,18.42,62.27,18.42s46-7,62.28-18.42"/><path class="cls-7" d="M158,279.24c16.27-11.42,38.18-18.41,62.27-18.41s46,7,62.28,18.41"/><ellipse class="cls-7" cx="220.26" cy="220.01" rx="43.41" ry="86.46"/><line class="cls-7" x1="220.26" y1="133.9" x2="220.26" y2="306.12"/><line class="cls-7" x1="134.15" y1="220.01" x2="306.37" y2="220.01"/></g><g class="cls-8"><ellipse class="cls-9" cx="220.26" cy="220.01" rx="109.18" ry="108.89"/></g><g class="cls-6"><ellipse class="cls-9" cx="220.26" cy="220.01" rx="135.33" ry="133.87"/></g><g class="cls-10"><ellipse class="cls-9" cx="220.26" cy="220.01" rx="160.83" ry="159.09"/></g></g><path class="cls-11" d="M294.08,279.43c0,1.63-33.14,2.95-74,2.95s-74-1.32-74-2.95,33.13-2.95,74-2.95S294.08,277.8,294.08,279.43Z"/><polygon class="cls-12" points="228.48 249.51 220.26 249.51 212.05 249.51 206.69 275.55 220.26 275.55 233.84 275.55 228.48 249.51"/><path class="cls-13" d="M240.78,273.58h-41a5.85,5.85,0,0,0-5.86,5.85h52.75A5.86,5.86,0,0,0,240.78,273.58Z"/><path class="cls-13" d="M146.89,252.7a6.17,6.17,0,0,0,6.17,6.17H287.47a6.17,6.17,0,0,0,6.17-6.17V239.12H146.89Z"/><path class="cls-14" d="M287.47,160.23H153.06a6.17,6.17,0,0,0-6.17,6.17v72.72H293.64V166.4A6.17,6.17,0,0,0,287.47,160.23Z"/><rect class="cls-15" x="152.36" y="165.07" width="135.81" height="69.02"/><path class="cls-16" d="M224.58,248.94a4.32,4.32,0,1,1-4.32-4.31A4.32,4.32,0,0,1,224.58,248.94Z"/><rect class="cls-14" x="97.87" y="200.1" width="28.19" height="28.19" rx="1.76" ry="1.76"/><path class="cls-17" d="M112,225a10.76,10.76,0,1,1,10.76-10.76A10.77,10.77,0,0,1,112,225Zm0-20.08a9.33,9.33,0,1,0,9.33,9.32A9.33,9.33,0,0,0,112,204.88Z"/><polygon class="cls-17" points="108.49 209.57 117.19 214.2 108.49 218.83 108.49 209.57"/><g class="cls-18"><path d="M308.7,174.1H268.94a3.51,3.51,0,0,0-3.51,3.51v20.94a3.52,3.52,0,0,0,3.51,3.52h5.27v7.7l7.71-7.7H308.7a3.52,3.52,0,0,0,3.51-3.52V177.61A3.51,3.51,0,0,0,308.7,174.1Z"/></g><path class="cls-19" d="M306.94,172.34H267.18a3.51,3.51,0,0,0-3.51,3.51v20.94a3.51,3.51,0,0,0,3.51,3.51h5.27V208l7.71-7.71h26.78a3.51,3.51,0,0,0,3.51-3.51V175.85A3.51,3.51,0,0,0,306.94,172.34Z"/><polygon class="cls-20" points="333.39 268.97 311.56 268.97 311.56 305.65 339.37 305.65 339.37 274.92 333.39 268.97"/><polygon class="cls-21" points="339.37 274.9 333.39 274.9 333.39 268.97 339.37 274.9"/><path class="cls-10" d="M335,280.91a.49.49,0,0,1-.49.49H316.38a.49.49,0,0,1-.5-.49h0a.5.5,0,0,1,.5-.5h18.17a.49.49,0,0,1,.49.5Z"/><path class="cls-10" d="M335,285.49a.49.49,0,0,1-.49.49H316.38a.49.49,0,0,1-.5-.49h0a.49.49,0,0,1,.5-.49h18.17a.49.49,0,0,1,.49.49Z"/><path class="cls-10" d="M335,290.08a.49.49,0,0,1-.49.49H316.38a.49.49,0,0,1-.5-.49h0a.5.5,0,0,1,.5-.5h18.17a.49.49,0,0,1,.49.5Z"/><path class="cls-10" d="M335,294.66a.49.49,0,0,1-.49.49H316.38a.49.49,0,0,1-.5-.49h0a.49.49,0,0,1,.5-.49h18.17a.49.49,0,0,1,.49.49Z"/><path class="cls-10" d="M335,299.25a.49.49,0,0,1-.49.49H316.38a.49.49,0,0,1-.5-.49h0a.5.5,0,0,1,.5-.5h18.17a.49.49,0,0,1,.49.5Z"/><path class="cls-19" d="M180.83,330.81a5.9,5.9,0,1,0,5.89,5.9A5.9,5.9,0,0,0,180.83,330.81Z"/><path class="cls-19" d="M197.68,339.43V334H194a13.61,13.61,0,0,0-1.93-4.66l2.61-2.62-3.84-3.84-2.62,2.62a13.31,13.31,0,0,0-4.65-1.94v-3.69h-5.44v3.69a13.44,13.44,0,0,0-4.66,1.94l-2.62-2.62L167,326.71l2.62,2.62a13.44,13.44,0,0,0-1.94,4.66H164v5.44h3.69a13.31,13.31,0,0,0,1.94,4.65L167,346.7l3.84,3.84,2.62-2.61a13.61,13.61,0,0,0,4.66,1.93v3.7h5.44v-3.7a13.48,13.48,0,0,0,4.65-1.93l2.62,2.61,3.84-3.84-2.61-2.62a13.48,13.48,0,0,0,1.93-4.65Zm-16.85,6.92a9.65,9.65,0,1,1,9.64-9.64A9.65,9.65,0,0,1,180.83,346.35Z"/><path class="cls-19" d="M166.8,308.13a3.4,3.4,0,1,0,3.4,3.4A3.4,3.4,0,0,0,166.8,308.13Z"/><path class="cls-19" d="M176.51,313.09V310h-2.13a7.57,7.57,0,0,0-1.11-2.68l1.51-1.51-2.22-2.22-1.51,1.51a7.67,7.67,0,0,0-2.68-1.12v-2.13h-3.14v2.13a7.67,7.67,0,0,0-2.68,1.12L161,303.55l-2.22,2.22,1.51,1.51a7.57,7.57,0,0,0-1.11,2.68h-2.13v3.13h2.13a7.7,7.7,0,0,0,1.11,2.69l-1.51,1.51L161,319.5l1.51-1.5a7.84,7.84,0,0,0,2.68,1.11v2.13h3.14v-2.13a7.84,7.84,0,0,0,2.68-1.11l1.51,1.5,2.22-2.21-1.51-1.51a7.7,7.7,0,0,0,1.11-2.69Zm-9.71,4a5.57,5.57,0,1,1,5.56-5.56A5.56,5.56,0,0,1,166.8,317.09Z"/><path class="cls-19" d="M126.06,151a3.34,3.34,0,1,0,3.33,3.34A3.33,3.33,0,0,0,126.06,151Zm0,4.56a1.23,1.23,0,1,1,1.22-1.22A1.22,1.22,0,0,1,126.06,155.52Z"/><path class="cls-19" d="M133.53,164a12.44,12.44,0,0,1-15.11.3l-.48.82c-1,1.72-.18,3.12,1.8,3.12h12.64c2,0,2.79-1.4,1.8-3.12Z"/><path class="cls-19" d="M126.06,143.62a10.68,10.68,0,1,0,10.68,10.68A10.68,10.68,0,0,0,126.06,143.62Zm-1.87,3.73a.72.72,0,0,1,.72-.72h2.3a.72.72,0,0,1,.72.72v.12a.72.72,0,0,1-.72.72h-2.3a.72.72,0,0,1-.72-.72Zm1.87,12a5,5,0,1,1,5-5A5,5,0,0,1,126.06,159.33Z"/><path class="cls-19" d="M84.6,179.19a16.79,16.79,0,1,1-16.79-16.78A16.79,16.79,0,0,1,84.6,179.19Z"/><path class="cls-4" d="M63.32,174.71a6.52,6.52,0,0,1,8-1l-1.84,1.82c-.68.83.09,1.31.48,1.29h6.37a.44.44,0,0,0,.44-.44v-6.32a.7.7,0,0,0-1.26-.49s-1.09,1.06-1.83,1.8a9.77,9.77,0,0,0-15.53,8.32h3.27a6.47,6.47,0,0,1,1.88-5"/><path class="cls-4" d="M74.19,178.64a6.48,6.48,0,0,1-1.88,5,6.55,6.55,0,0,1-8,1l1.84-1.83c.68-.83-.09-1.3-.48-1.29H59.28a.44.44,0,0,0-.44.44v6.32a.7.7,0,0,0,1.26.49s1.08-1.05,1.83-1.8a9.77,9.77,0,0,0,15.53-8.31Z"/><path class="cls-19" d="M363.64,171.3H375a1.54,1.54,0,0,1-.22-.77,1.68,1.68,0,0,1,3.35,0,1.64,1.64,0,0,1-.22.77h11.39a1.55,1.55,0,0,1,1.54,1.54v16.95a1.55,1.55,0,0,1-1.54,1.53H380l1.82,6.39a.75.75,0,0,1-.6.95l-.71.14a.94.94,0,0,1-1.06-.65l-1.93-6.83h-2.09l-1.94,6.83a.93.93,0,0,1-1.05.65l-.72-.14a.74.74,0,0,1-.59-.95l1.81-6.39h-9.31a1.54,1.54,0,0,1-1.54-1.53V172.84a1.55,1.55,0,0,1,1.54-1.54Zm1.38,17h22.92V174H365Z"/><path class="cls-19" d="M374.36,182.74a1.6,1.6,0,0,1,.05.21,1.2,1.2,0,1,1-2.33-.33L369,179.84a1.09,1.09,0,0,1-.54.15,1.19,1.19,0,1,1,1.19-1.19,1.08,1.08,0,0,1-.09.44l3,2.72a1.09,1.09,0,0,1,1.37.07l3-2.52a1.1,1.1,0,0,1-.08-.4,1.19,1.19,0,1,1,2.38,0,1.06,1.06,0,0,1-.08.4l5.46,4.25a1.24,1.24,0,0,1,.66-.22,1.19,1.19,0,0,1,0,2.38h0a1.19,1.19,0,0,1-1.19-1.19,1.14,1.14,0,0,1,.07-.33c-1.52-1.23-4.21-3.39-5.44-4.34a1.13,1.13,0,0,1-.67.23"/><path class="cls-19" d="M131.62,350.31a3.77,3.77,0,0,1-.5,1.86l-9.74-10.9,9.64-8.43a3.85,3.85,0,0,1,.6,2.05Zm-15.43-7.06,13.41-11.73a3.72,3.72,0,0,0-1.84-.49H104.62a3.65,3.65,0,0,0-1.83.49Zm3.74-.71-3.1,2.72a1,1,0,0,1-1.27,0l-3.11-2.72-9.86,11a3.8,3.8,0,0,0,2,.59h23.14a3.83,3.83,0,0,0,2-.59Zm-18.56-9.7a3.76,3.76,0,0,0-.6,2.05v15.42a3.87,3.87,0,0,0,.49,1.86l9.74-10.9Z"/><rect class="cls-19" x="241.58" y="108.28" width="19.1" height="13.89" rx="1.06" ry="1.06"/><path class="cls-19" d="M245.52,107.36a3.21,3.21,0,1,0-3.2-3.2A3.2,3.2,0,0,0,245.52,107.36Z"/><path class="cls-19" d="M255.74,107.36a4.13,4.13,0,1,0-4.12-4.13A4.13,4.13,0,0,0,255.74,107.36Z"/><path class="cls-19" d="M265.3,112.45a.53.53,0,0,0-.4-.14l-2.89.28a.53.53,0,0,0-.48.53v5.77a.54.54,0,0,0,.48.53l2.89.27a.49.49,0,0,0,.4-.13.55.55,0,0,0,.18-.39v-6.33A.53.53,0,0,0,265.3,112.45Z"/><path class="cls-19" d="M367.24,307.36a3.62,3.62,0,0,0-1.73,1l-7.87-2.93a3.86,3.86,0,0,0,0-.58l-.06-.26,8.84-6.14a3.69,3.69,0,0,0,2.71.62,3.64,3.64,0,1,0-4.19-3l0,.16L356,302.46a3.63,3.63,0,1,0,.69,5.46l7.82,2.92a3.61,3.61,0,0,0,.11,1,3.64,3.64,0,1,0,2.6-4.45Z"/><path class="cls-22" d="M71.19,126.83a1.91,1.91,0,0,0-.9.54l-4.1-1.53a1.51,1.51,0,0,0,0-.3l0-.14,4.6-3.19a1.86,1.86,0,0,0,1.41.32A1.89,1.89,0,1,0,70,121a.31.31,0,0,0,0,.08l-4.64,3.22A1.84,1.84,0,0,0,64,124a1.89,1.89,0,1,0,1.72,3.13l4.07,1.52a1.4,1.4,0,0,0,.06.5,1.89,1.89,0,1,0,1.35-2.31Z"/><path class="cls-22" d="M186,377.52a1.91,1.91,0,0,0-.9.54L181,376.53c0-.1,0-.2,0-.3l0-.13,4.6-3.2a1.89,1.89,0,1,0-.77-1.23.24.24,0,0,0,0,.08L180.17,375a1.94,1.94,0,0,0-1.36-.29,1.89,1.89,0,1,0,1.72,3.14l4.07,1.51a1.78,1.78,0,0,0,.06.51,1.89,1.89,0,1,0,1.35-2.32Z"/><path class="cls-22" d="M318.65,164.57a1.93,1.93,0,0,0-.89.54l-4.1-1.53a1.51,1.51,0,0,0,0-.3l0-.14,4.6-3.19a1.86,1.86,0,0,0,1.41.32,1.89,1.89,0,1,0-2.18-1.55.24.24,0,0,0,0,.08L312.82,162a1.89,1.89,0,1,0,.36,2.84l4.07,1.52a1.49,1.49,0,0,0,.06.51,1.89,1.89,0,1,0,1.34-2.32Z"/><path class="cls-19" d="M303.82,78.15a5.26,5.26,0,0,0-2.24-4.32,12.35,12.35,0,0,0-24.7,0,5.28,5.28,0,0,0,2.86,9.6.75.75,0,0,0,.75.75h2.22a.74.74,0,0,0,.75-.75V72.86a.75.75,0,0,0-.75-.75h-2.22a.76.76,0,0,0-.75.75,5.27,5.27,0,0,0-.81.11,10.35,10.35,0,0,1,20.61,0,5.58,5.58,0,0,0-.82-.11.75.75,0,0,0-.75-.75h-2.22a.76.76,0,0,0-.75.75V83.43a.75.75,0,0,0,.75.75H298a.74.74,0,0,0,.74-.75,5.13,5.13,0,0,0,1.62-.32l1.05-.52a5.27,5.27,0,0,0,2.43-4.44"/><rect class="cls-14" x="90.54" y="88.1" width="23.75" height="32.1" rx="0.99" ry="0.99"/><rect class="cls-23" x="91.92" y="89.8" width="20.98" height="27.84"/><path class="cls-24" d="M102.86,89a.44.44,0,0,1-.44.44.44.44,0,0,1,0-.88A.44.44,0,0,1,102.86,89Z"/><circle class="cls-25" cx="102.42" cy="118.98" r="0.8"/><g class="cls-26"><path class="cls-17" d="M102.42,110.86a6.71,6.71,0,1,1,6.7-6.7A6.72,6.72,0,0,1,102.42,110.86Zm0-12.51a5.81,5.81,0,1,0,5.81,5.81A5.81,5.81,0,0,0,102.42,98.35Z"/><polygon class="cls-17" points="100.25 101.27 105.67 104.16 100.25 107.04 100.25 101.27"/></g><rect class="cls-14" x="343.65" y="217.61" width="28.08" height="37.96" rx="1.18" ry="1.18"/><rect class="cls-27" x="345.28" y="219.62" width="24.82" height="32.92"/><path class="cls-24" d="M358.21,218.69a.53.53,0,0,1-.52.52.52.52,0,0,1-.52-.52.52.52,0,0,1,.52-.52A.52.52,0,0,1,358.21,218.69Z"/><path class="cls-25" d="M358.64,254.13a1,1,0,0,1-1.9,0,.95.95,0,1,1,1.9,0Z"/><g class="cls-26"><path class="cls-17" d="M357.69,245.19a8.59,8.59,0,1,1,8.59-8.59A8.6,8.6,0,0,1,357.69,245.19Zm0-16a7.45,7.45,0,1,0,7.44,7.45A7.46,7.46,0,0,0,357.69,229.15Z"/><polygon class="cls-17" points="354.91 232.9 361.86 236.6 354.91 240.29 354.91 232.9"/></g><path class="cls-22" d="M255.75,94a7.82,7.82,0,1,1,7.81-7.82A7.83,7.83,0,0,1,255.75,94Zm0-14.6a6.78,6.78,0,1,0,6.77,6.78A6.79,6.79,0,0,0,255.75,79.36Z"/><polygon class="cls-22" points="253.22 82.78 259.54 86.14 253.22 89.5 253.22 82.78"/><path class="cls-28" d="M233.26,194.14c-.23,2.33.76,4.15,2.19,4.07s2.78-2,3-4.36-.76-4.15-2.19-4.07S233.48,191.81,233.26,194.14Z"/><path class="cls-28" d="M206.89,194.14c.22,2.33-.76,4.15-2.19,4.07s-2.78-2-3-4.36.76-4.15,2.19-4.07S206.67,191.81,206.89,194.14Z"/><polygon class="cls-29" points="223.51 217.55 216.31 217.55 216.79 209.89 223.03 209.89 223.51 217.55"/><path class="cls-30" d="M216.56,213.58a9.36,9.36,0,0,0,6.7,0l-.23-3.69h-6.24Z"/><path class="cls-29" d="M219.91,177.19c-6.55,0-14.83,4.32-14.83,7.16s.62,18.79,1.11,20.76,4.82,4.33,7.42,5.69a11.65,11.65,0,0,0,12.6,0c2.6-1.36,6.92-3.71,7.42-5.69s1.11-17.91,1.11-20.76S226.46,177.19,219.91,177.19Z"/><path class="cls-31" d="M205.58,195.06c-3.78-3.85-4.66-9.61-4.66-13.67a9.63,9.63,0,0,1,5-7.86,7.27,7.27,0,0,0-3.71,1.4s1.72-5.54,10.26-3.72c0,0,7.5-5.05,18.52-.63a13.38,13.38,0,0,0-3.85.49s12.12.12,12.11,12.69c0,5.7-4.67,11.3-4.67,11.3a7.39,7.39,0,0,1-.76-4.77s-4.55-2.24-5.65-4.13a4.07,4.07,0,0,0,1,2.73s-4.34-.77-6.2-4.14c0,0-.07,3,.75,4.42,0,0-5.51-2-6.68-5.68,0,0-.55,3.51.83,5.33a9.21,9.21,0,0,1-7.51-5.12s-.62,5.05-3.79,7.15A7.36,7.36,0,0,1,205.58,195.06Z"/><polygon class="cls-32" points="224.48 217.92 220.07 217.34 215.66 217.92 210.13 221.01 213.41 233.99 220.07 233.99 226.73 233.99 230.02 221.01 224.48 217.92"/><path class="cls-33" d="M224.74,217.82a.48.48,0,0,1-.42.52h-8.5a.48.48,0,0,1-.42-.52V215.6a.48.48,0,0,1,.42-.52h8.5a.48.48,0,0,1,.42.52Z"/><path class="cls-34" d="M211.58,220.15l3.82,13.94H193.51s.4-4.13.47-5.14a3.58,3.58,0,0,1,1.81-2.46C196.6,226,211.58,220.15,211.58,220.15Z"/><path class="cls-35" d="M211.58,220.15s-3.17,1.23-6.66,2.61l1.93,5.48,2.78-.57-1.75,2.42,2,4h5.53Z"/><path class="cls-34" d="M228.57,220.15l-3.83,13.94h21.9s-.4-4.13-.47-5.14a3.64,3.64,0,0,0-1.81-2.46C243.55,226,228.57,220.15,228.57,220.15Z"/><path class="cls-35" d="M228.57,220.15l6.66,2.61-1.93,5.48-2.78-.57,1.74,2.42-2,4h-5.54Z"/><rect class="cls-36" x="135.65" y="58.73" width="87.81" height="49.35"/><rect class="cls-14" x="135.65" y="108.09" width="87.81" height="11.7"/><path class="cls-37" d="M218.22,113.93a.47.47,0,0,1-.47.47H148.47a.47.47,0,0,1-.47-.47h0a.47.47,0,0,1,.47-.47h69.28a.47.47,0,0,1,.47.47Z"/><path class="cls-17" d="M161.62,113.93a1.46,1.46,0,1,1-1.45-1.45A1.45,1.45,0,0,1,161.62,113.93Z"/><polygon class="cls-17" points="140.34 111.79 144.56 113.93 140.34 116.07 140.34 111.79"/><path d="M194.23,78.1c-1.44-10.87-6.87-15.52-14.67-15.52s-13.23,4.65-14.67,15.52c-1.51,11.38,2,15.87,3.09,16.6A27.68,27.68,0,0,0,179.56,98a27.68,27.68,0,0,0,11.57-3.33C192.22,94,195.74,89.48,194.23,78.1Z"/><polygon class="cls-29" points="182.3 95.61 176.81 95.61 177.18 89.77 181.93 89.77 182.3 95.61"/><path class="cls-30" d="M181.93,89.77h-4.75l-.13,2A7.84,7.84,0,0,0,179.56,93h0a7.86,7.86,0,0,0,2.5-1.17Z"/><path class="cls-29" d="M195.62,101.62a4.76,4.76,0,0,0-2.27-2.7c-.63-.3-13.79-4.46-13.79-4.46s-13.17,4.16-13.8,4.46a4.69,4.69,0,0,0-2.26,2.7,56.92,56.92,0,0,0-1.71,6.37h35.53A58.62,58.62,0,0,0,195.62,101.62Z"/><path class="cls-29" d="M190,70.72c-1-4-5.76-5.88-10.43-5.88h0c-4.67,0-9.47,1.83-10.42,5.88A22,22,0,0,0,172,86.52c1.29,2,6.53,5.34,7.51,5.35h0c1,0,6.23-3.32,7.51-5.35A22,22,0,0,0,190,70.72Z"/><path class="cls-38" d="M168.33,98s1.61,7.89,7.47,10h-7.93s-.68-6.54-2.75-8.86A12.62,12.62,0,0,1,168.33,98Z"/><path class="cls-38" d="M190.79,98s-1.62,7.89-7.48,10h7.94s.67-6.54,2.75-8.86A12.81,12.81,0,0,0,190.79,98Z"/><path class="cls-39" d="M180.55,96.23a1,1,0,1,1-2,0,1,1,0,0,1,2,0Z"/><circle class="cls-39" cx="177.85" cy="96.03" r="0.95"/><path class="cls-39" d="M177.09,95.47a.87.87,0,1,1-1.73,0,.87.87,0,0,1,1.73,0Z"/><circle class="cls-39" cx="181.26" cy="96.03" r="0.95"/><path class="cls-39" d="M182,95.47a.87.87,0,1,0,.87-.86A.87.87,0,0,0,182,95.47Z"/><path d="M192.39,72.73c-2.75-6.92-10.25-9.29-12.89-9.29s-8.34,2.18-10.88,6.07-3.8,11.09-2.32,14.79,6.43,7.08,6.43,7.08c-3.55-12.72,4-18.68,6.5-20.29.47,2.09,1.75,6.08,4.93,8.19,0,0-.42-1.29-.87-3a17.57,17.57,0,0,0,6.56,4.36l1,4.26,1.59,2.56S195.13,79.65,192.39,72.73Z"/><rect class="cls-40" x="292.43" y="99.68" width="66.06" height="43.94" rx="1.39" ry="1.39"/><polygon class="cls-14" points="358.47 143.62 329.46 143.62 292.46 143.62 285.18 147.62 329.46 147.62 365.75 147.62 358.47 143.62"/><path class="cls-40" d="M285.18,147.61v.61a1.87,1.87,0,0,0,1.87,1.88h76.83a1.88,1.88,0,0,0,1.87-1.88v-.61Z"/><polygon class="cls-41" points="294.21 144.57 291.03 146.45 359.89 146.45 356.72 144.57 294.21 144.57"/><rect class="cls-42" x="296.32" y="103.1" width="58.28" height="37.1"/><path class="cls-28" d="M333.65,116.54c-.13,1.38.45,2.46,1.3,2.42s1.64-1.21,1.78-2.59-.45-2.46-1.31-2.41S333.78,115.16,333.65,116.54Z"/><path class="cls-28" d="M318,116.54c.13,1.38-.45,2.46-1.3,2.42s-1.65-1.21-1.78-2.59.45-2.46,1.3-2.41S317.89,115.16,318,116.54Z"/><path class="cls-43" d="M336.5,112.59c0,5.5-4.77,12.08-10.67,12.08s-10.66-6.58-10.66-12.08,4.77-7.83,10.66-7.83S336.5,107.09,336.5,112.59Z"/><polygon class="cls-29" points="327.97 130.42 323.7 130.42 323.99 125.88 327.68 125.88 327.97 130.42"/><path class="cls-30" d="M323.85,128.07a5.65,5.65,0,0,0,4,0l-.14-2.19H324Z"/><path class="cls-29" d="M325.83,106.49c-3.88,0-8.79,2.57-8.79,4.25s.37,11.13.66,12.31,2.86,2.56,4.4,3.36a6.89,6.89,0,0,0,7.47,0c1.54-.8,4.1-2.19,4.39-3.36s.66-10.63.66-12.31S329.72,106.49,325.83,106.49Z"/><polygon class="cls-44" points="328.45 130.64 325.83 129.47 323.22 130.64 319.94 132.47 321.89 140.2 325.74 140.2 329.78 140.2 331.73 132.47 328.45 130.64"/><path class="cls-45" d="M320.8,132l2.27,8.24h-13s.24-2.43.28-3a2.17,2.17,0,0,1,1.07-1.46C311.92,135.42,320.8,132,320.8,132Z"/><path class="cls-46" d="M320.8,132l-3.95,1.55,1.14,3.24,1.65-.33-1,1.43,1.18,2.35h3.28Z"/><path class="cls-45" d="M330.87,132l-2.27,8.24h13s-.24-2.43-.28-3a2.2,2.2,0,0,0-1.07-1.46C339.75,135.42,330.87,132,330.87,132Z"/><path class="cls-46" d="M330.87,132l3.95,1.55-1.15,3.24-1.65-.33,1,1.43-1.18,2.35H328.6Z"/><polygon class="cls-47" points="327.39 131.05 325.83 129.47 324.27 131.05 325.29 133.1 325.83 133.1 326.37 133.1 327.39 131.05"/><polygon class="cls-48" points="325.83 129.47 324.39 132.66 322.64 130.87 323.63 129.15 325.83 129.47"/><polygon class="cls-48" points="325.83 129.47 327.27 132.66 329.02 130.87 328.04 129.15 325.83 129.47"/><polygon class="cls-49" points="326.37 133.1 325.83 133.1 325.29 133.1 324.89 140.2 325.83 140.2 326.77 140.2 326.37 133.1"/><path class="cls-43" d="M329.58,110.83s-2.09,4-8.37,5.12a15.41,15.41,0,0,0,3.55-2.56s-5.17,3-8.42,2.64c0,0-.57-5,.24-6.33s6.91-4.47,10.56-3.74,7.56,2.6,8.13,4.06,0,5.69,0,5.69S330.07,114,329.58,110.83Z"/><rect class="cls-14" x="63.32" y="252.65" width="64.51" height="42.91" rx="1.36" ry="1.36"/><polygon class="cls-40" points="127.81 295.56 99.48 295.56 63.35 295.56 56.24 299.47 99.48 299.47 134.92 299.47 127.81 295.56"/><path class="cls-14" d="M56.24,299.46v.6a1.83,1.83,0,0,0,1.83,1.83h75a1.83,1.83,0,0,0,1.83-1.83v-.6Z"/><polygon class="cls-50" points="65.06 296.5 61.96 298.33 129.2 298.33 126.1 296.5 65.06 296.5"/><rect class="cls-51" x="67.12" y="255.99" width="56.91" height="36.23"/><path class="cls-52" d="M98.8,259.35s-5.28-3.49-10.29.39c-5.82,4.5-3.66,12.78-1.74,15.71s2.34,5.4.32,5.5a32.28,32.28,0,0,0,9.26,1.16c5.75,0,7.9-1.38,7.9-1.38s-2.37-.38-.93-3.14c1.14-2.19,4.74-10.43,2.53-15C103.85,258.51,99.91,258.33,98.8,259.35Z"/><path class="cls-28" d="M102.43,270.21c-.11,1.3.4,2.31,1.14,2.27s1.45-1.13,1.56-2.42-.39-2.31-1.14-2.27S102.55,268.92,102.43,270.21Z"/><path class="cls-28" d="M88.73,270.21c.11,1.3-.4,2.31-1.15,2.27s-1.44-1.13-1.56-2.42.4-2.31,1.15-2.27S88.61,268.92,88.73,270.21Z"/><polygon class="cls-29" points="97.58 283.22 93.58 283.22 93.85 278.96 97.31 278.96 97.58 283.22"/><path class="cls-30" d="M97.31,279H93.85l-.1,1.49a5.81,5.81,0,0,0,1.83.86h0a5.5,5.5,0,0,0,1.82-.85Z"/><path class="cls-29" d="M107.28,287.6a3.41,3.41,0,0,0-1.65-2c-.46-.22-10-3.26-10-3.26s-9.59,3-10,3.26a3.41,3.41,0,0,0-1.65,2,41.87,41.87,0,0,0-1.24,4.64h25.88A41.87,41.87,0,0,0,107.28,287.6Z"/><path class="cls-29" d="M103.18,265.09c-.7-3-4.2-4.29-7.6-4.29h0c-3.41,0-6.9,1.33-7.6,4.29a16.06,16.06,0,0,0,2.13,11.51c.93,1.47,4.75,3.89,5.47,3.89h0c.72,0,4.54-2.42,5.47-3.89A16.06,16.06,0,0,0,103.18,265.09Z"/><path class="cls-53" d="M103.54,284.89l-2.09,4.52a21.68,21.68,0,0,1-5.87.62,21.81,21.81,0,0,1-5.88-.62l-2.09-4.52-1.77.54.28,6.81H105l.28-6.81Z"/><path class="cls-52" d="M102.14,260.5c-2.52-1.66-11.13-1.26-14,1.78s-2.65,8.48-2.65,8.48a19.4,19.4,0,0,0,7.87-2.91c-1,1.28-1.89,2.39-1.89,2.39,4.5-1.9,6.33-4.42,7-5.65a7.31,7.31,0,0,0,7.17,4.77C105.46,266.55,104.65,262.15,102.14,260.5Z"/><g class="cls-18"><path d="M51.76,247H78.19a2.33,2.33,0,0,1,2.33,2.33v13.92a2.33,2.33,0,0,1-2.33,2.33h-3.5v5.13l-5.13-5.13H51.76a2.33,2.33,0,0,1-2.34-2.33V249.36A2.33,2.33,0,0,1,51.76,247Z"/></g><path class="cls-19" d="M50,245.26H76.43a2.33,2.33,0,0,1,2.33,2.34v13.92a2.33,2.33,0,0,1-2.33,2.33h-3.5V269l-5.13-5.13H50a2.33,2.33,0,0,1-2.34-2.33V247.6A2.34,2.34,0,0,1,50,245.26Z"/><rect class="cls-54" x="225.08" y="322.12" width="69.11" height="38.84"/><rect class="cls-40" x="225.08" y="360.96" width="69.11" height="9.21"/><path class="cls-37" d="M290.06,365.56a.38.38,0,0,1-.37.37H235.16a.38.38,0,0,1-.37-.37h0a.38.38,0,0,1,.37-.37h54.53a.38.38,0,0,1,.37.37Z"/><path class="cls-17" d="M245.51,365.56a1.14,1.14,0,1,1-1.14-1.14A1.14,1.14,0,0,1,245.51,365.56Z"/><polygon class="cls-17" points="228.76 363.88 232.09 365.56 228.76 367.24 228.76 363.88"/><path class="cls-55" d="M270.71,334.29c0,6.12-5,12.68-11.08,12.68s-11.08-6.56-11.08-12.68,5-9.48,11.08-9.48S270.71,328.17,270.71,334.29Z"/><path class="cls-28" d="M267.48,337c-.14,1.39.45,2.48,1.3,2.43s1.66-1.21,1.79-2.6-.45-2.47-1.31-2.42S267.61,335.66,267.48,337Z"/><path class="cls-28" d="M251.78,337c.14,1.39-.45,2.48-1.3,2.43s-1.66-1.21-1.79-2.6.45-2.47,1.31-2.42S251.65,335.66,251.78,337Z"/><polygon class="cls-29" points="261.77 351.43 261.77 351.39 261.77 351.39 261.49 346.42 257.77 346.42 257.49 351.39 257.49 351.39 257.49 351.43 257.49 351.47 257.49 351.47 257.77 356.44 261.49 356.44 261.77 351.47 261.77 351.47 261.77 351.43"/><path class="cls-30" d="M257.64,348.62a5.71,5.71,0,0,0,4,0l-.14-2.2h-3.72Z"/><path class="cls-29" d="M259.63,327c-3.9,0-8.83,2.58-8.83,4.27s.37,11.18.67,12.36,2.86,2.57,4.41,3.38a6.94,6.94,0,0,0,7.5,0c1.55-.81,4.12-2.21,4.41-3.38s.67-10.67.67-12.36S263.53,327,259.63,327Z"/><path class="cls-56" d="M275.16,357.76a2.14,2.14,0,0,0-1.08-1.46c-.48-.3-12.71-4.92-12.71-4.92l-.79.49-.95,2.69-.95-2.69-.79-.49s-12.23,4.62-12.71,4.92a2.14,2.14,0,0,0-1.08,1.46c0,.6-.28,3.06-.28,3.06h31.62S275.2,358.36,275.16,357.76Z"/><polygon class="cls-57" points="258.8 351.83 256.68 354.63 255.13 352.06 257.21 350.1 258.8 351.83"/><polygon class="cls-57" points="260.46 351.83 262.58 354.63 264.13 352.06 262.05 350.1 260.46 351.83"/><path class="cls-55" d="M252.5,333.88l-1.45,4.9a7,7,0,0,1-.55-4A1.31,1.31,0,0,1,252.5,333.88Z"/><path class="cls-55" d="M266.77,333.88l1.44,4.9a7,7,0,0,0,.55-4A1.3,1.3,0,0,0,266.77,333.88Z"/><path class="cls-55" d="M259.7,325h0c-.1,0-.27,0,0,.08h0C260,325,259.79,325,259.7,325Z"/><path class="cls-55" d="M269.85,331.21c-.54-2.68-4.69-4.57-7.37-5.7a7.69,7.69,0,0,0-2.82-.43h-.06a7.69,7.69,0,0,0-2.82.43c-2.68,1.13-6.83,3-7.37,5.7a6.75,6.75,0,0,0,1.16,4.92,27.27,27.27,0,0,0,9.06-6.76,27.27,27.27,0,0,0,9.06,6.76A6.7,6.7,0,0,0,269.85,331.21Z"/><g class="cls-18"><path d="M239.29,51.73H208.08a2.75,2.75,0,0,0-2.76,2.75V70.92a2.76,2.76,0,0,0,2.76,2.76h4.14v6l6.05-6h21a2.77,2.77,0,0,0,2.76-2.76V54.48A2.76,2.76,0,0,0,239.29,51.73Z"/></g><path class="cls-19" d="M237.53,50H206.32a2.75,2.75,0,0,0-2.76,2.75V69.16a2.76,2.76,0,0,0,2.76,2.76h4.13v6l6.06-6h21a2.76,2.76,0,0,0,2.75-2.76V52.72A2.75,2.75,0,0,0,237.53,50Z"/><circle class="cls-58" cx="322.64" cy="345.14" r="8.91" transform="translate(-81.94 589.13) rotate(-78.02)"/><circle class="cls-58" cx="128.79" cy="318.27" r="6.86" transform="translate(-177.12 162.37) rotate(-40.96)"/><path class="cls-58" d="M157.09,135.33a5.87,5.87,0,1,1-5.87-5.86A5.86,5.86,0,0,1,157.09,135.33Z"/><path class="cls-58" d="M329.64,77.63A5.61,5.61,0,1,1,324,72,5.61,5.61,0,0,1,329.64,77.63Z"/><path class="cls-22" d="M62.41,220.15a5,5,0,1,1-5-5A5,5,0,0,1,62.41,220.15Z"/><path class="cls-22" d="M375.61,273.06a3.49,3.49,0,1,1-3.49-3.48A3.49,3.49,0,0,1,375.61,273.06Z"/><path class="cls-22" d="M325,207.26a2.21,2.21,0,1,1-2.21-2.21A2.21,2.21,0,0,1,325,207.26Z"/><path class="cls-22" d="M332.35,207.26a2.21,2.21,0,1,1-2.2-2.21A2.2,2.2,0,0,1,332.35,207.26Z"/><path class="cls-22" d="M339.67,207.26a2.21,2.21,0,1,1-2.2-2.21A2.2,2.2,0,0,1,339.67,207.26Z"/><path class="cls-22" d="M341.16,327.34a2.21,2.21,0,1,1-2.21-2.21A2.21,2.21,0,0,1,341.16,327.34Z"/><path class="cls-22" d="M348.48,327.34a2.21,2.21,0,1,1-2.21-2.21A2.21,2.21,0,0,1,348.48,327.34Z"/><path class="cls-22" d="M355.79,327.34a2.21,2.21,0,1,1-2.2-2.21A2.2,2.2,0,0,1,355.79,327.34Z"/><path class="cls-22" d="M354.78,91.87a2.21,2.21,0,1,1-2.21-2.21A2.21,2.21,0,0,1,354.78,91.87Z"/><path class="cls-22" d="M362.1,91.87a2.21,2.21,0,1,1-2.21-2.21A2.21,2.21,0,0,1,362.1,91.87Z"/><path class="cls-22" d="M369.42,91.87a2.21,2.21,0,1,1-2.21-2.21A2.21,2.21,0,0,1,369.42,91.87Z"/><path class="cls-22" d="M139.45,360.82a2.21,2.21,0,1,1-2.21-2.21A2.21,2.21,0,0,1,139.45,360.82Z"/><circle class="cls-22" cx="144.56" cy="360.82" r="2.21"/><path class="cls-22" d="M154.09,360.82a2.21,2.21,0,1,1-2.21-2.21A2.21,2.21,0,0,1,154.09,360.82Z"/><path class="cls-22" d="M112.9,180.36a2.21,2.21,0,1,1-2.2-2.21A2.19,2.19,0,0,1,112.9,180.36Z"/><path class="cls-22" d="M120.22,180.36a2.21,2.21,0,1,1-2.21-2.21A2.2,2.2,0,0,1,120.22,180.36Z"/><path class="cls-22" d="M127.54,180.36a2.21,2.21,0,1,1-2.21-2.21A2.2,2.2,0,0,1,127.54,180.36Z"/><line class="cls-58" x1="378.32" y1="146.42" x2="378.32" y2="153.77"/><line class="cls-58" x1="374.65" y1="150.1" x2="381.99" y2="150.1"/><line class="cls-58" x1="256.59" y1="62.95" x2="256.59" y2="68.51"/><line class="cls-58" x1="253.81" y1="65.73" x2="259.37" y2="65.73"/><line class="cls-58" x1="195.38" y1="311.41" x2="195.38" y2="316.97"/><line class="cls-58" x1="192.6" y1="314.19" x2="198.16" y2="314.19"/><line class="cls-58" x1="71.83" y1="319.86" x2="71.83" y2="327.2"/><line class="cls-58" x1="68.15" y1="323.53" x2="75.5" y2="323.53"/><line class="cls-58" x1="280.22" y1="310.43" x2="289.23" y2="310.43"/><line class="cls-58" x1="260.46" y1="314.9" x2="289.23" y2="314.9"/><line class="cls-58" x1="271.84" y1="310.43" x2="275.98" y2="310.43"/><line class="cls-58" x1="267.61" y1="306.12" x2="289.23" y2="306.12"/><line class="cls-58" x1="79.72" y1="144.38" x2="88.74" y2="144.38"/><line class="cls-58" x1="59.97" y1="148.85" x2="88.74" y2="148.85"/><line class="cls-58" x1="71.35" y1="144.38" x2="75.49" y2="144.38"/><line class="cls-58" x1="67.12" y1="140.07" x2="88.74" y2="140.07"/><line class="cls-58" x1="346.95" y1="180.28" x2="355.96" y2="180.28"/><line class="cls-58" x1="327.19" y1="184.75" x2="355.96" y2="184.75"/><line class="cls-58" x1="338.57" y1="180.28" x2="342.72" y2="180.28"/><line class="cls-58" x1="334.34" y1="175.96" x2="355.96" y2="175.96"/><polyline class="cls-58" points="116.19 75.44 119.18 78.43 122.17 75.44"/><line class="cls-58" x1="119.18" y1="78.25" x2="119.18" y2="71.48"/><polyline class="cls-58" points="207.07 378.26 210.06 381.25 213.04 378.26"/><line class="cls-58" x1="210.06" y1="381.08" x2="210.06" y2="374.31"/><polyline class="cls-58" points="309.19 255.59 312.18 258.58 315.17 255.59"/><line class="cls-58" x1="312.18" y1="258.41" x2="312.18" y2="251.64"/><polyline class="cls-58" points="80.46 210.25 77.47 207.26 74.48 210.25"/><line class="cls-58" x1="77.47" y1="207.43" x2="77.47" y2="214.2"/><polyline class="cls-58" points="283.2 115.62 280.21 112.64 277.23 115.62"/><line class="cls-58" x1="280.22" y1="112.81" x2="280.22" y2="119.58"/></g></g></g></g></svg>