<svg xmlns="http://www.w3.org/2000/svg" xmlns:xlink="http://www.w3.org/1999/xlink" width="568.55" height="553.1" viewBox="0 0 568.55 553.1"><defs><style>.cls-1{fill:url(#球1);}.cls-2{fill:url(#球1-2);}.cls-3{fill:url(#球1-3);}.cls-4{fill:url(#球1-4);}.cls-5{fill:url(#球1-5);}.cls-6{fill:url(#球1-6);}.cls-7{fill:url(#球1-7);}</style><radialGradient id="球1" cx="50.93" cy="666.29" r="81.86" gradientTransform="translate(218.88 -613.08) scale(1.32)" gradientUnits="userSpaceOnUse"><stop offset="0" stop-color="#fff"/><stop offset="0.19" stop-color="#fafafa"/><stop offset="0.42" stop-color="#ebebeb"/><stop offset="0.66" stop-color="#d3d3d3"/><stop offset="0.92" stop-color="#b2b2b2"/><stop offset="1" stop-color="#a6a6a6"/></radialGradient><radialGradient id="球1-2" cx="556.44" cy="1732.58" r="81.86" gradientTransform="translate(-1375.64 289.78) rotate(-80) scale(0.88)" xlink:href="#球1"/><radialGradient id="球1-3" cx="422.41" cy="1660.1" r="81.85" gradientTransform="translate(-1434.76 364.38) rotate(-80) scale(0.88)" xlink:href="#球1"/><radialGradient id="球1-4" cx="562.55" cy="1888.27" r="81.86" gradientTransform="translate(-1277.06 302.9) rotate(-80) scale(0.88)" xlink:href="#球1"/><radialGradient id="球1-5" cx="421.7" cy="1946.06" r="81.86" gradientTransform="translate(-1258.91 395.82) rotate(-80) scale(0.88)" xlink:href="#球1"/><radialGradient id="球1-6" cx="304.19" cy="1864.07" r="81.86" gradientTransform="translate(-1322.1 459.22) rotate(-80) scale(0.88)" xlink:href="#球1"/><radialGradient id="球1-7" cx="293.17" cy="1724.53" r="81.86" gradientTransform="translate(-1409.14 450.87) rotate(-80) scale(0.88)" xlink:href="#球1"/></defs><title>promotion</title><g id="レイヤー_2" data-name="レイヤー 2"><g id="デザイン"><path class="cls-1" d="M286.26,376.72A108.31,108.31,0,1,0,178,268.42,108.3,108.3,0,0,0,286.26,376.72Z"/><path class="cls-2" d="M285.92,84.75a72.2,72.2,0,1,0-83.64,58.57A72.2,72.2,0,0,0,285.92,84.75Z"/><path class="cls-3" d="M143.32,264.69a72.2,72.2,0,1,0-83.64,58.57A72.2,72.2,0,0,0,143.32,264.69Z"/><path class="cls-4" d="M520.66,116.4A72.2,72.2,0,1,0,437,175,72.21,72.21,0,0,0,520.66,116.4Z"/><path class="cls-5" d="M567.44,340.51a72.2,72.2,0,1,0-83.64,58.57A72.2,72.2,0,0,0,567.44,340.51Z"/><path class="cls-6" d="M415,493.42A72.2,72.2,0,1,0,331.4,552,72.19,72.19,0,0,0,415,493.42Z"/><path class="cls-7" d="M205.12,473.28a72.21,72.21,0,1,0-83.65,58.57A72.2,72.2,0,0,0,205.12,473.28Z"/><path d="M194.57,261.18v-3.65H212.4a3.17,3.17,0,0,0-.12.93,4.1,4.1,0,0,0,1,2.72ZM200.82,281h-5.23v-3.59h5.26c10,0,13.57-4,13.57-12.16v-3.15a4.34,4.34,0,0,0,2.12.55,3.83,3.83,0,0,0,1.53-.29v2.89C218.07,275.88,212.63,281,200.82,281Zm15.69-19.59a2.93,2.93,0,0,1-2.95-2.93,3,3,0,1,1,5.9,0A2.91,2.91,0,0,1,216.51,261.44Zm0-4.29a1.37,1.37,0,0,0-1.36,1.36,1.38,1.38,0,1,0,2.75,0A1.39,1.39,0,0,0,216.51,257.15Z"/><path d="M222.88,280.36v-23h22.74v23ZM242,260.94H226.53v15.83H242Z"/><path d="M257,270.15v2.28c0,3.47,1.6,5,5.82,5h10.45v3.59H262.76c-7.09,0-9.4-3.25-9.4-8.54v-2.37H249v-3.62h4.4v-5.47H249v-3.62h25v3.62H257v5.47h17v3.62Z"/><path d="M277.73,271.39v-3.88h23.76v3.88Z"/><path d="M312.14,281.06h-7.61v-3.65h7.7c10.5,0,12.82-6.19,12.82-14.64v-2.29h3.64v2.75C328.69,272.87,325.89,281.06,312.14,281.06Zm-7.2-20.2v-3.33h12.18v3.33Zm0,8.1v-3.33h12.18V269Z"/><path d="M331,280.62v-3.07h16.15v-5.23H332.05v-2.87h15.08v-4.86H331v-3.07h19.19v19.1Z"/><path d="M359.4,281.14h-7.55v-3.62h7.24c11.17,0,13.31-6.59,13.31-13.45v-5.93H376v5.93C376,271.25,374.31,281.14,359.4,281.14Zm-7.14-20v-3.65c4.19,0,10,1.25,12.7,2.63v4A33.5,33.5,0,0,0,352.26,261.12Z"/><path d="M186.84,60.26a6.27,6.27,0,0,0-1.27,1.21,51,51,0,0,1-6.77,5.82V79.62a20,20,0,0,0,.14,3.06h-2.52a14.5,14.5,0,0,0,.18-3v-11a45.33,45.33,0,0,1-11.17,5.06,7,7,0,0,0-1.13-1.94,40.58,40.58,0,0,0,15-7.49,24.17,24.17,0,0,0,5.52-5.47Z"/><path d="M187.31,72.67c.72-.32,2.6-2.43,5.9-6.65,1.62-2.2,2.38-2.75,3.68-2.75s1.65.34,3.73,2.66c4,4.51,10.07,10,12.3,11.2l-1.1,2.37-.55-.49c-.14-.15-.9-.75-2-1.74a115.19,115.19,0,0,1-9.8-9.57c-1.91-2.06-2-2.15-2.61-2.15s-.72.15-2,1.86S191,72.3,189.6,73.83a12.86,12.86,0,0,0-.81,1Zm18.52-11.31a22.23,22.23,0,0,1,3,4.48l-1.48.87a22.12,22.12,0,0,0-3-4.6Zm3.24-1.56a22,22,0,0,1,3,4.48l-1.45.84a23,23,0,0,0-2.95-4.54Z"/><path d="M216.25,79.3a25.34,25.34,0,0,0,8.42-2.23c5.59-2.49,9.47-6.74,11.81-12.88a5.81,5.81,0,0,0,1.76,1.71c-2.31,5-5,8.42-8.82,11-3,2-6,3.22-10.79,4.32a14.23,14.23,0,0,0-1.74.46Zm1.85-17.94a37.71,37.71,0,0,1,7,5.44l-1.51,1.79a31.81,31.81,0,0,0-6.88-5.67Z"/><path d="M245.11,82.71a19.36,19.36,0,0,0,.17-3v-18a18,18,0,0,0-.17-3h2.49a17.59,17.59,0,0,0-.15,3v5.41a72.67,72.67,0,0,1,12.88,6.11l-1.25,2.14a59.05,59.05,0,0,0-10.79-5.73,3.24,3.24,0,0,1-.9-.49l0,0a10.91,10.91,0,0,1,.11,1.71v8.71a18.89,18.89,0,0,0,.15,3.06Z"/><path d="M432.84,92a6.93,6.93,0,0,0-.17-1.86h2.23a6.8,6.8,0,0,0-.17,1.89v1.67h7.84a19.65,19.65,0,0,0,3.12-.17v2a18.83,18.83,0,0,0-3.12-.15h-18c0,6.71-.29,10.36-.93,13.69a20.31,20.31,0,0,1-2.57,6.8,7.13,7.13,0,0,0-1.6-1.39,17.15,17.15,0,0,0,2.23-5.27,56,56,0,0,0,1-12.06,34.29,34.29,0,0,0-.12-3.62,23.17,23.17,0,0,0,2.9.14h7.37Zm-8.68,20.77a4.69,4.69,0,0,0,.93.06c.52,0,1.59,0,2.29-.09a61.73,61.73,0,0,0,5.49-15.85l2.29.58c-.2.55-.32.89-.58,1.76a85.35,85.35,0,0,1-5.12,13.4c3.12-.29,5.15-.49,6.13-.61,2.49-.29,3.65-.46,5.62-.84a49.35,49.35,0,0,0-4.55-6.28l1.6-1A59.33,59.33,0,0,1,445.49,115l-1.71,1.13a32.62,32.62,0,0,0-1.68-3.44,123.07,123.07,0,0,1-16.26,2.08,8.67,8.67,0,0,0-1.24.14Z"/><path d="M454.76,95.91a18.13,18.13,0,0,1-3.51,3.91,3.65,3.65,0,0,0-1.44-1.24,14.34,14.34,0,0,0,4.74-5.85,14,14,0,0,0,.87-2.37l1.91.66c-.23.44-.23.44-.58,1.19-.46,1-.69,1.47-1,2.05h5.5v-1.5a12.89,12.89,0,0,0-.18-2.72h2.2a14.74,14.74,0,0,0-.2,2.78v1.44h6.13a19.28,19.28,0,0,0,3-.17v2a19.18,19.18,0,0,0-2.93-.18h-6.16v5h8.51a21.27,21.27,0,0,0,3-.17v2a22.85,22.85,0,0,0-3-.17H452.24a24.56,24.56,0,0,0-2.95.17v-2a22.31,22.31,0,0,0,2.92.17h9.06v-5Zm-2,20.2a21.41,21.41,0,0,0,.17-3V108a19.75,19.75,0,0,0-.11-2.46,25.35,25.35,0,0,0,2.86.12h12.44a25.19,25.19,0,0,0,2.84-.12,18.14,18.14,0,0,0-.12,2.46v5.24a18.5,18.5,0,0,0,.18,2.92h-2v-1.42H454.81v1.42Zm2-3.1H469v-5.75H454.81Z"/><path d="M470.86,316.65c0-1.1,0-1.88-.08-2.69a22.78,22.78,0,0,0,2.37.09h2.72a22.92,22.92,0,0,0,2.4-.09c-.06.67-.09,1.39-.09,2.63v16.06a19.82,19.82,0,0,0,.12,2.46h-1.85v-1.47H472.6v2.69h-1.88c.08-.84.14-1.77.14-3.07Zm1.74,6.2h3.88v-7.18H472.6Zm0,9.17h3.88v-7.61H472.6Zm15.91-4.78a16.87,16.87,0,0,0,8.28,9.18,5.14,5.14,0,0,0-1.16,1.76A19.33,19.33,0,0,1,487.24,328c-1.3,4.8-3.73,7.72-8.62,10.21a5.68,5.68,0,0,0-1.25-1.59c4.58-2,7.24-4.95,8.31-9.35h-4.2a22.5,22.5,0,0,0-2.69.12v-1.85a10.91,10.91,0,0,0,1.51.08v-6.71c0-.92,0-1.59-.09-2.23a21.32,21.32,0,0,0,2.23.09h4v-1.59a17,17,0,0,0-.2-3h2.14a17.94,17.94,0,0,0-.2,3v1.53h4.48a15.22,15.22,0,0,0,1.94-.09,21.58,21.58,0,0,0-.08,2.23v6.74a12,12,0,0,0,1.88-.14v1.91a27.56,27.56,0,0,0-3-.15ZM486,325.62a48.7,48.7,0,0,0,.43-7v-.26H482v7.29Zm6.74,0v-7.29h-4.57v.38a47.87,47.87,0,0,1-.41,6.91Z"/><path d="M501.63,326.17c0-1.41,0-2.51.11-4.25a21.84,21.84,0,0,1-2.57,4,9.23,9.23,0,0,1-.49-.84,2.45,2.45,0,0,0-.64-.78,27.33,27.33,0,0,0,5-8.56,17.52,17.52,0,0,0,1-3.76l2,.52c-.17.43-.29.75-.58,1.59a42.88,42.88,0,0,1-2.17,5.26v15.37c0,1.71,0,2.66.12,3.59h-2.06a28.12,28.12,0,0,0,.18-3.56Zm5.41-6.42L505.51,321a4.44,4.44,0,0,0-1.13-1.21,20.84,20.84,0,0,0,5-4.46,10.62,10.62,0,0,0,2-3.38l2,.43c-.32.46-.32.46-.81,1.27a3.78,3.78,0,0,1-.29.47h4.16a21.18,21.18,0,0,0,2.26-.09l1,.87a7.92,7.92,0,0,0-.78.95,25,25,0,0,1-2.05,2.29h4.6a20.92,20.92,0,0,0,2.26-.09,19.55,19.55,0,0,0-.09,2.14V322a18.77,18.77,0,0,0,.06,2.17,21.45,21.45,0,0,0-2.23-.09h-3.85a18.69,18.69,0,0,0,1.39,3.76,14.79,14.79,0,0,0,4.19-3.44l1.48,1.21a27.71,27.71,0,0,1-5,3.59,15.21,15.21,0,0,0,5.88,5.79,13.47,13.47,0,0,0-1.07,1.68,19.29,19.29,0,0,1-6-6.48,22.79,22.79,0,0,1-2.43-6.11H514.8c-.73.61-.9.75-1.39,1.13a11.36,11.36,0,0,1,2.43,3.12,13.08,13.08,0,0,1,1.5,5.94,4.13,4.13,0,0,1-1,3.15c-.5.43-1.25.61-2.75.61a19.14,19.14,0,0,1-2.11-.12,7.92,7.92,0,0,0-.5-1.7,14.64,14.64,0,0,0,2.67.26c1.59,0,1.93-.44,1.93-2.38a12.48,12.48,0,0,0-.14-2,32.88,32.88,0,0,1-10,5.41,4.39,4.39,0,0,0-1-1.53,31.61,31.61,0,0,0,10.68-5.36,9.34,9.34,0,0,0-.81-1.85,33.18,33.18,0,0,1-9,4.4,6.64,6.64,0,0,0-.93-1.45,27.79,27.79,0,0,0,9.12-4.14,9.47,9.47,0,0,0-1.36-1.5,25,25,0,0,1-6.77,2.92,5.9,5.9,0,0,0-.87-1.42,20.28,20.28,0,0,0,8.07-3.47h-3.44c-.78,0-1.53,0-2.26.09.06-.61.09-1.33.09-2.09Zm1.65,2.95h5.41v-3.21h-5.41Zm6.19-4.57a13.32,13.32,0,0,0,2.23-2.61h-5.85a27.87,27.87,0,0,1-2.34,2.61Zm.87,4.57H522v-3.21h-6.22Z"/><path d="M56.5,263.76a17.71,17.71,0,0,0-.57-2.17l-2.84-8.42c-.06-.15-.2-.76-.49-1.83-.23.81-.47,1.6-.55,1.89l-2.81,8.36a17,17,0,0,0-.61,2.17h-2a21.65,21.65,0,0,0-.64-2.2l-3.1-10c-.34-1.07-.81-2.43-1.15-3.42h2.66a13.11,13.11,0,0,0,.67,3.16l2.11,7.2c.14.49.32,1.1.52,2.11.17-.66.52-1.82.61-2.08L51,250.36a10.35,10.35,0,0,0,.57-2.2h1.94a16.31,16.31,0,0,0,.58,2.2l2.78,8.33c.09.26.26.9.38,1.31s.11.43.17.63c.26-1.13.4-1.79.46-2l2.17-7.35a14.79,14.79,0,0,0,.64-3.16h2.63c-.23.61-.61,1.77-1.13,3.42l-3.12,10a17.37,17.37,0,0,0-.61,2.17Z"/><path d="M67.22,256.29a6.51,6.51,0,0,0,1.15,4,4.84,4.84,0,0,0,4.08,2,4.74,4.74,0,0,0,4.78-3.38l2,.81a6.94,6.94,0,0,1-1.59,2.4,7.22,7.22,0,0,1-5.24,2c-4.54,0-7.4-3.18-7.4-8.19s2.83-8.19,7.17-8.19c3.74,0,6.43,2.41,7,6.28,0,.32.14,1.45.2,2.23Zm9.86-1.82a5.25,5.25,0,0,0-1.53-3.56,4.7,4.7,0,0,0-3.42-1.3,4.52,4.52,0,0,0-4.1,2.52,6,6,0,0,0-.73,2.34Z"/><path d="M82.76,263.76a23.54,23.54,0,0,0,.2-3.33V245a24.55,24.55,0,0,0-.2-3.27H85.3a22.76,22.76,0,0,0-.2,3.29V249A17.54,17.54,0,0,1,85,251a6.56,6.56,0,0,1,6-3.19c4.45,0,7.11,3,7.11,8s-2.71,8.16-7.23,8.16a6.52,6.52,0,0,1-4.48-1.56A5.32,5.32,0,0,1,85,261c.05.55.08.78.08,1.16v1.62Zm8-14.07c-3.41,0-5.67,2.49-5.67,6.2s2.26,6.28,5.59,6.28,5.15-2.35,5.15-6.31S94,249.69,90.77,249.69Z"/><path d="M96.28,458.32c-.34,7.5-2.78,11-9.31,13.58A5.21,5.21,0,0,0,85.61,470c6-2,8.24-5.09,8.47-11.69H86.24a22,22,0,0,0-3.33.15v-2.14a19.88,19.88,0,0,0,3.36.17H103.2a19.66,19.66,0,0,0,3.36-.17v2.14a22,22,0,0,0-3.33-.15Zm-10.44-9.17a15.18,15.18,0,0,0,3.32.2H97.9a27.35,27.35,0,0,0,3.33-.14v2.08c-.37,0-1.47-.06-3.3-.08H89.14a19.84,19.84,0,0,0-3.3.14Zm17-2.43a22.15,22.15,0,0,1,2.84,4.57l-1.48.81a22,22,0,0,0-2.8-4.69Zm3.56-1.1a24,24,0,0,1,2.84,4.57l-1.48.81a22.68,22.68,0,0,0-2.8-4.66Z"/><path d="M126.9,454.16v-2.84a22,22,0,0,0-.08-2.95h2.25a24.5,24.5,0,0,0-.11,2.75v3h2.49a19,19,0,0,0,3.38-.18v2.2a24.15,24.15,0,0,0-3.35-.14h-2.55c0,5.58-.35,7.72-1.42,9.81-1.56,2.89-4.16,4.92-8.07,6.25a5.36,5.36,0,0,0-1.3-1.83c3.79-.95,6.71-3.21,7.87-6.13.63-1.74.81-3.47.87-8.1h-8.8v4.83a16.24,16.24,0,0,0,.11,2.34h-2.34a13.31,13.31,0,0,0,.12-2.43V456h-2.43a24.23,24.23,0,0,0-3.36.14V454a19,19,0,0,0,3.38.18H116V450.8a13.68,13.68,0,0,0-.12-2.43h2.34a16.51,16.51,0,0,0-.11,2.34v3.45Zm4.81-7.61a23.11,23.11,0,0,1,2,4.74l-1.53.52a22.62,22.62,0,0,0-2.06-4.83Zm3.33-1a22.89,22.89,0,0,1,2.05,4.72l-1.5.52a23.32,23.32,0,0,0-2-4.75Z"/><path d="M159,449.38a6.7,6.7,0,0,0-1.27,1.22,51.61,51.61,0,0,1-6.77,5.81v12.33a18.89,18.89,0,0,0,.14,3.07h-2.52a14.56,14.56,0,0,0,.18-3v-11a45.33,45.33,0,0,1-11.17,5.07,6.69,6.69,0,0,0-1.13-1.94,40.83,40.83,0,0,0,15-7.5A24.17,24.17,0,0,0,157,448Z"/><path d="M163.35,468.42a24.93,24.93,0,0,0,8.42-2.23c5.58-2.48,9.46-6.74,11.8-12.87a6,6,0,0,0,1.77,1.71c-2.32,5-5,8.42-8.83,11.05-3,2-6,3.21-10.79,4.31a15.26,15.26,0,0,0-1.74.46Zm1.85-17.94a37.71,37.71,0,0,1,7,5.44l-1.5,1.8a32,32,0,0,0-6.89-5.68Z"/><path d="M317.29,488.4c0,.49,0,.61,0,1.68h-2.08a17,17,0,0,0,.2-3.1V471.61a20.14,20.14,0,0,0-.08-2.19c4.31-.79,7.46-1.86,9.31-3.13l1.39,1.62a39.8,39.8,0,0,1-8.77,2.89v5.47H323a14.28,14.28,0,0,0,2.45-.14v2A14.16,14.16,0,0,0,323,478h-5.7v7.38h5.88a13,13,0,0,0,2.43-.15v2a13.31,13.31,0,0,0-2.43-.15h-5.88Zm10.39-18.2c0-1.25,0-1.8-.08-2.52a21,21,0,0,0,2.63.11h6.25a20.49,20.49,0,0,0,2.6-.11,16.23,16.23,0,0,0-.14,2.55v15.51c0,1.93-.64,2.46-3,2.46-.7,0-1.91-.06-3-.18a5.4,5.4,0,0,0-.46-2,19.89,19.89,0,0,0,3.47.32c.92,0,1.1-.14,1.1-.95V469.5h-7.47v19.16a23,23,0,0,0,.18,3.35h-2.23c.08-.78.14-2,.14-3.32Z"/><path d="M347,474.28a66.58,66.58,0,0,1-.75,9,22,22,0,0,1-2.41,7.24,8.33,8.33,0,0,0-1.41-1.51,17.05,17.05,0,0,0,2.05-6,74.23,74.23,0,0,0,.78-12.79,24.84,24.84,0,0,0-.14-3,31.64,31.64,0,0,0,3.24.11h7.12c1.1,0,1.56,0,2.86-.11a16.3,16.3,0,0,0-.11,2.31v2.64a12.83,12.83,0,0,0,.11,2.28,26.41,26.41,0,0,0-2.72-.11Zm.06-1.59h9.43v-3.82h-9.43Zm2.43,6.94v7a24,24,0,0,0,.08,2.9h-1.88a25.63,25.63,0,0,0,.15-2.93V480.5c0-1.39,0-1.83-.09-2.61a19.93,19.93,0,0,0,2.55.12h1.91v-.38a15,15,0,0,0-.18-2.43h2a12.79,12.79,0,0,0-.15,2.43V478h2a18.94,18.94,0,0,0,2.52-.12c-.06.64-.09,1.33-.09,2.58v6.94c0,1.39-.49,1.77-2.31,1.77l-1.1,0a6.2,6.2,0,0,0-.23-1.65,7,7,0,0,0,1.38.12c.47,0,.61-.12.61-.47v-7.52H353.9v9.29a19.29,19.29,0,0,0,.15,3.12h-2a20.61,20.61,0,0,0,.18-3.09v-9.32ZM362.64,468a21.4,21.4,0,0,0-.14,3.15v11a19.59,19.59,0,0,0,.12,3.24h-2a21.64,21.64,0,0,0,.14-3.24v-11a20.86,20.86,0,0,0-.17-3.15Zm5.62-1.8a20.3,20.3,0,0,0-.18,3.51V489c0,2.11-.57,2.57-3.27,2.57-.6,0-1.5-.06-2.57-.14a5.54,5.54,0,0,0-.55-1.85,19,19,0,0,0,3.41.28c.93,0,1.16-.17,1.16-.86V469.65a23.9,23.9,0,0,0-.2-3.48Z"/></g></g></svg>