<svg xmlns="http://www.w3.org/2000/svg" width="1200" height="156.91" viewBox="0 0 1200 156.91"><defs><style>.cls-1{fill:#060202;}.cls-2{fill:#0b110b;}.cls-3{fill:#131a13;}.cls-4{fill:#1a241b;}.cls-5{fill:#202c23;}.cls-6{fill:#29352b;}.cls-7{fill:#2e3e33;}.cls-8{fill:#364639;}.cls-9{fill:#3c4c3f;}.cls-10{fill:#405345;}.cls-11{fill:#45584a;}.cls-12{fill:#4b5e4f;}.cls-13{fill:#4c6152;}.cls-14{fill:#4e6454;}.cls-15{fill:#516656;}.cls-16{fill:#4f6555;}.cls-17{fill:#4d6353;}.cls-18{fill:#4b6051;}.cls-19{fill:#485c4e;}.cls-20{fill:#445649;}.cls-21{fill:#3e5042;}.cls-22{fill:#3a4a3d;}.cls-23{fill:#334236;}.cls-24{fill:#2c3a2f;}.cls-25{fill:#253127;}.cls-26{fill:#1e2920;}.cls-27{fill:#171f18;}.cls-28{fill:#0f1710;}.cls-29{fill:#090b06;}.cls-30{fill:#050001;}.cls-31{fill:#040000;}.cls-32{fill:#050201;}.cls-33{fill:#0a100a;}.cls-34{fill:#141c16;}.cls-35{fill:#1d281f;}.cls-36{fill:#263329;}.cls-37{fill:#324134;}.cls-38{fill:#3d4e42;}.cls-39{fill:#546b5b;}.cls-40{fill:#617c6b;}.cls-41{fill:#6f8b7b;}.cls-42{fill:#7d9e8a;}.cls-43{fill:#87b09c;}.cls-44{fill:#95c3b0;}.cls-45{fill:#a1cebb;}.cls-46{fill:#a7d0bf;}.cls-47{fill:#aed4c2;}.cls-48{fill:#b3d8c8;}.cls-49{fill:#b9d9cb;}.cls-50{fill:#beddcf;}.cls-51{fill:#c4dfd4;}.cls-52{fill:#c8e2d7;}.cls-53{fill:#cfe5da;}.cls-54{fill:#d3e8df;}.cls-55{fill:#d7e9e1;}.cls-56{fill:#090f09;}.cls-57{fill:#111913;}.cls-58{fill:#1a241c;}.cls-59{fill:#232f25;}.cls-60{fill:#2d3b30;}.cls-61{fill:#36483a;}.cls-62{fill:#415547;}.cls-63{fill:#597261;}.cls-64{fill:#658070;}.cls-65{fill:#72907e;}.cls-66{fill:#7da28e;}.cls-67{fill:#8bb5a2;}.cls-68{fill:#99c8b4;}.cls-69{fill:#aad2c1;}.cls-70{fill:#afd5c3;}.cls-71{fill:#b5d8c9;}.cls-72{fill:#bbdbcd;}.cls-73{fill:#bfddcf;}.cls-74{fill:#c5e0d4;}.cls-75{fill:#cae3d8;}.cls-76{fill:#d8ebe3;}.cls-77{fill:#daebe4;}.cls-78{fill:#deece4;}.cls-79{fill:#e2efeb;}.cls-80{fill:#e6f1ec;}.cls-81{fill:#e8f2ee;}.cls-82{fill:#edf3f0;}.cls-83{fill:#eef5f1;}.cls-84{fill:#f0f6f3;}.cls-85{fill:#f3f7f6;}.cls-86{fill:#f7f9f8;}.cls-87{fill:#f8fbf9;}.cls-88{fill:#fafbfb;}.cls-89{fill:#fcfcfc;}.cls-90{fill:#fbfcfd;}.cls-91{fill:#fcfdff;}.cls-92{fill:#fcfdfd;}.cls-93{fill:#f5f8f8;}.cls-94{fill:#f2f6f4;}.cls-95{fill:#eff5f2;}.cls-96{fill:#ecf4f1;}.cls-97{fill:#e9f3ee;}.cls-98{fill:#e8f2ec;}.cls-99{fill:#e3efe9;}.cls-100{fill:#dfeee8;}.cls-101{fill:#9dccba;}.cls-102{fill:#1c180e;}.cls-103{fill:#e4d39a;}.cls-104{fill:#fff;}.cls-105{fill:#1d1615;}.cls-106{fill:none;}</style></defs><title>snoopy</title><g id="レイヤー_2" data-name="レイヤー 2"><g id="デザイン"><path class="cls-1" d="M1196,80.35c0,.26,0,.53,0,.8l4-.17c0-.33,0-.65,0-1Z"/><path class="cls-2" d="M1196,81.15c0,.27,0,.53-.06.8h4c0-.32.06-.65.08-1Z"/><path class="cls-3" d="M1195.91,82c0,.26-.06.52-.1.78l3.94.2c.06-.32.1-.65.14-1Z"/><path class="cls-4" d="M1195.81,82.73c0,.26-.09.51-.14.77l3.89.39c.07-.32.13-.64.19-1Z"/><path class="cls-5" d="M1195.67,83.5c-.05.25-.11.5-.18.76l3.83.58c.09-.31.17-.63.24-1Z"/><path class="cls-6" d="M1195.49,84.26c-.06.25-.13.49-.21.74l3.75.78c.1-.31.2-.62.29-.94Z"/><path class="cls-7" d="M1195.28,85l-.24.73,3.65,1c.12-.3.23-.61.34-.92Z"/><path class="cls-8" d="M1195,85.73c-.09.24-.19.48-.29.71l3.56,1.17c.13-.3.26-.6.38-.91Z"/><path class="cls-9" d="M1194.75,86.44c-.1.23-.2.47-.31.69l3.44,1.37c.15-.29.3-.59.43-.89Z"/><path class="cls-10" d="M1194.44,87.13c-.11.23-.23.45-.35.68l3.32,1.56c.16-.28.32-.57.47-.87Z"/><path class="cls-11" d="M1194.09,87.81c-.12.22-.25.44-.38.66l3.19,1.75c.18-.28.35-.56.51-.85Z"/><path class="cls-12" d="M1193.71,88.47c-.13.21-.27.43-.41.63l3,2c.19-.27.38-.55.55-.83Z"/><path class="cls-13" d="M1193.3,89.1l-.43.62,2.9,2.13c.2-.26.39-.53.58-.8Z"/><path class="cls-14" d="M1192.87,89.72c-.16.2-.31.4-.47.59l2.74,2.32c.22-.25.42-.51.63-.78Z"/><path class="cls-15" d="M1192.4,90.31l-.5.57s-.34.37-.52.54l2.42,2.68.69-.72.65-.75Z"/><path class="cls-16" d="M1191.38,91.42c-.18.19-.36.36-.54.53l2.24,2.83c.24-.22.49-.45.72-.68Z"/><path class="cls-17" d="M1190.84,92l-.57.49,2.06,3c.25-.21.51-.43.75-.66Z"/><path class="cls-18" d="M1190.27,92.44l-.6.47,1.89,3.15c.25-.19.51-.4.77-.62Z"/><path class="cls-19" d="M1189.67,92.91c-.2.15-.4.3-.61.43l1.69,3.31c.27-.19.54-.38.81-.59Z"/><path class="cls-20" d="M1189.06,93.34c-.21.15-.42.29-.64.42l1.51,3.44.82-.55Z"/><path class="cls-21" d="M1188.42,93.76l-.66.38,1.31,3.57c.29-.16.57-.33.86-.51Z"/><path class="cls-22" d="M1187.76,94.14l-.67.34,1.11,3.7c.3-.15.59-.31.87-.47Z"/><path class="cls-23" d="M1187.09,94.48l-.7.32.92,3.81.89-.43Z"/><path class="cls-24" d="M1186.39,94.8l-.71.28.73,3.91.9-.38Z"/><path class="cls-25" d="M1185.68,95.08c-.24.09-.48.17-.73.24l.53,4c.32-.1.62-.21.93-.33Z"/><path class="cls-26" d="M1185,95.32c-.24.08-.49.16-.74.22l.34,4.07c.31-.08.62-.18.93-.29Z"/><path class="cls-27" d="M1184.21,95.54l-.76.17.14,4.15c.32-.08.64-.15,1-.25Z"/><path class="cls-28" d="M1183.45,95.71c-.25.06-.51.1-.77.14l0,4.2,1-.19Z"/><path class="cls-29" d="M1182.68,95.85c-.26,0-.52.08-.78.1l-.24,4.23c.33,0,.65-.08,1-.13Z"/><path class="cls-30" d="M1181.9,96l-.79.07-.43,4.25c.33,0,.66,0,1-.09Z"/><path class="cls-31" d="M1181.11,96h-.81l-.6,4.27c.33,0,.66,0,1,0Z"/><polygon class="cls-30" points="1195.99 74.84 1195.99 80.35 1200 80 1200 74.85 1195.99 74.84"/><path class="cls-31" d="M1196,74.84c0-.27,0-.53,0-.8l4-.18q0,.49,0,1Z"/><path class="cls-31" d="M1196,74c0-.27,0-.53-.06-.79l4-.37c0,.33.06.65.08,1Z"/><path class="cls-31" d="M1195.91,73.25c0-.27-.06-.53-.1-.79l3.94-.55c.06.32.1.65.14,1Z"/><path class="cls-31" d="M1195.81,72.46c0-.26-.09-.51-.14-.77l3.89-.74c.07.32.13.64.19,1Z"/><path class="cls-31" d="M1195.67,71.69c-.05-.25-.11-.51-.18-.76l3.83-.93c.09.32.17.63.24,1Z"/><path class="cls-31" d="M1195.49,70.93c-.06-.24-.13-.49-.21-.74l3.75-1.13c.1.31.2.62.29.94Z"/><path class="cls-31" d="M1195.28,70.19l-.24-.73,3.65-1.32c.12.3.23.61.34.92Z"/><path class="cls-32" d="M1195,69.46l-.29-.71,3.56-1.52c.13.3.26.6.38.91Z"/><path class="cls-33" d="M1194.75,68.75c-.1-.23-.2-.46-.31-.69l3.44-1.72c.15.29.3.59.43.89Z"/><path class="cls-34" d="M1194.44,68.06c-.11-.23-.23-.46-.35-.68l3.32-1.91c.16.29.32.58.47.87Z"/><path class="cls-35" d="M1194.09,67.38c-.12-.22-.25-.44-.38-.65l3.19-2.11c.18.28.35.56.51.85Z"/><path class="cls-36" d="M1193.71,66.73c-.13-.22-.27-.43-.41-.64l3-2.3c.19.27.38.55.55.83Z"/><path class="cls-37" d="M1193.3,66.09l-.43-.62,2.9-2.48c.2.26.39.53.58.8Z"/><path class="cls-38" d="M1192.87,65.47c-.16-.2-.31-.4-.47-.59l2.74-2.67c.22.26.42.52.63.78Z"/><path class="cls-19" d="M1192.4,64.88l-.5-.57,2.59-2.85.65.75Z"/><path class="cls-39" d="M1191.9,64.31c-.17-.19-.34-.37-.52-.55l2.42-3,.69.71Z"/><path class="cls-40" d="M1191.38,63.76c-.18-.17-.36-.35-.54-.51l2.24-3.2c.24.23.49.46.72.7Z"/><path class="cls-41" d="M1190.84,63.25l-.57-.5,2.06-3.35c.25.21.51.43.75.65Z"/><path class="cls-42" d="M1190.27,62.75l-.6-.47,1.89-3.5.77.62Z"/><path class="cls-43" d="M1189.67,62.28l-.61-.44,1.69-3.65.81.59Z"/><path class="cls-44" d="M1189.06,61.84l-.64-.41,1.51-3.79.82.55Z"/><path class="cls-45" d="M1188.42,61.43l-.66-.37,1.31-3.93.86.51Z"/><path class="cls-46" d="M1187.76,61.06c-.22-.12-.44-.24-.67-.35l1.11-4.05c.3.15.59.31.87.47Z"/><path class="cls-47" d="M1187.09,60.71l-.7-.32.92-4.15c.31.13.6.27.89.42Z"/><path class="cls-48" d="M1186.39,60.39l-.71-.28.73-4.26c.3.12.61.25.9.39Z"/><path class="cls-49" d="M1185.68,60.11l-.73-.25.53-4.35.93.34Z"/><path class="cls-50" d="M1185,59.86l-.74-.21.34-4.43.93.29Z"/><path class="cls-51" d="M1184.21,59.65l-.76-.17.14-4.49,1,.23Z"/><path class="cls-52" d="M1183.45,59.48c-.25-.06-.51-.1-.77-.14l0-4.54c.32.05.64.11,1,.19Z"/><path class="cls-53" d="M1182.68,59.34c-.26,0-.52-.08-.78-.1l-.24-4.58c.33,0,.65.08,1,.14Z"/><path class="cls-54" d="M1181.9,59.24c-.26,0-.53-.05-.79-.06l-.43-4.61c.33,0,.66,0,1,.09Z"/><path class="cls-55" d="M1181.11,59.18q-.4,0-.81,0l-.6-4.6c.33,0,.66,0,1,0Z"/><polygon class="cls-31" points="1180.3 96.03 90.39 96.03 90.55 100.3 1179.7 100.3 1180.3 96.03"/><path class="cls-31" d="M90.39,96h-.8l0,4.25q.5,0,1,0Z"/><path class="cls-31" d="M89.59,96l-.8-.07-.2,4.23c.32,0,.65.07,1,.09Z"/><path class="cls-31" d="M88.79,96c-.26,0-.52-.06-.78-.1l-.4,4.2c.33,0,.65.1,1,.13Z"/><path class="cls-31" d="M88,95.85c-.26,0-.52-.08-.77-.14l-.59,4.15,1,.19Z"/><path class="cls-31" d="M87.24,95.71l-.76-.17-.78,4.07c.32.1.63.17,1,.25Z"/><path class="cls-31" d="M86.48,95.54c-.25-.06-.5-.14-.74-.22l-1,4c.32.11.63.21.94.29Z"/><path class="cls-32" d="M85.74,95.32c-.25-.07-.49-.15-.73-.24L83.84,99c.31.12.61.23.92.33Z"/><path class="cls-56" d="M85,95.08l-.71-.28-1.37,3.81.91.38Z"/><path class="cls-57" d="M84.3,94.8l-.7-.32-1.55,3.7.88.43Z"/><path class="cls-58" d="M83.6,94.48l-.67-.34-1.76,3.57c.29.16.58.32.88.47Z"/><path class="cls-59" d="M82.93,94.14l-.66-.38-2,3.44.85.51Z"/><path class="cls-60" d="M82.27,93.76c-.22-.13-.43-.27-.64-.42L79.5,96.65l.82.55Z"/><path class="cls-61" d="M81.63,93.34c-.21-.13-.41-.28-.61-.43l-2.33,3.15c.27.21.54.4.81.59Z"/><path class="cls-62" d="M81,92.91l-.6-.47-2.5,3c.25.22.51.43.77.62Z"/><path class="cls-17" d="M80.42,92.44,79.85,92l-2.68,2.83q.36.34.75.66Z"/><path class="cls-63" d="M79.85,92c-.18-.17-.36-.34-.54-.53L76.45,94.1c.23.23.48.46.72.68Z"/><path class="cls-64" d="M79.31,91.42c-.18-.17-.35-.35-.52-.54l-3,2.5q.33.36.69.72Z"/><path class="cls-65" d="M78.79,90.88l-.49-.57-3.2,2.32c.22.25.43.5.66.75Z"/><path class="cls-66" d="M78.3,90.31c-.16-.19-.32-.39-.47-.59l-3.35,2.13c.2.27.41.53.62.78Z"/><path class="cls-67" d="M77.83,89.72c-.15-.2-.3-.41-.44-.62l-3.5,2c.19.27.39.54.59.8Z"/><path class="cls-68" d="M77.39,89.1c-.14-.2-.28-.42-.41-.63l-3.63,1.75c.17.28.35.56.54.83Z"/><path class="cls-45" d="M77,88.47c-.13-.22-.26-.44-.38-.66l-3.77,1.56c.17.29.34.57.52.85Z"/><path class="cls-69" d="M76.6,87.81c-.12-.23-.24-.45-.34-.68l-3.9,1.37c.15.3.31.59.47.87Z"/><path class="cls-70" d="M76.26,87.13c-.12-.22-.22-.46-.32-.69l-4,1.17c.13.3.28.6.42.89Z"/><path class="cls-71" d="M75.94,86.44c-.1-.23-.19-.47-.29-.71l-4.09,1c.12.31.25.61.38.91Z"/><path class="cls-72" d="M75.65,85.73,75.41,85l-4.19.78c.11.31.22.62.34.92Z"/><path class="cls-73" d="M75.41,85c-.08-.25-.15-.49-.21-.74l-4.27.58c.09.32.18.63.29.94Z"/><path class="cls-74" d="M75.2,84.26c-.07-.26-.13-.51-.18-.76l-4.33.39c.07.32.15.64.24,1Z"/><path class="cls-75" d="M75,83.5c0-.26-.1-.51-.14-.77l-4.38.2c0,.32.12.64.19,1Z"/><path class="cls-53" d="M74.88,82.73c0-.26-.07-.52-.1-.78H70.36c0,.32.08.65.14,1Z"/><path class="cls-54" d="M74.78,82c0-.27,0-.53-.06-.8L70.28,81c0,.33,0,.66.08,1Z"/><path class="cls-76" d="M74.72,81.15c0-.27,0-.54,0-.8L70.25,80c0,.33,0,.65,0,1Z"/><polygon class="cls-77" points="74.7 80.35 74.7 74.84 70.25 74.85 70.25 80 74.7 80.35"/><polygon class="cls-78" points="90.39 59.16 1180.3 59.16 1179.7 54.55 90.55 54.55 90.39 59.16"/><path class="cls-78" d="M74.7,74.84c0-.27,0-.53,0-.8l-4.44-.18q0,.49,0,1Z"/><path class="cls-79" d="M74.72,74c0-.27,0-.53.06-.79l-4.42-.37c0,.33-.06.65-.08,1Z"/><path class="cls-80" d="M74.78,73.25c0-.27.06-.53.1-.79l-4.38-.55c-.06.32-.1.65-.14,1Z"/><path class="cls-81" d="M74.88,72.46c0-.26.09-.51.14-.77L70.69,71c-.07.32-.14.64-.19,1Z"/><path class="cls-82" d="M75,71.69c0-.25.11-.51.18-.76L70.93,70c-.09.32-.17.63-.24,1Z"/><path class="cls-83" d="M75.2,70.93c.06-.24.13-.49.21-.74l-4.19-1.13c-.11.31-.2.62-.29.94Z"/><path class="cls-84" d="M75.41,70.19l.24-.73-4.09-1.32c-.12.3-.23.61-.34.92Z"/><path class="cls-85" d="M75.65,69.46c.1-.23.19-.47.29-.71l-4-1.52c-.13.3-.26.6-.38.91Z"/><path class="cls-86" d="M75.94,68.75c.1-.23.2-.46.32-.69l-3.9-1.72c-.14.29-.29.59-.42.89Z"/><path class="cls-87" d="M76.26,68.06c.1-.23.22-.46.34-.68l-3.77-1.91c-.16.29-.32.58-.47.87Z"/><path class="cls-88" d="M76.6,67.38c.12-.22.25-.44.38-.65l-3.63-2.11c-.18.28-.35.56-.52.85Z"/><path class="cls-89" d="M77,66.73c.13-.22.27-.43.41-.64l-3.5-2.3c-.19.27-.37.55-.54.83Z"/><path class="cls-89" d="M77.39,66.09c.14-.21.29-.41.44-.62L74.48,63c-.2.26-.4.53-.59.8Z"/><path class="cls-90" d="M77.83,65.47c.15-.2.31-.4.47-.59l-3.2-2.67-.62.78Z"/><path class="cls-91" d="M78.3,64.88l.49-.57-3-2.85c-.23.25-.44.5-.66.75Z"/><path class="cls-91" d="M78.79,64.31c.17-.19.34-.37.52-.55l.54-.51-2.68-3.2-.72.7c-.24.23-.47.47-.69.71Z"/><path class="cls-91" d="M79.85,63.25l.57-.5-2.5-3.35c-.26.21-.51.43-.75.65Z"/><path class="cls-90" d="M80.42,62.75l.6-.47-2.33-3.5-.77.62Z"/><path class="cls-92" d="M81,62.28l.61-.44L79.5,58.19l-.81.59Z"/><path class="cls-89" d="M81.63,61.84l.64-.41-2-3.79-.82.55Z"/><path class="cls-88" d="M82.27,61.43l.66-.37-1.76-3.93c-.28.17-.57.33-.85.51Z"/><path class="cls-87" d="M82.93,61.06c.22-.12.44-.24.67-.35l-1.55-4.05c-.3.15-.59.31-.88.47Z"/><path class="cls-86" d="M83.6,60.71l.7-.32-1.37-4.15c-.3.13-.59.27-.88.42Z"/><path class="cls-93" d="M84.3,60.39l.71-.28-1.17-4.26c-.3.12-.61.25-.91.39Z"/><path class="cls-94" d="M85,60.11l.73-.25-1-4.35-.92.34Z"/><path class="cls-95" d="M85.74,59.86l.74-.21-.78-4.43-.94.29Z"/><path class="cls-96" d="M86.48,59.65l.76-.17L86.65,55l-1,.23Z"/><path class="cls-97" d="M87.24,59.48c.25-.06.51-.1.77-.14l-.4-4.54c-.32.05-.64.11-1,.19Z"/><path class="cls-98" d="M88,59.34c.26,0,.52-.08.78-.1l-.2-4.58c-.33,0-.65.08-1,.14Z"/><path class="cls-99" d="M88.79,59.24c.26,0,.53-.05.8-.06l0-4.61c-.32,0-.65,0-1,.09Z"/><path class="cls-100" d="M89.59,59.18c.26,0,.53,0,.8,0l.16-4.6c-.33,0-.66,0-1,0Z"/><path class="cls-101" d="M1196,80.35A15.73,15.73,0,0,1,1180.3,96H90.39A15.73,15.73,0,0,1,74.7,80.35V74.84A15.74,15.74,0,0,1,90.39,59.15H1180.3A15.74,15.74,0,0,1,1196,74.84Z"/><path class="cls-102" d="M156.89,78.45A78.45,78.45,0,1,1,78.45,0a78.45,78.45,0,0,1,78.44,78.45"/><path class="cls-103" d="M152.05,78.45a73.61,73.61,0,1,1-73.6-73.6,73.6,73.6,0,0,1,73.6,73.6"/><path class="cls-102" d="M149.81,78.45A71.36,71.36,0,1,1,78.45,7.1a71.37,71.37,0,0,1,71.36,71.35"/><path class="cls-104" d="M12.82,84.82a3.23,3.23,0,0,1,.87-2.64,1.12,1.12,0,0,1-.77-.14,1,1,0,0,1-.25-.66c-.06-.65.19-1,.74-1.06h1.38a2,2,0,0,0,.39-.06,2.43,2.43,0,0,1,.39-.08h.08c.62-.05,1,.28,1,1a.92.92,0,0,1-.64,1.1l-.31.11c-.66.23-.94.79-.85,1.73s.43,1.29,1,1.25a.68.68,0,0,0,.63-.35,6.35,6.35,0,0,0,.28-1.48,5.93,5.93,0,0,1,.9-2.93,2.63,2.63,0,0,1,2-1.07,3.36,3.36,0,0,1,2.65.84A3.86,3.86,0,0,1,23.6,83a4.19,4.19,0,0,1-.75,2.72.81.81,0,0,1,.93.86.87.87,0,0,1-.89,1.08,3.28,3.28,0,0,1-.7,0,5.48,5.48,0,0,0-.77,0l-.52.08a3,3,0,0,1-.53.08.75.75,0,0,1-.68-.26,1.38,1.38,0,0,1-.34-.85,1.14,1.14,0,0,1,.19-.85,1.54,1.54,0,0,1,.91-.45c.78-.19,1.12-.8,1-1.86a1.47,1.47,0,0,0-.4-1,1,1,0,0,0-.83-.31.84.84,0,0,0-.74.4,7.65,7.65,0,0,0-.39,1.69l-.15,1a3.38,3.38,0,0,1-.5,1.28,2.62,2.62,0,0,1-2.14,1.3,3,3,0,0,1-2.38-.74,3.48,3.48,0,0,1-1.11-2.38"/><path class="cls-104" d="M14.41,69.24l7-1.73-4.54-.67c-.69-.1-1.05,0-1.09.23,0,.1,0,.21,0,.34a.73.73,0,0,1,0,.3.66.66,0,0,1-.36.52,1.27,1.27,0,0,1-.76.12,1.17,1.17,0,0,1-.76-.4,1.05,1.05,0,0,1-.19-.83,4.79,4.79,0,0,1,.19-.83,9.89,9.89,0,0,0,.24-1c0-.28.06-.61.08-1,0-.56,0-.9.06-1a1.08,1.08,0,0,1,.41-.75,1.14,1.14,0,0,1,.88-.18,1.15,1.15,0,0,1,.68.33.82.82,0,0,1,.19.65,1,1,0,0,1-.11.36c0,.15-.08.28-.1.35s.08.37.34.47a3.75,3.75,0,0,0,.64.11l6.24.92c.67.12,1,.44.87,1,0,.1,0,.26-.08.46s-.07.36-.1.46,0,.27-.06.76l0,.33a1.07,1.07,0,0,1-.31.64,2.45,2.45,0,0,1-.72.24l-7.2,2,4.64.68c.68.09,1.05,0,1.1-.24a2.58,2.58,0,0,0,0-.35,1.88,1.88,0,0,1,0-.34.69.69,0,0,1,.37-.49,1.21,1.21,0,0,1,.76-.11,1,1,0,0,1,1,1.23,7,7,0,0,1-.24,1,5.93,5.93,0,0,0-.2,1,8.41,8.41,0,0,0-.08,1.07c0,.46,0,.75,0,.86a1,1,0,0,1-1.29,1,1.2,1.2,0,0,1-.69-.35.77.77,0,0,1-.22-.63c0-.09.06-.21.11-.39a.7.7,0,0,0,.11-.33c.05-.29-.29-.47-1-.57l-4.25-.62c-.68-.11-1,0-1.08.25a1.15,1.15,0,0,0,0,.38,1.06,1.06,0,0,1,0,.36.72.72,0,0,1-.39.55,1,1,0,0,1-.75.14,1.16,1.16,0,0,1-.78-.43,1.18,1.18,0,0,1-.19-.84c0-.22.12-.52.22-.93s.19-.7.24-.94,0-.53.08-1c0-.21,0-.45,0-.74a2.08,2.08,0,0,1,0-.41.73.73,0,0,1,.43-.59,4.52,4.52,0,0,1,.73-.23"/><path class="cls-104" d="M27.66,57.22A4.7,4.7,0,0,1,24.93,60a5.86,5.86,0,0,1-4.22-.38A6,6,0,0,1,17.51,57a4.48,4.48,0,0,1,0-3.82,4.7,4.7,0,0,1,2.73-2.85,5.42,5.42,0,0,1,4.13.31,6,6,0,0,1,3.28,2.74,4.53,4.53,0,0,1,0,3.89m-8.07-3.35c-.52,1.23.23,2.28,2.26,3.12a5.26,5.26,0,0,0,2.3.53,1.65,1.65,0,0,0,1.49-1.11c.51-1.22-.21-2.27-2.17-3.08a5.58,5.58,0,0,0-2.56-.57,1.7,1.7,0,0,0-1.32,1.11"/><path class="cls-104" d="M33.58,46.55a4.56,4.56,0,0,1-3.27,2.14,5.82,5.82,0,0,1-4-1.28,5.88,5.88,0,0,1-2.51-3.35,4.53,4.53,0,0,1,.86-3.72,4.8,4.8,0,0,1,3.29-2.17,5.41,5.41,0,0,1,4,1.2,6,6,0,0,1,2.6,3.41,4.48,4.48,0,0,1-.9,3.77m-7.13-5c-.78,1.08-.27,2.28,1.52,3.54a5.4,5.4,0,0,0,2.11,1,1.64,1.64,0,0,0,1.71-.77c.79-1.09.31-2.23-1.43-3.48A5.37,5.37,0,0,0,28,40.75a1.61,1.61,0,0,0-1.55.77"/><path class="cls-104" d="M39.26,34.68c-.22.19-.22.39,0,.62l.32.36a.43.43,0,0,0,.7.08,3.15,3.15,0,0,0,.29-.35A4.19,4.19,0,0,1,41,35a.69.69,0,0,1,.64-.21,1,1,0,0,1,.67.39,1.08,1.08,0,0,1-.07,1.6c-.21.19-.55.44-1,.81s-.79.59-1,.79a7.7,7.7,0,0,0-.81.79l-.51.55a2.89,2.89,0,0,1-.29.3,1,1,0,0,1-.8.31,1.12,1.12,0,0,1-.78-.41,1.14,1.14,0,0,1-.31-.71.77.77,0,0,1,.24-.6,2.11,2.11,0,0,1,.35-.23,1.06,1.06,0,0,0,.28-.2c.22-.19.09-.54-.37-1.06L34.32,33.9c-.23-.25-.38-.41-.45-.47-.23-.15-.4-.17-.56,0a2.74,2.74,0,0,0-.24.28,1.26,1.26,0,0,1-.24.3.71.71,0,0,1-.64.19,1.13,1.13,0,0,1-.67-.39,1.18,1.18,0,0,1-.33-.81,1.11,1.11,0,0,1,.4-.79h0s0,0,0,0c.19-.17.5-.39.9-.71s.71-.54.91-.69a15.33,15.33,0,0,0,1.16-1.14c.51-.56.81-.86.88-.93a3.84,3.84,0,0,1,2.68-1.11,3.22,3.22,0,0,1,2.45,1.16,3.28,3.28,0,0,1,.93,2.64A4.33,4.33,0,0,1,40,34c-.07.06-.2.21-.42.41ZM37.18,33a1.27,1.27,0,0,0,.42.36c.07,0,.2,0,.39-.22l.19-.14c.94-.77,1.08-1.54.4-2.31a1.4,1.4,0,0,0-2.23,0,1.54,1.54,0,0,0-.39.41.44.44,0,0,0,0,.5,3.24,3.24,0,0,0,.31.36L37.18,33"/><path class="cls-104" d="M47.46,23.67,49,24.74V22.81a2.14,2.14,0,0,0-.07-.67c-.06-.1-.2-.13-.43-.13a.76.76,0,0,1-.71-.48A1,1,0,0,1,48.24,20a4.42,4.42,0,0,1,.63-.29,5.06,5.06,0,0,0,.94-.4,7.74,7.74,0,0,0,.69-.44,3.35,3.35,0,0,1,.66-.46,1,1,0,0,1,.84-.12,1.1,1.1,0,0,1,.66.58,1.06,1.06,0,0,1,.15.75.65.65,0,0,1-.35.53,2.76,2.76,0,0,1-.4.14l-.3.1a.5.5,0,0,0-.23.27,6,6,0,0,0-.07.78l-.22,3.86a2.49,2.49,0,0,0,.24,1.23l.2.39c.23.41.48.55.8.38l.38-.26a3.11,3.11,0,0,1,.39-.29.85.85,0,0,1,.68,0,1.1,1.1,0,0,1,.56.55,1,1,0,0,1,.13.86,1.16,1.16,0,0,1-.59.65c-.24.13-.59.29-1.07.51a8.38,8.38,0,0,0-1.09.51c-.26.14-.61.36-1.09.68s-.84.55-1.09.69a1.17,1.17,0,0,1-.87.12,1,1,0,0,1-.65-.57c-.34-.59-.25-1,.26-1.31a1.82,1.82,0,0,1,.45-.19c.2-.06.35-.15.45-.18s.25-.42,0-.84l-.2-.39a2,2,0,0,0-.88-.78l-3.83-2.21a.66.66,0,0,0-.63-.06l-.23.19a1.8,1.8,0,0,1-.34.26c-.44.25-.82.09-1.11-.46-.39-.72-.27-1.23.37-1.58a4.85,4.85,0,0,1,.8-.37c.38-.16.67-.27.86-.37a8.27,8.27,0,0,0,.9-.62,5.64,5.64,0,0,1,.58-.37c.62-.35,1.12-.18,1.49.51a.6.6,0,0,1,0,.74A1.05,1.05,0,0,1,47,23c0,.05,0,.1,0,.18v0a1.12,1.12,0,0,0,.17.2l.33.22"/><path class="cls-104" d="M66.69,22.35c.35-.07.47-.41.36-1l-.77-4.42c-.12-.67-.44-1-.93-.89s-.72.3-.65.65a2,2,0,0,0,.13.47,3.46,3.46,0,0,1,.12.45c.16.91-.13,1.42-.91,1.54a1.05,1.05,0,0,1-.89-.18,1.48,1.48,0,0,1-.47-.87c0-.13,0-.36-.06-.74a4.85,4.85,0,0,0-.09-.73,7.22,7.22,0,0,0-.19-.75c-.06-.25-.12-.44-.14-.6a.59.59,0,0,1,.56-.78,6.84,6.84,0,0,1,.9-.12c.84-.07,2-.25,3.46-.49s2.63-.49,3.43-.71c.36-.09.64-.16.88-.2a.61.61,0,0,1,.8.55c0,.17,0,.39.08.71a5,5,0,0,0,0,.68l.18.71c.11.44.19.67.19.73a1.35,1.35,0,0,1-.15,1,1.17,1.17,0,0,1-.78.49c-.76.13-1.23-.25-1.37-1.13a2,2,0,0,1-.05-.49,1.58,1.58,0,0,0,0-.45c0-.38-.32-.54-.75-.46a.76.76,0,0,0-.59.35,1.19,1.19,0,0,0,0,.82l.78,4.41c.09.64.32.91.67.87l.5-.16a2.35,2.35,0,0,1,.48-.13.83.83,0,0,1,1.08.74c.13.81-.18,1.29-.94,1.42-.3.05-.65.09-1.07.12-.62.06-1.15.1-1.59.18s-1,.21-1.55.37a10.18,10.18,0,0,1-1,.25,1,1,0,0,1-1.36-.92.88.88,0,0,1,.78-1.17,4.53,4.53,0,0,1,.5,0c.22,0,.38,0,.5,0"/><path class="cls-104" d="M81.1,23.48a4.73,4.73,0,0,1-3.56-1.6,5.85,5.85,0,0,1-1.07-4.1,5.75,5.75,0,0,1,1.45-3.92,4.41,4.41,0,0,1,3.6-1.26,4.65,4.65,0,0,1,3.59,1.56,5.47,5.47,0,0,1,1.14,4,6.16,6.16,0,0,1-1.46,4,4.51,4.51,0,0,1-3.69,1.31m.42-8.72c-1.34-.07-2.07,1-2.17,3.19a5.71,5.71,0,0,0,.27,2.34,1.71,1.71,0,0,0,1.58,1c1.33.06,2-1,2.15-3.09a5.57,5.57,0,0,0-.35-2.6,1.64,1.64,0,0,0-1.48-.87"/><path class="cls-104" d="M100.27,17.54l-1.09,6.68,2.52-4.57c.06-.09.1-.19.14-.26s0-.29-.16-.35l-.2,0-.1,0a.26.26,0,0,0-.1,0c-.37-.11-.46-.47-.26-1.07s.68-1,1.35-.76a4.44,4.44,0,0,1,.68.27c.44.2.74.35.9.41s.43.07,1.22.25l.34.06a1.14,1.14,0,0,1,.62.56,1,1,0,0,1,0,.85,1.18,1.18,0,0,1-.43.62.71.71,0,0,1-.61.14.92.92,0,0,1-.29-.16.54.54,0,0,0-.22-.12c-.17-.06-.33,0-.49.25,0,0-.12.17-.33.52l-3.29,5.52a3.73,3.73,0,0,1-.46.66.62.62,0,0,1-.7.12,3.81,3.81,0,0,1-.46-.18c-.1,0-.28-.11-.51-.2s-.39-.11-.55-.16l-.48-.13h-.07a.65.65,0,0,1-.46-.45,4.73,4.73,0,0,1,.11-1.3l.89-5.42-2.5,4.89a5.22,5.22,0,0,1-.69,1.11.63.63,0,0,1-.62.1,5.74,5.74,0,0,1-.53-.22A3.69,3.69,0,0,0,93,25a2.77,2.77,0,0,0-.48-.15l-.53-.13a.72.72,0,0,1-.5-.52,4.28,4.28,0,0,1,0-.82l.07-.81.51-5.58c0-.2.06-.41.08-.61s-.09-.45-.26-.48a.39.39,0,0,0-.25,0,.92.92,0,0,1-.32,0,.64.64,0,0,1-.41-.46,1.08,1.08,0,0,1,0-.79,1.19,1.19,0,0,1,.55-.65,1.05,1.05,0,0,1,.84,0,7,7,0,0,1,.71.31,7.36,7.36,0,0,0,.73.33,7.76,7.76,0,0,0,1,.21,3.4,3.4,0,0,1,.72.19c.66.19.87.66.66,1.36s-.5.88-.88.76a.11.11,0,0,0-.08,0s-.08,0-.1,0l-.18-.11c-.16-.05-.27,0-.32.2a.88.88,0,0,0-.07.29l-.63,5.17,3-6a2.83,2.83,0,0,1,.5-.76.52.52,0,0,1,.48-.06,5,5,0,0,1,.53.23c.24.11.42.17.52.21l.56.15a3.65,3.65,0,0,1,.56.13.52.52,0,0,1,.39.5c0,.09,0,.34-.09.71"/><path class="cls-104" d="M115.25,25.25l-1.58,7,2.64-3.77c.39-.57.47-.91.27-1.08l-.31-.14a1.06,1.06,0,0,1-.28-.13.64.64,0,0,1-.28-.57,1.06,1.06,0,0,1,.22-.71,1.15,1.15,0,0,1,.72-.51,1,1,0,0,1,.8.19,8.35,8.35,0,0,1,.67.56c.3.27.58.49.82.67a6.88,6.88,0,0,0,.84.51l.9.51a1.06,1.06,0,0,1,.48.73,1.18,1.18,0,0,1-.84,1.3.67.67,0,0,1-.65-.11,1.48,1.48,0,0,1-.28-.25,1,1,0,0,0-.26-.23.38.38,0,0,0-.55.07,2.14,2.14,0,0,0-.4.52L114.56,35c-.39.55-.82.67-1.28.35l-.36-.28a4.51,4.51,0,0,0-.38-.3l-.64-.41-.29-.18a.86.86,0,0,1-.41-.56,3,3,0,0,1,.08-.76l1.47-7.33-2.69,3.85c-.41.59-.49.94-.27,1.09a.83.83,0,0,0,.3.15l.3.14a.67.67,0,0,1,.28.57,1,1,0,0,1-.24.72,1,1,0,0,1-1.53.3,8.57,8.57,0,0,1-.78-.66,4.41,4.41,0,0,0-.76-.59,7.2,7.2,0,0,0-.92-.56,6.38,6.38,0,0,1-.76-.45,1,1,0,0,1-.28-1.56,1.24,1.24,0,0,1,.61-.47.78.78,0,0,1,.67.1,2.14,2.14,0,0,1,.28.27,1.55,1.55,0,0,0,.26.26c.23.14.55-.05.94-.63l2.49-3.53c.37-.56.47-.92.24-1.07a1,1,0,0,0-.34-.19,1.26,1.26,0,0,1-.33-.17.65.65,0,0,1-.31-.57,1,1,0,0,1,.21-.74,1,1,0,0,1,.71-.49,1,1,0,0,1,.84.2,7.62,7.62,0,0,1,.74.61,7.23,7.23,0,0,0,.75.61,6.73,6.73,0,0,0,.88.54l.64.38c.11.05.22.13.35.2a.85.85,0,0,1,.35.63,6.48,6.48,0,0,1-.13.79"/><path class="cls-103" d="M128.36,78.45A49.92,49.92,0,1,1,78.44,28.52a49.92,49.92,0,0,1,49.92,49.93"/><path class="cls-105" d="M104.86,61.73c-.37.44-.15,1.29-.24,1.86l-.09.15a5.56,5.56,0,0,1-.69,2.75c-.27.31-.51.61-.78.93-.06.35-.13.7-.21,1.06a2.3,2.3,0,0,1-.15.38c-.16,0-.35.35-.46.35s0,0,0,.07a3.79,3.79,0,0,0-.24.43,2.68,2.68,0,0,0-.38.85c-.17.29-.37.58-.55.87v0l-.39.24v.12c-.27.22-1.32.94-1.32,1.28a7.35,7.35,0,0,1-1,.65.7.7,0,0,1-.14,0,2,2,0,0,0-1,.22c-.63.14-1.26.31-1.89.45a7.51,7.51,0,0,1-1.85-.09l-.76,0A4.29,4.29,0,0,1,91.47,74l-.7-.13a7.83,7.83,0,0,1-.67-.45l-.83-.24a.62.62,0,0,1-.11-.17.31.31,0,0,1-.12-.14,1.2,1.2,0,0,0-1-.78H88a1.21,1.21,0,0,0-.1.14c-.21.13-.44.16-.66.29-.67.45-1.34.93-2,1.38,0,0-.07,0-.07,0-.08.24-.16.5-.23.74l-.12.06s0,.06,0,.09,0,0,0,0a1.23,1.23,0,0,0-.52.49c-.14.27-.1,1.63.17,1.77s.3,0,.44,0v0c.44.18,1.58.42,1.55,1.07,0,.22-.34.28-.34.47a1.36,1.36,0,0,0-.36.06,2.07,2.07,0,0,0-.9,1.93c.14.16.28.3.4.46a5.83,5.83,0,0,0,.15,1c0,.22-.09.41-.09.58a.19.19,0,0,1,.09,0,.49.49,0,0,1,0,.14c.13.28.24.56.39.84l.48.52a20.51,20.51,0,0,1,.31,2.07c.07.26.3.4.46.64a6.91,6.91,0,0,0,.68,1.29l.1.07c0,.22,0,.42,0,.65.31.21.23.51.23.86.35.35.26.76.46,1.15a.14.14,0,0,1,.07.1,4.38,4.38,0,0,0,.25,1.93c.08.21.34.42.42.64s0,.41,0,.65.2.59.29.89c0,.15,0,.31,0,.47s.56.28.56-.1a8.44,8.44,0,0,0,.92-1,.68.68,0,0,0,.28-.07v-.11A14.32,14.32,0,0,0,93,93c.42-.16,1.66-1.38,2-1.38h0l.11,0a.83.83,0,0,1,.5-.19s0-.07,0-.1l.23-.1v0c.52.27,1.24,0,1.26.8,0,.2,0,.39,0,.55s-.05.15-.08.22c-.3.13-.3.32-.5.53a5,5,0,0,1-.46.34c-.44.52-.76,1.09-1.18,1.62s-1,1-1.6,1.57a7.54,7.54,0,0,1-1,1.25,1.43,1.43,0,0,1-.11.15h0c-.2.06-.26.19-.39.31s-.26.17-.4.27c-.49.44-.81,1.2-1.64,1l-.27,0c-.37.68.56,1,1,1.21.2.11.42.31.68.28l.25,0s.32.16.32.09h0a.76.76,0,0,1,.21,0v0l.16.14h.07v0a.86.86,0,0,0,.28-.79,1,1,0,0,0,0-.1,1,1,0,0,0,.16-.58c.18-.22.34-.44.51-.67a1.81,1.81,0,0,1,.14-.33c.07-.21.13-.4.21-.6s0-.21.07-.33l1.1-.15c.58-.27,1-.93,1.62-1,.29-.06.5.16.74.16L97,97s0,0,0,0c.24.08,1.62.44,1.62.6.58,0,1,1.23,1.35,1.23a4.55,4.55,0,0,0,.36,1.32c.1.43,0,.86.1,1.31.07.29.17.57.26.84a8.2,8.2,0,0,1-.17,1c0,.41.08.78.12,1.19s-.31,1-.4,1.51c0,.28,0,.56,0,.86s-.21.52-.31.78c-.07.51-.15,1-.22,1.51s-.49.86-.61,1.32.13.93,0,1.38-.36.72-.52,1.09c-.13.55-.28,1.07-.41,1.61-.14.23-.27.43-.41.68a5.51,5.51,0,0,0-.27.65c-.15.2-.28.38-.44.58s-.11.26-.15.41l-1.17,1.32a2.07,2.07,0,0,0-.19.25h-.2a.06.06,0,0,0,0,0c-.61.23-1.09.77-1.68,1-.33.15-.87,0-1.15.19,0,0,0,0-.06.06l-.1.19v0h-.07c-.18,0-.68.45-.68.38h0a.7.7,0,0,1,0,.14s-.63.35-.63.21l-.1.07a1.51,1.51,0,0,0-.29.13l-.77.23c-.51.74-2.63.31-3.33,0l-.51-.32-.66-.22-.74-1a5.94,5.94,0,0,0-.43-.52,9.16,9.16,0,0,1-.89,1.36c0,.51-1.1,1.05-1.1,1.3H82a6.19,6.19,0,0,0-1.09.63l-.36,0a2.72,2.72,0,0,0-.42.27l-.13.08a6.37,6.37,0,0,0-1.24.06c-.16-.09-2.25.15-2.25-.22a9.78,9.78,0,0,1-2.36.06c-.65,0-1.27-.06-1.9-.08-.39-.08-.71-.49-1.06-.68a2.23,2.23,0,0,0-.62-.14c-.37-.14-.75-.32-1.13-.47-.17-.15-.35-.33-.52-.49-.34-.24-1.25-.33-1.25-.88a4.64,4.64,0,0,0-1-.16c-.19-.12-.62-.52-.82-.52l-1.21-.62v0a.58.58,0,0,1-.19,0c-.06,0-.14-.07-.19-.11a.6.6,0,0,1-.11-.12c-.51-.62-.51-.75-1.26-1.11l-.17-.08c-.17-.16-.36-.32-.52-.49.07-.31,0-1.26-.41-1.26-.41-.86-1.64-1.32-1.92-2a1.84,1.84,0,0,0,0-.29c-.3-.65-.24-.81-.87-1.2l-.28-.19c0-.14-.1-.39-.24-.39a2.51,2.51,0,0,0-.28-1.6c-.18-.18-.33-.35-.49-.52s0-.73,0-1.08-.23-.39-.23-.71c-.55-.28-.39-.91-.39-1.51a3.68,3.68,0,0,0-.08-1.12,5.69,5.69,0,0,0,.15-.59,1.5,1.5,0,0,0,.11-.13.42.42,0,0,1,0-.12c.39-.5.24-1.3.48-1.9l.09-.13c.07-.29.14-.55.23-.83a1.2,1.2,0,0,1,.13-.28.24.24,0,0,1,.09-.21.32.32,0,0,0,0-.13c.17-.33.37-.69.56-1,.43-.06.81-.4,1.21-.4,0,0,0,0,0,.08l.58-.07a2.82,2.82,0,0,0,.46-.23s0,0,0,0,0,0,0,0c.13.16.24.35.48.32a.07.07,0,0,0,.05,0h0l.73.27a10.78,10.78,0,0,0,2.13,1.62c.26.06.49.13.74.2s.65.64.79,1c.1.13.2.25.29.39v.16c.79.05,1,1.16,1.34,1.69l.7.79a6.43,6.43,0,0,1,.29.77c.13.26.38.52.51.77l0,0a.49.49,0,0,0,0,.11,5.17,5.17,0,0,0,.51.42c.11-.1.23-.23.35-.33.11-.48.21-1,.32-1.47a17.9,17.9,0,0,0,.62-1.68s0,0,0-.07.07-.16.1-.28c-.6-.58-.75-1.2-1.62-1.44-.08-.06-.15-.1-.23-.17-.26-.07-.42-.33-.62-.51-.39-.18-.78-.36-1.19-.53,0,0,0-.12,0-.18a.71.71,0,0,1-.36-.5,2.45,2.45,0,0,0-.47-1.08c-.2-.23-.55-.3-.75-.56-.06-.06-.1-.14-.17-.21a1.23,1.23,0,0,0,0-.19,5,5,0,0,0-.18-1.67c-.1-.2-.2-.37-.31-.59s0-.19,0-.29c.08-.34.12-.67.18-1,.6-.6.24-1.47.34-2.24,0-.23.26-.39.26-.63a.88.88,0,0,0,.07-.12c-.39-.31-.1-.81-.1-1.19,0,0,0,0,0-.06a1.2,1.2,0,0,0,.3-.58.14.14,0,0,0,0-.07c.07-.15.16-.92.3-.92a1.48,1.48,0,0,1,.13-.08c0-.16.06-.29.08-.45l.45-.64c.2-.38.31-1.23.58-1.51a.84.84,0,0,0,.21-.11,8,8,0,0,1,1.2-1.72c0-.31.27-.44.27-.7l.08,0,.15,0a2.93,2.93,0,0,1,.43-.48c0-.06.17,0,.17-.09a2.52,2.52,0,0,0,.89-1.1c0-.17.08-.34.12-.5a.31.31,0,0,1,.26-.18c.2-.16.41-.31.63-.47s.39-.8.8-1l.12-.07v-.1l.22-.76a1.32,1.32,0,0,1-.63-.08,3.65,3.65,0,0,1-.35-.34,1.79,1.79,0,0,1,1.6-1.26c.32-.26.31-.31.31-.7s.24-2-.14-2c-.08-.28-.52-.3-.78-.22,0,0,0,0,0,0a11.18,11.18,0,0,0-3-1.47l-.73-.11a5.27,5.27,0,0,0-1.68-.49l-.22,0c-.52-.17-2.32-.17-2.32-.86,0,0,0,0,0,0l-.62-.22a3.3,3.3,0,0,1-2.28-.1c-.54-.31-.9-1-1.61-1-.37,0-.69.17-1.11.15a7.1,7.1,0,0,0-.78-.27c-.88-.26-1.79-.34-2.69-.6-.41-.13-.73-.48-1.22-.6l-.11,0h0v-.19c-.42-.11-.39-.34-1-.34a2.27,2.27,0,0,0-1-.9L52.35,67l-.29-.35c-.6-.58-.73-.55-1.41-.23-.28.11-.57.25-.85.37l-.53.34a1.36,1.36,0,0,1-.72.26.32.32,0,0,0,0,.09c-.42-.12-1.91-.25-1.91-.86-.11,0-.7-.07-.7-.15-.39-.35-1.06-.63-1.06-1.24l-.3-.35c-.42-.49-.09-.65,0-1.18,0-.31,0-.64,0-.94,0-.13,0-.25,0-.38.1-.3.21-.59.32-.91a4.7,4.7,0,0,1,0-1.06,3,3,0,0,0,1.09-1.15,1,1,0,0,1,0-.2.93.93,0,0,1,.24,0,2.72,2.72,0,0,1,1.17-.18s0-.07,0-.1l.8.1.26-.07c.05,0,.41-.41.41-.41a.17.17,0,0,0,.06-.08,5.61,5.61,0,0,0,.22-1.38c0-.31.28-.44.37-.69s.15-.69.21-1c.32-.51.61-1,.91-1.54.16-.34.24-.68.41-1s.48-.42.53-.71v-.2h0c.2-.17.39-.31.57-.45l.23-.57c0-.07,1-1,1-1v-.06l.62-.24a.72.72,0,0,1,.66-.34v0l.62-.54c0-.21.21-.33.21-.51.24-.1,1.59-.55,1.59-.8h.27c.15-.5.75-.52,1.22-.52a.86.86,0,0,1,.24,0v0a6.55,6.55,0,0,1,2-.51c.25.08.48.13.73.22h.39a3,3,0,0,1,.55-.19s0-.1,0-.15a1.06,1.06,0,0,1,.92,0c.12.1.16.26.33.29s.65,0,.65-.23c.38,0,.72.2,1,.2v0c.57.16.89-.19,1.35-.19s.73,0,1.09-.06a.49.49,0,0,1,.38-.1c.36-.59,2.84-1,3-1.52h.06a4,4,0,0,1,.34-.23h.13c.19-.22.36-.42.55-.67a7.15,7.15,0,0,0,.4-.61c.2-.2.63-.38.69-.67v0L73.3,42a.93.93,0,0,0-.87-.49c-.11-.14-.22-.32-.32-.47l0,0c.15-.18.3-.38.46-.56,0,0,0,0,0,0v0a2.83,2.83,0,0,0,.42-.07v0a2.33,2.33,0,0,0,.37,0h0a1.41,1.41,0,0,0,1.52-.27,1,1,0,0,0,.14-.16c.21-.15.4-.3.59-.45.33-.42.62-.28.91-.89a.5.5,0,0,1,.07-.13c.25-.24.64-.81,1-.81h.2v0c0-.1.08-.23.14-.35a2.24,2.24,0,0,1,1.25-.36c.25-.07.51-.16.76-.25l.34-.48a2.68,2.68,0,0,1,1.82-.34v0A13.52,13.52,0,0,0,84,35.28c.09,0,.47.1.47.22l.29,0v0c.28,0,.45.27.76.27.66.14,1.4.11,2.1.2a7.29,7.29,0,0,0,1.18.31c.79-.34,1.63.72,2.22,1,.28.13.66,0,.94.19.45.29.7,1,1.31,1.11l.08,0,.36.22c.08.13.16.28.24.4s.27.91.61.91c.25.55.86.73,1.26,1.14s.58.73.92,1.05l.13.07v.18c.19.18.44.23.59.46s.24.77.58,1a.12.12,0,0,0,.08.05c.21.35.62.32.83.67h0c.31.2.35.77.51,1.07l.71.7.21.12h0c0,.08,0,.37.08.37a2.53,2.53,0,0,0,.07.38c.23.51.6.68,1,1.07.08.13.15.28.22.41l.51.61c0,.17.08.35.1.52s.14.25.22.37a3.26,3.26,0,0,0,.55,1.3h0l.39.34c0,.09,0,.16,0,.24v.32c.61.34.78,2.44.65,3.2,0,.07,0,.34.09.34.11.45.23.92.32,1.35.11.95,0,1.88,0,2.87a3.68,3.68,0,0,1,.15.47Zm-19.2,49.74c.07-.14.23-.35.4-.35,0,0,0-.07,0-.12h0c.64-.32,1.67-2,2.2-2l0,0c-.12-.23-.19-.57-.43-.71s-.66,0-.95,0a19.27,19.27,0,0,1-2.9-.76,8.26,8.26,0,0,1-2.11.3c-.18-.15-1.68-.26-1.68,0a3.48,3.48,0,0,0-.82,2.17,3,3,0,0,1-.14,1.59c-.06.13-.11.26-.17.4-.45.67.14.81.14.94.28.26,1.33.69,1.33,1.17.29.06,1.87,1.17,1.87,1.44h0c0,.08.17.45.29.45s0,0,0,.06a6.39,6.39,0,0,0,.87,1l.17.06s.1.08.16.14a1,1,0,0,1,.17-.09v-1.29a.76.76,0,0,0,.14-.1,5.78,5.78,0,0,1,.18-.65c0-.06.14-.6.14-.6q.24-.64.48-1.35a.38.38,0,0,0,0-.16,6.92,6.92,0,0,1,.58-1.49"/><path class="cls-104" d="M47.36,62.68a.21.21,0,0,1-.12,0h0c-.08.08-.14.1-.19.17s-.11.47-.13.53,0,.13,0,.21-.06.4-.1.62c0,0,0,.06.06.1s-.19.24-.28.36v0l-.37-.25-.32-.24a1.31,1.31,0,0,1,0-.34,4.63,4.63,0,0,1-.09-.49c0-.43.27-2,.59-2.18a2.73,2.73,0,0,1,1.1-1.55l.69.12c.75.2.72,1.06.51,1.71.08.25.17.49.24.74s-1.28.36-1.59.51"/><path class="cls-104" d="M91.44,95.62l.15-.07c.43-.12.74-.82,1.13-1.11s.61-.27.82-.46l.51-.54c.28-.17.61-.26.9-.45l.16,0a4.32,4.32,0,0,1-1.34,1.7c-.07.06-.11.15-.18.21a.61.61,0,0,1,0,.13c-.09,0-1.19,1.44-1.51,1.52v0a.2.2,0,0,0-.06.09c-.12.29-.55.44-.79.58-1.42,0-.12-1.22.18-1.67"/><path class="cls-104" d="M86.4,88.64v0a1.48,1.48,0,0,0,.08-.13c.54.58.1,1.48-.23,2-.08-.21-.17-.4-.24-.58,0-.35-.14-1.29.39-1.25"/><path class="cls-104" d="M84.88,85.82v.09c.07,0,.09.16.07.22-.23.68.24,1.79-.15,2.45a5,5,0,0,1-.06,1.74,1.92,1.92,0,0,1,0,.79h-.07c0-1.06-1-.06-1.18.21a1.27,1.27,0,0,1,0,.34c0,.46-.05.9-.08,1.37a1.19,1.19,0,0,0-.09.15,13.41,13.41,0,0,1-.67,2s0,0,0,0c.19,0,.29.67.71.67l0,0h1.28l0,0c.08.15.15.31.24.45a3.24,3.24,0,0,1-.49,2,.48.48,0,0,1-.25.43l-.06,0-.22-.21c-.06-.27-.1-.52-.15-.76s-.19-.29-.27-.42a1.2,1.2,0,0,1-.17-.21,1.06,1.06,0,0,1-.23.05,2.33,2.33,0,0,0-.74,2.09,2.08,2.08,0,0,1,.09.86,1.92,1.92,0,0,1-.79.78v0l-.15,0a.64.64,0,0,1-.2,0v0a.53.53,0,0,0-.2.1,1,1,0,0,1-.84-.55v-.16A1.47,1.47,0,0,0,79.75,99c0-.07-.3.1-.34.19s-.13.3-.19.44a1,1,0,0,1,0,.24,15.59,15.59,0,0,1-.08,1.8c-.27,0-.59.09-.87.09h0c-.16,0-.24-.08-.38,0a1.49,1.49,0,0,1-.91-.31l-.27-.17c-.07-.16-.15-.33-.24-.49-.33-.41-.68-.58-.68-1.17-.13-.14-.25-.28-.37-.43-.08,0-.08-.63-.08-.74a1.26,1.26,0,0,1-.11-.17c-.38-.9.51-2.06,0-2.89,0,0,0,0,0-.06a8.45,8.45,0,0,0,.31-1.25c.31,0,1.1-3,1.4-3.48,0-.11.07-.23.11-.34.16-.51.16-1,.29-1.59.11-.33.22-.67.35-1s0-.59.15-.87v-.06c-.11,0,0-.71-.11-.89l-.39.19a.59.59,0,0,1-.22.55h0v.55l-.11,0,0,.1a2.16,2.16,0,0,1-.61.89.69.69,0,0,0,.05.13,3.25,3.25,0,0,0-.27.26c-.08.19-.19.38-.28.56v.3c0,.27-.19.41-.21.65-.09.52,0,1-.28,1.39a1.66,1.66,0,0,1,.06.16c-.11.19-.22.36-.32.57,0,0,0,.1-.06.16a8.74,8.74,0,0,1-.62,1.27c0,.1,0,.22.07.33s0,.3-.07.44,0,.06,0,.07a.54.54,0,0,1-.16.5c0,.13-.09.23-.13.36a1.25,1.25,0,0,1-.24.61.5.5,0,0,0,0,.13c-.08,0-.12.31-.12.41s-.07.22-.1.33c0,.29,0,1.12,0,1.42,0,0,0,0,0,.08s0,.26,0,.39a.63.63,0,0,0,0,.14c-.11.5.34.78.3,1.31l.12.44c.16,0,.6,1.26,1.08,1.3.13,0,.09.52.07.64s0,0,0,0c0,.27.55.35.63.64h0l.58.22.71.07a2.47,2.47,0,0,0,.77,0,1.89,1.89,0,0,1,.21.09,1.32,1.32,0,0,0,.62.12c1.11.1,1-.11,1.9-.58a.89.89,0,0,1,.17-.08.35.35,0,0,1,.13-.08l.84-.09.55-.26c0-.25,1.76-1.18,2-1.28a2.42,2.42,0,0,0,.22-.28c1-.76,1.08-1,1.14-2.29,0-.2.06-.42.1-.64h0a.75.75,0,0,0,.13-.06c0-.23.13-.35.17-.54a2,2,0,0,0-.18-1.57.66.66,0,0,1,0-.24c0-.69-.7-1.08-1.22-1.36,0,0,0,0,0,0-.34-.84.21-1.74-.17-2.52.06-.09.14-.18.2-.28,0-.5.53,1.46.6,1.57l.79,1c.37.28.83.16,1.11.61l.09.05a1,1,0,0,1,.66.38c0,.37.51,1,.2,1.48A5.07,5.07,0,0,1,88,97.89c-.08.27-.26.49-.34.8s0,.78,0,1.18-.63.9-.53,1.38.66.41,1,.32a9.83,9.83,0,0,0,1.66.87c.24,0,.47,0,.7.06a.41.41,0,0,0,.48.32s0,0,0,0a14.92,14.92,0,0,0,2,.15c.34-.18.35-.69.74-.8,0-.14.18-.25.28-.3v0c0-.13,0-.29,0-.42.06-.68,1-2.77,1.86-2.67l.81-.39h.49c.13,0,.26,0,.37,0,.31.32.61.61.93.92s.54.29.74.62a1.15,1.15,0,0,1,.06.7,1.47,1.47,0,0,1,.07.17,7.26,7.26,0,0,1,.25,1.1c0,.39-.16.86-.21,1.32l.11,0a.65.65,0,0,1,0,.2.47.47,0,0,1,0,.21v0a1.33,1.33,0,0,0-.12.06v.07c.24,0,.15.6.09.71a15.43,15.43,0,0,1-.32,1.59c0,.34.23.59.15,1a.35.35,0,0,0,0,.11s-.06,0-.09.07a.45.45,0,0,1,0,.11.77.77,0,0,1-.1.18,1,1,0,0,1-.12.2.7.7,0,0,0-.12,0v0c0,.18-.07.36-.1.55s-.12.3-.2.45l0,.13c-.09.23-.26.49-.33.74s0,.6-.19.84a1,1,0,0,1-.12.49c0,.21,0,.4,0,.58a4.59,4.59,0,0,1-.62,1.8c-.27.33-.54.68-.79,1-.31.5,0,.76-.66,1.07h0c-.1-.08-.2-.13-.32-.21s-.4-.26-.53-.42a5.27,5.27,0,0,1-.58-2.72.78.78,0,0,0-.76.32.06.06,0,0,1,0,0c0,.35-.11.78.08,1.06,0,.16,0,.32,0,.49.24,0,.19.62.2.78s.11.44.15.66a1,1,0,0,1,0,.18c0,.17.21.24.28.4.19.42-.37.71-.71.77h0c-.22.45-.84.32-1.23.51h0s0,0,0,0c0,.22-.42.45-.59.51-1.9.68-1.11-2.06-1.07-2.93a1.18,1.18,0,0,0-.1-.55,2.15,2.15,0,0,0-.27.1c-.06.11-.1.22-.15.33a2.72,2.72,0,0,1,0,.42,10.69,10.69,0,0,1-.65,2.28c-.09.38,0,.77-.08,1.13h-.09c0,.55-.51.4-.74.76L88,119.3a.51.51,0,0,0,0,.09,1.81,1.81,0,0,1-2-1.34c-.95-2.41.94-5.86,2.35-7.58.56-.69,1.45-1.27,1.68-2.14s-.84-1.48-1.56-1.4a6.29,6.29,0,0,1-3.38-.72l0,0v0l-.41.05c-.48-.12-.9-.53-1.48-.34-.51,0-.47.28-1,0a.94.94,0,0,0,0,.16c-.15,0-.27,0-.36-.12v0s0,0-.07,0h0c-.39,0-.57-.2-.88-.28l-.63-.08h0a1.63,1.63,0,0,0-.9.11v0l-.08,0c-.09.15-.17.33-.26.5s0,.44,0,.67a8,8,0,0,1-.86,1.34.53.53,0,0,0,0,.12,6.2,6.2,0,0,1,0,1.37c-.06.22-.1.41-.14.59,0,0,0,0,0,.07a1.72,1.72,0,0,1-.15.74,1.18,1.18,0,0,0-.19.11v0a.59.59,0,0,1,0,.13c0,.65-.47,1.45,0,2.09h.12a.65.65,0,0,1,.69.25,1.5,1.5,0,0,1,.89.45s.05,0,.1-.06.64.71.72.83l0,0,.09,0v0h0c0,.58.95.85,1.3,1.22a4.08,4.08,0,0,1,.9,3l-.24.22a3.26,3.26,0,0,0-.3.48,6.57,6.57,0,0,1-1.21.62c-.25.06-.49.13-.74.21h0a.07.07,0,0,0,0,0,1.92,1.92,0,0,0-.29.14c-.31,0-.54-.2-.89-.14-.1,0-.19,0-.29-.06v0h0v0a18.52,18.52,0,0,0-2.1,0H75.13l-.44-.14c-.26,0-.51.11-.78,0l-.23,0a10.26,10.26,0,0,1-1.75-.58h0a.42.42,0,0,0-.13,0v0h0c0-.22-.42-.31-.57-.32h0l-.11.06-.51-.18c-.36-.14-.56-.55-.88-.74l-.38-.11c-.25-.19-.51-.36-.75-.52l-.64-.09c-.31-.2-.64-.39-1-.58-.58,0-1.59-1.08-1.79-1.57-.25,0-.58-.41-.63-.64a1.69,1.69,0,0,0-.29-.22c-.17,0-.27-.39-.29-.52,0-.53-.63-.74-.94-1.06-.13-.16-.27-.31-.41-.47-.66-.48-1.17-.6-1.17-1.6l.35.06h0c0-.48,1.26-.33.89-1-.05,0-.1-.09-.16-.13-.56-.33-1.78.15-2.26-.26-.26-.22-.33-.83-.42-1.13s-.42-.71-.4-1.06c0-.5,1.74-1.22,2.2-1.3v0c.23,0,.54-1-.36-1-.19.07-.36.16-.54.23a3.22,3.22,0,0,0-1.84,1v0c-.38,0-.57-2-.39-2.43,0-.14,0-.28-.07-.41a1.35,1.35,0,0,1,.22-.28c.1-.19.09-.42.17-.61s.27-.48.41-.73c.26-.63.22-1.26.81-1.76.19-.07.37-.14.55-.19a1.56,1.56,0,0,1,1.22-.08c.79.38,1.34,1.25,2.24,1.37,0,0,0,.07,0,.11l.28.31c.21,0,.55.51.6.68h0l.09,0c.19,0,.49.41.61.57a10.79,10.79,0,0,1,1.13,1.56c.29.53.59,1,.86,1.53,0,.2.07.42.1.62s.53.74.61.92h0s0,0,.08,0a4.71,4.71,0,0,1,1.32,1.58c.15.14.31.26.47.41l.55-.1v0h0c0-.27,0-.55,0-.83.18-.22.34-.45.53-.67a7.67,7.67,0,0,0,.24-1,5.13,5.13,0,0,1,.14-1.2.31.31,0,0,1,0-.06s0,0,0,0,0,0,0-.06a.21.21,0,0,0,0-.12,2.74,2.74,0,0,1,.15-1h.12v0l0-.1c.07-.39.34-.81.4-1.23a1.94,1.94,0,0,0-1.66-2.19l-.45-.25a.88.88,0,0,1-.31-.5l-.16-.17v0l-.36-.23s0,0,0-.06c-.29-.3-.55-.62-.83-.93A11,11,0,0,1,68,97.84c-.17-.25-.37-.51-.56-.77-.16-.61-.35-1.22-.53-1.83a.5.5,0,0,1,.14-.33.37.37,0,0,0,0-.15c.07-.23.13-.46.19-.69s-.15-.61.14-.92a8.81,8.81,0,0,1,.41-2.39,3.6,3.6,0,0,1,.4-1.51,1.55,1.55,0,0,0,0-.17,2.39,2.39,0,0,1,.4-1.21s0-.07,0-.12c0-.49.36-.57.49-1a.18.18,0,0,1,.08-.06,1.74,1.74,0,0,0,.11-.18s.13-.14.16-.12.1-.07.21-.18a3.54,3.54,0,0,1,.66-1.35c.24-.18.51-.35.75-.52.06-.23.13-.47.17-.7s.49-.45.6-.75c.22-.15.46-.28.69-.42,0,0,1.68-2.44,1.71-2.47a.32.32,0,0,1,.17-.28c.07-.07.12-.16.18-.22s.17-.43.36-.5a2.27,2.27,0,0,1,.51-.14c.35,0,1.07,0,1.32.15.26,0,.66.15.87,0,.51-.06,1-.11,1.52-.15a10.25,10.25,0,0,1,1.32.08c.09-.1.16-.23.25-.33,1.09.21,2,.06,2.53,1.16v.07h0v.64c0,.2.13.34.1.56s-.06.28-.1.41.31.46.47.54h0c0,.09,0,.16,0,.25a5.26,5.26,0,0,0,.25,2l.08,0a1.39,1.39,0,0,1,.82,1.43"/><path class="cls-104" d="M103,60.73c0,.38,0,.79,0,1.15,0,.62,0,1.29,0,1.92a2.29,2.29,0,0,0-.12.59c-.15.21-.28.46-.44.71,0,.15,0,.31,0,.47s0,.47-.07.74a4.74,4.74,0,0,1-1.43,2.2c-.16.38-.33.74-.49,1.12h-.07s0,0,0,0v0c0,.06,0,.1,0,.16l-.11.08a4.7,4.7,0,0,1-.93.76l-.21.22-.27.07c-.35.27-.48.68-.93.81s-.87,0-1.2.12a1.22,1.22,0,0,1-.18.16l0,0H96.3a2.13,2.13,0,0,0-1.2.45h0a5.15,5.15,0,0,1-1.42-.07c-.56-.14-1.08-.4-1.62-.57A3.59,3.59,0,0,1,90.29,71a1.3,1.3,0,0,1-.23-.1c-.55-.23-.67-.86-.74-1.44h0c-.47,0-.43-.62-.48-1a4.27,4.27,0,0,1-.11-1.94c.13-.32.27-.63.39-.95s0-.74,0-1.12c.16-.41.31-.84.45-1.24s0-1,.17-1.45.51-.8.68-1.23A8,8,0,0,1,90.91,59l.74-.92a14.61,14.61,0,0,0,1.61-2.63c.08-.23.24-.55.09-.78,0,0,0-.08,0-.1v0c-.55,0-.54.41-.74.81-.11.15-.24.31-.36.5l-.07,0c-.26,0-.34.29-.55.37v0h0s0,.13,0,.17-.19.26-.21.34l-.13.3c-.32.88-1.3,1.51-1.58,2.35h0a3.41,3.41,0,0,1-.4.89s0,0,0,0a.27.27,0,0,1,.06.21s-.06.14-.06.15.06.13,0,.24l0,.06-.07.14c-.12.35-.26.69-.38,1-.08.15-.23.23-.28.39h-.12a2.06,2.06,0,0,1-.12.26c0,.39-.24.63-.3,1A5.49,5.49,0,0,0,88,65a4.83,4.83,0,0,1-.35,1.21v0a1,1,0,0,1,0,.89.35.35,0,0,1,0,.13A4,4,0,0,0,87,69.06v.3h0c.09.08.19.14.28.21s.3.16.24.51c0,.77-.35.48-.61.91h0v0a.32.32,0,0,0-.26.12,1.39,1.39,0,0,0-.68.36h0l-.08,0c-.61.32-.61,1.35-1.31,1.35h0c-.16.15-.28.29-.43.42a1.15,1.15,0,0,1-.41.74,7.41,7.41,0,0,1-.63,1,1.09,1.09,0,0,1-.13.17,2.23,2.23,0,0,1-.07.89.87.87,0,0,1-.1.19c-.19.91-.6.29-1.2.34L80.7,77c-.67.14-1.33,0-2,.13-.46,0-.85-.2-1.36-.16s-1.16,0-1.47-.37a3.39,3.39,0,0,1-.06-.41c0-.27,0-.51,0-.74,0-1.23.15-1.63-.61-2.52l-.27-.1A7.16,7.16,0,0,1,72.75,72c-.19-.13-.9-.11-.87-.45,0-.13.33-.26.44-.31.58-.31,1.39,0,2.06-.07s.66-.49,1.1-.72a8.15,8.15,0,0,0,1.16-.54A1.54,1.54,0,0,0,78.06,69c.07-.24.18-.46.26-.67s.83-.28,1.09-.48A14.85,14.85,0,0,0,81,65.22c0-.32-.39-.62-.6-.83-.34-.36-.52-.52-1-.42a3.8,3.8,0,0,0-.13.51c0,.4,0,.82.07,1.25-.25.47-.49,1-.76,1.44-.39.28-1,.3-1.3.69-.23.23-.31.91-.62,1-.55.2-1.16.17-1.68.42l-.58.3c-.14.14-.28.26-.42.39-.3.12-.72,0-1,.25l-.21,0-.54,0-.22,0h0c-.08.09-.19.17-.28.28h-.06a.45.45,0,0,0-.11-.13c0,.39-1.3.16-1.58.13,0,.13-.81,0-.92,0s-.22-.06-.32-.08c-.32,0-.4.18-.72,0a4,4,0,0,0-1.21-.25h0c-.24-.07-.5-.12-.74-.17v0h0c0-.43-1.32-.29-1.62-.39,0,0,0,0,0,.08s-.32-.14-.47-.21a10.92,10.92,0,0,1-2-.71c-.13-.1-.24-.21-.36-.31a6.31,6.31,0,0,1-.87-.14v0c-.79,0-1.45-.51-2.24-.34a.75.75,0,0,1-.07-.12,2.68,2.68,0,0,1-2-.8l-.29,0-.35-.37a.75.75,0,0,0-.33,0c-.68,0-.83-.77-1.42-.94a5.7,5.7,0,0,0-1.63-1.12c-.07-.1-.16-.2-.23-.32a2.63,2.63,0,0,1-.63-1.56c0-.33-.46-.61-.62-.86s-.1-.48-.17-.71a4.42,4.42,0,0,1-.37-.92,5.67,5.67,0,0,1,.09-.86c0-.33-.13-.7,0-1.05s.67-.69.64-1.21c.11,0,.13-.35.13-.42a7.59,7.59,0,0,1,1.22-3.18c0-.07,0-.13,0-.22a.26.26,0,0,0,.13-.08c0-.41,1-1.17,1.31-1.31,0-.18,0-.27.17-.36a.3.3,0,0,0,.13-.12c.46-.3,1.27-1.51,1.59-1.59a1.28,1.28,0,0,0,.1-.17v0c.51-.1.9-.67,1.42-.64a3.14,3.14,0,0,1,.74-.44c0-.14.28-.26.38-.29s.84-.43,1-.59l.69.06v0l.31-.24,1.29-.24.95-.05c.34,0,.69-.13,1.06-.15s.44.07.68,0a1.89,1.89,0,0,0,1.21.22,16.74,16.74,0,0,0,4.1-.17,5.13,5.13,0,0,0,1.32-.85c.26-.17.47-.1.62-.43.09-.09.19-.15.28-.23s.33-.11.48-.25.26-.49.51-.7c.4-.3,1-.29,1.17-.87l.32-.13h0c0-.71,1.81-1.16,1.9-2.56.11,0,.25-.19.28-.26v-.06a1.91,1.91,0,0,0,.36-.13h0c.07-.09.13-.15.19-.24s0-.08.08-.12l.57-.31c.17-.21.33-.42.52-.63.35-.25.86-.37,1.1-.78.18-.07.35-.17.51-.24A3.77,3.77,0,0,1,81.17,38c.23-.12.5-.25.73-.35a5.11,5.11,0,0,0,2.46-.69,25.09,25.09,0,0,0,3.59.88h1.61a6.25,6.25,0,0,1,.69.41l1,.37c.24.16.51.31.74.48,0,0,0,0,.09.05.27.07.44.34.59.58l.11.27s0,0,0,.06v0l.85.51c.16.19.29.39.45.57s.58.35.82.57c.45.43.42,1.24,1.23,1.36l.43.41c.11,0,.54,1.48.9,1.67v0h0a1.42,1.42,0,0,0,.64,1.22c.17.09.3.09.43.27s0,.05,0,.08,0,0,0,0a2.84,2.84,0,0,0,.27.68v0c.72.35.72,1.48,1.47,2,0,.4.27.56.48.85l0,0a2.84,2.84,0,0,0,.39,1.1.13.13,0,0,0,.08,0s0,.07,0,.12c.2,0,.27,1.19.32,1.42h0l.09.06c.35.13.21.57.39.82a.43.43,0,0,1,0,.16,5.57,5.57,0,0,1,.21,1.63,9.41,9.41,0,0,1,.09,1.2,1,1,0,0,0-.09.21c.12.3.24.61.35.91v.1c.45,0,.41,1.29.48,1.6,0,0,0,.07-.08.12a3.77,3.77,0,0,1,0,.95"/><path class="cls-105" d="M74,52.91c-.08-.42-.41-.87-.33-1.34-.09,0-.12-.3-.09-.37s-1.06-.41-1.23-.45a1.59,1.59,0,0,0-.33.68l0,0s.08,0,.11.07,0,.27.08.39V54.3a.06.06,0,0,0,0,0c0,.62.64.9,1.09,1.1,1.28.6.83-1,.78-1.62v-.89"/><path class="cls-105" d="M101.89,58.06c0-.33,0-.68,0-1,0,0,0-.07-.08-.1-.36-1.13.32-3.25-1.17-3.57v.08h0a1.56,1.56,0,0,0-.85.27s0,0,0,.07c-.16.42-.58.39-.82.7s-.4.81-.6,1.21a8.83,8.83,0,0,1-1.48,1.57.06.06,0,0,0,0,0c.12-.27.24-.54.38-.79h-.07c0-.05,0-.1,0-.16h0a.43.43,0,0,0,0-.07c.25-.21,1.53-2.37.7-2.37h-.62c-.25,0-.52.45-.7.63,0,.26-.31.58-.48.72a.38.38,0,0,0,0,.12l-.39.48a.79.79,0,0,1,0,.09c-.07.42-.55.51-.79.78s-.11.64-.49.77a6.84,6.84,0,0,1-1.57,1.44v0c-.27,0-.94,1.94-1,2.24-.27,0-.72,1.6-.85,1.85a.7.7,0,0,1,0,.14,8.47,8.47,0,0,1-.47,1.14,3.31,3.31,0,0,1,0,.44A22.92,22.92,0,0,0,89.74,67c-.08.61.25,1.39.05,1.94,0,0,.31.53.39.73.16.45.24,1.12.63,1.45a4.67,4.67,0,0,0,2.25.25l.39-.12c.2,0,.32.13.55.07a.52.52,0,0,0,.13.06,3.77,3.77,0,0,0,1.58.08l1.36-.5,1-.06c.71-.1,1.31-1,1.49-1.58.27,0,.77-.88,1.16-.91,0,0,0,0,0,0a1.4,1.4,0,0,1,.16-.26c.43-.51.79-1.06.43-1.76-.09-.15-.23-.33-.15-.53,0,0,0-.06,0-.11,0-.39.15-.75.15-1.15a.73.73,0,0,0-.06-.21v0l-.13,0a.06.06,0,0,0,0,0,2.35,2.35,0,0,1,.07-.8,4.5,4.5,0,0,1,.25-.41,4.92,4.92,0,0,0,.15-1c0-.22.11-.41.18-.64,0-.61.07-1.22.1-1.84,0-.23-.12-.48-.19-.73a3.65,3.65,0,0,1,.12-.77"/><path class="cls-104" d="M92.76,67.17a.65.65,0,0,1-.15.12c0,.1-.06.18-.09.28h0l-.06,0a.32.32,0,0,1,0-.13,2.07,2.07,0,0,1,.23-1.15h.26v0s0,0,0,0a7.76,7.76,0,0,1-.15.84"/><path class="cls-104" d="M93.31,62.63c-.25.72-.37,1.54-.55,2.24h0c0-.22-.47-.27-.47-.6A3,3,0,0,1,92.69,63a4.3,4.3,0,0,0,.1-.72h.12c.27,0,.38-.64.54-.84l.41-.3.08,0a.27.27,0,0,0,0,.13,7.34,7.34,0,0,1-.65,1.35"/><path class="cls-104" d="M93.85,62v0h0a.64.64,0,0,1,.22-.41.43.43,0,0,0,0,.07,1.48,1.48,0,0,1-.23.3"/><path class="cls-104" d="M94.6,62.77a1.33,1.33,0,0,1,.58-1.1l.47-.12a.17.17,0,0,1,.1,0c0,.34-.85.88-1,1.19Z"/><path class="cls-104" d="M95.25,68.23c-.38.14-.48-.23-.54-.5a.54.54,0,0,0,.06-.11,10.9,10.9,0,0,1,.63-1.15l.44.19a1.5,1.5,0,0,1-.59,1.57"/><path class="cls-104" d="M96.66,60.66a.66.66,0,0,0-.12.17l-.08,0c-.31,0,.05-.29.05-.45l.15.09Z"/><path class="cls-104" d="M98.53,65.29c-.18.15-.44.21-.56.4-.11-.09-.23-.23-.33-.33a.34.34,0,0,1,0-.14,4.78,4.78,0,0,1,.45-1.4c.14,0,.27.11.42.15,0,0,0,0,0,0v0h0a.93.93,0,0,0,.23,0v0s0,0,0,.1c-.08.39.06.85-.24,1.14"/><path class="cls-104" d="M99.22,67.73a.89.89,0,0,0,0-.22c0-.38.55-.87.85-1.1.67.33-.65,1-.82,1.32"/><path class="cls-104" d="M100.21,59.8c0,.14,0,.2-.09.29v0c-.11.08-.23.14-.35.23h-.08a1.5,1.5,0,0,1,.31-1.09.43.43,0,0,1,.21.58"/><path class="cls-102" d="M41.54,110.57l2.11-1.92.63.69a3.72,3.72,0,0,1,.43.53.82.82,0,0,1,.06.49,1,1,0,0,1-.28.5,1,1,0,0,1-.41.23,1.46,1.46,0,0,1-.36,0,.83.83,0,0,1-.31-.12,3.4,3.4,0,0,1-.44-.43l-.25-.27-.79.71Zm2.14-1.16-.59.54.2.23a1.44,1.44,0,0,0,.35.3.3.3,0,0,0,.21,0,.51.51,0,0,0,.21-.1.45.45,0,0,0,.14-.25.46.46,0,0,0-.07-.26,3.42,3.42,0,0,1-.25-.31l-.2-.2"/><polygon class="cls-102" points="43.52 112.72 45.52 110.69 47.04 112.16 46.7 112.52 45.6 111.42 45.16 111.89 46.18 112.89 45.84 113.24 44.83 112.22 44.27 112.79 45.43 113.9 45.09 114.24 43.52 112.72"/><path class="cls-102" d="M47.59,116.44l-.47-.4.23-.67-.86-.74-.61.35-.45-.41,2.71-1.45.45.41Zm-.06-1.55.39-1.06-1,.56.6.5"/><polygon class="cls-102" points="48.05 116.81 49.77 114.52 50.23 114.86 50.01 117.1 51.17 115.56 51.6 115.89 49.88 118.19 49.42 117.81 49.62 115.65 48.48 117.13 48.05 116.81"/><path class="cls-102" d="M52.14,116.29l.49.31-.84,1.3a3.81,3.81,0,0,0-.26.42.52.52,0,0,0,0,.33.66.66,0,0,0,.27.29.55.55,0,0,0,.35.12.43.43,0,0,0,.28-.12,4.6,4.6,0,0,0,.27-.39l.87-1.32.5.32-.83,1.25a2.9,2.9,0,0,1-.45.59.73.73,0,0,1-.33.19,1.17,1.17,0,0,1-.42,0,2.06,2.06,0,0,1-.51-.24,1.69,1.69,0,0,1-.45-.42.67.67,0,0,1-.14-.39,1,1,0,0,1,0-.35,3,3,0,0,1,.37-.63Z"/><polygon class="cls-102" points="53.79 120.71 54.97 118.65 54.24 118.23 54.49 117.81 56.45 118.94 56.2 119.36 55.49 118.94 54.29 121 53.79 120.71"/><path class="cls-102" d="M55.87,120.81l.53.21a.52.52,0,0,0,0,.46.66.66,0,0,0,.3.32.74.74,0,0,0,.44.08.37.37,0,0,0,.24-.2.16.16,0,0,0,0-.15.29.29,0,0,0-.13-.22c-.05,0-.17-.16-.36-.31a1.78,1.78,0,0,1-.44-.55.75.75,0,0,1,0-.64.86.86,0,0,1,.3-.3.62.62,0,0,1,.44-.1,1.68,1.68,0,0,1,.55.15,1.3,1.3,0,0,1,.63.59.82.82,0,0,1,0,.68l-.52-.23a.47.47,0,0,0,0-.37.61.61,0,0,0-.28-.23.85.85,0,0,0-.41-.09A.22.22,0,0,0,57,120a.21.21,0,0,0,0,.19,1.65,1.65,0,0,0,.41.41,3.1,3.1,0,0,1,.45.47.76.76,0,0,1,0,.86.89.89,0,0,1-.32.35,1,1,0,0,1-.5.1,1.44,1.44,0,0,1-.59-.19,1.25,1.25,0,0,1-.63-.58,1.19,1.19,0,0,1,0-.83"/><path class="cls-102" d="M62.06,121.22a1.52,1.52,0,0,1,.7.51,1.61,1.61,0,0,1,.36.81,1.49,1.49,0,0,1-.09.89,1.7,1.7,0,0,1-.51.71,1.81,1.81,0,0,1-.81.36,1.69,1.69,0,0,1-.87-.09,2,2,0,0,1-.73-.52,1.7,1.7,0,0,1-.36-.82,1.91,1.91,0,0,1,.1-.86,1.62,1.62,0,0,1,.52-.73,1.58,1.58,0,0,1,.82-.35,1.82,1.82,0,0,1,.87.09m-.12.32a1.35,1.35,0,0,0-.7-.09,1.24,1.24,0,0,0-.65.29,1.49,1.49,0,0,0-.42.58,1.3,1.3,0,0,0-.07.71,1.1,1.1,0,0,0,.28.64,1.43,1.43,0,0,0,1.27.5,1.23,1.23,0,0,0,.65-.3,1.41,1.41,0,0,0,.42-.56,1.34,1.34,0,0,0,.08-.71,1.28,1.28,0,0,0-.29-.66,1.6,1.6,0,0,0-.57-.4m-.2,1.65.3.25a.83.83,0,0,1-.42.29.64.64,0,0,1-.49,0,.8.8,0,0,1-.5-.43,1.05,1.05,0,0,1,0-.74,1.3,1.3,0,0,1,.29-.44.61.61,0,0,1,.41-.2.82.82,0,0,1,.46,0,.79.79,0,0,1,.38.28.86.86,0,0,1,.11.5l-.36-.06a.69.69,0,0,0-.06-.28.41.41,0,0,0-.21-.14.5.5,0,0,0-.36,0,.71.71,0,0,0-.28.39.72.72,0,0,0,0,.51.32.32,0,0,0,.21.26.49.49,0,0,0,.27,0,.58.58,0,0,0,.27-.22"/><path class="cls-102" d="M64.88,122.5l.57.14L65,124.15a3.36,3.36,0,0,1-.12.46.41.41,0,0,0,.12.31.54.54,0,0,0,.34.22.71.71,0,0,0,.38,0,.43.43,0,0,0,.21-.21c0-.09.08-.23.15-.46l.42-1.52.56.15-.4,1.44c-.1.35-.18.57-.23.7a1.12,1.12,0,0,1-.27.3.83.83,0,0,1-.39.14,1.65,1.65,0,0,1-.55-.07,1.49,1.49,0,0,1-.58-.27.73.73,0,0,1-.25-.31.64.64,0,0,1-.07-.37,3.62,3.62,0,0,1,.15-.71Z"/><path class="cls-102" d="M69,126.47l-.53-.12.21-1a1.41,1.41,0,0,0,.06-.41.44.44,0,0,0-.07-.19.59.59,0,0,0-.17-.1.66.66,0,0,0-.28,0,.34.34,0,0,0-.19.16,2.62,2.62,0,0,0-.14.46l-.21.92-.54-.12.44-2,.51.1-.08.3a.84.84,0,0,1,.74-.2.86.86,0,0,1,.32.12.58.58,0,0,1,.18.23.52.52,0,0,1,.07.25,1.74,1.74,0,0,1-.06.36Z"/><path class="cls-102" d="M69.82,126.62l.36-2.05.54.09-.35,2.06Zm.41-2.32.09-.51.53.1-.09.5-.53-.09"/><path class="cls-102" d="M72.4,124.9l-.07.44-.38,0-.1.81a1.09,1.09,0,0,0,0,.31s0,0,0,.06a.09.09,0,0,0,.08,0,.87.87,0,0,0,.23,0v.42a1.13,1.13,0,0,1-.45,0,.84.84,0,0,1-.24-.07.48.48,0,0,1-.16-.16.51.51,0,0,1,0-.22c0-.07,0-.2,0-.39l.13-.9-.27,0,.07-.43.26,0,0-.41.6-.23-.1.72Z"/><path class="cls-102" d="M74,126.52l.54.13a.84.84,0,0,1-.36.42,1.14,1.14,0,0,1-.58.11,1,1,0,0,1-.78-.41,1.28,1.28,0,0,1-.12-.76,1.11,1.11,0,0,1,.34-.77.91.91,0,0,1,.71-.22.89.89,0,0,1,.68.38,1.32,1.32,0,0,1,.16.95l-1.36-.12a.54.54,0,0,0,.1.37.39.39,0,0,0,.31.17.31.31,0,0,0,.21,0,.45.45,0,0,0,.15-.21m.08-.56a.49.49,0,0,0-.08-.37.34.34,0,0,0-.25-.14.38.38,0,0,0-.33.08.51.51,0,0,0-.14.35l.8.08"/><path class="cls-102" d="M77.12,127.36l-.51,0V127a.94.94,0,0,1-.32.26,1,1,0,0,1-.35.06.84.84,0,0,1-.59-.32,1.16,1.16,0,0,1-.21-.81,1,1,0,0,1,.29-.78.74.74,0,0,1,.63-.25.76.76,0,0,1,.58.3l0-1,.56,0Zm-1.41-1.13a.77.77,0,0,0,.07.46.38.38,0,0,0,.35.24.4.4,0,0,0,.34-.15.69.69,0,0,0,.14-.47.75.75,0,0,0-.1-.52.43.43,0,0,0-.32-.17.42.42,0,0,0-.33.14.62.62,0,0,0-.15.47"/><polygon class="cls-102" points="79.28 127.37 79.18 124.51 81.14 124.45 81.16 124.92 79.77 124.97 79.79 125.66 81 125.62 81 126.1 79.8 126.14 79.86 127.36 79.28 127.37"/><path class="cls-102" d="M83.12,126.48l.54.06a1,1,0,0,1-.29.49,1,1,0,0,1-.55.18.91.91,0,0,1-.82-.27,1,1,0,0,1-.26-.7,1.11,1.11,0,0,1,.18-.81.85.85,0,0,1,.65-.35,1,1,0,0,1,.76.23,1.37,1.37,0,0,1,.33.92l-1.36.11a.6.6,0,0,0,.16.38.55.55,0,0,0,.34.1.37.37,0,0,0,.2-.09,1,1,0,0,0,.12-.25m0-.54a.46.46,0,0,0-.15-.35.31.31,0,0,0-.29-.1.32.32,0,0,0-.28.16.42.42,0,0,0-.08.34l.8,0"/><path class="cls-102" d="M84.67,125.53l-.51,0a.74.74,0,0,1,.24-.48.92.92,0,0,1,.57-.23,2.34,2.34,0,0,1,.56,0,.45.45,0,0,1,.27.2,1.6,1.6,0,0,1,.14.44l.07.66c0,.17.07.31.09.39a1.08,1.08,0,0,0,.15.27l-.55.07a1.11,1.11,0,0,1-.08-.16s0-.05,0-.06a.89.89,0,0,1-.25.26,1.1,1.1,0,0,1-.34.1.74.74,0,0,1-.52-.09.59.59,0,0,1-.24-.42.56.56,0,0,1,0-.32.66.66,0,0,1,.2-.24,1.28,1.28,0,0,1,.42-.19,2.66,2.66,0,0,0,.51-.2l0-.07a.26.26,0,0,0-.1-.2.47.47,0,0,0-.3,0,.61.61,0,0,0-.23.09.38.38,0,0,0-.09.22m.78.33a1.71,1.71,0,0,1-.33.13,1,1,0,0,0-.27.15.29.29,0,0,0-.09.2.47.47,0,0,0,.12.18.27.27,0,0,0,.23.06.47.47,0,0,0,.27-.14c.05-.07.1-.11.1-.2a.41.41,0,0,0,0-.26v-.12"/><path class="cls-102" d="M87.47,124.44l.09.42-.38.06.14.83c.05.17.06.26.08.29s0,0,.07.06h.09a.71.71,0,0,0,.2-.1l.12.42a1.25,1.25,0,0,1-.41.16h-.28a.33.33,0,0,1-.18-.11c-.06,0-.08-.11-.12-.18a1.75,1.75,0,0,1-.09-.38l-.16-.9-.25.06-.08-.43.25-.05-.08-.4.49-.43.13.73Z"/><path class="cls-102" d="M89.82,126l-.08-.29a1.18,1.18,0,0,1-.23.32.72.72,0,0,1-.35.17.9.9,0,0,1-.4,0,.53.53,0,0,1-.29-.2.86.86,0,0,1-.16-.42L88,124.34l.54-.13.22.94a2.17,2.17,0,0,0,.14.51.36.36,0,0,0,.14.13.37.37,0,0,0,.21,0,.54.54,0,0,0,.23-.11.68.68,0,0,0,.11-.23,2.35,2.35,0,0,0-.09-.55l-.19-.86.53-.12.47,2Z"/><path class="cls-102" d="M91.6,125.59l-.52.13-.55-2,.49-.15.07.31a.93.93,0,0,1,.15-.33.41.41,0,0,1,.2-.13.81.81,0,0,1,.38,0l0,.52a.47.47,0,0,0-.25,0,.31.31,0,0,0-.2.12.44.44,0,0,0-.06.24,3.56,3.56,0,0,0,.16.68Z"/><path class="cls-102" d="M93.78,124.24l.53-.1a.78.78,0,0,1-.16.53,1,1,0,0,1-.49.35.88.88,0,0,1-.87-.12,1.07,1.07,0,0,1-.42-.6,1.2,1.2,0,0,1,0-.84.82.82,0,0,1,.55-.49.88.88,0,0,1,.78.06,1.36,1.36,0,0,1,.54.82l-1.31.4a.57.57,0,0,0,.23.34.4.4,0,0,0,.35,0,.24.24,0,0,0,.19-.13.27.27,0,0,0,.06-.24m-.14-.54a.54.54,0,0,0-.23-.3.38.38,0,0,0-.31-.05.46.46,0,0,0-.25.22.5.5,0,0,0,0,.38l.79-.25"/><path class="cls-102" d="M96,123.15l.49-.28a.6.6,0,0,0,.8.28.67.67,0,0,0,.33-.28.31.31,0,0,0,0-.31.28.28,0,0,0-.12-.14.4.4,0,0,0-.23,0,2.78,2.78,0,0,0-.48.07,2,2,0,0,1-.72,0,.75.75,0,0,1-.46-.43.88.88,0,0,1-.05-.43.78.78,0,0,1,.23-.4,1.41,1.41,0,0,1,.47-.3,1.19,1.19,0,0,1,.82-.1.76.76,0,0,1,.52.48l-.52.22c-.08-.11-.16-.2-.27-.21a.64.64,0,0,0-.37,0,.77.77,0,0,0-.32.26.17.17,0,0,0,0,.19.27.27,0,0,0,.15.13,1.56,1.56,0,0,0,.56,0,2.83,2.83,0,0,1,.66,0,.79.79,0,0,1,.41.13.9.9,0,0,1,.27.38.87.87,0,0,1,.06.48.88.88,0,0,1-.23.45,1.4,1.4,0,0,1-.54.31,1.23,1.23,0,0,1-.86.11,1.15,1.15,0,0,1-.6-.54"/><path class="cls-102" d="M98,121l.52-.25,1.09,1.1-.22-1.54.51-.25.23,2.12,0,.38a1.28,1.28,0,0,1,0,.31.51.51,0,0,1-.06.21s-.1.11-.15.18a.8.8,0,0,1-.24.14.93.93,0,0,1-.29.12l-.23-.38.21-.07a.33.33,0,0,0,.21-.24.51.51,0,0,0,0-.3Z"/><path class="cls-102" d="M103,120.76l-.48.27-.51-.93a2.43,2.43,0,0,0-.25-.36.19.19,0,0,0-.16-.07.64.64,0,0,0-.2,0,.36.36,0,0,0-.18.21.31.31,0,0,0-.05.25,2.2,2.2,0,0,0,.2.44l.45.81-.46.26-1-1.8.44-.25.15.28a.82.82,0,0,1,.42-.64.59.59,0,0,1,.32-.11,1.1,1.1,0,0,1,.28,0,.82.82,0,0,1,.22.16c0,.06.1.18.2.31Z"/><path class="cls-102" d="M105.34,119.33l-.43.28-.18-.26a.64.64,0,0,1-.09.37.68.68,0,0,1-.26.27.69.69,0,0,1-.66.07,1,1,0,0,1-.63-.52,1.14,1.14,0,0,1-.24-.82.75.75,0,0,1,.4-.56.71.71,0,0,1,.65-.08l-.54-.86.44-.3Zm-1.82-.14c.13.2.23.32.35.36a.45.45,0,0,0,.42,0,.48.48,0,0,0,.19-.3.82.82,0,0,0-.15-.5.79.79,0,0,0-.38-.36.41.41,0,0,0-.56.35.67.67,0,0,0,.13.45"/><path class="cls-102" d="M104.66,117l-.28-.42.46-.33.28.42Zm1.35,1.92-1.17-1.7.44-.3,1.17,1.69-.44.31"/><path class="cls-102" d="M107.69,115.85l-.38.39a.47.47,0,0,0-.25-.11.43.43,0,0,0-.23.08.41.41,0,0,0-.18.32.69.69,0,0,0,.18.45.87.87,0,0,0,.42.34.49.49,0,0,0,.36-.08.4.4,0,0,0,.15-.22.78.78,0,0,0-.07-.33l.47-.25a1,1,0,0,1,.09.64,1.12,1.12,0,0,1-.41.54.86.86,0,0,1-.74.19,1,1,0,0,1-.69-.47,1.06,1.06,0,0,1-.27-.79.94.94,0,0,1,.42-.67.92.92,0,0,1,.59-.23.88.88,0,0,1,.54.2"/><path class="cls-102" d="M108.5,115.23l-.46.24A.8.8,0,0,1,108,115a1.08,1.08,0,0,1,.37-.51,1.33,1.33,0,0,1,.48-.27.65.65,0,0,1,.34,0,1.59,1.59,0,0,1,.35.33l.43.49a1.62,1.62,0,0,0,.26.29,2.14,2.14,0,0,0,.27.16l-.43.34s-.07,0-.14-.09,0,0-.07,0a1,1,0,0,1-.09.35.57.57,0,0,1-.23.26.6.6,0,0,1-.48.19.51.51,0,0,1-.42-.22.43.43,0,0,1-.13-.29.5.5,0,0,1,0-.3,1.61,1.61,0,0,1,.26-.38,2.11,2.11,0,0,0,.3-.45l0,0a.26.26,0,0,0-.2-.12.47.47,0,0,0-.27.13.41.41,0,0,0-.13.2.31.31,0,0,0,0,.24m.84-.14a3.29,3.29,0,0,1-.21.28,2,2,0,0,0-.16.27.21.21,0,0,0,0,.22.25.25,0,0,0,.19.09.47.47,0,0,0,.21-.07.39.39,0,0,0,.16-.26.33.33,0,0,0,0-.22c0-.05-.08-.12-.16-.21l-.07-.1"/><path class="cls-102" d="M110.3,112.82l.28.32-.27.24.57.64a1.1,1.1,0,0,0,.2.2s0,0,.08,0a.11.11,0,0,0,.09,0,1.1,1.1,0,0,0,.14-.17l.32.28a1.49,1.49,0,0,1-.28.34,1,1,0,0,1-.23.15.45.45,0,0,1-.22,0,.78.78,0,0,1-.21-.12s-.12-.13-.26-.27l-.6-.67-.19.16-.3-.31.19-.17-.27-.32.19-.59.49.55Z"/><path class="cls-102" d="M112.54,112.6l.45-.3a.84.84,0,0,1,.1.55.94.94,0,0,1-.3.5.9.9,0,0,1-.81.31,1.14,1.14,0,0,1-.66-.37,1.18,1.18,0,0,1-.38-.75.9.9,0,0,1,.3-.68.89.89,0,0,1,.73-.3,1.44,1.44,0,0,1,.83.49l-1,1a.51.51,0,0,0,.35.17.41.41,0,0,0,.34-.12.32.32,0,0,0,.09-.21.48.48,0,0,0-.07-.25m-.36-.42a.62.62,0,0,0-.34-.16.37.37,0,0,0-.41.41.43.43,0,0,0,.17.33l.58-.58"/><path class="cls-102" d="M113.5,111.79l.36-.39.3.26a1.1,1.1,0,0,1,.24.29.5.5,0,0,1,.07.27.83.83,0,0,1-.07.34l-.23-.08a.48.48,0,0,0,0-.29.38.38,0,0,0-.12-.21l-.2.18Z"/><polygon class="cls-102" points="115.73 110.15 113.53 108.29 113.9 107.86 116.09 109.7 115.73 110.15"/><path class="cls-102" d="M117.76,107.59l-.34.44-.84-.66a1.23,1.23,0,0,0-.36-.21.25.25,0,0,0-.19,0,.36.36,0,0,0-.17.11.44.44,0,0,0-.08.25.3.3,0,0,0,.07.24,1.05,1.05,0,0,0,.34.32l.75.58-.34.44L115,107.82l.3-.4.25.19a.82.82,0,0,1,.13-.76,1.09,1.09,0,0,1,.26-.22.46.46,0,0,1,.26-.08.48.48,0,0,1,.26.07,1.84,1.84,0,0,1,.31.19Z"/><path class="cls-102" d="M118.07,104.6l-.23.5a.56.56,0,0,0-.27,0,.54.54,0,0,0-.21.16.51.51,0,0,0-.07.37.85.85,0,0,0,.32.37,1,1,0,0,0,.51.19.36.36,0,0,0,.3-.19.32.32,0,0,0,.07-.26.36.36,0,0,0-.17-.27l.4-.41a1.12,1.12,0,0,1,.28.58,1.15,1.15,0,0,1-.22.64,1,1,0,0,1-.65.43,1.11,1.11,0,0,1-.81-.24,1,1,0,0,1-.48-.67A.9.9,0,0,1,117,105a.92.92,0,0,1,.48-.4,1,1,0,0,1,.58,0"/><polygon class="cls-102" points="119.58 104.86 119.13 104.58 119.43 104.13 119.87 104.4 119.58 104.86"/><path class="cls-106" d="M121.61,112.44a54.94,54.94,0,1,1-9.17-77.16,54.91,54.91,0,0,1,9.17,77.16"/><path class="cls-106" d="M24.42,112.82A64.78,64.78,0,0,0,134.17,44"/><path class="cls-104" d="M34,114.53a2,2,0,0,1,.48,1.71.7.7,0,0,1,.47-.17.49.49,0,0,1,.35.25c.28.33.28.6,0,.82a2.42,2.42,0,0,1-.34.26,3.17,3.17,0,0,0-.36.25,1,1,0,0,0-.2.17,1,1,0,0,1-.21.18l0,0c-.3.26-.61.2-.89-.15a.58.58,0,0,1,0-.82l.12-.19c.27-.32.22-.74-.16-1.21s-.7-.55-1-.29a.52.52,0,0,0-.22.41,5.74,5.74,0,0,0,.39.88,3.92,3.92,0,0,1,.55,1.88,1.73,1.73,0,0,1-.7,1.3,2.14,2.14,0,0,1-1.71.5,2.61,2.61,0,0,1-1.6-1,2.86,2.86,0,0,1-.58-1.73.52.52,0,0,1-.79-.12.57.57,0,0,1,.09-.91,3.74,3.74,0,0,1,.36-.25c.19-.13.32-.2.41-.28l.24-.23c.12-.09.19-.2.24-.22a.54.54,0,0,1,.47-.1.88.88,0,0,1,.49.32.74.74,0,0,1,.21.53,1.12,1.12,0,0,1-.35.56c-.33.37-.29.83.15,1.35a1.08,1.08,0,0,0,.58.41.63.63,0,0,0,.55-.15.54.54,0,0,0,.24-.48,3.29,3.29,0,0,0-.39-1l-.28-.62a2.21,2.21,0,0,1-.2-.86,1.69,1.69,0,0,1,.69-1.46,1.9,1.9,0,0,1,1.53-.46A2.35,2.35,0,0,1,34,114.53Z"/><path class="cls-104" d="M35.92,123.73,35,122.8c-.28-.26-.57-.23-.89.09-.08.08-.08.14,0,.23l.11.09c.07.06.11.07.13.1.18.17.14.39-.15.68a.78.78,0,0,1-.48.25.58.58,0,0,1-.45-.16,3.12,3.12,0,0,1-.41-.5,2.26,2.26,0,0,0-.39-.43c-.19-.19-.35-.33-.47-.43-.28-.2-.44-.34-.5-.38a.81.81,0,0,1-.24-.5.75.75,0,0,1,.21-.49c.34-.32.62-.36.87-.11a.76.76,0,0,1,.13.13.43.43,0,0,1,.13.16.36.36,0,0,0,.37,0,2.07,2.07,0,0,0,.36-.15L37,119.58a1.47,1.47,0,0,1,1-.2,2,2,0,0,1,.77.58,3,3,0,0,1,.68.81,1,1,0,0,1-.13.67l-2.09,3.93c-.16.32-.2.51-.09.61s.07.06.17.12l.07.09c.26.25.24.54,0,.85a.85.85,0,0,1-.53.24.76.76,0,0,1-.51-.23l-.24-.27a1.75,1.75,0,0,0-.23-.3,2.38,2.38,0,0,0-.39-.41,4.44,4.44,0,0,0-.37-.35,3,3,0,0,1-.5-.39.56.56,0,0,1-.2-.45.92.92,0,0,1,.25-.49c.27-.28.5-.32.68-.15,0,0,.06.06.09.12l.11.12a.19.19,0,0,0,.27,0,.93.93,0,0,0,.23-.4A.32.32,0,0,0,35.92,123.73Zm.89-1.09s0,0,.06-.1L38,120.76,36,121.83a.1.1,0,0,0-.06,0c-.06.05,0,.14.09.25l.44.44c.13.13.22.15.3.07Z"/><path class="cls-104" d="M41.29,128.13c-.15-.11-.27-.09-.4.07l-.18.26c-.14.18-.14.32,0,.44a1.21,1.21,0,0,1,.26.16l.32.19a.62.62,0,0,1,.21.39.81.81,0,0,1-.18.46.7.7,0,0,1-.48.29.69.69,0,0,1-.54-.14c-.15-.12-.36-.29-.62-.54a7.6,7.6,0,0,0-.63-.54,4.94,4.94,0,0,0-.58-.42l-.43-.26a1.84,1.84,0,0,1-.23-.15.69.69,0,0,1-.28-.46.8.8,0,0,1,.16-.54.67.67,0,0,1,.4-.29.6.6,0,0,1,.44.09,1,1,0,0,1,.17.18c.08.08.13.12.16.16s.37,0,.63-.37l1.67-2.21a1.13,1.13,0,0,0,.24-.31c.07-.16.06-.29,0-.37l-.21-.11A1.19,1.19,0,0,1,41,124a.43.43,0,0,1-.18-.39.62.62,0,0,1,.15-.46.7.7,0,0,1,.48-.3A.79.79,0,0,1,42,123s0,0,0,0h0c.13.11.31.27.55.5a6.73,6.73,0,0,0,.55.48c.25.2.55.4.86.6l.68.44a2.47,2.47,0,0,1,1,1.55,2.08,2.08,0,0,1-.45,1.7,2,2,0,0,1-1.54.89,2.67,2.67,0,0,1-1.87-.66,3.65,3.65,0,0,1-.31-.23Zm.81-1.51a.78.78,0,0,0-.16.31s.05.12.16.23l.11.08c.61.51,1.12.51,1.52,0a.89.89,0,0,0-.27-1.39.83.83,0,0,0-.3-.19.27.27,0,0,0-.32.06.91.91,0,0,0-.18.22Z"/><path class="cls-104" d="M47.2,132.12c-.16-.09-.28,0-.38.13l-.16.27a.26.26,0,0,0,.09.42s.16.08.26.14a2.75,2.75,0,0,1,.33.15.57.57,0,0,1,.25.35.73.73,0,0,1-.12.5.79.79,0,0,1-.43.35.77.77,0,0,1-.55-.09,7.07,7.07,0,0,1-.69-.48c-.29-.2-.52-.38-.68-.46l-.62-.35-.46-.21a.92.92,0,0,1-.24-.11.69.69,0,0,1-.35-.44.82.82,0,0,1,.11-.55.72.72,0,0,1,.39-.32.46.46,0,0,1,.41,0,.67.67,0,0,1,.19.16.68.68,0,0,0,.19.13c.16.1.35,0,.58-.44l1.41-2.36a1.23,1.23,0,0,0,.19-.35c.06-.18,0-.29-.07-.35a.65.65,0,0,0-.22-.1l-.24-.08a.5.5,0,0,1-.22-.37.75.75,0,0,1,.55-.84.77.77,0,0,1,.55.09h0s0,0,0,0,.34.22.6.42.46.32.61.42.58.34.92.5l.74.36a2.47,2.47,0,0,1,1.18,1.43,2.11,2.11,0,0,1-.24,1.73,2.08,2.08,0,0,1-1.44,1.06,2.57,2.57,0,0,1-1.92-.45,2.05,2.05,0,0,1-.34-.17Zm.63-1.58a.54.54,0,0,0-.13.31c0,.06.07.14.17.22l.15.08c.65.43,1.15.38,1.5-.21a.9.9,0,0,0-.42-1.36.76.76,0,0,0-.32-.16.33.33,0,0,0-.33.09,2.7,2.7,0,0,0-.16.26Z"/><path class="cls-104" d="M52.53,137.59a2.9,2.9,0,0,1-1.75-1.8,4.47,4.47,0,0,1,2.12-4.7,3,3,0,0,1,2.44.09A3.05,3.05,0,0,1,57.12,133a3.55,3.55,0,0,1-.28,2.65A3.81,3.81,0,0,1,55,137.69,2.85,2.85,0,0,1,52.53,137.59Zm2.3-5.12c-.78-.35-1.47.11-2,1.39a3.38,3.38,0,0,0-.39,1.48,1,1,0,0,0,.7,1c.78.37,1.44-.09,2-1.35a3.65,3.65,0,0,0,.4-1.61A1,1,0,0,0,54.83,132.47Z"/><path class="cls-104" d="M64.09,136.34a1.2,1.2,0,0,1-.82.9,2.56,2.56,0,0,1-1,.06,1.48,1.48,0,0,1,.82.71,1.12,1.12,0,0,1,0,.94c0,.12-.07.23-.11.34a.65.65,0,0,0,0,.1c-.1.27-.05.42.09.48l.19,0,.19,0a.48.48,0,0,1,.27.3.81.81,0,0,1,0,.49.77.77,0,0,1-.35.45.81.81,0,0,1-.56,0c-.06,0-.17-.08-.32-.13a1.91,1.91,0,0,0-.29-.13l-.36-.09a1.39,1.39,0,0,1-.34-.07.67.67,0,0,1-.47-.47,1.47,1.47,0,0,1,0-.83s0-.05.06-.05l.17-.55a.2.2,0,0,1,0-.08.82.82,0,0,0,0-.75,1.63,1.63,0,0,0-.84-.5c-.18,0-.31,0-.38.05a.89.89,0,0,0-.16.33l-.06.24c-.13.41-.13.66,0,.71a1.26,1.26,0,0,0,.22,0,.55.55,0,0,1,.21,0,.41.41,0,0,1,.28.28.69.69,0,0,1,0,.49.62.62,0,0,1-.87.48,2.86,2.86,0,0,1-.63-.25c-.24-.1-.44-.18-.65-.25a6.46,6.46,0,0,0-.72-.17,6.52,6.52,0,0,1-.69-.16.64.64,0,0,1-.47-.92.86.86,0,0,1,.28-.4.51.51,0,0,1,.43-.06,1.78,1.78,0,0,1,.23.1.5.5,0,0,0,.2.09c.18.06.34-.13.46-.55L59,135a2.07,2.07,0,0,0,.09-.41c0-.17,0-.27-.15-.31l-.24,0a.38.38,0,0,1-.24-.06.4.4,0,0,1-.31-.29.69.69,0,0,1,0-.49.73.73,0,0,1,.34-.46.61.61,0,0,1,.53,0l.09,0,.65.28c.19.09.39.15.61.23a14.53,14.53,0,0,0,1.44.37c.38.1.67.19.86.23A2.38,2.38,0,0,1,64,135a1.67,1.67,0,0,1,.13,1.39ZM62.25,136c.13-.42-.09-.74-.67-.93a1.65,1.65,0,0,0-.51-.1c-.16,0-.28.13-.34.35l-.19.56a.44.44,0,0,0,0,.32c0,.07.12.11.25.15.82.26,1.31.13,1.47-.35Z"/><path class="cls-104" d="M67.24,142.2a3,3,0,0,1-2.15-1.31,4.55,4.55,0,0,1,1-5.08,2.91,2.91,0,0,1,2.41-.49,3.06,3.06,0,0,1,2.15,1.34,3.58,3.58,0,0,1,.36,2.63,3.84,3.84,0,0,1-1.29,2.43A2.8,2.8,0,0,1,67.24,142.2Zm1-5.5c-.84-.16-1.39.45-1.67,1.85a3.87,3.87,0,0,0,0,1.51,1.11,1.11,0,0,0,.92.78c.84.16,1.39-.42,1.64-1.77a3.28,3.28,0,0,0,0-1.69A1.06,1.06,0,0,0,68.25,136.7Z"/><path class="cls-104" d="M72.4,142.89a1,1,0,0,1-.64-1,1.07,1.07,0,0,1,.35-.69.9.9,0,0,1,.7-.22,1.11,1.11,0,0,1,.79.49,1.53,1.53,0,0,1,.21,1,3.85,3.85,0,0,1-1.31,2.4.87.87,0,0,1-.51.28.35.35,0,0,1-.33-.44.93.93,0,0,1,.27-.53,2.53,2.53,0,0,0,.67-1.07c0-.08,0-.16-.2-.21Z"/><path class="cls-104" d="M80.86,138s0,.11,0,.33l0,.7L83,139l0-.69c0-.22,0-.34,0-.35s-.09-.21-.21-.19h-.2c-.28,0-.45-.18-.46-.58a.69.69,0,0,1,.18-.54.53.53,0,0,1,.45-.21c.14,0,.34,0,.61,0a4.94,4.94,0,0,0,1.24,0c.45-.07.67-.08.67-.08a.63.63,0,0,1,.51.17.76.76,0,0,1,.23.5.73.73,0,0,1-.15.5.42.42,0,0,1-.38.19,1.11,1.11,0,0,1-.23,0,.73.73,0,0,0-.25,0c-.12,0-.21.08-.24.26v.41l.12,2.76c0,.46.12.67.28.67a.68.68,0,0,0,.25-.07c.12,0,.19,0,.23,0a.49.49,0,0,1,.41.17.83.83,0,0,1,0,1,.66.66,0,0,1-.5.23h-.09a3.36,3.36,0,0,1-.59,0c-.27,0-.49,0-.61,0a2.43,2.43,0,0,0-.66.08c-.28,0-.47.07-.57.08a.66.66,0,0,1-.49-.17.82.82,0,0,1-.2-.52c0-.41.11-.63.4-.63h.22c.11,0,.16-.08.17-.24s0-.18,0-.33l0-1-2.07.08,0,1a2.06,2.06,0,0,0,0,.33c0,.16.08.24.21.22h.2c.29,0,.44.17.47.57a.86.86,0,0,1-.16.55.68.68,0,0,1-.46.21,2.88,2.88,0,0,1-.56,0,2.33,2.33,0,0,0-.56,0,5,5,0,0,0-.74.07,4,4,0,0,1-.67.09.61.61,0,0,1-.51-.18.59.59,0,0,1-.22-.52.6.6,0,0,1,.13-.46.52.52,0,0,1,.39-.22l.24,0,.23,0c.18,0,.25-.24.24-.7l-.13-2.76c0-.45-.11-.65-.29-.65a.91.91,0,0,0-.23,0,1,1,0,0,1-.25.05.48.48,0,0,1-.39-.18.83.83,0,0,1-.17-.45.69.69,0,0,1,.17-.55.73.73,0,0,1,.51-.22,4.45,4.45,0,0,1,.64.05h.73a2,2,0,0,0,.56-.08,3.87,3.87,0,0,1,.57-.08.5.5,0,0,1,.48.19.92.92,0,0,1,.22.52c0,.37-.14.6-.42.61h-.2c-.11,0-.18.09-.19.23Z"/><path class="cls-104" d="M90.34,142.42a2.89,2.89,0,0,1-2.46-.52,3.76,3.76,0,0,1-1.25-2.41,3.58,3.58,0,0,1,.38-2.65,2.78,2.78,0,0,1,2-1.31,3.13,3.13,0,0,1,2.5.48,3.7,3.7,0,0,1,1.27,2.36,3.92,3.92,0,0,1-.36,2.72A3,3,0,0,1,90.34,142.42Zm-1-5.54c-.86.15-1.17.91-.91,2.3a3.31,3.31,0,0,0,.51,1.44,1.08,1.08,0,0,0,1.11.43c.84-.15,1.16-.89.92-2.26a3.13,3.13,0,0,0-.58-1.56A1,1,0,0,0,89.37,136.88Z"/><path class="cls-104" d="M95.76,135.71l.11.33.32,1,1-1.71c.16-.27.24-.44.22-.54a.31.31,0,0,0-.08-.1s-.09,0-.16-.05a.43.43,0,0,1-.28-.29.46.46,0,0,1,0-.46.87.87,0,0,1,.4-.31l.54-.09.55-.11a4.34,4.34,0,0,0,.52-.22,1.49,1.49,0,0,1,.41-.17.62.62,0,0,1,.55,0,.81.81,0,0,1,.34.44.92.92,0,0,1,0,.52.5.5,0,0,1-.3.29.46.46,0,0,1-.2,0,.54.54,0,0,0-.19,0c-.08,0-.18.1-.27.24l-.13.19-.69,1.09c-.14.23-.2.38-.17.44s.07.11.17.23l.38.35,1,.94c.38.35.64.51.78.47a.7.7,0,0,0,.19-.1l.2-.1c.35-.1.59.07.72.48a.77.77,0,0,1,0,.56.63.63,0,0,1-.44.34c-.12,0-.27.06-.44.1a5.4,5.4,0,0,0-.7.14c-.1,0-.26.1-.47.2s-.4.17-.5.22a.86.86,0,0,1-.48,0,.67.67,0,0,1-.29-.33.66.66,0,0,1,.15-.53.27.27,0,0,0,0-.24.85.85,0,0,0-.25-.33l-.79-.73c-.15-.16-.27-.24-.32-.22s-.07,0-.09.07l-.08.12-.41.64.1.32c.06.21.1.33.1.33s.15.17.25.14h0l.06,0,.09,0c.27-.07.47.09.59.49a.72.72,0,0,1,0,.54.73.73,0,0,1-.41.34,2.25,2.25,0,0,1-.41.07,3.22,3.22,0,0,0-.4.09l-.34.07-.62.24a6.61,6.61,0,0,1-.62.25.73.73,0,0,1-.56,0,.72.72,0,0,1-.33-.45.82.82,0,0,1,0-.49.55.55,0,0,1,.33-.3l.24,0H95c.17-.08.19-.31,0-.76l-.79-2.62a1.06,1.06,0,0,0-.15-.38c-.07-.16-.17-.22-.31-.18l-.2.09a1.29,1.29,0,0,1-.23.12.54.54,0,0,1-.43-.08.63.63,0,0,1-.27-.4.65.65,0,0,1,0-.58.66.66,0,0,1,.43-.32c.15,0,.36-.1.67-.16l.67-.14a5.18,5.18,0,0,0,.51-.22l.56-.22a.6.6,0,0,1,.49.07.72.72,0,0,1,.35.44c.1.4,0,.62-.27.71l-.08,0-.1,0c-.1,0-.15.11-.14.25Z"/><path class="cls-104" d="M103.25,133s.06.12.15.33l.45,1,.76-1.81a.94.94,0,0,0,.12-.58.16.16,0,0,0-.09-.09l-.16,0a.51.51,0,0,1-.33-.24.53.53,0,0,1,0-.46.66.66,0,0,1,.35-.35l.53-.18a3.31,3.31,0,0,0,.52-.18,4.9,4.9,0,0,0,.51-.3c.12-.09.26-.16.35-.22a.77.77,0,0,1,.57,0,.59.59,0,0,1,.38.36.82.82,0,0,1,.07.52.53.53,0,0,1-.24.35.69.69,0,0,1-.2,0,.43.43,0,0,0-.19.05.66.66,0,0,0-.24.3l-.11.19-.52,1.19c-.11.23-.15.39-.12.45s.09.1.22.19l.42.3,1.14.8c.42.31.7.41.85.35a1.24,1.24,0,0,0,.16-.12.4.4,0,0,1,.2-.11c.31-.16.58,0,.76.36a.72.72,0,0,1,0,.57.76.76,0,0,1-.39.4l-.43.15c-.26.07-.47.16-.66.23a3.1,3.1,0,0,0-.48.28c-.19.13-.35.2-.45.26a1,1,0,0,1-.47,0,.53.53,0,0,1-.33-.29.59.59,0,0,1,.06-.52c.06-.12.07-.2,0-.26a1,1,0,0,0-.31-.29l-.85-.63c-.2-.13-.32-.2-.36-.15a.08.08,0,0,0-.08.07l-.06.13-.32.68.14.32a2.52,2.52,0,0,0,.14.29c.08.13.18.16.27.11h0l.06,0a.29.29,0,0,1,.08,0c.26-.12.48,0,.66.37a.72.72,0,0,1,0,.57.5.5,0,0,1-.35.36,1,1,0,0,1-.39.15c-.2.07-.34.1-.39.13a2.37,2.37,0,0,0-.34.13c-.13.07-.33.17-.58.33l-.57.32a.68.68,0,0,1-.54,0,.63.63,0,0,1-.42-.38.71.71,0,0,1,0-.49.46.46,0,0,1,.29-.34.8.8,0,0,1,.22-.07,1.18,1.18,0,0,0,.23-.08c.16-.06.14-.31,0-.7l-1.15-2.53a1.9,1.9,0,0,0-.2-.36c-.09-.15-.21-.19-.32-.12l-.21.12a.57.57,0,0,1-.2.13.42.42,0,0,1-.42,0,.65.65,0,0,1-.35-.36.69.69,0,0,1,0-.58.72.72,0,0,1,.38-.37,4.49,4.49,0,0,1,.64-.25,4,4,0,0,0,.63-.23,3.24,3.24,0,0,0,.51-.29,4.58,4.58,0,0,1,.5-.27.63.63,0,0,1,.52,0,.78.78,0,0,1,.39.41c.16.36.11.6-.16.74h-.07l-.12,0a.21.21,0,0,0-.09.27Z"/><path class="cls-104" d="M113.23,131.1l-1.12.73c-.31.2-.35.49-.09.87,0,.1.13.12.23,0l.1-.08a1,1,0,0,1,.13-.11c.2-.14.41,0,.61.29a.68.68,0,0,1,.15.53.6.6,0,0,1-.26.42,4,4,0,0,1-.57.27c-.11.06-.28.16-.5.31a3.69,3.69,0,0,0-.52.36l-.49.41a.7.7,0,0,1-.52.1.67.67,0,0,1-.45-.31c-.25-.37-.21-.66.07-.87,0,0,.11,0,.18-.08s.13-.07.16-.1a.4.4,0,0,0,.15-.35c0-.05-.06-.16-.1-.37l-1-4a1.56,1.56,0,0,1,0-1,2.67,2.67,0,0,1,.74-.6,2.9,2.9,0,0,1,.94-.48c.17,0,.37.06.64.29l3.36,2.84c.28.25.46.32.58.25s.09-.06.16-.13l.08-.07c.31-.21.6-.12.83.25a.65.65,0,0,1,.12.56.64.64,0,0,1-.32.44,1.88,1.88,0,0,1-.33.18,2.33,2.33,0,0,0-.33.15l-.48.3a4.21,4.21,0,0,0-.43.29,3.19,3.19,0,0,1-.49.42.5.5,0,0,1-.47.06.66.66,0,0,1-.43-.34c-.21-.32-.22-.53,0-.69l.13-.07a.32.32,0,0,0,.13-.06c.12-.07.12-.16,0-.28a.74.74,0,0,0-.34-.32A.36.36,0,0,0,113.23,131.1Zm-.86-1.1a.38.38,0,0,1-.08-.09l-1.52-1.45.63,2.1a.11.11,0,0,0,0,.08c0,.06.13,0,.28,0l.51-.34c.15-.1.19-.17.15-.26Z"/><path class="cls-104" d="M117.61,129c.11-.1.11-.22,0-.38s-.12-.15-.23-.33l-1.71-2.16a1.77,1.77,0,0,0-.28-.32c-.13-.12-.24-.13-.35,0s-.1.09-.17.18l-.16.17a.53.53,0,0,1-.42.09.8.8,0,0,1-.43-.28.76.76,0,0,1-.16-.53.73.73,0,0,1,.3-.48c.06,0,.26-.17.57-.38a5.47,5.47,0,0,0,.61-.42c.13-.1.32-.29.59-.53a3.76,3.76,0,0,1,.52-.45.62.62,0,0,1,1,.11.69.69,0,0,1,.17.45.42.42,0,0,1-.19.39.38.38,0,0,1-.21.12l-.2.13c-.14.11-.07.34.19.69l1.71,2.17c.28.36.48.48.63.36a.59.59,0,0,0,.15-.16c.08-.09.16-.13.18-.19a.51.51,0,0,1,.42-.07.66.66,0,0,1,.42.26.77.77,0,0,1,.16.54.67.67,0,0,1-.25.48s0,0-.08,0l-.54.32a2.08,2.08,0,0,0-.43.3,7.85,7.85,0,0,0-.71.63,7.23,7.23,0,0,1-.57.52.66.66,0,0,1-.52.16.76.76,0,0,1-.5-.29.72.72,0,0,1-.16-.47.44.44,0,0,1,.19-.39.49.49,0,0,1,.22-.11Z"/><path class="cls-104" d="M121.57,125.82c.13-.12,0-.35-.27-.67l-1.92-2c-.3-.31-.53-.41-.65-.3s-.09.1-.15.2a1.15,1.15,0,0,0-.16.2.49.49,0,0,1-.39.13.81.81,0,0,1-.46-.23.76.76,0,0,1-.21-.55.68.68,0,0,1,.23-.47,5.33,5.33,0,0,1,.56-.45c.17-.15.34-.27.5-.42s.2-.2.38-.43l.49-.55.39-.39a2.69,2.69,0,0,1,2.92-.7,4.25,4.25,0,0,1,1.6,1,4,4,0,0,1,.94,1.6,2.67,2.67,0,0,1,0,1.65,2.7,2.7,0,0,1-.82,1.28c-.15.14-.31.28-.44.38l-.55.46a6.52,6.52,0,0,0-.86.86l-.27.31-.2.23a.72.72,0,0,1-.51.2.62.62,0,0,1-.5-.23.68.68,0,0,1-.23-.45.59.59,0,0,1,.15-.41s.12-.08.2-.15A.46.46,0,0,0,121.57,125.82Zm-.59-5a1.22,1.22,0,0,0-.42.27.71.71,0,0,0-.24.39c0,.11.05.24.2.39l2.18,2.26a.6.6,0,0,0,.36.22.74.74,0,0,0,.42-.23,1.47,1.47,0,0,0,.38-1,2.17,2.17,0,0,0-.72-1.47,2.56,2.56,0,0,0-1.55-.9,1.63,1.63,0,0,0-.61.09Z"/><path class="cls-104" d="M129.61,119.46a3,3,0,0,1-2.19,1.25,3.66,3.66,0,0,1-2.54-1,3.73,3.73,0,0,1-1.47-2.27,3,3,0,0,1,.71-2.34,3.13,3.13,0,0,1,2.19-1.24,3.53,3.53,0,0,1,2.5.94,3.76,3.76,0,0,1,1.52,2.31A2.83,2.83,0,0,1,129.61,119.46Zm-4.36-3.54c-.54.67-.28,1.45.82,2.35a3,3,0,0,0,1.32.74,1.07,1.07,0,0,0,1.12-.4q.83-1-.78-2.31a3.32,3.32,0,0,0-1.47-.8A1,1,0,0,0,125.25,115.92Z"/><path class="cls-104" d="M132.32,40.66a3.22,3.22,0,0,1,.56,2.72,1,1,0,0,1,.71-.24.78.78,0,0,1,.55.43c.39.55.35,1-.12,1.3-.11.07-.31.19-.58.33s-.47.28-.58.37a2,2,0,0,0-.32.24,1.44,1.44,0,0,1-.31.26l-.07,0c-.49.35-.95.23-1.34-.35a.92.92,0,0,1,0-1.28l.22-.26c.47-.5.42-1.14-.12-1.93s-1-.89-1.52-.56a.74.74,0,0,0-.37.62,6.28,6.28,0,0,0,.5,1.42,6.18,6.18,0,0,1,.66,3A2.72,2.72,0,0,1,129,48.69a3.34,3.34,0,0,1-2.72.58,3.72,3.72,0,0,1-2.38-1.67,4.21,4.21,0,0,1-.7-2.73.84.84,0,0,1-1.25-.28.88.88,0,0,1,.25-1.39,4.75,4.75,0,0,1,.6-.35,4.82,4.82,0,0,0,.64-.37l.43-.35a2,2,0,0,1,.41-.32.74.74,0,0,1,.72-.1,1.25,1.25,0,0,1,.7.54,1.21,1.21,0,0,1,.27.85,1.76,1.76,0,0,1-.56.84c-.58.54-.56,1.23.06,2.11a1.63,1.63,0,0,0,.84.68,1,1,0,0,0,.88-.15.87.87,0,0,0,.43-.72,6.77,6.77,0,0,0-.48-1.63l-.38-1a3.48,3.48,0,0,1-.22-1.35,2.66,2.66,0,0,1,1.21-2.21,3.08,3.08,0,0,1,2.46-.55A3.49,3.49,0,0,1,132.32,40.66Z"/><path class="cls-104" d="M135.75,52.88l-1,.42,1.25,3,1-.43c.3-.11.46-.2.49-.21.19-.12.25-.25.19-.39a1.57,1.57,0,0,1-.07-.18l-.07-.13c-.16-.42,0-.75.61-1a1.24,1.24,0,0,1,.86-.06,1.05,1.05,0,0,1,.59.58,8,8,0,0,1,.27.89c.11.42.2.71.27.9s.27.55.47.9c.34.62.49.94.49.93a1,1,0,0,1,0,.85,1.15,1.15,0,0,1-.66.6,1.06,1.06,0,0,1-.74,0,.76.76,0,0,1-.52-.41,2.28,2.28,0,0,1-.1-.38,1.66,1.66,0,0,0-.09-.37c-.07-.19-.26-.25-.5-.21a3.61,3.61,0,0,0-.63.21l-3.94,1.67c-.66.28-.94.52-.82.79a1.76,1.76,0,0,0,.2.33l.2.31a.79.79,0,0,1-.05.67,1,1,0,0,1-.58.51,1.11,1.11,0,0,1-.87.05,1,1,0,0,1-.61-.61.15.15,0,0,0,0-.06s0,0,0-.07a6.53,6.53,0,0,1-.31-.89,9.06,9.06,0,0,0-.27-.9,6.84,6.84,0,0,0-.47-.91,6.08,6.08,0,0,1-.44-.8,1,1,0,0,1,0-.8,1.17,1.17,0,0,1,.65-.58c.59-.24,1-.16,1.13.25l.07.15,0,.1a.41.41,0,0,1,0,.07c.06.14.23.19.44.14l.49-.18,1.4-.6-1.26-3-1.4.59a5,5,0,0,0-.51.21.3.3,0,0,0-.17.4.21.21,0,0,0,0,.07l0,.09s0,.06,0,.13q.27.63-.6,1a1.18,1.18,0,0,1-.88,0,.92.92,0,0,1-.58-.56c-.06-.16-.14-.44-.24-.8s-.19-.64-.25-.82a10.77,10.77,0,0,0-.52-1.07,7,7,0,0,1-.49-.9,1,1,0,0,1,0-.85,1.24,1.24,0,0,1,1.42-.67.77.77,0,0,1,.51.45,2.83,2.83,0,0,1,.09.37,1.42,1.42,0,0,0,.08.34c.11.28.49.26,1.13,0l4-1.67c.63-.26.9-.54.79-.78a1,1,0,0,0-.2-.31l-.19-.33a.76.76,0,0,1,.06-.67,1,1,0,0,1,.57-.49,1.18,1.18,0,0,1,.9-.05,1.06,1.06,0,0,1,.58.61,9.14,9.14,0,0,1,.29,1,8.55,8.55,0,0,0,.38,1,3.84,3.84,0,0,0,.41.81,4.13,4.13,0,0,1,.43.78,1,1,0,0,1,0,.81,1.25,1.25,0,0,1-.66.57c-.56.23-.94.16-1.11-.28l-.06-.12a.59.59,0,0,1-.05-.17.33.33,0,0,0-.43-.14Z"/><path class="cls-104" d="M132.62,69a4.61,4.61,0,0,1,.77-3.84,6.88,6.88,0,0,1,7.89-1.41,4.37,4.37,0,0,1,2,3.21,4.83,4.83,0,0,1-.74,3.87,5.59,5.59,0,0,1-3.64,2,5.94,5.94,0,0,1-4.25-.55A4.53,4.53,0,0,1,132.62,69Zm8.58-1.55q-.36-2-3.58-1.41a4.9,4.9,0,0,0-2.22.8,1.64,1.64,0,0,0-.65,1.74c.24,1.3,1.39,1.77,3.48,1.4a5,5,0,0,0,2.45-.91A1.61,1.61,0,0,0,141.2,67.47Z"/><path class="cls-104" d="M137.15,79.9c0-.28-.13-.42-.44-.42h-.48c-.35,0-.54.14-.54.45,0,.13,0,.29,0,.48a2,2,0,0,1,.05.56.71.71,0,0,1-.3.61,1,1,0,0,1-.74.22,1.07,1.07,0,0,1-.81-.32,1.16,1.16,0,0,1-.3-.81c0-.29.06-.73.12-1.31s.09-1,.1-1.26c0-.47,0-.81,0-1.13l-.06-.76a3.94,3.94,0,0,1,0-.42,1,1,0,0,1,.31-.78,1.11,1.11,0,0,1,.83-.29,1,1,0,0,1,.72.26.75.75,0,0,1,.28.61,2.05,2.05,0,0,1-.06.39,1.3,1.3,0,0,0,0,.33c0,.29.34.44,1,.45l4.29.09a5.16,5.16,0,0,0,.64,0c.28,0,.41-.18.41-.39a2.06,2.06,0,0,0-.05-.35,1.77,1.77,0,0,1,0-.38.79.79,0,0,1,.32-.61,1.1,1.1,0,0,1,.74-.2,1.13,1.13,0,0,1,.81.3,1.15,1.15,0,0,1,.31.83v0a.08.08,0,0,0,0,.06c0,.25-.05.62-.11,1.13s-.09.89-.09,1.15c0,.5,0,1,0,1.63a11.7,11.7,0,0,1,.06,1.27,3.91,3.91,0,0,1-1,2.71,3.61,3.61,0,0,1-5.1-.13,4.3,4.3,0,0,1-.86-3v-1Zm2.65-.35a1.61,1.61,0,0,0-.55,0c-.07.05-.11.2-.12.42v.26c-.1,1.22.36,1.83,1.41,1.84s1.51-.51,1.52-1.61a2,2,0,0,0,0-.54.44.44,0,0,0-.37-.36,4.41,4.41,0,0,0-.47,0Z"/><path class="cls-104" d="M190.12,69.72a10.9,10.9,0,0,0-.64-2.5l3.51-.56a18.33,18.33,0,0,0,.32,2.5l.42,2.31,5.61-.88a13.49,13.49,0,0,0,2.55-.58l.56,3.19a21.58,21.58,0,0,0-2.55.34l-5.61.88.8,4.36,6.25-1a23,23,0,0,0,2.76-.62l.58,3.19a6.43,6.43,0,0,0-1.22.14,1.79,1.79,0,0,0-.42,0l-1.07.16-6.32,1,1,5.15a14.48,14.48,0,0,0,.63,2.74l-3.56.64a19.34,19.34,0,0,0-.34-2.79l-1-5.24-6.56,1a21.57,21.57,0,0,0-2.71.58l-.54-3.26a16,16,0,0,0,2.82-.27l6.46-1-.8-4.35-4.94.77a25.62,25.62,0,0,0-2.92.61L182.65,73a25.41,25.41,0,0,0,2.93-.29l4.94-.77Z"/><path class="cls-104" d="M214.61,73.49a8.18,8.18,0,0,0-.5-2l3.16-.48a10.08,10.08,0,0,0,.27,2l.4,2,7.94-1.33a6.71,6.71,0,0,0,1.76-.45L229.5,75a6.34,6.34,0,0,0-.67,1.28,15.11,15.11,0,0,1-5.23,6.91,7.66,7.66,0,0,0-2.47-1.89,12.53,12.53,0,0,0,4.51-4.75,7.42,7.42,0,0,1-1,.18l-6.25,1,1.89,9.83a10.27,10.27,0,0,0,.51,2.15l-3.33.59a11,11,0,0,0-.21-2.15l-1.81-9.92-2.28.38a13.34,13.34,0,0,0-2.34.58l-.56-3a14.92,14.92,0,0,0,2.53-.24l2.2-.37Z"/><path class="cls-104" d="M257.05,75.62a11.22,11.22,0,0,0-.75,1.67,18.74,18.74,0,0,1-6.16,9,23.78,23.78,0,0,1-7,3.62,9.26,9.26,0,0,0-2.07-3.09,17.26,17.26,0,0,0,7.39-3.5,13.82,13.82,0,0,0,4.28-6.22H239.83a26.64,26.64,0,0,0-3.41.13V74a19,19,0,0,0,3.46.18h12.65a12,12,0,0,0,3-.23Zm-18.37-8.06a15.06,15.06,0,0,0,3.11.19h9.28a15.06,15.06,0,0,0,3.11-.19v3.27a21.58,21.58,0,0,0-3.06-.13h-9.38a21.58,21.58,0,0,0-3.06.13Z"/><path class="cls-104" d="M283.13,71.44a5.13,5.13,0,0,0-.66,1.6A27.51,27.51,0,0,1,277,83.3a26.87,26.87,0,0,1-9.46,6.75,8.12,8.12,0,0,0-2.26-2.79,23.78,23.78,0,0,0,5.82-3.14,21.06,21.06,0,0,0,7.76-11.21l-8,.13a25.86,25.86,0,0,1-6.22,6.8,7,7,0,0,0-2.57-2.28A20.48,20.48,0,0,0,269,69.85a10,10,0,0,0,1.36-3.51l3.64.72a6.11,6.11,0,0,0-.46.82,5.94,5.94,0,0,0-.34.75l-.35.69a7.24,7.24,0,0,1-.42.85c.34,0,.77,0,1.27,0l5.82-.08a4.73,4.73,0,0,0,1.94-.27Z"/><path class="cls-104" d="M309.78,71.15a4.62,4.62,0,0,0-.82,1.78,44.44,44.44,0,0,1-3.41,7.31c-2.71,4.41-6.45,7.55-12.11,10.15a8.5,8.5,0,0,0-2.21-2.74A26.76,26.76,0,0,0,296.41,85a19,19,0,0,0,4.36-3.7,30.1,30.1,0,0,0-5.45-3.8l2-2.36a34,34,0,0,1,5.34,3.56,25.12,25.12,0,0,0,3-6.27l-8.26.08a27.76,27.76,0,0,1-6.22,7.15,8.46,8.46,0,0,0-2.66-2.13A22.93,22.93,0,0,0,295.19,70a16.19,16.19,0,0,0,1.54-3.7l3.46.77a12,12,0,0,0-.8,1.49,14.17,14.17,0,0,1-.64,1.28c.43-.06.43-.06,6.91-.11a7,7,0,0,0,2.34-.32Z"/><path class="cls-104" d="M314.9,76.41a26,26,0,0,0,4.31.19h14.16a26,26,0,0,0,4.31-.19v3.7a27.86,27.86,0,0,0-4.34-.14H319.23a27.7,27.7,0,0,0-4.33.14Z"/><path class="cls-104" d="M344.34,73.78a37.57,37.57,0,0,1,7.07,3.62l-1.65,3a31.36,31.36,0,0,0-7.2-3.91Zm-1.2,11.91A24.49,24.49,0,0,0,350.82,84a16.13,16.13,0,0,0,7.68-5.85,19.34,19.34,0,0,0,3.08-5.87,13.86,13.86,0,0,0,2.77,2.37,23.07,23.07,0,0,1-4,6.72c-3.37,3.88-7.89,6.24-14.43,7.55a16.18,16.18,0,0,0-1.86.42Zm3.24-18.34a42.62,42.62,0,0,1,7.07,3.43l-1.7,2.92A31,31,0,0,0,344.66,70Z"/><path class="cls-104" d="M373.75,88.88a16.92,16.92,0,0,0-2.39.1V86a11.48,11.48,0,0,0,2.39.19H384v-4H374.7a17.1,17.1,0,0,0-2.39.1V79.42a12.24,12.24,0,0,0,2.39.18H384V75.91H374a19.28,19.28,0,0,0-2.39.1v-3a11.6,11.6,0,0,0,2.39.19h10.47a23.5,23.5,0,0,0,2.48-.1c-.06.95-.08,1.62-.08,2.79V88.11a13.48,13.48,0,0,0,.1,2h-3.05V88.88Z"/><path class="cls-104" d="M399.78,73.17a30.63,30.63,0,0,1,2.61,6.3l-3,1A26.54,26.54,0,0,0,397,74Zm15.26.19a5.52,5.52,0,0,0-.38,1.35A22.64,22.64,0,0,1,411,83.56c-2,2.69-4.18,4.41-8.11,6.41a9.66,9.66,0,0,0-2.12-2.63,17.24,17.24,0,0,0,4.51-2.45c3.11-2.26,4.89-5,6-9.22a11.93,11.93,0,0,0,.47-3.06Zm-9.6-1.28A25.88,25.88,0,0,1,408,78.19l-2.95.93a28.75,28.75,0,0,0-2.42-6.24Z"/><path class="cls-104" d="M437.78,69.13c.79,0,1.11,0,1.56,0a3.19,3.19,0,1,1,2.56,3c-2.16,8.69-6.86,14.11-15.26,17.62a9.73,9.73,0,0,0-2.34-3.16c7.36-2.29,12.17-7.23,13.87-14.3H425.53a19.37,19.37,0,0,0-3.35.16V69a18.21,18.21,0,0,0,3.4.18Zm2.89-.08a1.74,1.74,0,1,0,3.48,0,1.74,1.74,0,0,0-3.48,0Z"/><path class="cls-104" d="M461.13,78.51c0-.13.05-1.48.08-1.91a16.14,16.14,0,0,1-2.71,3.72,37.07,37.07,0,0,1-5.24,4.62,36.06,36.06,0,0,1-3.93,2.45,7.77,7.77,0,0,0-2.21-2.77,28.05,28.05,0,0,0,8.37-5.76,24.76,24.76,0,0,0,3.56-4.39h-7.28a27.24,27.24,0,0,0-3.27.14V71.36a15.18,15.18,0,0,0,3.35.19h9.2l0-2.12a21.3,21.3,0,0,0-.13-2.45h3.51a16.9,16.9,0,0,0-.11,2.26v.16l0,2.15H467a14.94,14.94,0,0,0,3.13-.19v3.22a27,27,0,0,0-3.05-.11h-2.74l.13,12.33c0,1.31.08,2.32.16,3.06h-3.61a17.72,17.72,0,0,0,.16-2.55v-.48l-.08-7.94Z"/><path class="cls-104" d="M474.3,76.41a25.89,25.89,0,0,0,4.31.19h14.16a25.82,25.82,0,0,0,4.3-.19v3.7a27.62,27.62,0,0,0-4.33-.14H478.63a27.7,27.7,0,0,0-4.33.14Z"/><path class="cls-104" d="M517.48,69.13c.79,0,1.11,0,1.56,0a3.07,3.07,0,1,1,3.06,3.06,3.34,3.34,0,0,1-.51-.06c-2.15,8.69-6.85,14.11-15.25,17.62A9.73,9.73,0,0,0,504,86.54c7.36-2.29,12.17-7.23,13.87-14.3H505.23a19.37,19.37,0,0,0-3.35.16V69a18.21,18.21,0,0,0,3.4.18Zm2.89-.08a1.74,1.74,0,1,0,3.48,0,1.74,1.74,0,0,0-3.48,0Z"/><path class="cls-104" d="M527.78,83a18.38,18.38,0,0,0,3.4.19h15.25a18.5,18.5,0,0,0,3.41-.19v3.56a27.84,27.84,0,0,0-3.35-.13H531.13a27.73,27.73,0,0,0-3.35.13Zm2.68-12.94a16.48,16.48,0,0,0,3.14.19H544a16.48,16.48,0,0,0,3.14-.19V73.6a22.15,22.15,0,0,0-3.11-.14h-10.5a22.15,22.15,0,0,0-3.11.14Z"/><path class="cls-104" d="M555.3,85.26a25.31,25.31,0,0,0,7.87-2,17.85,17.85,0,0,0,7.89-6.51,22.33,22.33,0,0,0,2.71-5.32,11.52,11.52,0,0,0,2.82,2.61c-2.26,4.86-4.79,8-8.43,10.41a28.67,28.67,0,0,1-10.12,4,9.42,9.42,0,0,0-1.75.45Zm2.26-16.5a38.05,38.05,0,0,1,6.86,5.13l-2.29,2.9a27.74,27.74,0,0,0-6.77-5.4Z"/><path class="cls-104" d="M601.35,72a5.4,5.4,0,0,0-.67,1.59c-1.56,4.73-2.84,7.1-5.34,10a26.7,26.7,0,0,1-9.46,6.72,8.8,8.8,0,0,0-2.26-2.79A21.38,21.38,0,0,0,597.2,73.2l-8,.1A26.27,26.27,0,0,1,583,80.13a7,7,0,0,0-2.57-2.28,21,21,0,0,0,6.88-7.71,9.87,9.87,0,0,0,1.35-3.53l3.65.74a3,3,0,0,0-.46.8c-.21.48-.45,1-.71,1.54a3.26,3.26,0,0,0-.19.37l-.21.4c.32,0,.74,0,1.27,0l5.82-.08c.72,0,1.17,0,1.38,0A16.63,16.63,0,0,0,597.26,67l2-.66a16.73,16.73,0,0,1,2.37,4.2l-1.15.42ZM603.07,70a18.41,18.41,0,0,0-2.28-4.12l1.91-.67a15.56,15.56,0,0,1,2.34,4Z"/></g></g></svg>